<?xml version="1.0" encoding="utf-8"?>
<!-- Generator: Adobe Illustrator 18.1.1, SVG Export Plug-In . SVG Version: 6.00 Build 0)  -->
<svg version="1.1" id="Layer_1" xmlns="http://www.w3.org/2000/svg" xmlns:xlink="http://www.w3.org/1999/xlink" x="0px" y="0px"
	 viewBox="0 0 120 120" enable-background="new 0 0 120 120" xml:space="preserve">
<g>
	<path fill="#FFFFFF" d="M55.8,61.7c9.8,1.1,19.8,5.7,30,13.7V37.1c-10.3,8.1-20.3,12.7-30,13.8V61.7z"/>
	<path fill="#FFFFFF" d="M60.5,0c-33.1,0-60,26.9-60,60s26.9,60,60,60s60-26.9,60-60S93.6,0,60.5,0z M94.3,59.9
		c-1,1-2.2,1.5-3.5,1.5v15.4c0,1.4-0.5,2.6-1.5,3.6c-1,1-2.2,1.5-3.5,1.5C74.9,72.7,64.3,67.6,54,66.7c-1.5,0.5-2.7,1.4-3.6,2.7
		c-0.9,1.3-1.3,2.6-1.2,4c0.1,1.4,0.6,2.7,1.6,3.7c-0.5,0.9-0.8,1.8-0.9,2.6c-0.1,0.9,0,1.6,0.2,2.3c0.2,0.7,0.7,1.4,1.3,2.2
		c0.6,0.8,1.3,1.5,1.9,2c0.6,0.6,1.4,1.2,2.4,2c-0.8,1.6-2.2,2.7-4.4,3.3s-4.3,0.8-6.6,0.5c-2.2-0.4-4-1.1-5.2-2.2
		c-0.2-0.6-0.6-1.8-1.2-3.5c-0.6-1.7-1-3-1.2-3.8c-0.2-0.8-0.5-2-0.9-3.6c-0.4-1.6-0.5-2.9-0.6-4.1s0-2.4,0.1-4
		c0.1-1.5,0.4-3,0.9-4.4H32c-1.7,0-3.2-0.6-4.4-1.9c-1.2-1.3-1.8-2.8-1.8-4.5v-7.7c0-1.8,0.6-3.3,1.8-4.5c1.2-1.3,2.7-1.9,4.4-1.9
		h18.8c11.3,0,23-5.1,35-15.4c1.4,0,2.5,0.5,3.5,1.5c1,1,1.5,2.2,1.5,3.6v15.4c1.4,0,2.6,0.5,3.5,1.5c1,1,1.5,2.2,1.5,3.6
		C95.8,57.7,95.3,58.9,94.3,59.9z"/>
</g>
</svg>
