<?xml version="1.0" encoding="utf-8"?>
<!-- Generator: Adobe Illustrator 18.1.1, SVG Export Plug-In . SVG Version: 6.00 Build 0)  -->
<svg version="1.1" id="Layer_1" xmlns="http://www.w3.org/2000/svg" xmlns:xlink="http://www.w3.org/1999/xlink" x="0px" y="0px"
	 viewBox="0 0 1080 600" enable-background="new 0 0 1080 600" xml:space="preserve">
<g>
	<g>
		<g>
			<defs>
				<rect id="SVGID_1_" x="784.1" y="235.3" width="337.2" height="364.4"/>
			</defs>
			<clipPath id="SVGID_2_">
				<use xlink:href="#SVGID_1_"  overflow="visible"/>
			</clipPath>
			<g clip-path="url(#SVGID_2_)">
				<g>
					<polygon fill="#EB2047" points="687.5,614.4 628.1,614.4 628.1,482.8 687.5,467.7 687.5,477.6 					"/>
				</g>
			</g>
		</g>
	</g>
	<rect x="371.2" y="-0.1" fill="#17B89E" width="338.3" height="600.1"/>
	<g>
		<g id="backs">
			<defs>
				<rect id="SVGID_3_" x="371.5" y="312.8" width="336.7" height="287.2"/>
			</defs>
			<clipPath id="SVGID_4_">
				<use xlink:href="#SVGID_3_"  overflow="visible"/>
			</clipPath>
			<g clip-path="url(#SVGID_4_)">
				<rect x="297.9" y="552.6" fill="#052743" width="419.2" height="47.4"/>
				<g>
					<g>
						<rect x="412.1" y="535.3" fill="#090E0A" width="125.1" height="19.6"/>
					</g>
					<polygon fill="#090E0A" points="647.5,553.2 690.8,561.3 618.4,560.1 515.2,554.9 518.8,550.1 596.6,546.8 					"/>
					<polygon fill="#2A60AD" points="406.8,553 496.2,556.9 496,548.7 406.8,548.7 					"/>
					<g>
						<path fill="#FFFFFF" d="M552.3,515.4l-3.3,1.9l-1.5,0.8l-5,2.8l2.5-72.8c0,0,0,0,0,0c0.1-0.2,0.8-1.3,2.5-1.3h0.1
							c1.9,0,2.5,1.1,2.5,1.1l1.6,60.6L552.3,515.4z"/>
						<path fill="#061638" d="M552.3,515.4l-3.3,1.9l-1.5,0.8v-71.3h0.1c1.9,0,2.5,1.1,2.5,1.1l1.6,60.6L552.3,515.4z"/>
						<path fill="#979797" d="M545.2,445.3l0-2c0,0,0.8-1.3,2.7-1.1s2.4,1.4,2.4,1.4l0,1.7c0,0-1-0.4-2.5-0.5
							C546.2,444.8,545.2,445.3,545.2,445.3z"/>
						<path fill="#FFFFFF" d="M555.6,437.6c-0.1,4.3-3.6,7.7-7.9,7.7c-4-0.1-7.3-3.2-7.6-7.1c0-0.2,0-0.5,0-0.8
							c0.1-4.3,3.6-7.7,7.9-7.7c4,0.1,7.3,3.2,7.6,7.1C555.6,437,555.6,437.3,555.6,437.6z"/>
						<path fill="#738EC0" d="M555.6,437.6c-0.1,4.3-3.6,7.7-7.9,7.7c-2.7,0-5-1.4-6.4-3.5c1.1,0.6,2.4,1,3.7,1
							c4.3,0.1,7.8-3.3,7.9-7.7c0-0.3,0-0.5,0-0.8c-0.1-1.3-0.6-2.5-1.2-3.6c2.2,1.2,3.7,3.5,3.9,6.1
							C555.6,437,555.6,437.3,555.6,437.6z"/>
						<polygon fill="#FFFFFF" points="548.4,424.1 546.6,424.1 547.6,386 548.5,386.1 548.4,423.4 						"/>
						<path fill="#061638" d="M548.4,423.4c-0.3,0.2-0.5,0.4-0.6,0.4c-0.3,0.1,0.2-31.2,0.3-37.8h0.3L548.4,423.4z"/>
						<path fill="#FFFFFF" d="M550.6,430.2c-0.8-0.3-1.7-0.5-2.6-0.5c-1.3,0-2.5,0.3-3.6,0.8l0.2-7c0,0,0,0,0,0
							c0.1-0.1,0.4-0.6,1-0.9c0,0,0.1,0,0.1,0c0.4-0.2,1.1-0.4,1.8-0.4c0.1,0,0.1,0,0.2,0c2,0.1,2.7,1.1,2.7,1.1l0.1,2.2l0.1,3l0,0
							v0.3L550.6,430.2z"/>
						<g>
							<path fill="#061638" d="M551.1,447c-0.1,0-0.2,0-0.3-0.1c-0.9-0.8-2-1.3-3.2-1.3c-1.2,0-2.2,0.4-3,1.2
								c-0.2,0.2-0.5,0.2-0.7,0c-0.2-0.2-0.2-0.5,0-0.7c1-1,2.3-1.5,3.7-1.5c0,0,0,0,0,0c1.4,0,2.8,0.6,3.8,1.6
								c0.2,0.2,0.2,0.5,0,0.7C551.3,446.9,551.2,447,551.1,447z"/>
						</g>
						<path fill="none" d="M544.1,423.2c2-2.1,5.4-2,7.6,0.2"/>
						<g>
							<path fill="#061638" d="M551.1,448.8c-0.1,0-0.2,0-0.3-0.1c-1.8-1.7-4.6-1.8-6.2-0.2c-0.2,0.2-0.5,0.2-0.7,0
								c-0.2-0.2-0.2-0.5,0-0.7c2-2,5.3-2,7.5,0.1c0.2,0.2,0.2,0.5,0,0.7C551.3,448.8,551.2,448.8,551.1,448.8z"/>
						</g>
						<path fill="none" d="M546.4,420.9c0,0,1.2-0.9,2.9,0.1"/>
						<g>
							<path fill="#061638" d="M549.3,418c-0.1,0-0.2,0-0.2-0.1c-1.4-0.8-2.4-0.1-2.4-0.1c-0.2,0.2-0.5,0.1-0.7-0.1
								c-0.2-0.2-0.1-0.5,0.1-0.7c0.1,0,1.5-1.1,3.4,0c0.2,0.1,0.3,0.4,0.2,0.7C549.7,417.9,549.5,418,549.3,418z"/>
						</g>
						<g>
							<path fill="#061638" d="M548.9,406.6c-0.1,0-0.2,0-0.2-0.1c-0.9-0.5-1.6-0.1-1.6-0.1c-0.2,0.2-0.5,0.1-0.7-0.1
								c-0.2-0.2-0.1-0.5,0.1-0.7c0,0,1.1-0.8,2.6,0c0.2,0.1,0.3,0.4,0.2,0.7C549.2,406.5,549.1,406.6,548.9,406.6z"/>
						</g>
						<g>
							<path fill="#061638" d="M549.1,398.8c-0.1,0-0.2,0-0.2-0.1c-1-0.5-1.6-0.1-1.6-0.1c-0.2,0.2-0.5,0.1-0.7-0.1
								c-0.2-0.2-0.1-0.5,0.1-0.7c0,0,1.1-0.8,2.6,0c0.2,0.1,0.3,0.4,0.2,0.6C549.4,398.7,549.2,398.8,549.1,398.8z"/>
						</g>
						<g>
							<path fill="#87D5EE" d="M550.6,430.2c-0.8-0.3-1.7-0.5-2.7-0.5c-1.3,0-2.5,0.3-3.6,0.8l0-0.9c1.1-0.5,2.3-0.8,3.6-0.8
								c0.9,0,1.8,0.2,2.6,0.5L550.6,430.2z"/>
						</g>
						<path fill="#061638" d="M550.6,430.2c-0.8-0.3-1.7-0.5-2.7-0.5c-1.3,0-2.5,0.3-3.6,0.8l0-0.9c1.1-0.5,2.3-0.8,3.6-0.8
							c0.9,0,1.8,0.2,2.6,0.5L550.6,430.2z"/>
					</g>
					<rect x="535.3" y="514.6" fill="#090E0A" width="58.3" height="11.3"/>
					<g>
						
							<line fill="none" stroke="#174888" stroke-width="1.9622" stroke-miterlimit="10" x1="415.8" y1="527.9" x2="504.6" y2="527.3"/>
						
							<line fill="none" stroke="#174888" stroke-width="1.9622" stroke-miterlimit="10" x1="426.4" y1="527.9" x2="426.2" y2="530.7"/>
						
							<line fill="none" stroke="#174888" stroke-width="1.9622" stroke-miterlimit="10" x1="440.1" y1="527.8" x2="439.8" y2="530.7"/>
						
							<line fill="none" stroke="#174888" stroke-width="1.9622" stroke-miterlimit="10" x1="447.7" y1="527.7" x2="447.4" y2="530.5"/>
						
							<line fill="none" stroke="#174888" stroke-width="1.9622" stroke-miterlimit="10" x1="455" y1="527.7" x2="454.7" y2="530.5"/>
						
							<line fill="none" stroke="#174888" stroke-width="1.9622" stroke-miterlimit="10" x1="462.4" y1="527.6" x2="462.1" y2="530.4"/>
						
							<line fill="none" stroke="#174888" stroke-width="1.9622" stroke-miterlimit="10" x1="469.5" y1="527.6" x2="469.2" y2="530.4"/>
						
							<line fill="none" stroke="#174888" stroke-width="1.9622" stroke-miterlimit="10" x1="495.7" y1="527.3" x2="495.4" y2="530.1"/>
					</g>
					<rect x="409" y="530.3" fill="#738EC0" width="128.2" height="5.7"/>
					<rect x="527.3" y="523.6" fill="#052743" width="50.3" height="11.2"/>
					<rect x="512.2" y="500.8" fill="#090E0A" width="38.3" height="15.6"/>
					<polygon fill="#2A60AD" points="586.9,532.8 582.2,549.3 574.7,549.6 574.3,549.6 573.9,549.6 571.3,549.8 554.2,550.5 
						551.2,550.6 543.5,551 543.5,532.5 					"/>
					<rect x="554.2" y="536.2" fill="#090E0A" width="17.2" height="1"/>
					<polygon fill="#090E0A" points="586.9,532.8 586,536.2 543.5,536.2 543.5,532.5 586.2,532.8 					"/>
					<rect x="575.6" y="488.9" fill="#090E0A" width="13.8" height="3.1"/>
					<polygon fill="#738EC0" points="590.7,492.5 590.7,517 577.8,518.8 567.4,497.8 563.4,489.7 					"/>
					<polygon fill="#052743" points="590.7,496.9 590.7,517 577.8,518.8 567.4,497.8 567.4,496.9 					"/>
					<path fill="#CCCBCB" d="M586,515.5v2.4l-1.3,0.2l-45.3,4.8l-3.4,0.4l0,0l-2.6,0.3c5-15.9,15.3-33.5,27-34
						C581.5,488.7,586,515.5,586,515.5z"/>
					<path fill="#CCCBCB" d="M586,515.5v2.4l-1.3,0.2l-45.3,4.8l-3.4,0.4l0,0l-2.6,0.3c5-15.9,14.1-33.5,27-34
						C582.2,488.8,586,515.5,586,515.5z"/>
					<path fill="#FFFFFF" d="M586,515.5v2.4l-1.3,0.2l-45.3,4.8l-3.4,0.4l0,0l-2.6,0.3c5-15.9,14.1-33.5,27-34
						C582.2,488.8,586,515.5,586,515.5z"/>
					<path fill="#090E0A" d="M560.7,490.9c-12.9,0.5-20.9,17.6-25.9,33.4l-0.8,0.1c5-15.9,13.1-33.1,26-33.6
						C561.2,490.8,561.7,490.9,560.7,490.9z"/>
					<path fill="#738EC0" d="M584.7,518.1c-5.8,0.6-11.5,1.2-17.2,1.8c-10.5,1.1-21,2.2-31.5,3.4c2.9-9,8.7-24.6,18-29.3
						c4.9-2.5,9.5-2.3,13.5-0.4C576,497.6,582.1,509.3,584.7,518.1z"/>
					<path fill="#090E0A" d="M562.2,492.2c-2,0.2-4,0.7-6.2,1.8c-9.2,4.7-14.9,20.1-17.9,29.1c-0.7,0.1-1.4,0.2-2.2,0.2
						c2.9-9,8.7-24.6,18-29.3C556.8,492.5,559.6,492,562.2,492.2z"/>
					<g>
						<g>
							<polygon fill="#061638" points="476.7,534.2 475.5,531.5 450.5,531.5 409,531.5 408.1,533.2 450.7,533.3 450.8,534.1 							
								"/>
						</g>
					</g>
					<polygon fill="#061638" points="647.5,395.2 737.1,428.9 737.1,512.9 647.5,501.2 					"/>
					<polygon fill="#052743" points="737.1,512.9 737.1,532.7 717.6,531.8 647.5,528.5 647.5,501.2 717.6,510.3 					"/>
					<polygon fill="#090E0A" points="582.2,533.8 582.2,552 647.5,553.2 647.5,528.5 					"/>
					<g>
						<polygon fill="#66C9D1" points="636.2,533.3 626.8,534.1 626.8,550.6 636.2,550.8 644.5,550.9 644.5,532.7 						"/>
					</g>
					<polygon fill="#090E0A" points="626.8,534.1 626.8,550.6 603,550.1 603,536 					"/>
					<polygon fill="#FFFFFF" points="644.5,532.7 644.5,550.9 640.4,550.8 640.4,533 					"/>
					<polygon fill="#090E0A" points="647.5,528.5 737.1,532.7 737.1,548.9 647.5,553.2 					"/>
					<polygon fill="#4E4F4F" points="733.4,536.2 733.4,545.4 652.9,549.3 651.2,549.3 651.2,532.4 652.9,532.4 					"/>
					<polygon fill="#738EC0" points="733.4,536.2 733.4,545.4 652.9,549.3 651.2,549.3 651.2,532.4 652.9,532.4 					"/>
					<polygon fill="#052743" points="733.4,536.2 733.4,536.9 651.2,533.1 651.2,532.4 652.9,532.4 					"/>
					<rect x="663.8" y="531.4" fill="#090E0A" width="2.6" height="18.4"/>
					<rect x="688.3" y="531.4" fill="#090E0A" width="2.6" height="18.4"/>
					<polygon fill="#090E0A" points="543.5,532.5 543.5,551 535.3,551 535.3,534.7 536.7,534.3 					"/>
					<polygon fill="#090E0A" points="586.2,532.8 586,533.5 543.5,533.5 543.5,532.5 					"/>
					<rect x="554.2" y="531.8" fill="#2A60AD" width="17.2" height="2.2"/>
					<polygon fill="#052743" points="536.7,534.3 536.7,551 535.3,551 535.3,534.7 					"/>
					<rect x="523.1" y="540.2" fill="#738EC0" width="14.1" height="1.2"/>
					<rect x="523.1" y="551" fill="#061638" width="12.2" height="2.1"/>
					<polygon fill="#052743" points="523.1,540.2 523.1,541.4 512.4,542.7 512.4,541.5 					"/>
					<polygon fill="#090E0A" points="523.1,541.4 523.1,542.7 516,543.5 516,542.3 					"/>
					<polygon fill="#2A60AD" points="523.1,542.7 523.1,551.4 516,552.2 516,543.5 					"/>
					<rect x="515.2" y="551" fill="#052743" width="7.9" height="2.1"/>
					<polygon fill="#738EC0" points="523.1,535.3 523.1,540.2 517.2,540.9 517.2,536 					"/>
					<rect x="523.1" y="542.7" fill="#052743" width="10.2" height="8.3"/>
					<rect x="525.1" y="541.7" fill="#090E0A" width="6.3" height="9.2"/>
					<rect x="523.1" y="535.3" fill="#052743" width="10.2" height="4.9"/>
					<polygon fill="#061638" points="533.3,535.3 526,540.2 533.3,540.2 					"/>
					<polygon fill="#FDD600" points="592.7,536.8 592.7,549.9 585.3,549.8 585.3,537.4 					"/>
					<polygon fill="#FDD600" points="603,536 603,550.1 600.5,550.1 599.4,550.1 593.6,549.9 593.6,536.8 599.4,536.3 600.5,536.2 
											"/>
					<polygon fill="#052743" points="554.2,536.2 554.2,550.5 551.2,550.6 551.2,536.2 					"/>
					<polygon fill="#090E0A" points="554.2,536.2 554.2,550.5 553.4,550.6 553.4,536.2 					"/>
					<polygon fill="#052743" points="574.3,536.2 574.3,549.6 571.3,549.8 571.3,536.2 					"/>
					<polygon fill="#FFFFFF" points="647.5,395.2 647.5,501.2 603.1,509.2 598.3,510 582.2,512.9 582.2,432.5 598.3,423.3 
						603.1,420.6 607.1,418.2 					"/>
					<polygon fill="#FFFFFF" points="644.5,498.7 602.5,506.2 597.8,507 585.3,509.2 585.3,434.2 599.8,426 604.6,423.2 
						644.5,400.4 					"/>
					<polygon fill="#FDD600" points="607.1,418.2 582.2,454.4 582.2,432.5 598.3,423.3 603.1,420.6 					"/>
					<polygon fill="#17B89E" points="647.5,418 603.1,509.2 647.5,501.2 					"/>
					<path fill="#FFFFFF" d="M604.1,422.3l-4.8,2.7l-15,8.6v76.7l13.7-2.4l4.8-0.8l42.8-7.6V398.7L604.1,422.3z M644.5,498.7
						l-42,7.5l-4.8,0.8l-12.5,2.2v-74.9l14.5-8.3l4.8-2.7l39.9-22.8V498.7z"/>
					<polygon fill="#052743" points="603.1,420.6 603.1,509.2 598.3,510 598.3,423.3 					"/>
					<polygon fill="#061638" points="604.1,419.7 604.1,420.1 600,422.4 600,509 599.4,509.1 599.4,422.4 					"/>
					<polygon fill="#738EC0" points="613.2,406.6 613.2,515.8 600.7,515.8 600.7,413.8 					"/>
					<polygon fill="#738EC0" points="613.2,406.6 613.2,515.8 600.7,515.8 600.7,413.8 					"/>
					<g>
						<g>
							<defs>
								<polygon id="SVGID_5_" points="613.2,406.6 613.2,515.8 600.7,515.8 600.7,413.8 								"/>
							</defs>
							<clipPath id="SVGID_6_">
								<use xlink:href="#SVGID_5_"  overflow="visible"/>
							</clipPath>
							<g clip-path="url(#SVGID_6_)">
								
									<line fill="none" stroke="#061638" stroke-width="0.6541" stroke-miterlimit="10" x1="596.2" y1="412.6" x2="617.9" y2="400.2"/>
								<line fill="none" stroke="#061638" stroke-width="0.6541" stroke-miterlimit="10" x1="596.1" y1="418" x2="618" y2="406"/>
								
									<line fill="none" stroke="#061638" stroke-width="0.6541" stroke-miterlimit="10" x1="596" y1="423.4" x2="618.1" y2="411.8"/>
								
									<line fill="none" stroke="#061638" stroke-width="0.6541" stroke-miterlimit="10" x1="595.8" y1="428.8" x2="618.1" y2="417.7"/>
								
									<line fill="none" stroke="#061638" stroke-width="0.6541" stroke-miterlimit="10" x1="595.7" y1="434.2" x2="618.2" y2="423.5"/>
								
									<line fill="none" stroke="#061638" stroke-width="0.6541" stroke-miterlimit="10" x1="595.5" y1="439.6" x2="618.2" y2="429.2"/>
								
									<line fill="none" stroke="#061638" stroke-width="0.6541" stroke-miterlimit="10" x1="595.4" y1="445" x2="618.3" y2="435.1"/>
								
									<line fill="none" stroke="#061638" stroke-width="0.6541" stroke-miterlimit="10" x1="595.2" y1="450.4" x2="618.3" y2="440.9"/>
								
									<line fill="none" stroke="#061638" stroke-width="0.6541" stroke-miterlimit="10" x1="595.1" y1="455.8" x2="618.4" y2="446.7"/>
								
									<line fill="none" stroke="#061638" stroke-width="0.6541" stroke-miterlimit="10" x1="595" y1="461.2" x2="618.5" y2="452.5"/>
								
									<line fill="none" stroke="#061638" stroke-width="0.6541" stroke-miterlimit="10" x1="594.8" y1="466.6" x2="618.5" y2="458.3"/>
								
									<line fill="none" stroke="#061638" stroke-width="0.6541" stroke-miterlimit="10" x1="594.7" y1="472" x2="618.6" y2="464.1"/>
								
									<line fill="none" stroke="#061638" stroke-width="0.6541" stroke-miterlimit="10" x1="594.5" y1="477.4" x2="618.7" y2="469.9"/>
								
									<line fill="none" stroke="#061638" stroke-width="0.6541" stroke-miterlimit="10" x1="594.4" y1="482.8" x2="618.7" y2="475.7"/>
								
									<line fill="none" stroke="#061638" stroke-width="0.6541" stroke-miterlimit="10" x1="594.2" y1="488.2" x2="618.8" y2="481.5"/>
								
									<line fill="none" stroke="#061638" stroke-width="0.6541" stroke-miterlimit="10" x1="594.1" y1="493.6" x2="618.8" y2="487.3"/>
								
									<line fill="none" stroke="#061638" stroke-width="0.6541" stroke-miterlimit="10" x1="593.9" y1="499" x2="618.9" y2="493.2"/>
								
									<line fill="none" stroke="#061638" stroke-width="0.6541" stroke-miterlimit="10" x1="593.8" y1="504.4" x2="618.9" y2="499"/>
								
									<line fill="none" stroke="#061638" stroke-width="0.6541" stroke-miterlimit="10" x1="593.7" y1="509.8" x2="619" y2="504.8"/>
								
									<line fill="none" stroke="#061638" stroke-width="0.6541" stroke-miterlimit="10" x1="593.5" y1="515.2" x2="619.1" y2="510.6"/>
							</g>
						</g>
						<polygon fill="#061638" points="615.4,515.8 613.2,515.8 613.2,406.6 615.4,408.5 						"/>
						<g>
							<polygon fill="#052743" points="647.5,501.2 647.5,505.1 576.2,517.8 576.2,514 							"/>
							<polygon fill="#052743" points="576.2,529.6 647.5,523 647.5,528.5 576.2,534.3 							"/>
							<polygon fill="#090E0A" points="647.5,505.1 647.5,523 576.2,529.6 576.2,517.8 							"/>
							<polygon fill="#2A60AD" points="647.5,506.7 603,527.1 647.5,523 							"/>
							<polygon fill="#052743" points="577.7,530.3 576.2,530.3 576.2,517.8 577.8,518.8 							"/>
						</g>
						<polyline fill="#090E0A" points="523.1,553 520.9,553 520.9,551 523.1,551 						"/>
						<g>
							
								<line fill="none" stroke="#174888" stroke-width="0.6541" stroke-miterlimit="10" x1="414.5" y1="504.1" x2="481.9" y2="521.2"/>
							
								<line fill="none" stroke="#174888" stroke-width="0.6541" stroke-miterlimit="10" x1="416" y1="509.7" x2="481.9" y2="517.8"/>
							
								<line fill="none" stroke="#174888" stroke-width="0.6541" stroke-miterlimit="10" x1="415.8" y1="517.3" x2="466" y2="518.8"/>
							
								<line fill="none" stroke="#174888" stroke-width="0.6541" stroke-miterlimit="10" x1="414.5" y1="523.3" x2="472" y2="520.2"/>
						</g>
						<g>
							<polygon fill="#2A60AD" points="469.5,540.2 469.5,553 478.1,553 478.1,541.7 477.2,540.2 							"/>
							<polygon fill="#2A60AD" points="469.5,540.2 469.5,553 443.3,551.8 443.4,551.1 443.5,549.6 444,543.8 446.7,542.5 
								453.2,541.8 							"/>
							<polygon fill="#090E0A" points="453.2,541.8 443.5,549.6 444,543.8 446.7,542.5 							"/>
							<rect x="470" y="542.3" fill="#090E0A" width="7.5" height="6.5"/>
							<rect x="469.5" y="552" fill="#090E0A" width="8.6" height="1"/>
							<rect x="471.9" y="542.7" fill="#052743" width="1.4" height="1"/>
							<path fill="#052743" d="M469.5,540.2v1.5l-25.6,2.1l0.2-0.8c0.3-0.3,0.7-0.4,1.1-0.5L469.5,540.2z"/>
							<polygon fill="#090E0A" points="469.8,553 469.5,553 443.3,551.8 443.4,551.1 469.5,552 							"/>
						</g>
						<g>
							<path fill="#738EC0" d="M537.2,569.6c0,1.7-18.5,3.1-41.3,3.1s-41.3-1.4-41.3-3.1s18.5-3.1,41.3-3.1
								C518.7,566.5,537.2,567.9,537.2,569.6z"/>
							<g>
								<path fill="#090E0A" d="M512.9,456.8c-0.4,0.2-0.8,0.4-1.2,0.7l-14.6,3.7c-0.4,0.1-0.9-0.2-1-0.6s0.2-0.9,0.6-1
									c0,0,0,0,0.1,0l15.2-2.8C512.2,456.8,512.6,456.8,512.9,456.8z"/>
								<path fill="none" stroke="#738EC0" stroke-width="0.9154" stroke-miterlimit="10" d="M513.5,456.5c-0.2,0.1-0.4,0.2-0.6,0.3
									c-0.4,0.2-0.8,0.4-1.2,0.7c-4.1,2.2-8.8,4.5-13.9,6.9c-13.4,6.3-25.2,10.8-29.4,11.3c-0.9,0.1-1.5,0-1.6-0.2
									c-0.2-0.4,0.4-1.1,1.6-2c3.9-3.1,14.2-8.9,26.8-14.8c0.4-0.2,0.7-0.3,1.1-0.5c15.9-7.4,29.2-12.1,29.9-10.6
									C526.6,448.6,521.5,452.1,513.5,456.5z"/>
								<g>
									<path fill="#FDD600" d="M478.2,471.9c1.4,2-0.8,4.1-2.8,2.8c-0.1,0-0.1-0.1-0.2-0.2c-1.4-2,0.8-4.1,2.8-2.8
										C478.2,471.8,478.2,471.9,478.2,471.9z"/>
									<path fill="#052743" d="M478.7,473.2c0,1-0.8,1.9-1.9,1.9c-0.7,0-1.3-0.4-1.6-0.9c0.3,0.3,0.8,0.4,1.2,0.4
										c1,0,1.9-0.8,1.9-1.9c0-0.3-0.1-0.7-0.3-1C478.4,472.1,478.7,472.7,478.7,473.2z"/>
								</g>
								<rect x="494.9" y="464.1" fill="#FFFFFF" width="3.2" height="21.8"/>
								<path fill="#090E0A" d="M497.2,461.5C497.2,461.5,497.1,461.5,497.2,461.5l-19.6,3.3l-0.9,0.2c0.2-0.1,0.3-0.2,0.5-0.2
									c-0.1,0-0.2,0-0.3-0.1l0.8-0.2l18.8-5.1c0.6-0.2,1.2,0.2,1.4,0.8C498.1,460.7,497.8,461.3,497.2,461.5z"/>
								<path fill="#090E0A" d="M514.5,467.2c-0.4,0.1-0.9,0.1-1.3,0.2l-4.6-1.7c0.3-0.2,0.7-0.4,1-0.6L514.5,467.2z"/>
								<path fill="#052743" d="M509.5,465.1c-0.3,0.2-0.7,0.4-1,0.6l-13-4.8c-0.4-0.2-0.7-0.6-0.5-1c0.2-0.4,0.6-0.7,1-0.5h0
									L509.5,465.1z"/>
								<rect x="496.1" y="464.1" fill="#052743" width="2" height="21.8"/>
								<path fill="#FDD600" d="M499.8,456.9c3.3,4.6-1.8,9.7-6.4,6.4c-0.1-0.1-0.2-0.2-0.3-0.3c-3.3-4.6,1.8-9.7,6.4-6.4
									C499.7,456.7,499.8,456.8,499.8,456.9z"/>
								<path fill="#090E0A" d="M500.9,459.9c0,2.4-2,4.4-4.4,4.4s-4.4-2-4.4-4.4l0,0c0.7,1.5,2.2,2.6,4,2.6c2.4,0,4.4-2,4.4-4.4
									C500.8,458.7,500.9,459.3,500.9,459.9z"/>
								<path fill="#052743" d="M495.3,459.8c-0.2,0.5-0.8,0.8-1.3,0.7c0,0,0,0-0.1,0l-22.8-9.1c0.2-0.2,0.3-0.3,0.5-0.5l23,7.7
									C495.2,458.7,495.5,459.3,495.3,459.8z"/>
								<path fill="none" stroke="#738EC0" stroke-width="0.9154" stroke-miterlimit="10" d="M506.7,477.5
									c14.8-6.8,23.6-19.2,20-28.9c-3.9-10.6-21-14.2-38.2-7.9c-6.7,2.4-12.5,6-16.8,10.1c-0.2,0.2-0.3,0.3-0.5,0.5
									c-6.4,6.3-9.3,13.7-7,20.1c1,2.7,2.8,4.9,5.2,6.6"/>
								<path fill="none" stroke="#738EC0" stroke-width="0.9154" stroke-miterlimit="10" d="M526.2,447.7
									c2.2,4.8-9.7,14.9-26.5,22.4c-16.8,7.5-32.2,9.8-34.4,4.9s9.7-14.9,26.5-22.4C508.6,445,524,442.8,526.2,447.7z"/>
								<g>
									<path fill="#738EC0" d="M504.6,466.9c1.2,1.7-0.7,3.6-2.4,2.4c-0.1,0-0.1-0.1-0.1-0.1c-1.2-1.7,0.7-3.6,2.4-2.4
										C504.5,466.8,504.5,466.9,504.6,466.9z"/>
									<path fill="#052743" d="M505,468.1c0,0.9-0.7,1.6-1.6,1.6c-0.9,0-1.6-0.7-1.6-1.6c0.3,0.5,0.8,0.8,1.4,0.8
										c0.9,0,1.6-0.7,1.6-1.6c0,0,0,0,0-0.1C504.9,467.5,505,467.8,505,468.1z"/>
								</g>
								<path fill="none" stroke="#738EC0" stroke-width="0.9154" stroke-miterlimit="10" d="M500.9,481.3
									c-16.5,3.1-30.9,0.7-32.5-5.5c0-0.1-0.1-0.2-0.1-0.3c-0.1-0.7-0.1-1.3,0.1-2c0.7-2.8,3.7-5.8,8.4-8.5
									c0.2-0.1,0.3-0.2,0.5-0.2c0.2-0.1,0.4-0.2,0.5-0.3c4.9-2.6,11.3-4.8,18.5-6.2c0.1,0,0.2,0,0.3-0.1c5.5-1,10.7-1.5,15.3-1.3
									c0.3,0,0.7,0,1,0c0.4,0,0.8,0,1.1,0.1l0,0c7.3,0.5,12.8,2.4,14.6,5.5c0.3,0.5,0.5,1,0.6,1.5
									C530.3,470.3,517.7,478.1,500.9,481.3z"/>
								<path fill="none" stroke="#738EC0" stroke-width="0.9154" stroke-miterlimit="10" d="M525.4,477.4
									c-2.6,4.2-17.8-0.3-34-10.2c-16.2-9.9-27.2-21.4-24.6-25.6s17.8,0.3,34,10.2C516.9,461.7,528,473.2,525.4,477.4z"/>
								<path fill="none" stroke="#738EC0" stroke-width="0.9154" stroke-miterlimit="10" d="M525.9,476.6
									c-0.8,1.5-15-4.2-31.8-12.8c-16.8-8.6-29.7-16.7-29-18.2c0.8-1.5,15,4.2,31.8,12.8C513.7,466.9,526.7,475.1,525.9,476.6z"/>
								<g>
									<path fill="#738EC0" d="M479.9,448.3c1.7,2.4-0.9,5.1-3.4,3.3c-0.1-0.1-0.1-0.1-0.2-0.2c-1.7-2.4,0.9-5.1,3.4-3.3
										C479.8,448.2,479.8,448.3,479.9,448.3z"/>
									<path fill="#FFFFFF" d="M479.3,447.9c-0.2-0.1-0.4-0.1-0.7-0.1c-1.4,0-2.6,1.1-2.8,2.4c0-0.1,0-0.2,0-0.3
										c0-1.3,1-2.3,2.3-2.3C478.6,447.6,478.9,447.7,479.3,447.9z"/>
									<path fill="#052743" d="M480.4,449.9c0,1.3-1,2.3-2.3,2.3c-0.8,0-1.6-0.4-2-1.1c0.4,0.3,0.9,0.5,1.5,0.5
										c1.3,0,2.3-1,2.3-2.3c0-0.4-0.1-0.8-0.3-1.2C480.1,448.6,480.4,449.2,480.4,449.9z"/>
								</g>
								<path fill="none" stroke="#738EC0" stroke-width="0.9154" stroke-miterlimit="10" d="M528.1,466.4
									c-3.7,8.9-17.8,14.6-34.1,13.2c-18.4-1.6-32.5-11.7-31.5-22.5c0.9-10.8,16.6-18.3,34.9-16.8c11.5,1,21.3,5.3,26.8,11.1"/>
								<path fill="none" stroke="#FFFFFF" stroke-width="0.9154" stroke-miterlimit="10" d="M524.2,451.3c3.3,3.4,5.1,7.4,4.7,11.5
									c-0.1,1.2-0.4,2.4-0.9,3.6"/>
								<path fill="none" stroke="#738EC0" stroke-width="0.9154" stroke-miterlimit="10" d="M469.4,478c-2.4-1.7-4.2-3.9-5.2-6.6
									c-3.9-10.6,7-24.3,24.2-30.6s34.4-2.8,38.2,7.9c3.5,9.7-5.2,22.1-20,28.9"/>
								<path fill="none" stroke="#FFFFFF" stroke-width="0.9154" stroke-miterlimit="10" d="M506.7,477.5c-1.4,0.6-2.8,1.2-4.2,1.8
									c-12.9,4.7-25.8,3.9-33.1-1.3"/>
								<g>
									<path fill="#FDD600" d="M527.3,459c1.4,1.9-0.8,4.1-2.7,2.7c-0.1,0-0.1-0.1-0.2-0.2c-1.4-1.9,0.8-4.1,2.7-2.7
										C527.2,458.9,527.2,458.9,527.3,459z"/>
									<path fill="#052743" d="M527.7,460.3c0,1-0.8,1.9-1.9,1.9s-1.9-0.8-1.9-1.9c0-0.1,0-0.1,0-0.2c0.1,0.9,0.9,1.7,1.9,1.7
										c1,0,1.8-0.8,1.9-1.7C527.7,460.2,527.7,460.2,527.7,460.3z"/>
								</g>
								<path fill="none" stroke="#738EC0" stroke-width="0.9154" stroke-miterlimit="10" d="M486.1,476.6c-11.2-6.5-19-15.8-21-24"
									/>
								<path fill="none" stroke="#FFFFFF" stroke-width="0.9154" stroke-miterlimit="10" d="M521.4,481.1c-7.9,4.7-22,3.2-35.2-4.5
									"/>
								<path fill="none" stroke="#738EC0" stroke-width="0.9154" stroke-miterlimit="10" d="M475.8,435.6
									c8.1-1.9,19.5,0.2,30.2,6.4c16.5,9.5,25.4,24.9,19.9,34.5c-1.1,1.9-2.6,3.4-4.6,4.5"/>
								<path fill="none" stroke="#FFFFFF" stroke-width="0.9154" stroke-miterlimit="10" d="M465.2,452.6
									c-0.9-3.8-0.6-7.4,1.1-10.5c1.9-3.3,5.3-5.4,9.6-6.5"/>
								<g>
									<path fill="#738EC0" d="M474.5,477.9c-0.5,2-3.1,1.8-3.3-0.2c0-0.1,0-0.1,0-0.2c0.5-2,3.1-1.8,3.3,0.2
										C474.5,477.8,474.5,477.8,474.5,477.9z"/>
									<path fill="#052743" d="M473.9,478.9c-0.7,0.6-1.7,0.5-2.3-0.2c-0.4-0.4-0.5-1-0.3-1.6c0,0.4,0.1,0.8,0.4,1
										c0.6,0.7,1.6,0.8,2.3,0.2c0.2-0.2,0.4-0.5,0.5-0.7C474.5,478.1,474.3,478.6,473.9,478.9z"/>
								</g>
								<g>
									<path fill="#738EC0" d="M522.4,448.1c1,1.4-0.5,2.9-1.9,1.9c0,0-0.1-0.1-0.1-0.1c-0.9-1.4,0.5-2.9,1.9-1.9
										C522.3,448,522.3,448.1,522.4,448.1z"/>
									<path fill="#052743" d="M522.7,449c0,0.8-0.6,1.3-1.3,1.3c-0.7,0-1.3-0.6-1.3-1.3c0-0.1,0-0.2,0-0.2
										c0.1,0.6,0.7,1.1,1.3,1.1s1.2-0.5,1.3-1.1C522.7,448.8,522.7,448.9,522.7,449z"/>
								</g>
								<g>
									<path fill="#FDD600" d="M512.4,455.7c1.5,0.1,1.7,2,0.2,2.4c-0.1,0-0.1,0-0.2,0c-1.5-0.1-1.7-2-0.2-2.4
										C512.3,455.7,512.4,455.7,512.4,455.7z"/>
									<path fill="#052743" d="M513.2,456c0.5,0.4,0.6,1.2,0.2,1.7c-0.4,0.5-1.2,0.6-1.7,0.2c-0.1,0-0.1-0.1-0.2-0.2
										c0.5,0.3,1.1,0.2,1.5-0.3c0.4-0.5,0.3-1.1,0-1.5C513.1,455.9,513.2,455.9,513.2,456z"/>
								</g>
								<g>
									<path fill="#FDD600" d="M473.3,438.9c1.2,1.7-0.7,3.6-2.4,2.4c-0.1,0-0.1-0.1-0.1-0.1c-1.2-1.7,0.7-3.6,2.4-2.4
										C473.2,438.8,473.3,438.8,473.3,438.9z"/>
									<path fill="#052743" d="M473.6,440.7c-0.2,0.6-0.8,1-1.5,1c-0.9,0-1.6-0.7-1.6-1.6c0-0.4,0.2-0.8,0.4-1.1
										c-0.1,0.2-0.1,0.4-0.1,0.7c0,0.9,0.7,1.6,1.6,1.6C472.8,441.2,473.3,441,473.6,440.7z"/>
								</g>
								<g>
									<path fill="#738EC0" d="M529.3,464.8c1.7,2.4-0.9,5.1-3.4,3.4c-0.1-0.1-0.1-0.1-0.2-0.2c-1.7-2.4,0.9-5.1,3.4-3.4
										C529.2,464.7,529.2,464.8,529.3,464.8z"/>
									<path fill="#FFFFFF" d="M529.8,466.4c-0.9-1-2.1-1.6-3.5-1.6c-0.2,0-0.3,0-0.5,0c0.4-0.4,1-0.7,1.7-0.7
										C528.8,464.1,529.8,465.1,529.8,466.4z"/>
									<path fill="#052743" d="M529.7,467.2c-0.3,0.9-1.2,1.5-2.2,1.5c-1.3,0-2.3-1-2.3-2.3c0-0.6,0.2-1.2,0.7-1.6
										c-0.1,0.3-0.1,0.5-0.1,0.8c0,1.3,1,2.3,2.3,2.3C528.7,467.9,529.3,467.6,529.7,467.2z"/>
								</g>
								<g>
									<path fill="#FDD600" d="M502.4,458.3c2,2.9-1.1,6-4,4c-0.1-0.1-0.2-0.1-0.2-0.2c-2-2.9,1.1-6,4-4
										C502.2,458.2,502.3,458.3,502.4,458.3z"/>
									<path fill="#090E0A" d="M502.8,461.2c-0.4,1.1-1.4,1.8-2.6,1.8c-1.5,0-2.8-1.2-2.8-2.8c0-0.8,0.3-1.4,0.8-1.9
										c-0.1,0.3-0.2,0.6-0.2,0.9c0,1.5,1.2,2.8,2.8,2.8C501.7,462,502.4,461.7,502.8,461.2z"/>
								</g>
								<path fill="#090E0A" d="M480,453.7c0,0.3-0.1,0.7-0.3,1.1l-8.5-3.4c0.2-0.2,0.3-0.3,0.5-0.5L480,453.7z"/>
							</g>
							<g>
								<path fill="#FFFFFF" d="M535.3,507.7v7.3c0.7,0.1,1.3,0.2,1.9,0.3v13.2h-82.4v-13.1c0.9-0.2,1.8-0.3,2.7-0.5l0.4-8.2
									l-1.9-1.6l-1.2-1v-13c0,0,18.1-7.1,43.8-6.2c0.2,0,0.4,0,0.6,0c0.2,0,0.3,0,0.4,0c0.2,0,0.3,0,0.5,0c0.2,0,0.5,0,0.7,0
									c0.3,0,0.6,0,0.9,0.1c0.5,0,0.9,0.1,1.4,0.1c0.1,0,0.2,0,0.3,0c0.6,0,1.3,0.1,1.9,0.2c0.2,0,0.4,0,0.7,0.1
									c0.2,0,0.4,0,0.7,0.1c0.7,0.1,1.4,0.2,2.2,0.2c0.3,0,0.5,0.1,0.8,0.1c1.2,0.2,2.5,0.3,3.8,0.5c0.2,0,0.3,0.1,0.5,0.1
									c0.8,0.1,1.5,0.2,2.3,0.4c0.2,0,0.5,0.1,0.8,0.1c0.9,0.2,1.8,0.3,2.6,0.5c0.4,0.1,0.8,0.2,1.2,0.2c0.3,0.1,0.7,0.2,1,0.2
									c0.7,0.2,1.4,0.3,2.2,0.5c0.6,0.1,1.1,0.3,1.7,0.4c0,0,0.1,0,0.1,0c0.2,0.1,0.5,0.1,0.7,0.2s0.5,0.2,0.8,0.2
									c0,0,0.1,0,0.1,0c0.3,0.1,0.7,0.2,1,0.3c0.3,0.1,0.6,0.2,1,0.3c0.1,0,0.1,0,0.2,0c0.3,0.1,0.7,0.2,1.1,0.3
									c0.1,0,0.2,0.1,0.2,0.1c0.3,0.1,0.6,0.2,0.9,0.3c0.3,0.1,0.6,0.2,0.8,0.3c0.8,0.3,1.7,0.6,2.6,0.8c0.3,0.1,0.7,0.2,1,0.3
									c0,0,0.1,0,0.1,0c0.3,0.1,0.7,0.2,1.1,0.4V506l-0.1,0.1L535.3,507.7z"/>
								<path fill="#738EC0" d="M535.3,507.7v7.3c0.7,0.1,1.3,0.2,1.9,0.3v13h-41.6c5.1-6.3,21.7-26.8,31.7-39
									c0.3,0.1,0.7,0.2,1,0.3c0.3,0.1,0.6,0.2,1,0.3c0.1,0,0.1,0,0.2,0c0.3,0.1,0.7,0.2,1.1,0.3c0.1,0,0.2,0.1,0.2,0.1
									c0.3,0.1,0.6,0.2,0.9,0.3c0.3,0.1,0.6,0.2,0.8,0.3c0.8,0.3,1.7,0.6,2.6,0.8c0.3,0.1,0.7,0.3,1,0.3c0,0,0.1,0,0.1,0
									c0.3,0.1,0.7,0.3,1.1,0.4v13.5l-0.1,0.1L535.3,507.7z"/>
								<path fill="#CCCBCB" d="M537.2,504.3v1.7l-0.1,0.1l-1.8,1.7v7.3c-0.4-0.1-0.8-0.1-1.2-0.2c-0.1,0-0.2,0-0.3-0.1
									c0,0-0.1,0-0.1,0c-11.7-1.9-38.1-5.2-67.1-1.2c-0.3,0-0.7,0.1-1,0.1c-0.3,0-0.7,0.1-1,0.2c-0.8,0.1-1.6,0.2-2.4,0.4h0
									c0,0,0,0-0.1,0l0,0c-0.6,0.1-1.1,0.2-1.7,0.3c-0.2,0-0.4,0.1-0.7,0.1c-0.2,0-0.3,0.1-0.4,0.1c-0.2,0-0.5,0.1-0.7,0.1
									c-0.3,0.1-0.6,0.1-0.9,0.2l0.4-8.2l-1.9-1.6l-1.2-1v-0.5c0.4-0.1,0.8-0.2,1.3-0.3c0.3-0.1,0.7-0.2,1-0.2
									c0.1,0,0.2,0,0.2-0.1c0.1,0,0.1,0,0.2-0.1c0.3-0.1,0.6-0.1,0.9-0.2l0,0c0.1,0,0.3-0.1,0.4-0.1l0,0c0.1,0,0.2,0,0.3-0.1l0,0
									c0.2-0.1,0.4-0.1,0.7-0.2c0.4-0.1,0.8-0.2,1.2-0.3c0.4-0.1,0.8-0.2,1.2-0.2l0,0c0.4-0.1,0.8-0.2,1.2-0.2
									c0.3-0.1,0.7-0.1,1.1-0.2c0,0,0.1,0,0.1,0h0c0.1,0,0.2,0,0.2,0c0.4-0.1,0.7-0.1,1.1-0.2c0.4-0.1,0.8-0.1,1.2-0.2
									c0.4-0.1,0.8-0.1,1.2-0.2s0.8-0.1,1.2-0.2c0.1,0,0.2,0,0.3,0c0.3,0,0.6-0.1,0.8-0.1c0.1,0,0.2,0,0.2,0c0,0,0.1,0,0.1,0
									c0.4-0.1,0.7-0.1,1.1-0.2c0.4-0.1,0.8-0.1,1.2-0.2c0.8-0.1,1.6-0.2,2.4-0.3c0,0,0.1,0,0.1,0c0.8-0.1,1.6-0.2,2.3-0.2
									c0.8-0.1,1.7-0.2,2.5-0.2c0,0,0,0,0,0c0.4,0,0.7-0.1,1.1-0.1c0.2,0,0.3,0,0.5,0c0.3,0,0.6,0,0.8-0.1c0.3,0,0.6,0,0.8-0.1
									c0.3,0,0.6,0,0.8,0s0.6,0,0.8,0c0.7,0,1.3-0.1,2-0.1c0.1,0,0.3,0,0.4,0c0.6,0,1.1,0,1.7,0c0.3,0,0.6,0,0.9,0
									c0.3,0,0.6,0,0.9,0l0,0c0.3,0,0.6,0,0.9,0c1.1,0,2.1,0,3.2,0c0.4,0,0.8,0,1.1,0c0.4,0,0.8,0,1.1,0c0.4,0,0.8,0,1.1,0
									c1.1,0,2.2,0.1,3.3,0.1c0.1,0,0.2,0,0.2,0c0.7,0,1.3,0.1,2,0.1c0.7,0,1.3,0.1,2,0.1c0.1,0,0.2,0,0.4,0
									c0.6,0,1.1,0.1,1.6,0.1c0.1,0,0.2,0,0.3,0c1.6,0.1,3.2,0.3,4.8,0.5c0.3,0,0.6,0.1,0.9,0.1c0.1,0,0.2,0,0.3,0
									c0.4,0,0.8,0.1,1.2,0.1c0.1,0,0.2,0,0.4,0c0.6,0.1,1.2,0.2,1.8,0.2c0.3,0,0.7,0.1,1,0.1c0,0,0.1,0,0.1,0
									c0.2,0,0.3,0,0.5,0.1c0.6,0.1,1.2,0.2,1.7,0.2c0.6,0.1,1.1,0.2,1.6,0.3c0.1,0,0.2,0,0.4,0.1c0.1,0,0.3,0,0.4,0.1
									c0.3,0,0.5,0.1,0.8,0.1c0.1,0,0.2,0,0.4,0.1c0.1,0,0.2,0,0.2,0c0.6,0.1,1.1,0.2,1.6,0.3c0.2,0,0.5,0.1,0.7,0.1
									c0.1,0,0.1,0,0.2,0c0.8,0.2,1.5,0.3,2.2,0.4c0.3,0.1,0.7,0.1,0.9,0.2c0.2,0,0.4,0.1,0.6,0.1c0.3,0.1,0.6,0.1,0.9,0.2
									c0.4,0.1,0.8,0.2,1.2,0.3c0,0,0,0,0.1,0C535.1,503.8,536.2,504,537.2,504.3z"/>
								<path fill="#2A60AD" d="M537.2,504.3v1.7l-0.1,0.1l-1.8,1.7v7.3c-0.4-0.1-0.8-0.1-1.2-0.2c-0.1,0-0.2,0-0.3-0.1
									c0,0-0.1,0-0.1,0c-5.9-1-15.4-2.2-26.9-2.8c-11.6-0.6-25.2-0.4-39.3,1.4c-0.3,0-0.6,0.1-0.9,0.1c-0.3,0-0.7,0.1-1,0.1
									c-0.3,0-0.7,0.1-1,0.2c-0.8,0.1-1.6,0.2-2.4,0.4h0c0,0,0,0-0.1,0l0,0c-0.6,0.1-1.1,0.2-1.7,0.3c-0.2,0-0.4,0.1-0.7,0.1
									c-0.2,0-0.3,0.1-0.4,0.1c-0.2,0-0.5,0.1-0.7,0.1c-0.3,0.1-0.6,0.1-0.9,0.2l0.4-8.2l-1.9-1.6l-1.2-1v-0.5
									c0.4-0.1,0.8-0.2,1.3-0.3c0.2,0,0.3-0.1,0.5-0.1c0.2,0,0.4-0.1,0.6-0.1c0.1,0,0.2,0,0.2-0.1c0.1,0,0.1,0,0.2-0.1
									c0.3-0.1,0.6-0.1,0.9-0.2l0,0c0.1,0,0.3-0.1,0.4-0.1l0,0c0.1,0,0.2,0,0.3-0.1l0,0c0.2-0.1,0.4-0.1,0.7-0.2
									c0.4-0.1,0.8-0.2,1.2-0.3c0.4-0.1,0.8-0.2,1.2-0.2l0,0c0.4-0.1,0.8-0.2,1.2-0.2c0.3-0.1,0.7-0.1,1.1-0.2c0,0,0.1,0,0.1,0h0
									c0.1,0,0.2,0,0.2,0c0.4-0.1,0.7-0.1,1.1-0.2c0.4-0.1,0.8-0.1,1.2-0.2c0.4-0.1,0.8-0.1,1.2-0.2s0.8-0.1,1.2-0.2
									c0.1,0,0.2,0,0.3,0c0.3,0,0.6-0.1,0.8-0.1c0.1,0,0.2,0,0.2,0c0,0,0.1,0,0.1,0c0.4-0.1,0.8-0.1,1.1-0.2
									c0.4-0.1,0.8-0.1,1.2-0.2c0.8-0.1,1.6-0.2,2.4-0.3c0,0,0.1,0,0.1,0c0.8-0.1,1.6-0.2,2.3-0.2c0.8-0.1,1.7-0.2,2.5-0.2
									c0,0,0,0,0,0c0.4,0,0.7-0.1,1.1-0.1c0.2,0,0.3,0,0.5,0c0.3,0,0.6,0,0.8-0.1c0.3,0,0.6,0,0.8-0.1c0.3,0,0.6,0,0.8,0
									s0.6,0,0.8,0c0.7,0,1.3-0.1,2-0.1c0.1,0,0.3,0,0.4,0c0.6,0,1.1,0,1.7,0c0.3,0,0.6,0,0.9,0c0.3,0,0.6,0,0.9,0l0,0
									c0.3,0,0.6,0,0.9,0c1.1,0,2.1,0,3.2,0c0.4,0,0.8,0,1.1,0c0.4,0,0.8,0,1.1,0c0.4,0,0.8,0,1.1,0c1.1,0,2.2,0.1,3.3,0.1
									c0.1,0,0.2,0,0.2,0c0.7,0,1.3,0.1,2,0.1c0.7,0,1.3,0.1,2,0.1c0.1,0,0.2,0,0.4,0c0.6,0,1.1,0.1,1.6,0.1c0.1,0,0.2,0,0.3,0
									c1.6,0.1,3.2,0.3,4.8,0.5c0.3,0,0.6,0.1,0.9,0.1c0.1,0,0.2,0,0.3,0c0.3,0,0.7,0.1,1,0.1c0.1,0,0.1,0,0.2,0
									c0.1,0,0.2,0,0.4,0c0.6,0.1,1.2,0.2,1.8,0.2c0.3,0,0.7,0.1,1,0.1c0,0,0.1,0,0.1,0c0.2,0,0.3,0,0.5,0.1
									c0.6,0.1,1.2,0.2,1.7,0.3s1.1,0.2,1.6,0.3c0.1,0,0.2,0,0.4,0.1c0.1,0,0.3,0,0.4,0.1c0.3,0,0.5,0.1,0.8,0.1
									c0.1,0,0.2,0,0.4,0.1c0.1,0,0.2,0,0.2,0c0.6,0.1,1.1,0.2,1.6,0.3c0.2,0,0.5,0.1,0.7,0.1c0.1,0,0.1,0,0.2,0
									c0.8,0.2,1.5,0.3,2.2,0.4c0.3,0.1,0.7,0.1,0.9,0.2c0.2,0,0.4,0.1,0.6,0.1c0.3,0.1,0.6,0.1,0.9,0.2c0.4,0.1,0.8,0.2,1.2,0.3
									c0,0,0,0,0.1,0C535.1,503.8,536.2,504,537.2,504.3z"/>
								<path fill="#052743" d="M537.2,504.3v1.7l-0.1,0.1l-1.8,1.7v7.3c-0.4-0.1-0.8-0.1-1.2-0.2c-0.1,0-0.2,0-0.3-0.1
									c0,0-0.1,0-0.1,0c-5.9-1-15.4-2.2-26.9-2.8c3-3.8,6.2-7.7,9.3-11.5c0.1,0,0.1,0,0.2,0c0.1,0,0.2,0,0.4,0
									c0.6,0.1,1.2,0.2,1.8,0.2c0.3,0,0.7,0.1,1,0.1c0,0,0.1,0,0.1,0c0.2,0,0.3,0,0.5,0.1c0.6,0.1,1.2,0.2,1.7,0.3
									c0.6,0.1,1.1,0.2,1.6,0.2c0.1,0,0.2,0,0.4,0.1c0.1,0,0.3,0,0.4,0.1c0.3,0,0.5,0.1,0.8,0.1c0.1,0,0.2,0,0.4,0.1
									c0.1,0,0.2,0,0.2,0c0.6,0.1,1.1,0.2,1.6,0.3c0.2,0,0.5,0.1,0.7,0.1c0.1,0,0.1,0,0.2,0c0.8,0.2,1.5,0.3,2.2,0.4
									c0.3,0.1,0.7,0.1,0.9,0.2c0.2,0,0.4,0.1,0.6,0.1c0.3,0.1,0.6,0.1,0.9,0.2c0.4,0.1,0.8,0.2,1.2,0.3c0,0,0,0,0.1,0
									C535.1,503.8,536.2,504,537.2,504.3z"/>
								<path fill="#052743" d="M537.2,504.3v1.7l-0.1,0.1c-1.2-0.3-2.6-0.6-4.2-1c-0.2,0-0.4-0.1-0.6-0.1c-1.6-0.3-3.4-0.7-5.3-1
									c-0.2,0-0.3-0.1-0.4-0.1c-2.4-0.4-5.1-0.8-7.9-1.2c-0.2,0-0.3,0-0.4-0.1c-2.9-0.4-6.1-0.8-9.5-1c-0.3,0-0.5,0-0.8-0.1
									c-6.8-0.5-14.2-0.8-22.1-0.4c-0.3,0-0.5,0-0.8,0c-3.1,0.2-6.3,0.4-9.6,0.8c-0.2,0-0.4,0.1-0.7,0.1c-2.8,0.3-5.7,0.7-8.6,1.2
									c-0.3,0-0.5,0.1-0.8,0.1c-1.5,0.2-3,0.5-4.5,0.8c-0.3,0.1-0.6,0.1-0.9,0.2c-1.3,0.3-2.6,0.6-3.9,0.9l-1.2-1v-0.5
									c0.4-0.1,0.8-0.2,1.3-0.3c0.2,0,0.3-0.1,0.5-0.1c0.2,0,0.4-0.1,0.6-0.1c0.1,0,0.2,0,0.2-0.1c0.1,0,0.1,0,0.2-0.1
									c0.3-0.1,0.6-0.1,0.9-0.2l0,0c0.1,0,0.3-0.1,0.4-0.1l0,0c0.1,0,0.2,0,0.3-0.1l0,0c0.2-0.1,0.4-0.1,0.7-0.2
									c0.4-0.1,0.8-0.2,1.2-0.2c0.4-0.1,0.8-0.2,1.2-0.3l0,0c0.4-0.1,0.8-0.2,1.2-0.3c0.3-0.1,0.7-0.1,1.1-0.2c0,0,0.1,0,0.1,0h0
									c0.1,0,0.2,0,0.2,0c0.4-0.1,0.7-0.1,1.1-0.2c0.4-0.1,0.8-0.1,1.2-0.2c0.4-0.1,0.8-0.1,1.2-0.2s0.8-0.1,1.2-0.2
									c0.1,0,0.2,0,0.3,0c0.3,0,0.6-0.1,0.8-0.1c0.1,0,0.2,0,0.2,0c0,0,0.1,0,0.1,0c0.4-0.1,0.7-0.1,1.1-0.2
									c0.4-0.1,0.8-0.1,1.2-0.2c0.8-0.1,1.6-0.2,2.4-0.2c0,0,0.1,0,0.1,0c0.8-0.1,1.6-0.2,2.3-0.2c0.8-0.1,1.7-0.2,2.5-0.2
									c0,0,0,0,0,0c0.4,0,0.7-0.1,1.1-0.1c0.2,0,0.3,0,0.5,0c0.3,0,0.6,0,0.8-0.1s0.6,0,0.8-0.1c0.3,0,0.6,0,0.8,0
									c0.3,0,0.6,0,0.8,0c0.7,0,1.3-0.1,2-0.1c0.1,0,0.3,0,0.4,0c0.6,0,1.1,0,1.7,0c0.3,0,0.6,0,0.9,0c0.3,0,0.6,0,0.9,0l0,0
									c0.3,0,0.6,0,0.9,0c1.1,0,2.1,0,3.2,0c0.4,0,0.8,0,1.1,0c0.4,0,0.8,0,1.1,0c0.4,0,0.8,0,1.1,0c1.1,0,2.2,0.1,3.3,0.1
									c0.1,0,0.2,0,0.2,0c0.7,0,1.3,0.1,2,0.1c0.7,0,1.3,0.1,2,0.1c0.1,0,0.2,0,0.4,0c0.6,0,1.1,0.1,1.6,0.1c0.1,0,0.2,0,0.3,0
									c1.6,0.1,3.2,0.3,4.8,0.5c0.3,0,0.6,0.1,0.9,0.1c0.1,0,0.2,0,0.3,0c0.4,0,0.8,0.1,1.2,0.1c0.1,0,0.2,0,0.4,0
									c0.6,0.1,1.2,0.2,1.8,0.2c0.3,0,0.7,0.1,1,0.1c0,0,0.1,0,0.1,0c0.2,0,0.3,0,0.5,0.1c0.6,0.1,1.2,0.2,1.7,0.2
									c0.6,0.1,1.1,0.2,1.6,0.3c0.1,0,0.2,0,0.4,0.1c0.1,0,0.3,0,0.4,0.1c0.3,0,0.5,0.1,0.8,0.1c0.1,0,0.2,0,0.4,0.1
									c0.1,0,0.2,0,0.2,0c0.6,0.1,1.1,0.2,1.6,0.3c0.2,0,0.5,0.1,0.7,0.1c0.1,0,0.1,0,0.2,0c0.8,0.2,1.5,0.3,2.2,0.4
									c0.3,0.1,0.7,0.1,0.9,0.2c0.2,0,0.4,0.1,0.6,0.1c0.3,0.1,0.6,0.1,0.9,0.2c0.4,0.1,0.8,0.2,1.2,0.3c0,0,0,0,0.1,0
									C535.1,503.8,536.2,504,537.2,504.3z"/>
								<g>
									<path fill="#090E0A" d="M460.8,504.1c-0.3,0.1-0.6,0.1-0.9,0.2l-1.1-0.8l0-0.8l0,0l0,0L460.8,504.1z"/>
									<path fill="#090E0A" d="M466.1,503.1c-0.3,0-0.5,0.1-0.8,0.1l-0.5-0.8l0-0.8v0l0,0L466.1,503.1z"/>
									<path fill="#090E0A" d="M475.4,501.8c-0.2,0-0.4,0.1-0.7,0.1l-1-1.2l-0.1-0.3l0.4,0L475.4,501.8z"/>
									<path fill="#090E0A" d="M485.8,501c-0.3,0-0.5,0-0.8,0l0.1-1.7L485.8,501z"/>
									<path fill="#090E0A" d="M519.4,500.7v0.7l-0.8,1.1l0,0c-0.2,0-0.3,0-0.4-0.1l1.2-1.6l0,0L519.4,500.7z"/>
									<path fill="#090E0A" d="M527.9,502.3v0.3l-1,1.2c-0.2,0-0.3-0.1-0.4-0.1c0.3-0.4,1-1.2,1.3-1.5
										C527.8,502.2,527.9,502.2,527.9,502.3z"/>
									<path fill="#090E0A" d="M533.8,503.4v0.4l-1,1.2c-0.2,0-0.4-0.1-0.6-0.1L533.8,503.4L533.8,503.4z"/>
									<path fill="#090E0A" d="M508.7,499.7l0,1.8c-0.3,0-0.5,0-0.8-0.1L508.7,499.7z"/>
								</g>
							</g>
							<path fill="#090E0A" d="M537.2,528.5c0,1.4-18.4,2.6-41.2,2.6c-22.8,0-41.2-1.2-41.2-2.6s18.4-2.6,41.2-2.6
								S537.2,527.1,537.2,528.5z"/>
							<ellipse fill="#090E0A" cx="489.5" cy="534" rx="2.9" ry="3.3"/>
							<path fill="#090E0A" d="M503.5,570.3v-41.5h-14.8v41.5c2,0.3,4.6,0.6,7.4,0.6C498.8,570.8,501.4,570.7,503.5,570.3z"/>
							<g>
								<path fill="#FFFFFF" d="M458.9,502.5l-0.1,1.8l-0.6,10.6l-0.7,0.2l0.5-10.5l0.1-1.9C458.4,502.7,458.7,502.6,458.9,502.5z"
									/>
								<path fill="#FFFFFF" d="M464.8,501.5l0,1.4l-0.3,12l-0.7,0.1l0.3-12l0-1.4c0.1,0,0.1,0,0.2,0L464.8,501.5z"/>
								<polygon fill="#FFFFFF" points="473.7,500.3 473.7,513.2 472.8,513.3 473.1,499.7 473.7,499.6 								"/>
								<polygon fill="#FFFFFF" points="485.1,499.1 484.6,511.9 484.1,511.9 484.1,511.9 484.5,499.1 								"/>
								<polygon fill="#FFFFFF" points="497.2,498.8 497.1,511.9 496.3,511.9 496.7,498.8 								"/>
								<polygon fill="#FFFFFF" points="508.6,512.1 508.6,509.6 508.7,499.4 509.3,499.4 509.2,508.8 509.2,512.1 								"/>
								<path fill="#738EC0" d="M509.2,508.8v3.2c-0.2,0-0.4,0-0.6,0v-2.4C508.8,509.3,509,509.1,509.2,508.8z"/>
								<polygon fill="#738EC0" points="520,500.8 520,502.4 519.9,513.3 519.3,513.3 519.4,500.7 519.7,500.8 								"/>
								<polygon fill="#738EC0" points="528.5,502.2 528.5,514.6 528,514.6 527.9,502.1 								"/>
								<polygon fill="#738EC0" points="534.3,503.3 534.3,515.5 533.8,515.4 533.8,503.2 								"/>
							</g>
							<g>
								<path fill="#090E0A" d="M504.4,534.3c0.2-1.5-0.3-2.8-1-2.8c-0.8-0.1-1.5,1.1-1.6,2.5c-0.2,1.5,0.3,2.8,1,2.8
									C503.6,537,504.3,535.8,504.4,534.3z"/>
								<path fill="#738EC0" d="M494.8,533.3c0-1.8-1.3-3.3-2.9-3.3s-2.9,1.5-2.9,3.3c0,1.8,1.3,3.3,2.9,3.3
									S494.8,535.2,494.8,533.3z"/>
								<path fill="#090E0A" d="M494.6,533.3c0-1.6-1.2-2.9-2.8-2.9s-2.8,1.3-2.8,2.9c0,1.6,1.2,2.9,2.8,2.9
									C493.3,536.2,494.6,534.9,494.6,533.3z"/>
								<path fill="#052743" d="M505.4,534.3c0.2-1.5-0.3-2.8-1-2.8c-0.8-0.1-1.5,1.1-1.6,2.5c-0.2,1.5,0.3,2.8,1,2.8
									C504.5,537,505.2,535.8,505.4,534.3z"/>
								<path fill="#052743" d="M505.4,534.3c0.2-1.5-0.3-2.8-1-2.8c-0.8-0.1-1.5,1.1-1.6,2.5c-0.2,1.5,0.3,2.8,1,2.8
									C504.5,537,505.2,535.8,505.4,534.3z"/>
								<path fill="#090E0A" d="M505.4,534.2c0.2-1.3-0.3-2.4-0.9-2.5c-0.7-0.1-1.3,0.9-1.4,2.2c-0.2,1.3,0.3,2.4,0.9,2.5
									C504.6,536.5,505.2,535.5,505.4,534.2z"/>
								
									<line fill="none" stroke="#738EC0" stroke-width="1.3082" stroke-miterlimit="10" x1="504.1" y1="534.2" x2="503.7" y2="532.9"/>
								
									<line fill="none" stroke="#738EC0" stroke-width="1.3082" stroke-miterlimit="10" x1="491.9" y1="533.3" x2="490.8" y2="531.8"/>
							</g>
							<g>
								
									<line fill="none" stroke="#738EC0" stroke-width="0.4906" stroke-miterlimit="10" x1="458.9" y1="489.8" x2="458.4" y2="502.4"/>
								
									<line fill="none" stroke="#738EC0" stroke-width="0.4906" stroke-miterlimit="10" x1="464.8" y1="488.3" x2="464.3" y2="500.8"/>
								
									<line fill="none" stroke="#738EC0" stroke-width="0.4906" stroke-miterlimit="10" x1="473.7" y1="486.5" x2="473.3" y2="499.6"/>
								
									<line fill="none" stroke="#738EC0" stroke-width="0.4906" stroke-miterlimit="10" x1="473.1" y1="513.5" x2="472.7" y2="526.4"/>
								
									<line fill="none" stroke="#738EC0" stroke-width="0.4906" stroke-miterlimit="10" x1="484.9" y1="485.2" x2="484.6" y2="498.8"/>
								
									<line fill="none" stroke="#738EC0" stroke-width="0.4906" stroke-miterlimit="10" x1="484.1" y1="512.9" x2="483.7" y2="526.1"/>
								
									<line fill="none" stroke="#738EC0" stroke-width="0.4906" stroke-miterlimit="10" x1="497.4" y1="484.9" x2="497" y2="498.6"/>
								
									<line fill="none" stroke="#738EC0" stroke-width="0.4906" stroke-miterlimit="10" x1="496.4" y1="512.7" x2="496" y2="526"/>
								
									<line fill="none" stroke="#738EC0" stroke-width="0.4906" stroke-miterlimit="10" x1="509.2" y1="485.8" x2="508.9" y2="499.3"/>
								
									<line fill="none" stroke="#738EC0" stroke-width="0.4906" stroke-miterlimit="10" x1="508.9" y1="512.8" x2="508.6" y2="526.1"/>
								
									<line fill="none" stroke="#738EC0" stroke-width="0.4906" stroke-miterlimit="10" x1="519.7" y1="500.3" x2="519.7" y2="487.4"/>
								
									<line fill="none" stroke="#738EC0" stroke-width="0.4906" stroke-miterlimit="10" x1="519.8" y1="526.4" x2="519.8" y2="513.5"/>
								
									<line fill="none" stroke="#738EC0" stroke-width="0.4906" stroke-miterlimit="10" x1="528.2" y1="501.7" x2="528.2" y2="489.5"/>
								
									<line fill="none" stroke="#738EC0" stroke-width="0.4906" stroke-miterlimit="10" x1="528.2" y1="526.9" x2="528.2" y2="514.3"/>
								
									<line fill="none" stroke="#738EC0" stroke-width="0.4906" stroke-miterlimit="10" x1="534.3" y1="491.4" x2="534.1" y2="503.1"/>
								
									<line fill="none" stroke="#738EC0" stroke-width="0.4906" stroke-miterlimit="10" x1="534.3" y1="527.6" x2="534.1" y2="515.2"/>
								
									<line fill="none" stroke="#738EC0" stroke-width="0.4906" stroke-miterlimit="10" x1="458" y1="515.8" x2="457.5" y2="527.6"/>
								
									<line fill="none" stroke="#738EC0" stroke-width="0.4906" stroke-miterlimit="10" x1="463.9" y1="514.8" x2="463.6" y2="526.9"/>
							</g>
							<path fill="none" stroke="#738EC0" stroke-width="0.9154" stroke-miterlimit="10" d="M528.9,461.2
								c-0.3,4.9-15.5,7.8-33.8,6.5c-18.3-1.3-32.9-6.4-32.5-11.3c0.3-4.9,15.5-7.8,33.8-6.5C514.7,451.2,529.2,456.3,528.9,461.2z"
								/>
						</g>
						<polygon fill="#090E0A" points="416.8,531.1 412.1,531.1 412.2,529.1 413.4,497.8 413.5,495.2 415.4,495.2 415.5,497.8 
							416.8,529.1 						"/>
						<polygon fill="#090E0A" points="416.8,530.3 412.1,530.3 412.2,529.1 416.8,529.1 						"/>
						<rect x="448.5" y="534.6" fill="#738EC0" width="1.4" height="18.6"/>
						<rect x="633.8" y="532.5" fill="#090E0A" width="1.1" height="18.5"/>
						<rect x="600.9" y="532.5" fill="#090E0A" width="1.1" height="18.5"/>
						<g>
							<path fill="#090E0A" d="M616,562c0,0,66.7,3.4,62.9,2.8c-3-0.5-61.4-3.8-61.4-3.8L616,562z"/>
							<rect x="616" y="522.2" fill="#2A60AD" width="2.1" height="39.7"/>
							<rect x="617" y="522.2" fill="#052743" width="1" height="39.7"/>
							<rect x="616" y="556.8" fill="#090E0A" width="2.1" height="5.2"/>
						</g>
						<polygon fill="#738EC0" points="647.5,505.1 737.1,516.7 737.1,528.1 647.5,523 						"/>
						<polygon fill="#738EC0" points="737.1,548.9 758.6,548.9 758.6,567.8 618.4,570.2 618.4,567.8 705.7,565.3 647.5,553.2 						
							"/>
						<rect x="583.7" y="515" fill="#052743" width="0.5" height="15.3"/>
						<rect x="590.4" y="514.3" fill="#052743" width="0.5" height="15.3"/>
						<rect x="600.5" y="513" fill="#052743" width="0.5" height="15.3"/>
						<rect x="631.7" y="506.9" fill="#052743" width="0.5" height="19.9"/>
						<polygon fill="#052743" points="652.9,532.4 652.9,549.3 651.2,549.3 651.2,532.4 						"/>
						<rect x="655.8" y="504.1" fill="#052743" width="1.5" height="21.8"/>
						<rect x="667.7" y="504.6" fill="#052743" width="0.7" height="21.8"/>
						<rect x="706.2" y="509.5" fill="#052743" width="0.7" height="21.8"/>
						<rect x="706.2" y="510.3" fill="#052743" width="0.7" height="19.3"/>
						<rect x="678.8" y="506" fill="#052743" width="1.5" height="21.8"/>
						<rect x="552.3" y="534.3" fill="#090E0A" width="22" height="3.8"/>
						<rect x="554.2" y="538.1" fill="#090E0A" width="17.2" height="0.7"/>
						<g>
							<polygon fill="#66C9D1" points="415.5,497.8 413.4,497.8 413.5,495.2 415.4,495.2 							"/>
						</g>
						<path fill="#738EC0" d="M550.5,425.4c-0.9-1.2-1.8-2.3-2.7-3.3c2,0.1,2.7,1.1,2.7,1.1L550.5,425.4z"/>
						<g>
							<g>
								<path fill="#090E0A" d="M682.2,573.7c0,0,7.8-0.7,9.1-1.1c0,0,0.8,0.2,2.1,0.2c1.4,0.1,7.9-0.2,7.9-0.2s1.2,0.2,3.8,0
									c2.7-0.2,6.1-0.2,7.2-0.4l-0.4-0.4c0,0,4.5,0.2,4.8-0.3c0,0-6.4-0.4-6.6-0.2s-13.6,0.3-13.6,0.3l2.4,0.4l-16.6,1
									L682.2,573.7z"/>
								<path fill="#090E0A" d="M685.5,544c0,0,0.1-0.8,0.8-0.8c0.7,0,1.8,0.6,2,1.8c0.2,1.2-0.9,2-1.6,1.9l-1.3-0.8L685.5,544z"/>
								<path fill="#685021" d="M684.9,546.3c0,0-0.2-0.6-0.2-0.8c0.1-0.2,0.8-1.5,0.8-1.5s-0.1,0.9,0.2,1.2c0,0,0.2-0.1,0.3,0.1
									c0.1,0.2-0.3,0.3-0.3,0.3l1,1.2l-1.1,0.7L684.9,546.3z"/>
								<path fill="#052743" d="M694.4,571.8c0,0-2.5,1.2-3.2,1.3c-0.7,0.1-5.4-12.5-5.4-12.5c-0.1,3.3-1.4,11.8-1.4,11.8l0.8,0.3
									l-0.1,0.6c-0.6,0.2-3,0.2-3,0.2l-0.6-14.2l-0.1-1.3l6.7-0.5l0.7-0.1l0.6,1.5c0.4,1.3,3.2,12.2,3.2,12.2l0.7,0.2l0.3-0.2
									c0.2-0.1,0.5-0.1,0.6,0.1c0,0.1,0.1,0.1,0.1,0.2L694.4,571.8z"/>
								<path fill="#FFFFFF" d="M689.3,557.2c0.2,1,0.3,1.8,0.1,2c-0.2,0.2-0.8,0.3-1.5,0.5c-2.1,0.4-5.5,0.7-6.4-0.1
									c-0.1-0.1-0.2-0.2-0.2-0.4c-0.2-1.1-0.8-2-1-3.9c-0.2-1.9,0.2-3.9,1.1-5.6l0.9-1.7c0,0,0.4-0.8,2.2-0.8l0.2-0.8
									c0,0,1.5,0,2.3,0.8v0.7c0,0,1.4,0.2,1.8,1.6s0.9,7.8,0.9,7.8S689.6,557.1,689.3,557.2z"/>
								<path fill="#090E0A" d="M694.3,571.5l-1,0.4h-1c0,0-0.8-3.1-1.3-4.8s-3.1-7.4-3.1-7.4s-0.1-0.4,0.2-0.8
									c0.1-0.1,0.1-0.5,0.1-1.1c-0.1-1.7-0.4-4.6-0.5-5c0,0,0,0,0,0c0.3,0.7,1.6,4.4,1.6,4.5l0,0c0.2,1,0.3,1.8,0.1,2
									c0.4,1.3,3.2,12.2,3.2,12.2l0.7,0.2l0.3-0.2C693.8,571.2,694.1,571.3,694.3,571.5z"/>
							</g>
							<g>
								<g>
									<path fill="#090E0A" d="M538.8,556.4l-1.9-5.2c0,0,1-1.6,0.9-5.1c0-2.5-1.1-4.6-1.7-5.6c-0.3-0.5-0.9-0.9-1.5-0.8
										c-0.6,0.1-1.2,0.4-1.2,1.5c-0.2,2.2,0.9,6.8,0.9,6.8v3.8l2.8,4.8l-0.7,0.9l-1.2,0.6l0,0.5h1.6c0.2,0,0.5-0.1,0.6-0.3
										L538.8,556.4z"/>
									<path fill="#090E0A" d="M534.9,550.2l-0.4,6.7l-1.5,0.8c-0.2,0.1-0.2,0.3-0.2,0.5l0,0h3.2l0.5-5.4L534.9,550.2z"/>
									<path fill="#F27547" d="M535.6,539.8c0,0,0.9-2.7-0.9-2.8c-1.8-0.1-1.6,2.1-0.8,2.8c0.5,0.4,1.2,0.7,1.2,0.7L535.6,539.8z"
										/>
									<path fill="#2A60AD" d="M538.5,548c0,0-0.2,0.1-0.5,0.2c-1.1,0.3-3.8,1.1-4.2,0.1c-0.1-0.3-0.2-0.7-0.4-1.3
										c-0.6-2.3-1.2-6.6,0.5-7.1c1.3-0.4,2.6-0.1,3.5,2.1C538,543.2,538.3,545.2,538.5,548z"/>
									<path fill="#090E0A" d="M538.5,548c0,0-0.2,0.1-0.5,0.2c-1.1,0.3-3.8,1.1-4.2,0.1c-0.1-0.3-0.2-0.7-0.4-1.3
										c1.8-0.7,2.1-3.2,2.1-3.2l1.9-1.8C538,543.2,538.3,545.2,538.5,548z"/>
									<path fill="#090E0A" d="M533.6,538.4l0.2,1.8c0,0,2,0.2,2.8-0.3c0,0-0.3-1.3-1-1.9C534.9,537.4,533.6,538.4,533.6,538.4z"
										/>
								</g>
								<path fill="none" stroke="#090E0A" stroke-width="0.752" stroke-miterlimit="10" d="M536.4,546.8c0,0-1.8-6.9-3-6.9"/>
								<path fill="#052743" d="M536.3,538.7c-0.2,0.6-1.2,0.8-2.2,0.4c-1-0.4-1.6-1.2-1.4-1.8s1.2-0.8,2.2-0.4
									C535.9,537.3,536.6,538.1,536.3,538.7z"/>
								<path fill="#052743" d="M535.6,538c-0.2,0.5-0.8,0.7-1.4,0.4s-0.9-0.8-0.8-1.2s0.8-0.7,1.4-0.4
									C535.5,537,535.8,537.5,535.6,538z"/>
								<path fill="#052743" d="M535.6,538c-0.2,0.5-0.8,0.7-1.4,0.4s-0.9-0.8-0.8-1.2s0.8-0.7,1.4-0.4
									C535.5,537,535.8,537.5,535.6,538z"/>
								<path fill="#090E0A" d="M535.6,538c-0.2,0.5-0.8,0.7-1.4,0.4c-0.3-0.1-0.6-0.4-0.7-0.7c0.1,0.1,0.3,0.2,0.5,0.3
									c0.6,0.2,1.2,0,1.4-0.4c0.1-0.2,0.1-0.4,0-0.6C535.6,537.3,535.8,537.7,535.6,538z"/>
								<polygon fill="#2A60AD" points="533.5,549.8 536.5,549.4 537.2,549.3 536.8,546.5 533.1,547 								"/>
								<path fill="#090E0A" d="M536.4,548.7c0,0.1,0.1,0.4,0.1,0.7l0.7-0.1l-0.4-2.9c0,0-0.8,1.8-1.6,2
									C535.3,548.5,536.3,548.4,536.4,548.7z"/>
							</g>
							<g>
								<path fill="#FFFFFF" d="M521.1,542.8c0,0-1.6,0.3-1.7,1.8c-0.1,1.4,0.3,1.8,0.9,1.7v8.3l-0.9,0.6h1.4c0,0,0.9-4,1-5.3
									l0.5,5.3c0,0,0.9,0.3,1.1,0.2s-0.2-0.8-0.2-0.8l0.2-9.4c0,0,0.5-2.2-0.5-2.6l-0.7-0.1v-0.4v-0.4c0-0.2-0.1-0.4-0.2-0.6
									c-0.1-0.2-0.3-0.4-0.7-0.3c-0.7,0.1-0.8,1.7-0.2,1.7C521.5,542.5,521.1,542.8,521.1,542.8z"/>
								<rect x="520.6" y="542.9" fill="#FDD600" width="2.3" height="6.1"/>
								<path fill="#052743" d="M520.6,542.3c0,0,0.5-0.4,0.8-0.3l0.3-0.6l0.2,0.3c0,0-0.6,0.9-0.9,1
									C520.7,542.7,520.5,542.6,520.6,542.3z"/>
								<path fill="#052743" d="M522.1,542.4c0,0-0.2,8.5,0.2,9s1.3,0.3,1.3-0.2c0-0.4,0.2-7.5-0.3-8.4
									C522.7,542.1,522.1,542.4,522.1,542.4z"/>
								<path fill="#052743" d="M521,542.6c0,0,0.1,8.9-0.2,9c-0.3,0.1-1.1,0.5-1.1-0.2c0-0.7,0-4.9,0-4.9s-0.8-1.4-0.3-2.5
									C519.7,543,521,542.6,521,542.6z"/>
							</g>
							<g>
								<polygon fill="#738EC0" points="474.4,561.2 474.2,563.7 476.8,564.8 477.3,564.4 475.8,563 475.7,560.9 								"/>
								<polygon fill="#738EC0" points="478.1,561.3 478.2,562.4 480,563.3 479.9,563.7 476.8,563.4 477,561.3 477.6,560.9 								
									"/>
								<path fill="#685021" d="M476.1,541.1l0.4-0.9c0,0-0.6-2.7,0.8-2.4c1.4,0.3,1.1,2.2,1.1,2.2s-0.1,0.9-0.3,1.1
									c-0.4,0.2-0.5,0-0.5,0l-0.1,1.3l-1.8-0.2L476.1,541.1z"/>
								<path fill="#090E0A" d="M475.6,554.5c0,0-1.7,6.4-1.3,7.1c0.1,0.2,0.4,0.4,0.6,0.5c0.5,0.1,1,0,1,0l1.1-5.9l-0.2,5
									c0.4,0.6,1.4,0,1.4,0s0.5-3.2,0.8-5s-0.3-6.1-0.3-6.1h1.1l-1.9-8.5c-1,0.2-1.8-0.6-1.8-0.6s-0.2,0-0.6,0.1
									c-0.7,0.2-1.8,0.9-2.2,3.3c-0.7,3.7,1.8,5.1,1.8,5.1C474.7,551,475.6,554.5,475.6,554.5z"/>
								<path fill="#052743" d="M475.6,554.5c0,0-1.7,6.4-1.3,7.1c0.1,0.2,0.4,0.4,0.6,0.5c0,0,0.3-2.9,1.1-4.6
									c0.7-1.7,1.8-6.9,2-7.8c0.2-0.9-0.7-3-0.9-3.8c-0.2-0.8,0-2,0.5-2.3s-0.1-0.5-0.8-0.8s-1.2-1.7-1.2-1.7
									c-0.7,0.2-1.8,0.9-2.2,3.3c-0.7,3.7,1.8,5.1,1.8,5.1C474.7,551,475.6,554.5,475.6,554.5z"/>
								<path fill="#FFFFFF" d="M478.3,538.1c-0.1,0.6-0.6,1-1.2,1c-0.4,0-0.8-0.2-1-0.6c0.1-0.6,0.6-1,1.2-1
									C477.7,537.5,478.1,537.8,478.3,538.1z"/>
								<path fill="#FFFFFF" d="M476.2,538.2c-0.6,0-1.1,0.3-1.3,0.8c0,0.1-0.1,0.1-0.2,0.1l0,0c-0.5,0-1,0.3-1.2,0.8
									c-0.1,0.2-0.2,0.2-0.3,0.3l0,0c-0.3,0.1-0.5,0.3-0.5,0.6c0,0.4,0.3,0.7,0.7,0.7c0.1,0,0.2,0,0.3-0.1c0.1-0.1,0.3-0.1,0.4,0
									c0.2,0.1,0.4,0.2,0.6,0.2c0.5,0,0.9-0.3,1.1-0.7c0-0.1,0.1-0.1,0.2-0.1c0,0,0.1,0,0.1,0c0.8,0,1.3-0.6,1.3-1.4
									C477.4,538.8,476.8,538.2,476.2,538.2z"/>
								<polygon fill="#090E0A" points="476.8,564.5 498.9,564 500.3,563.1 480.1,563.2 480.2,563.6 492.2,563.6 491,563.8 
									477.3,564.2 								"/>
							</g>
							<g>
								<path fill="#052743" d="M517.8,556.3h1.9l0,0c0-0.2-0.2-0.4-0.4-0.5l-1.2-0.2l0.6-4.8c0.2-1.2,0.1-2.5-0.2-3.7l0,0l-2,0.3
									l0.1,8.9l1,0l-0.3-5.1l0.1,4.8C517.3,556.2,517.5,556.3,517.8,556.3z"/>
								<path fill="#738EC0" d="M516.2,544.2c-0.2,1.9,0.2,4.3,0.2,4.3l2.2-0.7c0,0,0.7-4.9,0-5.7S516.4,542.2,516.2,544.2z"/>
								<path fill="#F27547" d="M518.5,542.1c0,0,0.4,0.1,0.5-0.8c0.1-0.9-0.8-1-1-0.8c-0.4,0.5-0.3,1.6-0.3,1.6L518.5,542.1z"/>
								<path fill="#052743" d="M517.9,541.9l0.2-0.9l0.6-0.2c0,0,0.5-0.8-0.6-0.6c-1,0.2-0.4,1.7-0.4,1.7L517.9,541.9z"/>
								<g>
									<path fill="#66C9D1" d="M517,542.1c-0.2-0.2,0-0.6,0.3-0.6c0.6,0,2,0,2.1,0.5C519.4,542.6,517.2,542.4,517,542.1L517,542.1
										z"/>
								</g>
								<g>
									<path fill="#66C9D1" d="M517,541.9c0,0-0.9,5.5-0.3,5.8c0.6,0.2,0.8,0,0.9-0.1c0.2-0.3,0.4-5.7,0.4-5.7H517z"/>
								</g>
							</g>
							<g>
								<path fill="#74263D" d="M526,542.5c0,0-0.1-0.8,0.2-1.4c0.4-0.7,1.4-0.3,1.3,0.5c0,0.2-0.1,0.5-0.3,0.9c0,0,0.1,0.8-0.7,1
									C525.8,543.7,526,542.5,526,542.5z"/>
								<path fill="#052743" d="M527.7,546.4l-0.1,7.2c-0.3,0.3-1.3,0.3-2,0.3c-0.5,0-0.9-0.1-0.9-0.1s-0.2-5.1-0.4-8.1
									c-0.2-2.9,1.8-3.2,1.8-3.2h1.2C528,543.8,527.7,546.4,527.7,546.4z"/>
								<path fill="#090E0A" d="M525.1,550.8c0.1,0.9,0.4,3.1,0.4,3.1c-0.5,0-0.9-0.1-0.9-0.1s-0.2-5.1-0.4-8.1c0,0,0.8,2.9,1.1,3
									c0.3,0.1,0.7,0,0.7,0S525,549.9,525.1,550.8z"/>
								<path fill="#090E0A" d="M525.5,554v1.7c0,0,0.9,0.2,1.4,0.2v-0.2l-0.7-0.5v-1.2L525.5,554L525.5,554z"/>
								<polyline fill="#090E0A" points="525.2,553.9 524.5,554.9 525.3,555.4 525.5,555.3 525.5,553.9 								"/>
								<path fill="#052743" d="M527.5,541.2c-0.1-0.1-0.2-0.3-0.4-0.3c-0.8-0.2-0.4,2-0.4,2h0.2l-0.3,0.6l-0.4-0.7
									c0,0-0.8-2.7,0.5-2.5C527.2,540.4,527.4,540.8,527.5,541.2z"/>
							</g>
						</g>
						<g>
							<path fill="#090E0A" d="M567,588.2c0,0,21.3-0.7,23.3-1.6l27.6-2.3c0,0,7.5-0.7,8.4-1.3c0,0-4.9-2.6-9.8-1.6
								c-5,1-11.4,0.6-11.4,0.6l-36.4,2.8l1.2,1l-17,1.4l0.3,1l25.2-2.4c0,0,0.7,1.1,0.3,1.2c-0.4,0.1-12.1,0.8-12.1,0.8L567,588.2z
								"/>
							<g>
								<path fill="#052743" d="M579.1,583.1c0,0-0.8,0.8-1,1c-0.1,0.2-2.1,1-2.1,1v0.7c0,0,3.2,1.2,5.6,0.6l0.1-3l-1.3-0.8
									L579.1,583.1z"/>
								<path fill="#052743" d="M587.8,584.5c0,0,0,0.2-0.1,0.3c-0.1,0.4-0.4,1.2-1.2,1.3c-1.2,0.3-2.7,0.2-2.7,0.2l-0.2-3.1
									l1.1-1.4l0.8,0.5l0.5,0.3l0,0L587.8,584.5z"/>
								<path fill="#738EC0" d="M586,582.3c0,0.1,0,0.2-0.1,0.3c-0.1,0.2-0.2,0.4-0.4,0.6c-0.6,0.4-1.6,0.3-1.9,0.1
									c-0.4-0.3,0-8.4,0-9.8c0-1.1-0.8-5.1-1.2-7.3c0-0.2-0.3-0.2-0.3,0c0,4.3,0,16.8-0.3,17.1c-0.4,0.4-2.3,0.7-2.8,0
									c-0.5-0.7-0.9-4.3-1.8-9c-0.9-4.7,0-15.4,0-15.4l3.8-6.8l3.3,4l2.3,2.8c0,0,0.8,9.5,1,11.3
									C587.8,572.1,586.2,580.8,586,582.3z"/>
								<path fill="#090E0A" d="M587.8,584.5c0,0,0,0.2-0.1,0.3c-0.8-0.2-1.9-0.4-2-0.7c-0.1-0.2-0.1-0.5-0.2-0.9c0-0.2,0-0.6,0-0.8
									c-0.1-2.1,1.4-6.9,0.9-12.2c-0.3-3.9-2-9.9-2-9.9v-4.1l2.3,2.8c0,0,0.8,9.5,1,11.3c0.2,1.8-1.5,10.6-1.7,12
									c0,0.1,0,0.2-0.1,0.3l0,0L587.8,584.5z"/>
								<path fill="#F27547" d="M582.3,541l-0.4-2.6h-3.6l-0.5,2.6c0,0,1.9,2.5,2.1,2.4C580.1,543.4,582.3,541,582.3,541z"/>
								<path fill="#F27547" d="M582.4,536.2c0,0,0.4-0.2,0.5,0s0.1,1.6-0.3,1.8s-0.4,0.2-0.4,0.2s-0.2,1.8-1.9,1.8
									c-1.7,0-3.4-0.6-3.5-3.1s1-4.2,2.9-4.1C581.7,532.8,582.6,534.3,582.4,536.2z"/>
								<path fill="#EB2047" d="M587.4,553.2c0,0,1.6,6.2-3.1,7.1c-4.7,0.9-8.1,0.5-7.6-4.5c0,0-2.2-1.4-1.6-6.5
									c0.6-5.1,0.9-6.1,2.8-8.2c0,0,2.4,1.2,4.4,0c0,0,5.2,1.2,5.9,9.3C588.2,550.4,588.2,552.3,587.4,553.2z"/>
								<path fill="#090E0A" d="M584.3,560.2c2.1-0.7,1.7-3.5,1.7-5.1c0-1.5-0.8-6.8-0.8-7.2c0.7,2.6,2.2,5.2,2.2,5.2
									S589,559.3,584.3,560.2z"/>
								<path fill="#090E0A" d="M582.7,536.2c0,0,0.2,2.8-1.4,4.6c-1.5,1.7-5.2,2.3-5.2,2.3s1.6-2.1,0.9-4.9c-0.5-2,0.2-5.9,2.7-5.9
									C582,532.3,582.7,534,582.7,536.2z"/>
							</g>
							<g>
								<path fill="#738EC0" d="M569.1,587.6c-0.1,0.1-0.3,0.2-0.6,0.3c-1.7,0.8-3.5,1.1-5.3,1.1c-0.6,0-1.1,0-1.3-0.1
									c-0.8-0.3,0-4,0-4l0-0.1l0.8-1.6l1.7,0.6l1.1,0.4l3.5,2.2c0,0,0.1,0.2,0.1,0.5C569.3,587.2,569.2,587.5,569.1,587.6z"/>
								<path fill="#738EC0" d="M551.9,584.7c0,0-1.1,3.6-0.3,3.9s6.1-0.9,6.1-0.9v-1l-2.3-2.2l-1.3-1.4L551.9,584.7z"/>
								<path fill="#052743" d="M566.9,563.5c-1.4,15.6-0.3,20.2-1.3,20.8c-0.3,0.2-0.8,0.3-1.3,0.5c-0.8,0.2-1.7,0.2-2.4,0.1
									c-0.4-0.1-0.8-0.2-0.8-0.5c0-0.9-0.2-19.1,0-20.3c0,0-1.9-11.6-2.2-13.9c0,0-2.8,14.6-2.7,16.2c0.1,1.5-0.2,17.5-0.4,18
									s-4.2,0.9-4.4,0.1c-0.2-0.8-1.8-14.5-0.4-20.1c0,0-0.2-18.1,1-21.5l13.6-0.4C565.7,542.4,568.4,547.8,566.9,563.5z"/>
								<path fill="#090E0A" d="M566.7,547.7l-1.1-5.3l-13.6,0.4c-0.3,0.8-0.5,2.4-0.6,4.4c-0.8-1.2-2.4-4-3.1-7.9
									c-0.6-3.6,0.4-8.8,1.5-12.2c0.5-1.5,1-1.9,1.3-2.4c1-1.7,5.8-3,5.8-3v-3.4h0l4.8,0.4v0v0l-1.1,3.6c0.7,0.2,1.5,0.5,2.3,0.8
									l0,0c1,0.5,1.9,0.9,1.9,0.9c1.8,1.7,3.8,10.3,3.9,11.8C569,539.8,566.7,547.7,566.7,547.7z"/>
								<path fill="#052743" d="M566.7,546.3l-1.1-3.9C565.7,542.4,566.2,543.5,566.7,546.3z"/>
								<path fill="#052743" d="M563.4,523.3c-0.1,0-2.6,0.4-2.6,1.7l-2.6-0.2l1.1-1.9c0,0,0.5-0.3,1.8-0.4
									C561.8,522.7,562.6,523,563.4,523.3z"/>
								<path fill="#090E0A" d="M557.2,545.4c0,0,9.8-0.7,7.2-12s-6.4-10.5-6.4-10.5s-7-0.8-7.1,5.4S546.8,546.2,557.2,545.4z"/>
								<path fill="#052743" d="M561.6,519.2c-0.1,0.2-0.2,0.4-0.2,0.6l0,0c-0.3,0.5-0.7,0.9-1.2,1l0,0c-0.2,0-0.3,0-0.5,0
									c-1.6-0.2-2.9-3-2.9-3s-0.5,0.2-0.5-1.1s0.5-0.6,0.5-0.6c-0.1-0.9,0.1-1.7,0.4-2.4l0,0c0.7-1.4,2.1-2,4.2-1.2
									C563.6,513.5,562.2,517.6,561.6,519.2z"/>
								<path fill="#090E0A" d="M560.1,520.8L560.1,520.8c-0.2,0-0.3,0-0.5,0c-1.6-0.2-2.9-3-2.9-3s-0.5,0.2-0.5-1.1
									s0.5-0.6,0.5-0.6c-0.1-0.9,0.1-1.7,0.4-2.4C557,514,556.4,520.2,560.1,520.8z"/>
								<path fill="#F27547" d="M562.3,522.9c-0.6-0.2-1.2-0.5-1.7-0.6c-1.3,0-1.8,0.4-1.8,0.4l-0.7,1.3c-1-0.2-2-0.6-2.5-1.5
									c0,0-0.7-2.8,0-3.2c0.7-0.4,7.2-0.2,7.5,1.1C563.4,521.1,562.8,522.1,562.3,522.9z"/>
								<path fill="#FFFFFF" d="M556.2,544.2L556.2,544.2c-0.8,0.1-1.4,0-2,0c-0.1,0-0.2,0-0.2,0c-7.5-1.1-4.7-11.4-4.1-17.1
									c0.4-3.5,3.1-4.8,5.2-5.2c1.2-0.2,2.2-0.2,2.7,0c0.4,0.1,0.8,0.3,1.3,0.8c0.2,0.2,0.4,0.4,0.6,0.7c0.2,0.2,0.3,0.4,0.5,0.7
									c1,1.5,2.2,4.1,3.1,8.3C565.9,543.5,556.2,544.2,556.2,544.2z"/>
								<path fill="#FFFFFF" d="M562.9,523.2c-0.1,0-2.2,0-2.8,0.8c-0.1,0.1-0.2,0.3-0.2,0.5l-0.3,0l-1.9,0.2l1.1-2
									c0,0,0.1,0,0.2-0.1c0.2-0.1,0.8-0.2,1.6-0.3c0.4,0.1,1,0.3,1.5,0.5C562.4,522.9,562.7,523.1,562.9,523.2z"/>
								<path fill="#D39E2B" d="M558.9,537.4c-6.8,2.7-8.7,0.4-8.7,0.4s2.2-3.1,4.3-2.9C556.6,535.2,558.9,537.4,558.9,537.4z"/>
								<path fill="#090E0A" d="M564.9,581.9c0.5-2.9,0.4-19.2,0.3-21.3c-0.1-2.1-0.5-4.2-0.9-6.6c-1.4-9.1,1.3-11.7,1.3-11.7
									s2.7,5.5,1.3,21.1s-0.3,20.2-1.3,20.8l3.5,2.2c0,0,0.1,0.2,0.1,0.5l-5.3-0.7c0,0,0.2-0.6,0.4-1.6c0.1-0.2,0.1-0.5,0.2-0.9
									C564.7,583.3,564.8,582.7,564.9,581.9z"/>
								<path fill="#FFFFFF" d="M558.9,537.4c-4.4-1.4-8.7,0.4-8.7,0.4c0.1-0.6-0.2-3-0.2-5.7c0-4,0.6-8.7,4.2-8.7
									c1.9,0,3,1.4,3.8,3.3C559.5,530.9,558.9,537.4,558.9,537.4z"/>
								<path fill="#FDD600" d="M553.9,523.5c0,0-2.5,4.4-0.9,13.6l0.8,1.6c0,0,0.3,2.9,0.1,5.4c-7.5-1.1-4.7-11.4-4.1-17.1
									c0.4-3.5,3.1-4.8,5.2-5.2C555.1,521.8,553.8,522.7,553.9,523.5z"/>
								<path fill="#090E0A" d="M553.8,538.7c-2.7,0.2-3.5-0.8-3.5-0.8s1.1-1.6,2.5-2.4c0.1,0.5,0.2,1.1,0.2,1.6L553.8,538.7z"/>
								<path fill="#D39E2B" d="M553,537.1c-1.7,0.3-2.8,0.8-2.8,0.8c0.1-0.6-0.2-3-0.2-5.7c0-3.9,0.6-8.4,3.9-8.7
									C553.8,523.7,551.4,528.1,553,537.1z"/>
								<path fill="#090E0A" d="M553.9,523.5c0,0,4.6-0.7,5.1,10.1c0,0,0.7-3.5,0-7.4c-0.7-3.9-3.9-4.3-3.9-4.3l-2.4,1.2
									L553.9,523.5z"/>
							</g>
						</g>
					</g>
				</g>
			</g>
		</g>
		<g id="info">
		</g>
		<g id="header">
		</g>
	</g>
</g>
</svg>
