<?xml version="1.0" encoding="utf-8"?>
<!-- Generator: Adobe Illustrator 18.1.1, SVG Export Plug-In . SVG Version: 6.00 Build 0)  -->
<svg version="1.1" xmlns="http://www.w3.org/2000/svg" xmlns:xlink="http://www.w3.org/1999/xlink" x="0px" y="0px"
	 viewBox="0 0 1080 1920" enable-background="new 0 0 1080 1920" xml:space="preserve">
<g id="backs">
	<rect x="-0.2" y="-0.4" fill="#17B89E" width="1082.7" height="1920.4"/>
	<g>
		<defs>
			<rect id="SVGID_9_" x="0" y="1207.6" width="1082.5" height="712.4"/>
		</defs>
		<clipPath id="SVGID_2_">
			<use xlink:href="#SVGID_9_"  overflow="visible"/>
		</clipPath>
		<g clip-path="url(#SVGID_2_)">
			<g>
				<path fill="#090E0A" d="M990.6,1686.1c0,0,30.3-2.7,35.3-4.4c0,0,2.9,0.7,8.3,1c5.4,0.4,30.8-1,30.8-1s4.5,1,14.8,0
					c10.4-1,23.6-0.6,28.1-1.7l-1.6-1.6c0,0,17.3,0.9,18.8-1c0,0-24.9-1.6-25.6-0.9c-0.7,0.7-52.8,1.3-52.8,1.3l9.2,1.6l-64.4,3.9
					L990.6,1686.1z"/>
				<path fill="#090E0A" d="M1003.6,1570.9c0,0,0.4-3.2,3-3.1c2.7,0.1,6.8,2.4,7.7,6.9c0.9,4.5-3.5,7.8-6.1,7.2l-5.2-3
					L1003.6,1570.9z"/>
				<path fill="#695122" d="M1001.3,1580c0,0-0.9-2.2-0.6-3.2c0.3-1,2.9-5.9,2.9-5.9s-0.2,3.7,0.7,4.6c0,0,0.9-0.3,1.1,0.5
					c0.2,0.8-1.1,1.3-1.1,1.3l4,4.7l-4.2,2.6L1001.3,1580z"/>
				<path fill="#052743" d="M1038,1678.9c0,0-9.8,4.8-12.4,5.2c-2.7,0.4-21.1-48.3-21.1-48.3c-0.3,12.9-5.3,45.7-5.3,45.7l3.3,1.1
					l-0.3,2.4c-2.2,0.6-11.6,1-11.6,1l-2.4-54.9l-0.2-5.2l26.1-2l2.7-0.2l2.2,5.6c1.7,5.1,12.4,47.2,12.4,47.2l2.5,1l1.2-0.8
					c0.9-0.5,1.9-0.3,2.5,0.5c0.1,0.2,0.3,0.4,0.3,0.7L1038,1678.9z"/>
				<path fill="#FFFFFF" d="M1018.5,1621.9c1,3.7,1.3,6.8,0.4,7.6c-0.7,0.6-2.9,1.4-5.9,2c-8,1.7-21.3,2.8-24.8-0.3
					c-0.4-0.4-0.7-0.9-0.8-1.4c-0.6-4.3-3.1-7.7-3.8-15.3c-0.7-7.5,0.9-15,4.4-21.7l3.4-6.5c0,0,1.7-2.9,8.5-3.3l0.9-2.9
					c0,0,5.9,0.1,9.1,2.9v2.6c0,0,5.3,0.6,6.9,6c1.6,5.5,3.6,30.2,3.6,30.2S1019.5,1621.9,1018.5,1621.9z"/>
				<path fill="#090E0A" d="M1037.5,1677.5l-3.8,1.6h-3.7c0,0-3.2-11.9-5-18.7c-1.9-6.9-12-28.8-12-28.8s-0.3-1.8,0.9-3.2
					c0.3-0.4,0.3-2,0.2-4.2c-0.3-6.4-1.7-17.9-1.9-19.5c0-0.1,0-0.2,0-0.2c1,2.8,6.2,17.1,6.3,17.5c0,0,0,0,0,0
					c1,3.7,1.3,6.8,0.4,7.6c1.7,5.1,12.4,47.2,12.4,47.2l2.5,1l1.2-0.8C1035.9,1676.5,1037,1676.7,1037.5,1677.5z"/>
			</g>
			<g>
				<g>
					<path fill="#090E0A" d="M722,1675.7l-7.4-20.1c0,0,3.8-6.2,3.7-19.9c-0.1-9.7-4.1-17.9-6.5-21.8c-1.2-2.1-3.5-3.4-5.9-3.2
						c-2.2,0.2-4.4,1.5-4.8,5.8c-0.6,8.6,3.5,26.3,3.5,26.3v14.9l10.8,18.5l-2.5,3.4l-4.6,2.2l0.2,1.8l6.2,0c1,0,1.9-0.5,2.5-1.3
						L722,1675.7z"/>
					<path fill="#090E0A" d="M706.7,1651.5l-1.6,26l-5.8,2.9c-0.6,0.4-0.9,1.1-0.9,1.8l0,0H711l1.9-21.1L706.7,1651.5z"/>
					<path fill="#F17547" d="M709.2,1611.4c0,0,3.4-10.4-3.6-10.7c-7-0.3-6.1,8-2.9,10.7c1.8,1.6,4.7,2.6,4.7,2.6L709.2,1611.4z"/>
					<path fill="#2A60AD" d="M720.6,1643.3c0,0-0.7,0.2-1.8,0.6c-4.2,1.3-14.8,4.2-16.3,0.2c-0.4-1-0.9-2.8-1.5-5.1
						c-2.2-9-4.6-25.4,1.8-27.7c5-1.7,10.2-0.5,13.7,8C718.6,1624.5,720,1632.1,720.6,1643.3z"/>
					<path fill="#090E0A" d="M720.6,1643.3c0,0-0.7,0.2-1.8,0.6c-4.2,1.3-14.8,4.2-16.3,0.2c-0.4-1-0.9-2.8-1.5-5.1
						c6.9-2.6,8.1-12.4,8.1-12.4l7.4-7.2C718.6,1624.5,720,1632.1,720.6,1643.3z"/>
					<path fill="#090E0A" d="M701.8,1605.8l0.8,7.1c0,0,7.9,0.6,10.7-1.1c0,0-1.1-5.3-3.8-7.5
						C706.9,1602.2,701.8,1605.8,701.8,1605.8z"/>
				</g>
				<path fill="none" stroke="#090E0A" stroke-width="0.911" stroke-miterlimit="10" d="M712.5,1638.6c0,0-7.2-26.8-11.5-26.8"/>
				<path fill="#052743" d="M712.2,1607c-0.9,2.4-4.7,3.2-8.6,1.7c-3.8-1.4-6.2-4.5-5.3-6.9c0.9-2.4,4.7-3.2,8.6-1.7
					C710.7,1601.5,713.1,1604.6,712.2,1607z"/>
				<path fill="#052743" d="M709.5,1604.4c-0.7,1.8-3.1,2.5-5.4,1.7c-2.3-0.9-3.6-3-2.9-4.8c0.7-1.8,3.1-2.5,5.4-1.7
					C708.9,1600.4,710.2,1602.6,709.5,1604.4z"/>
				<path fill="#052743" d="M709.5,1604.4c-0.7,1.8-3.1,2.5-5.4,1.7c-2.3-0.9-3.6-3-2.9-4.8c0.7-1.8,3.1-2.5,5.4-1.7
					C708.9,1600.4,710.2,1602.6,709.5,1604.4z"/>
				<path fill="#090E0A" d="M709.5,1604.4c-0.7,1.8-3.1,2.5-5.4,1.7c-1.3-0.5-2.3-1.4-2.8-2.5c0.5,0.5,1.1,0.9,1.8,1.1
					c2.3,0.9,4.7,0.1,5.4-1.7c0.3-0.7,0.2-1.5-0.1-2.3C709.5,1601.7,710,1603.1,709.5,1604.4z"/>
				<polygon fill="#2A60AD" points="701.1,1650.3 712.8,1648.7 715.7,1648.3 714.2,1637.2 699.7,1639.1 				"/>
				<path fill="#090E0A" d="M712.4,1645.9c0,0.4,0.3,1.5,0.5,2.8l2.8-0.4l-1.5-11.1c0,0-3.3,7-6.2,7.7
					C708.2,1644.9,712.2,1644.8,712.4,1645.9z"/>
			</g>
			<g>
				<polygon fill="#738EC0" points="512.1,1694.5 511.4,1704 521.6,1708 523.5,1706.6 517.5,1701.2 517,1693.2 				"/>
				<polygon fill="#738EC0" points="526.4,1694.9 527,1698.8 533.8,1702.5 533.6,1704 521.6,1702.8 522.1,1694.9 524.6,1693.2 				
					"/>
				<path fill="#695122" d="M518.6,1616.2l1.6-3.6c0,0-2.3-10.3,3.1-9.2c5.4,1.1,4.2,8.7,4.2,8.7s-0.4,3.7-1.2,4.1c-1.6,0.8-2,0-2,0
					l-0.4,5.2l-6.9-0.6L518.6,1616.2z"/>
				<path fill="#090E0A" d="M516.7,1668.5c0,0-6.5,24.7-5.2,27.6c0.5,1,1.4,1.5,2.4,1.8c1.9,0.5,4,0,4,0l4.4-22.8l-0.6,19.5
					c1.7,2.2,5.5,0,5.5,0s2-12.2,3-19.5c1.1-7.2-1.1-23.7-1.1-23.7h4.1l-7.4-32.8c-3.8,0.6-7.2-2.3-7.2-2.3s-0.9-0.1-2.3,0.2
					c-2.7,0.7-7,3.4-8.6,12.8c-2.5,14.2,6.8,19.8,6.8,19.8C513.4,1654.8,516.7,1668.5,516.7,1668.5z"/>
				<path fill="#052743" d="M516.7,1668.5c0,0-6.5,24.7-5.2,27.6c0.5,1,1.4,1.5,2.4,1.8c0,0,1.4-11.3,4.1-18
					c2.7-6.6,6.8-26.9,7.7-30.4c0.9-3.4-2.7-11.5-3.3-14.6c-0.7-3.1-0.2-7.7,1.8-9.1c1.9-1.4-0.4-1.8-3.1-2.9
					c-2.7-1.1-4.8-6.5-4.8-6.5c-2.7,0.7-7,3.4-8.6,12.8c-2.5,14.2,6.8,19.8,6.8,19.8C513.4,1654.8,516.7,1668.5,516.7,1668.5z"/>
				<path fill="#FFFFFF" d="M527.3,1604.7c-0.3,2.3-2.2,4-4.6,4c-1.7,0-3.1-0.9-3.9-2.2c0.3-2.3,2.2-4,4.6-4
					C525,1602.5,526.5,1603.4,527.3,1604.7z"/>
				<path fill="#FFFFFF" d="M519,1605c-2.3-0.1-4.2,1.3-5,3.3c-0.1,0.3-0.4,0.4-0.6,0.4h0c-2.1,0-3.9,1.3-4.5,3.2
					c-0.2,0.6-0.7,1-1.3,1.1c0,0,0,0,0,0c-1.1,0.2-2,1.1-2.1,2.3c-0.1,1.5,1,2.8,2.5,2.8c0.5,0,0.9-0.1,1.3-0.3
					c0.5-0.3,1.2-0.3,1.7,0c0.7,0.4,1.5,0.7,2.4,0.7c1.9,0,3.6-1.2,4.4-2.8c0.1-0.3,0.4-0.4,0.7-0.4c0.1,0,0.2,0,0.3,0
					c2.9,0,5.2-2.4,5.1-5.3C523.7,1607.3,521.6,1605.2,519,1605z"/>
				<polygon fill="#090E0A" points="521.4,1707.2 607,1705.2 612.4,1701.5 534.4,1702.1 534.5,1703.4 580.9,1703.5 576.5,1704.6 
					523.3,1706 				"/>
			</g>
			<g>
				<path fill="#052743" d="M640.1,1675.5h7.5v-0.1c-0.1-1-0.8-1.8-1.7-1.9l-4.4-0.8l2.2-18.8c0.6-4.8,0.3-9.7-0.7-14.4l0,0
					l-7.8,1.1l0.4,34.6l3.8-0.2l-1.1-19.7l0.3,18.6C638.6,1674.8,639.3,1675.5,640.1,1675.5z"/>
				<path fill="#738EC0" d="M634.3,1628.3c-0.8,7.4,0.8,16.8,0.8,16.8l8.6-2.8c0,0,2.6-18.9,0-22.1
					C641.1,1617.1,635.1,1620.8,634.3,1628.3z"/>
				<path fill="#F17547" d="M643.1,1620.1c0,0,1.6,0.5,2-3.1c0.4-3.6-3.1-4-4-2.9c-1.6,2.1-1.1,6.4-1.1,6.4L643.1,1620.1z"/>
				<path fill="#052743" d="M640.8,1619.6l0.6-3.5l2.3-0.9c0,0,1.9-3.1-2.3-2.2c-3.8,0.8-1.6,6.7-1.6,6.7L640.8,1619.6z"/>
				<g>
					<path fill="#66C9D1" d="M637.1,1620.3c-0.8-0.9-0.1-2.3,1.1-2.4c2.3-0.1,7.7-0.1,8.1,1.8
						C646.7,1622.1,638.3,1621.5,637.1,1620.3C637.1,1620.3,637.1,1620.3,637.1,1620.3z"/>
				</g>
				<g>
					<path fill="#66C9D1" d="M637.3,1619.6c0,0-3.6,21.4-1.3,22.3c2.3,0.9,3.2,0,3.4-0.4c0.7-1.4,1.4-21.9,1.4-21.9H637.3z"/>
				</g>
			</g>
			<g>
				<path fill="#090E0A" d="M80.2,1696.1l27.7,0.8l39.2,1.3c1.3,0,2.7-0.3,3.8-0.9c0.8-0.4,1.5-0.9,1.6-1.3
					c0.5-1.5-38.3,0.1-56.9-0.6c-6.9-0.3-8.4-1.7-8.4-1.7L80.2,1696.1z"/>
				<path fill="#090E0A" d="M88.8,1618.6c0-1.3-0.7-3.1-0.7-3.1s-2.7-4.3,1.4-6.4c4.1-2.1,6.1,1.1,6.1,3.8c0.1,2.7,0.3,3.9,0.3,3.9
					l-1.9,1.3L88.8,1618.6z"/>
				<path fill="#052743" d="M90.1,1694.7c0,0,1.7-24.4,1.1-27.1c0,0,9.7-5.7,10.6-17.5c0,0-6.9-4-18.4-2.7c0,0-1.5,2.2-0.7,13.1
					c0.8,10.9-1.1,29.8-1.1,29.8l-1.7,3.8l0.3,2L90.1,1694.7z"/>
				<polygon fill="#052743" points="111.6,1695.7 111.6,1696.4 100.5,1696 94.9,1666.9 93.2,1658.2 97.3,1654.4 101.9,1650.1 
					107.4,1693.2 111.6,1695.7 				"/>
				<path fill="#F4BF1B" d="M104.8,1625.9c-0.1,6.9-0.5,21.2-2.9,24.2c0,0-2.6,0.2-5.8,0.2c-5.3,0-12.2-0.4-12.6-2.9l-0.4-8.1
					l-0.1,9.5l-0.1,8.5c0,0-0.1,0.1-0.4,0.2c-0.6,0.3-1.9,0.5-2.6-1.6c-1-2.9-5.9-27.6,3.9-33.5c6.6-4,12.4-4,16.4-2.7
					c2.4,0.8,4.2,2.9,4.5,5.4C104.7,1625.3,104.8,1625.6,104.8,1625.9z"/>
				<path fill="#F4BF1B" d="M97.5,1619c0,0,0.7-2-0.3-2.1c-1-0.1-5.7-0.3-8.4,1.7l0.2,1.4l8.3,0.3L97.5,1619z"/>
				<path fill="#090E0A" d="M111.6,1695.7l-6.8-1.6c0,0-2.7-17.4-3.1-22.1c-0.2-2.2-1.4-7-2.7-11.5c-0.6-2.2-1.2-4.3-1.7-6
					c-0.6-2.1-1.1-3.6-1.2-4.2c3.2,0,5.8-0.2,5.8-0.2l5.5,43.1L111.6,1695.7z"/>
				<path fill="#052743" d="M87.6,1614.3c0,0,4.5,0.7,7-2.4c2.5-3.1-2.3-7.8-6.4-6.2C84.1,1607.4,87.6,1614.3,87.6,1614.3z"/>
			</g>
			<g>
				<path fill="#74263D" d="M672.3,1622c0,0-0.5-3.2,0.6-5.4c1.5-2.7,5.6-1.2,5.1,1.8c-0.1,0.9-0.5,2.1-1.2,3.5c0,0,0.3,3.3-2.5,3.8
					C671.4,1626.3,672.3,1622,672.3,1622z"/>
				<path fill="#052743" d="M678.6,1637l-0.5,28c-1.4,1.3-5,1.3-7.8,1.1c-1.9-0.2-3.3-0.4-3.3-0.4s-1-19.9-1.7-31.3
					c-0.7-11.4,7-12.5,7-12.5h4.5C680,1626.7,678.6,1637,678.6,1637z"/>
				<path fill="#090E0A" d="M668.7,1654.1c0.3,3.7,1.6,12,1.6,12c-1.9-0.2-3.3-0.4-3.3-0.4s-1-19.9-1.7-31.3c0,0,3.2,11.2,4.3,11.7
					c1.1,0.5,2.6,0,2.6,0S668.4,1650.4,668.7,1654.1z"/>
				<path fill="#090E0A" d="M670.3,1666.2v6.7c0,0,3.6,0.9,5.6,0.7v-0.7l-2.8-2v-4.7L670.3,1666.2z"/>
				<polyline fill="#090E0A" points="669,1665.9 666.3,1669.8 669.6,1671.7 670.3,1671.5 670.3,1666.1 				"/>
				<path fill="#052743" d="M677.9,1616.8c-0.3-0.4-0.9-1.2-1.5-1.4c-3.3-1-1.7,7.7-1.7,7.7l0.7,0l-1.3,2.4l-1.7-2.6
					c0,0-2.9-10.3,2.1-9.7C676.7,1613.5,677.7,1615.4,677.9,1616.8z"/>
			</g>
			<g>
				<g>
					<g>
						<path fill="#66C9D1" d="M210.5,1600.4c0,0,1.8-7,3-7.2c1.3-0.2,3.8-0.7,6.4,0c2.6,0.7,10.6,5.6,10.9,6.6c0.3,1.1,0,3.8,0,3.8
							l-1,1.4l-10-1.5l-6.1-0.1L210.5,1600.4z"/>
					</g>
					<path fill="#090E0A" d="M210,1610.7c0,0-9.2-3.5-5.6-7.6c3.4-3.8,20.8-5.8,29.1,2.6c1.5,1.5,1.3,4.1-0.4,5.3
						c-1.3,0.9-3.3,1.5-6.5,1.4c-8.4-0.4-9.8-7.3-9.8-7.3l-4.7,4.6L210,1610.7z"/>
					<path fill="#74263D" d="M228,1614.4l0.6,7.4l-2.4,4.7l-9.4,0.4l-0.6-4.5l0-0.1c-1.4,0-2.8-0.6-3.6-1.8
						c-0.1-0.2-0.3-0.4-0.4-0.7c-0.4-0.7-0.7-1.5-1-2.4c-0.7-2.5-0.8-5-0.8-5s-0.6-7,0-8.7c0.6-1.8,3-2.8,8.4-2.4
						c5.5,0.4,6.5,8.2,6.5,8.2c4.4-4.5,4.7,0,4.7,0C230.2,1612.3,228,1614.4,228,1614.4z"/>
					<g>
						<path fill="#66C9D1" d="M247.2,1629.3c0,0-3.2-2.3-15.6-1.9v-6.2l-17.9,4.1v3.2c0,0-14.1,6.5-14.7,13.1
							c-0.6,6.5-4.6,21.3,1.9,30.8l16.9-4.6l22.8,25.3l10.8-33.6L247.2,1629.3z"/>
					</g>
					<path fill="#090E0A" d="M226.5,1612.6c-0.6,0.8-1.7,2.5-4.1,5.7c-2.1,2.9-4.3,4-6.3,4.2l0-0.1c-1.4,0-2.8-0.6-3.6-1.8
						c-0.1-0.2-0.3-0.4-0.4-0.7c6,0.4,9.2-3.1,9.2-3.1c-0.5-5.9,3.9-7.3,3.9-7.3S227.4,1611.2,226.5,1612.6z"/>
					<polygon fill="#090E0A" points="254.3,1594.1 250.5,1656.6 245.9,1656.1 244.8,1641.9 250.5,1594.7 					"/>
					<path fill="#FFFFFF" d="M259.6,1771.2c-3.9,0.6-8.5,0.3-14.1-1.4c-29.2-8.8-18.5-47.2-12.2-64.1c1.8-4.9,3.3-8,3.3-8h-2.3
						c0,0-2.9-14.7-3.4-25.4c-0.4-10.7,10.7-19.8,10.7-19.8l5.1-43.1c0,0,1.7-14.6,2.5-21.4c0.6-4.8,6.9-10.5,10.6-13.5
						c2.1-1.7,5.1-2,7.5-0.6c6.4,3.9,1.8,11.1-2.9,11.1c-3.1,0-4.2-0.7-4.2-0.7c-2.1,1.3-2.8,14.2-2.8,14.2h-5.2l-4.3,50.3l2.5-2.1
						c0.9,5,9.8,12.2,14.4,20.4c4.6,8.1,3,31.7,3,31.7l-3.2,0.6c-3.4,17.5,7.9,21.2,7.9,21.2
						C277.7,1730.9,281.8,1767.6,259.6,1771.2z"/>
					<path fill="#738EC0" d="M284.3,1696.4l-16.4,2.4c0,0,1.7-23.6-3-31.7c-4.6-8.1-13.6-15.3-14.4-20.4l13.4-1.5
						c0,0,1.5,3.9,5.7,7.7C273.8,1656.7,287.7,1671.9,284.3,1696.4z"/>
					<path fill="#090E0A" d="M259.6,1771.2c-3.9,0.6-8.5,0.3-14.1-1.4c-29.2-8.8-18.5-47.2-12.2-64.1c5.7,6.1,9.9,10.2,18,23.7
						C258.5,1741.3,259.6,1765.7,259.6,1771.2z"/>
					<path fill="#052743" d="M257.7,1771.7l0.1-0.3c24.3-1.8,20-40.3,14.7-50.9l17-1.9C289.5,1718.5,310,1774.2,257.7,1771.7z"/>
					<path fill="#090E0A" d="M289.5,1718.5l-17,1.9c0,0-11.2-3.6-7.9-21.2l3.2-0.6l14.5-2.1C277.7,1711.8,289.5,1718.5,289.5,1718.5
						z"/>
					<path fill="#74263D" d="M254.2,1610.3c0,0,0.6-4.8-0.6-5.1c-1.1-0.3-2.6-0.2-3.7,0.3c-1.2,0.6-2.1,0.8-1.3,1.6
						c0.8,0.8,3.7-0.3,3.7-0.3l-0.4,2.2L254.2,1610.3z"/>
					<path fill="#74263D" d="M210.3,1668.8l20.6,11c0,0,3.9,6.5,4.9,6c1.1-0.5-2-7.6-2-7.6s4.4,6.5,5.4,6.5c0.8,0,1.5-0.6,0.2-3.3
						c-0.3-0.7-0.7-1.4-1.3-2.4c-2.9-4.7-2.1-3.2-2.1-3.2l3.4,5.5c1.6,0.1,1.2,0.1,0.7-2.5c-0.5-2.6-2.6-5.1-3.6-5.8
						c-1.1-0.7-11.3-3.9-11.3-3.9l-8.6-3.3L210.3,1668.8z"/>
					<path fill="#74263D" d="M251.8,1616.6l-1-0.8c0,0-2.9,3.1-4.3,2.1c-1.4-1.1,0.9-2.1,0.9-2.1s-2,1-2,0.4
						c-0.1-0.6,2.3-2.9,2.3-2.9s-2.5,1.1-2.3,0c0.2-1.1,4.1-4.7,5.1-4.7c0.9,0,4.6,2,4.7,2.6c0.1,0.6-0.7,5.1-0.7,5.4
						c0,0.4-0.1,3.7-0.1,3.7s0.1,3.6,1.6,5.9c1.5,2.3,5.8,8.1,6,10.8c0.1,2.7,1.3,5.7-1.2,5.8c-2.2,0.1-9.8,1.9-11.6-7.2l1.5-17.6
						L251.8,1616.6z"/>
				</g>
				<polygon fill="none" stroke="#929292" stroke-width="0.3534" stroke-linejoin="round" stroke-miterlimit="10" points="
					292.6,1720.5 292.7,1696.4 294.3,1696.6 294.8,1710.2 293,1720.5 				"/>
				<g>
					<path fill="#090E0A" d="M442.6,1771.3c-3.8,0.5-14.4,1-20.6,1.3c-3.4,0.1-6.7,0.4-10,0.8l-41.2,5l0.8,1.2l48.1-3.6l-16.5,4.8
						c0,0,3.5-0.3,27.3-2.9c6.2-0.7,12.1-1.8,17.5-3.4l3.4-1c0,0,5.9-1.2,6.8-2.2C459.1,1770.3,448.2,1770.5,442.6,1771.3z"/>
					<g>
						<path fill="#090E0A" d="M396.2,1589.5c0.1,0.5,0.5,0.7,0.8,1.1c0.3,0.4,0.5,1,0.7,1.5c0.3,0.8,0.2,1.8,0.2,2.7
							c0,2.2-0.7,4.2-1.1,6.3c-0.1,0.5-0.2,1-0.3,1.4c0,0.2-0.1,0.4-0.1,0.6c0,0.3,0,0.4,0.1,0.6c0.2,1.2,1.3,2,2.3,2.6
							c1.1,0.8,1.8,1.6,2.1,2.9c0.2,1.1,0.3,2.3-0.5,3.2c0.6,0,1.3-0.3,1.9,0c0.3,0.1,0.8,0.4,0.9,0.7c0.1,0.1,0.1,0.4,0.2,0.5
							c0.1,0.2,0.1,0.3,0,0.5c0,0.1-0.1,0.2-0.1,0.3c0.1,0.4,1,0.4,1.4,0.5c0.7,0.2,1.5,0.4,2.1,0.9c0.8,0.6,0.9,1.5,0.9,2.4
							c0,0.4,0.1,0.9,0,1.3c-0.1,0.5-0.5,1.2-0.8,1.6c-0.6,0.8-1.3,1.4-2.1,1.9c-0.7,0.5-1.6,0.8-2.5,0.9c-2.4,0.5-4.9,0.4-7.4,0.2
							c-1-0.1-1.9,0-2.9,0c-0.5,0-1.1-0.1-1.6-0.2c-0.9,0-1.9-0.5-2.4-1.2c-0.5-0.7-0.8-1.5-0.8-2.3c0-0.3,0-0.7,0-1.1
							c0-0.4,0.3-0.7,0.7-1c0.3-0.2,0.7-0.3,0.8-0.6c0.1-0.3-0.2-0.7-0.3-1c-0.2-1.1-0.4-2.4-0.1-3.5c0.2-0.9,0.7-1.8,1.2-2.6
							c0.5-0.7,0.7-1.7,0.9-2.6c0.3-1.6,0.5-3.2,0.7-4.8c0.1-0.8,0-1.6,0-2.4c0-0.7,0.1-1.2,0.2-1.9c0.2-1.2,0.7-2.6,1.7-3.3
							c0.4-0.3,0.8-0.8,1.2-1.1c0.4-0.3,0.9-0.6,1.3-1"/>
					</g>
					<path fill="#090E0A" d="M378.3,1594.3c0,0-8.6,0.8-5.4-3.2c3.2-4.1,18.3-7.7,22.7-3.1c4.3,4.6-0.3,13.5-0.3,13.5l-6.8,2.2
						l-5.6-8.9L378.3,1594.3z"/>
					<path fill="#090E0A" d="M399.5,1782c0,0,10.1,0.6,11.8-2.7c1.7-3.4,0-12.4,0-12.4l-0.2-3.5l-3.5-65.5c0,0,2.1-6.9,1.8-9.8
						l-25.6-9.8l-14.3,4.2c0,0-3.4,44.9-3,53.5c0.4,8.6,4.4,32.7,4.4,32.7s16-3.5,17-6.2c1-2.7-2.8-28.2-2.8-28.2l2.5-18.8l5.8,19.8
						c0,0,2.4,28.6,5.8,29.9c3.4,1.3,3.4,0,3.4,0s-0.4,6.7-1.1,9.3C400.7,1776.9,397.5,1780.2,399.5,1782z"/>
					<path fill="#090E0A" d="M385,1762.1c0,0,2.4,15.7,0.8,16c-1.6,0.3-7.5,0.7-10.3,1.4c-2.8,0.7-15.2,3.1-15.6,0.6
						c-0.4-2.5,7.6-4.5,7.6-4.5s5.2-4.6,5.9-9.3C374,1761.7,385,1762.1,385,1762.1z"/>
					<path fill="#052743" d="M413.8,1680c0.2,4.1-3,7.7-7.1,7.8h-0.2c-0.5,0-1,0-1.5,0c-13.4-0.4-25.1-1.8-32.3-2.8
						c-4.2-0.6-7.3-4.3-7.1-8.5l0.6-14.6l0.6-13.5l0.3-6.8l0.1-2.2l1.8-4.1c0,0,0,0,0,0l1-2.2l4.4-10c0.9,0.9,2.1,1.4,3.7,1.5h0.1
						c3.4,0.2,6.8-0.4,9.5-1.1c4-1,6.8-2.3,6.8-2.3l13.8,12.8l3.7,2.7L413.8,1680z"/>
					<polygon fill="#090E0A" points="369.5,1636.6 402.9,1637.8 400.6,1676.8 368.8,1675.1 					"/>
					<ellipse fill="#090E0A" cx="385.1" cy="1681" rx="10.1" ry="11.3"/>
					<polygon fill="#FFFFFF" points="367.2,1634.9 400.6,1636 398.3,1675.1 366.5,1673.4 					"/>
					<g>
						
							<line fill="none" stroke="#738EC0" stroke-width="0.3534" stroke-miterlimit="10" x1="370.1" y1="1638.5" x2="396.3" y2="1639.6"/>
						<line fill="none" stroke="#738EC0" stroke-width="0.3534" stroke-miterlimit="10" x1="370" y1="1640" x2="396.3" y2="1641"/>
						
							<line fill="none" stroke="#738EC0" stroke-width="0.3534" stroke-miterlimit="10" x1="369.9" y1="1641.4" x2="396.2" y2="1642.4"/>
						
							<line fill="none" stroke="#738EC0" stroke-width="0.3534" stroke-miterlimit="10" x1="369.9" y1="1642.8" x2="396.1" y2="1643.9"/>
						
							<line fill="none" stroke="#738EC0" stroke-width="0.3534" stroke-miterlimit="10" x1="369.8" y1="1644.2" x2="396" y2="1645.3"/>
						
							<line fill="none" stroke="#738EC0" stroke-width="0.3534" stroke-miterlimit="10" x1="369.7" y1="1645.7" x2="396" y2="1646.7"/>
						
							<line fill="none" stroke="#738EC0" stroke-width="0.3534" stroke-miterlimit="10" x1="369.6" y1="1647.1" x2="395.9" y2="1648.1"/>
						
							<line fill="none" stroke="#738EC0" stroke-width="0.3534" stroke-miterlimit="10" x1="369.6" y1="1648.5" x2="395.8" y2="1649.6"/>
						
							<line fill="none" stroke="#738EC0" stroke-width="0.3534" stroke-miterlimit="10" x1="369.5" y1="1649.9" x2="395.7" y2="1651"/>
						
							<line fill="none" stroke="#738EC0" stroke-width="0.3534" stroke-miterlimit="10" x1="369.4" y1="1651.4" x2="395.7" y2="1652.4"/>
						
							<line fill="none" stroke="#738EC0" stroke-width="0.3534" stroke-miterlimit="10" x1="369.3" y1="1652.8" x2="395.6" y2="1653.8"/>
						
							<line fill="none" stroke="#738EC0" stroke-width="0.3534" stroke-miterlimit="10" x1="369.2" y1="1654.2" x2="395.5" y2="1655.3"/>
						
							<line fill="none" stroke="#738EC0" stroke-width="0.3534" stroke-miterlimit="10" x1="369.2" y1="1655.6" x2="395.4" y2="1656.7"/>
						
							<line fill="none" stroke="#738EC0" stroke-width="0.3534" stroke-miterlimit="10" x1="369.1" y1="1657" x2="395.3" y2="1658.1"/>
						
							<line fill="none" stroke="#738EC0" stroke-width="0.3534" stroke-miterlimit="10" x1="369" y1="1658.5" x2="395.3" y2="1659.5"/>
						
							<line fill="none" stroke="#738EC0" stroke-width="0.3534" stroke-miterlimit="10" x1="368.9" y1="1659.9" x2="395.2" y2="1660.9"/>
						
							<line fill="none" stroke="#738EC0" stroke-width="0.3534" stroke-miterlimit="10" x1="368.9" y1="1661.3" x2="395.1" y2="1662.4"/>
						
							<line fill="none" stroke="#738EC0" stroke-width="0.3534" stroke-miterlimit="10" x1="368.8" y1="1662.7" x2="395" y2="1663.8"/>
						
							<line fill="none" stroke="#738EC0" stroke-width="0.3534" stroke-miterlimit="10" x1="368.7" y1="1664.2" x2="395" y2="1665.2"/>
						
							<line fill="none" stroke="#738EC0" stroke-width="0.3534" stroke-miterlimit="10" x1="368.6" y1="1665.6" x2="394.9" y2="1666.6"/>
						
							<line fill="none" stroke="#738EC0" stroke-width="0.3534" stroke-miterlimit="10" x1="368.6" y1="1667" x2="394.8" y2="1668.1"/>
						
							<line fill="none" stroke="#738EC0" stroke-width="0.3534" stroke-miterlimit="10" x1="368.5" y1="1668.4" x2="394.7" y2="1669.5"/>
						
							<line fill="none" stroke="#738EC0" stroke-width="0.3534" stroke-miterlimit="10" x1="368.4" y1="1669.9" x2="394.7" y2="1670.9"/>
					</g>
					<path fill="#052743" d="M394.2,1679c0,6.2-4.5,11.3-10.1,11.3c-5.6,0-10.1-5.1-10.1-11.3c0-6.2,4.5-11.3,10.1-11.3
						C389.6,1667.7,394.2,1672.8,394.2,1679z"/>
					<path fill="#FFFFFF" d="M408.1,1673.6v14.3c0,1.2-2.6,2.1-5.9,2.1c-3.3,0-5.9-0.9-5.9-2.1v-14.3"/>
					<path fill="#FFFFFF" d="M408.1,1673.6c0,1.1-2.6,2.1-5.9,2.1c-3.3,0-5.9-0.9-5.9-2.1c0-1.1,2.6-2.1,5.9-2.1
						C405.5,1671.5,408.1,1672.4,408.1,1673.6z"/>
					<path fill="#FDD600" d="M377.8,1644.8c-0.4,0.8-1.3,0.4-1.4,0.4c0.1,0.2,1.4,2,0.8,2.5c-0.1,0.1-0.3,0.2-0.4,0.2
						c-0.7,0.1-1.7-0.2-1.8-0.2c0.1,0.1,1,0.8,0,1.5c-1.1,0.7-2.4-0.3-2.3,0.1c0.2,0.3,0.3,1.7-0.6,1.6c-1-0.2-3.7-2.1-3.7-2.1
						c-0.4,0-1-0.1-1.6-0.3c-1.6-0.5-3.5-1.3-3.5-1.3s-0.2,0.1-0.5,0.2c0.3-1.4,1-3.7,2.7-5.7l0.6,0c0.3,0,0.7,0,1,0
						c2.4-0.1,5.7-0.2,7.3-0.2c0.3,0,0.6,0,0.8,0.1C376.3,1641.7,378.2,1643.9,377.8,1644.8z"/>
					<path fill="#052743" d="M389.3,1629.7l-11.8,3.7l-4.5-0.3l-3.1-0.2c-0.2,0.7-0.5,1.5-1,2.2c0,0,0,0,0,0
						c-2.1,3.2-6.5,6.1-6.5,6.1l3,0.2c-1.6,2-2.4,4.3-2.7,5.7c-2.5,1.2-13.9,6.1-17.4,1.7c-4-4.9,14-17.9,14-17.9
						c4.2-6.9,11.8-11,17-13.1c3.2-1.3,5.5-1.9,5.5-1.9l4.5,2.9l1.2,4.5L389.3,1629.7z"/>
					<path fill="#052743" d="M392,1615c0,0,13.8,3.5,21.1,12.4c7.3,8.8,16.4,14.3,15.9,19.1c-0.6,4.8-8,3.8-17.8-2.4
						c0,0-8.7,0.2-8.7-1.3c0,0-3.3-0.1-3.3-0.6c0-0.5,0-2.5,0-2.5s-2.4,0.3-2.4-0.4c0-0.7,1.6-2.3,1.6-2.3s-2.8-0.4-2.2-0.9
						c0.6-0.5,3.7-1.1,3.7-1.1s-2.3-1-2-1.5c0.3-0.5,6.7-0.4,8.2,0.9c1.5,1.4,3.4,3.2,3.4,3.2l7.3,1.2l-21.2-12.3l-12.3,0.8
						l-4.2-9.1L392,1615z"/>
					<path fill="#FDD600" d="M394,1606.8c-1.1,1.3-2,1.2-2,1.2v7l0.1,0.2c-5.8,3.7-10,3.2-12.4,2.2l0.4-3.4c0,0-2.7-1.3-3.5-4.8
						c-0.8-3.5-0.2-9.2,0.3-11.4c0.6-2.2,0.8-5.3,7.3-5.3s5.8,8.4,5.8,8.4l2.3,0.7c0.8-0.8,2.2-1,2.9,0
						C396,1602.5,395.1,1605.5,394,1606.8z"/>
					<path fill="#090E0A" d="M384.1,1590.4c0,0,0.9,16.4,5.2,21.5c0,0-1.8,10,1.7,9.6c3.4-0.4,3.9-2.4,3.9-2.4s5.6,3.3,8.7,0
						c3.1-3.3-6.1-4.8-6.1-4.8l-2.4-5.8l1.1-7.6l-4.8-4.5C391.4,1596.5,391.8,1587.2,384.1,1590.4z"/>
					<path fill="#FDD600" d="M411,1644c-0.9,0-8.7,0.1-8.7-1.3c0,0-3.3-0.1-3.3-0.6c0-0.5,0-2.5,0-2.5s-2.4,0.3-2.4-0.4
						c0-0.7,1.6-2.3,1.6-2.3s-2.8-0.4-2.2-0.9c0.6-0.5,3.7-1.1,3.7-1.1s-2.3-0.9-2-1.5c0.3-0.5,6.7-0.4,8.2,0.9
						c1.5,1.4,3.4,3.2,3.4,3.2l0.5,0.1C410.5,1638.9,411.2,1641.1,411,1644z"/>
					<path fill="#F17547" d="M397.3,1587.7c0.5,2.5-4.9,5.8-12.2,7.3c-7.3,1.5-13.6,0.6-14.1-1.9c-0.5-2.5,4.9-5.8,12.2-7.3
						C390.5,1584.3,396.8,1585.2,397.3,1587.7z"/>
					<path fill="#EB2047" d="M392.1,1585.7c0.4,2-2.8,5.5-7.3,6.5c-4.5,0.9-8.6-1.1-9-3.1c-0.4-2,2.9-4.4,7.4-5.3
						C387.7,1582.8,391.6,1583.7,392.1,1585.7z"/>
					<path fill="#F17547" d="M392.3,1585.2c0.4,2-2.9,4.4-7.4,5.3c-4.5,0.9-8.5,0-8.9-2c-0.4-2,2.9-4.4,7.4-5.3
						C387.9,1582.3,391.9,1583.2,392.3,1585.2z"/>
				</g>
				<g>
					<path fill="#090E0A" d="M183,1808.8l45.4,11c0,0,8.5,9.1,60.3,1.6c2.2-0.3,6.3-1.8,5.2-3.7c-1.3-2.2,0.5-2.2-6.1-2.6
						c-12.2-0.8-37.2-0.8-37.2-0.8l-53.2-8.5l-2.5,3l50.1,8.1l-5.8,2.5l-53.9-13L183,1808.8z"/>
					<path fill="#FFFFFF" d="M210.8,1711.2c-0.6,1.2,0.8,7.7,0.8,7.7c-2.5,2.7-7.3,3.4-12.1,3.4c-4.8,0-3.2,0.9-13,8.7
						c-9.3,7.4-21.1,3.2-22.4,2.7c-0.1,0-0.1,0-0.1,0s-9.1-7.4-6.8-25.2c2.2-17.8,19.8-18,22.2-17.5c2.4,0.5,13.7,5.9,16.9,4
						c3.2-1.9,9.4-5.3,13.3-3.6c3.9,1.7,6,4.4,6.1,10.1l-3.5,7.5C212.1,1709.2,211.4,1710.1,210.8,1711.2z"/>
					<polygon fill="#052743" points="177,1724.6 175.5,1721.3 173.5,1699.6 175.2,1699.6 177.6,1720.5 					"/>
					<g>
						<path fill="#090E0A" d="M234.7,1802.3c0,0,12.5,13.2,53.2,6c2-0.4,2.3-3.2,0.4-4c-4.5-2-12.7-4.3-25.7-3.8
							C240.3,1801.4,234.7,1802.3,234.7,1802.3z"/>
						<path fill="#090E0A" d="M275.6,1804.4c-22,9.4-40.9-2.1-40.9-2.1l12.6-30.2c0,0,1.3-4.7,3.6-8.8v0c1.5-2.8,3.4-5.2,5.6-5.7
							c3.5-0.8,7.8-1,11-0.1c1.7,0.5,3.1,1.4,4,2.6c4.5,6.5,4.1,20.2,4.1,20.2h3.6C286.4,1782.8,275.6,1804.4,275.6,1804.4z"/>
						<path fill="#2A60AD" d="M272.1,1805.7c-20.5,6.9-37.4-3.5-37.4-3.5l12.6-30.2c0,0,1.3-4.7,3.6-8.8v0l4.2,8.2
							c0,0,3.1-11.3,12.3-14.1c1.7,0.5,3.1,1.4,4,2.6c4.5,6.5,4.1,20.2,4.1,20.2h3.6c0.3,0.1,0.6,0.2,0.8,0.4
							c4.2,2.9-0.4,14.8-2.9,20.6C276.1,1803.4,274.3,1805,272.1,1805.7z"/>
						<path fill="#052743" d="M279.2,1780.2c0.3,0.1,0.6,0.2,0.8,0.4c-11,2.7-13.4,17.7-13.4,17.7c0.8-15.7,9-18.1,9-18.1H279.2z"/>
						<path fill="#090E0A" d="M257.7,1700.4c0,0,3.7-1.1,5.5,0c0.8,0.5,17.2-1.1,17.2-4.1c0-5.3-18.6-2.7-18.6-2.7l-2.6,1.1
							l-2.6-0.4"/>
						<path fill="#052743" d="M244.3,1761l-1.3,0.2l-10.9,1.8l4.2,7.6c0,0,1.5,7.3,1.5,10.4c0,3.1,3.4,10.4,3.4,10.4
							s6.2-2.7,7.4-4.5c0.9-1.4,5-1.9,6.9-2.1c0.6-0.1,1-0.1,1-0.1l-9.8-10.2l-3.9-13.3l-0.1-0.2"/>
						<path fill="#090E0A" d="M239,1764.5c0,0,6.8-0.8,7.1-1.4c0.3-0.6-6.3-24.2-7.1-27.5c-0.8-3.4-1.7-16.5-4.3-18.4
							c-2.6-1.9-13.3,1.4-13.3,1.4l2.4,27.4l11.9,16L239,1764.5z"/>
						<path fill="#FFFFFF" d="M222.9,1646.2c0,0-5-5.5-11.5-4c-6.4,1.5-7.3,1.7-10.4,4c-3,2.3-1.8,9.1-3.8,14.4
							c-2.1,5.2-10.8,8.3-9.7,12.4c1.1,4.1,5.6,5.2,7.6,5.1c2-0.1,11.5-11.1,12.2-14.7c0.7-3.6,8.8-13.2,11.6-13.2
							c2.8,0,3.9-1.3,3.9-1.3V1646.2z"/>
						<path fill="#090E0A" d="M183,1757.1l3.8,14.4l-3.8,37.3h1.9l5.9-41.7c0,0,9.1,5.9,22.3,3.6v-2.7c0,0-16.3,1.1-20.9-3.4
							l0.1-8.1L183,1757.1z"/>
						<path fill="#090E0A" d="M184.6,1738.6l1.8,14l-3.4,4.6c0,0-0.3,7.8,30.1,3.6l-0.7-13.3l-18.5,0.4l-4.8-11.5L184.6,1738.6z"/>
						<path fill="#090E0A" d="M193.2,1768.3l1.6,40.4h2.4l0.8-38.7C198,1770,194.3,1768.8,193.2,1768.3z"/>
						<path fill="#052743" d="M244.3,1704.7l-21.1,3.9l11.5,8.6c0,0-2.7,13-1.9,17.2c0.9,4.2,5.5,13.7,5.7,18.7
							c0.2,5.1,0.4,11.4,0.4,11.4l-12,2.3l1.5,38.8c0,0-13.9,3.4-13.9,0c0-3.4-0.2-11.4-0.4-17.3c-0.2-5.9-1.1-27.6-1.1-27.6
							l-2.8-9.3c0,0-20.5,6.6-23.7-8.1c-0.1-0.4-0.2-0.8-0.2-1.2l-1.8-3.6c0,0-1.4,1.1-3.9,1.9c-0.4,0.2-0.9,0.3-1.4,0.4
							c-0.5,0.1-0.9,0.2-1.4,0.2c-0.2,0-0.3,0-0.5,0c-5.4,0.5-10.8-2.4-13.4-7.4c0.4,0.2,12.8,5,22.5-2.7c9.8-7.8,8.1-8.7,13-8.7
							c4.8,0,9.6-0.7,12.1-3.4c0,0-1.5-6.6-0.8-7.7c0.6-1.2,1.4-2.1,1.4-2.1l32.1-6.4C244.3,1702.8,245.4,1704.1,244.3,1704.7z"/>
						<path fill="#052743" d="M216.4,1804.5c0,1.1-1.7,7.4-1.7,7.4s7.2,9.2,13.5,10.1c6.4,0.9,9.6-0.7,9.4-2.8
							c-0.2-2.1-6.7-6-7.6-7.6c-0.9-1.6-5.2-12.4-5.2-12.4L216.4,1804.5z"/>
						<path fill="#052743" d="M256.6,1784.7c-2.1,7.5-15.4,6.7-15.4,6.7s6-2.8,7.4-4.5C250.2,1785,256.6,1784.7,256.6,1784.7z"/>
						<path fill="#090E0A" d="M222.9,1648.8c0,0-2,12.3-3,14.5c-0.3,0.7-0.7,1.7-1.4,2.8c-0.4,0.7-1,1.5-1.6,2.1l0.1,1.7l0.2,3.3
							c0,0-0.7,5-6.9,4.9c-6.2-0.1-7.8-3.7-7.8-3.7l-0.6-5.5c0,0,1.4-6.4,0.9-9.8c0,0-3.9-4.9-2.4-7.7c1.5-2.7,3-1.6,3.6-0.4
							c0.6,1.2,0.9,2.2,0.9,2.2s-0.3-5.6,2.7-6.5C210.4,1645.9,218.8,1645.8,222.9,1648.8z"/>
						<path fill="#738EC0" d="M267.2,1704.6L267.2,1704.6c-0.8,0-1.4-0.6-1.4-1.4l0,0c0-0.8,0.6-1.4,1.4-1.4l0,0
							c0.8,0,1.4,0.6,1.4,1.4l0,0C268.6,1704,268,1704.6,267.2,1704.6z"/>
						<path fill="#738EC0" d="M270.9,1704.2L270.9,1704.2c-0.8,0-1.4-0.6-1.4-1.4l0,0c0-0.8,0.6-1.4,1.4-1.4l0,0
							c0.8,0,1.4,0.6,1.4,1.4l0,0C272.3,1703.6,271.7,1704.2,270.9,1704.2z"/>
						<path fill="#738EC0" d="M274.6,1703.8L274.6,1703.8c-0.8,0-1.4-0.6-1.4-1.4l0,0c0-0.8,0.6-1.4,1.4-1.4l0,0
							c0.8,0,1.4,0.6,1.4,1.4l0,0C276,1703.1,275.4,1703.8,274.6,1703.8z"/>
						<ellipse fill="#052743" cx="194.6" cy="1709.7" rx="5.6" ry="7.5"/>
						<polygon fill="#052743" points="200.2,1704.8 256.7,1694.4 257.7,1700.4 194.1,1712.5 193.6,1706.1 						"/>
						<path fill="#090E0A" d="M255.2,1700.9c0,2-0.1,4.9-0.5,5.7c-0.7,1.3-4.7,8.5-7.3,10c0,0-0.2,0.2-0.6,0.6
							c-2.5-0.9-4-3.1-4.8-4.5c0.5-0.3,0.8-0.6,0.9-1c0,0,1.4-5.1,1.4-7c0-0.6,0.1-1.2,0.1-1.8c0.2-1.3,0.7-2.4,1.3-2.4
							c0.2,0,0.3,0,0.4,0c-0.1-0.2-1-3.1-0.5-3.3c0.5-0.2,2-1,2.4,0.5c0,0,0.7-0.9,1.5-0.4c0.8,0.6,1.5,0.6,1.8,3.7l0.5,0.5l0.3,0.3
							v-3.1c0,0-1.3-1.9-1.7-3.2c-0.2-0.6-0.2-1.1,0.2-1.1c0.5-0.1,1.2,0.2,1.9,0.8c0.9,0.8,1.9,2.1,2.5,3.6
							C255.1,1698.8,255.2,1699.7,255.2,1700.9z"/>
						<path fill="#EB2047" d="M246.7,1717.2c-2.2,2.2-9.5,8.9-14.5,7.7c-6-1.4-11.7-14.6-11.7-14.6l-0.4-2.7l14.7-2.8l1.6,9.5
							c0,0,3.8-0.5,5.6-1.6C242.8,1714.2,244.3,1716.3,246.7,1717.2z"/>
						<path fill="none" d="M198.6,1706.8c0,0,0.1,2-0.7,2.2c-0.8,0.2-2.5,0-2.5,0s0.1,1.3-0.8,1.5c-0.2,0-0.5,0.1-0.7,0.1
							c-0.7,0-1.3-0.1-1.3-0.1s-0.5,0.7-2,0.4c-1.5-0.4-6.4-5.5-6.4-5.5s-1.8-3-3.5-3.3c-0.1,0-0.2,0-0.4,0c0.4-1.7,1.3-4.1,3.2-6.4
							c8.5,1.4,15.4,6.6,16.7,9.1C200.2,1704.8,200.5,1706.6,198.6,1706.8z"/>
						<path fill="#090E0A" d="M198.6,1706.8c0,0,0.1,2-0.7,2.2c-0.8,0.2-2.4,0-2.4,0s0.1,1.3-0.8,1.5c-0.9,0.1-2,0-2,0
							s-0.5,0.7-2,0.4c-1.5-0.4-6.4-5.5-6.4-5.5s-1.8-3-3.5-3.3c-1.1-0.2-13.6,1.7-22.1,0.6c2.2-5.4,6.2-8.3,10.1-9.9
							c0.8,0.9,3.4,2.5,10.7,2.6c10.2,0.1,19.3,6.6,20.7,9.5C200.2,1704.8,200.5,1706.6,198.6,1706.8z"/>
						<path fill="#EB2047" d="M215.5,1702l0.1-0.3c-0.1-5.7-2.2-8.4-6.1-10.1c0,0,0,0,0,0c-0.6-0.2-1.2-0.4-1.8-0.4
							c-3.8-0.3-8.7,2.4-11.4,4c-1.8,1.1-6.4-0.2-10.4-1.7c-1.1-0.4-2.1-0.8-3.1-1.1l-0.7-5.2c0,0-6.5,4.6-13.6,5
							c0,0,0.1,0.3,0.4,0.6c0.9,0.9,3.4,2.5,10.7,2.6c0.2,0,0.4,0,0.6,0c1.2,0,2.3,0.1,3.5,0.3c-1.9,2.3-2.8,4.7-3.2,6.4
							c-0.4,0-1.1,0.1-2,0.2c-4.2,0.4-13.2,1.3-19.8,0.5c-4.4-0.6-7.8-2-7.8-4.9c0-8.6,28.5-28.4,36-28.5c7.4-0.1,13.6-1.7,13.9-2.2
							c0.3-0.4,0.3-0.4,0.3-0.4s1.6,9.9,17.1,6.3c0,0,13,4.9,14.8,8.4c1.3,2.7,2.1,12.4,2.3,17L215.5,1702z"/>
						<path fill="#090E0A" d="M207.7,1691.1c-3.8-0.3-8.7,2.4-11.4,4c-1.8,1.1-6.4-0.2-10.4-1.7c-1.1-0.4-2.1-0.8-3.1-1.1l-0.7-5.2
							c0,0,3.3-0.7,11.4-6.7c0,0-4.9,7.1,0.9,9.3C198.8,1691.4,204.8,1689.3,207.7,1691.1z"/>
					</g>
					<path fill="#090E0A" d="M213.7,1723.2c-8,8.1-14.2-0.8-16.5,9.3c-1.3,5.7-6.4,9-10.6,10.9c-0.1-0.4-0.2-0.8-0.2-1.2l-1.7-3.6
						c0,0-1.4,1.1-3.9,1.9c7.8-2.7,14.1-13.1,17.8-14.2c3.1-1,10-3.1,13.1-4.1C212.4,1721.9,213.4,1722.3,213.7,1723.2L213.7,1723.2
						z"/>
				</g>
				<g>
					<path fill="#090E0A" d="M354,1812.8c0,0,54.3-13.4,59.5-15.8l21.2-0.8c0,0,19.5-1.8,21.7-3.5c0,0-12.6-6.6-25.4-4.1
						c-12.8,2.5-29.6,1.6-29.6,1.6l-44.1,2.2l3,2.7l-44,3.7l0.8,2.6l65.1-6.3c0,0,5.9,4.1,4.9,4.2c-1,0.1-34.6,12.4-34.6,12.4
						L354,1812.8z"/>
					<polygon fill="#112F50" points="307.8,1779 305.2,1779 305.2,1738.2 309.2,1738.2 					"/>
					<polygon fill="#112F50" points="340.4,1779 337.9,1779 337.9,1738.2 341.9,1738.2 					"/>
					<rect x="299.4" y="1729.4" fill="#112F50" width="52.3" height="11.8"/>
					<path fill="#F4BF1B" d="M314.6,1640.1c0,0,2.8-7.5,10.6-7.3c6.6,0.2,12.4,6.6,12.5,10.5c0.1,3.9,2.1,8.4-1.1,10.3
						c-3.2,1.8,0.4,5.9-1.5,6.7c-1.9,0.8-4.7-0.7-4.7-0.7l-11.9-11.7l-0.3-7.7L314.6,1640.1z"/>
					<path fill="#F4BF1B" d="M335.1,1637.9c0,0,4.6-0.9,4.8,3.4c0.1,2.4-2.1,3.8-2.1,3.8"/>
					<path fill="#052743" d="M351.7,1724.7c0,0-0.6-4.1-2.4-6.2c-1.8-2.1-3.3-10.3-3.3-10.3v-9.1l2.6-10.7c2-8.3-2-16.8-9.6-20.6
						l-3.9-2c0,0-3.2,6.5-13.9,5.1c-3.3-0.5-4.1-3.3-3.6-7c0,0-14,3.5-19.3,8.7c-7.3,7.2-14.9,22.5-13.8,27.7
						c1.1,5.2,22.6,5.8,22.6,5.8l-5.6,27.5l48.7-6.2L351.7,1724.7z"/>
					<path fill="#052743" d="M314.8,1662.8c-1.8,1.3-2.7,4-2.1,6.5c1,3.8,4.6,8.5,16.3,7.3c19.3-1.9,10.3-18.4,0.9-19
						C323.6,1657.2,317.9,1660.6,314.8,1662.8z"/>
					<path fill="#052743" d="M369.3,1678.2c0,0,2.1,0,2.8,1.9c0.8,1.9-2,5.2-2.6,5.6c-0.6,0.4-12.4,3.9-12.4,3.9s-3.4,0.2-3.9-1.8
						l6.7-5.4l7.8-2.3L369.3,1678.2z"/>
					<path fill="#090E0A" d="M320.9,1696c0,0,0.9-6,0-8.8c0,0,6.5,2,8.1,5.5l-0.4,1.9L320.9,1696z"/>
					<path fill="#090E0A" d="M328.2,1705.3c0,0,3.9-5.5,1.4-9.8l-5.3,0.8l-1.7,5l1.4,2.4L328.2,1705.3z"/>
					<path fill="#090E0A" d="M313.3,1715.9c0,0,1.1-2.3,1.2-7.1c0.1-4.8,1.6-5.9,1.6-5.9l8.5,3.1c0,0-1.5,3.3-1.5,5.6
						c0,2.3-0.7,7.5-0.7,7.5l-9.6,1.4L313.3,1715.9z"/>
					<path fill="#090E0A" d="M301.6,1733.6c0,0-0.5,0.7-2.1,1.3c-2.3,0.9-4.9,0.6-7.1-0.5l-4.8-2.4c0,0,6.1-0.2,9.6-6.4
						c3.5-6.2,6.9-8.4,10.2-8.3c3.3,0.1,5.8-1.3,5.8-1.3l5.1,2.6l-7.4,11.1L301.6,1733.6z"/>
					<path fill="#090E0A" d="M351.7,1724.7c0,0,4,12.6,3.6,22.3c0,0,6.1,32.6,5.7,37.3c0,0-15-4.8-12.4,5.1l-10.5-40.4l-12.9-20.8
						C325.2,1728.1,334.8,1713.5,351.7,1724.7z"/>
					<path fill="#090E0A" d="M322.1,1771.7l1.1,14.3l3.2,16.9c0,0-0.8,3.3-3.2,3.6c-6.5,0.8-11.2,1.5-11.1-11.2
						c0.1-12.8,0-18.3,0-18.3l1.7-12.5l7.7,2.4L322.1,1771.7z"/>
					<polygon fill="#090E0A" points="348.6,1789.4 350.2,1799.2 357.9,1785.7 357.9,1783.6 355.4,1777.4 349.4,1777.4 348.6,1780.1 
						347.4,1784.7 					"/>
					<path fill="#090E0A" d="M367.2,1797.4c-0.3,5.1-6.2,9.5-6.2,9.5c-0.7,6.2-2.8,7.5-6.9,7c-3.1-0.3-3.8-2.2-4.3-4.3
						c-0.1-0.7-0.3-1.4-0.4-2.1c-0.6-2.7,0.7-8.4,0.7-8.4l2.5-4.4l5.2-9.1c0,0,0.4-5.2,5.6-5.5
						C368.7,1780,367.5,1792.3,367.2,1797.4z"/>
					<path fill="#052743" d="M324.7,1706l3.5-0.7c0,0-2.6-2.9-3.5-3.5c-0.8-0.5,1.3-1.2,2.8-2c1.5-0.8,13.6-6.5,13.6-6.5l-0.4-0.7
						l-17,6.7l-7.6,3.6L324.7,1706z"/>
					<path fill="#FFFFFF" d="M320.9,1704.1l-7.9,17.7l-15,8.4c-2.8,1.6-6,2.2-9.2,1.9l0,0c-2.3-0.2-4.2-1.8-4.9-3.9
						c-0.9-3-2-7.6-1.9-13c0-1.2,0.1-2.4,0.3-3.6c0.7-6.2,3.2-13.3,9.1-20c0,0,5.2-6,11.1-3.7c5.9,2.2,5.5,3.1,10.5-0.5
						c0,0,3.6-3.5,7.9-0.2C325.2,1690.5,320.9,1704.1,320.9,1704.1z"/>
					<path fill="#090E0A" d="M350.8,1688.9l2.4-1.1c0,0,1.8,0.5,3.6,0c1.8-0.5,11.4-3.8,11.4-3.8s3.6-2.6,1.1-5.9l-13.3,2.9
						l-2.9,1.4l-48,17.7l1.4,6.7L350.8,1688.9z"/>
					<path fill="#052743" d="M309.9,1701.1c-0.9-1.6-3.6-1.8-5.9-0.5c-2.3,1.3-3.5,3.7-2.5,5.3c0.9,1.6,3.5,1.8,5.9,0.5
						C309.6,1705.1,310.8,1702.7,309.9,1701.1z"/>
					<path fill="#F17547" d="M344.8,1697.7c0,0-1,15.4,6,16.5c0,0,6.4,0,4.7-9.6l-3.8-9.8c0,0,0.6-3.1,0.3-4.6
						c-0.3-1.5-2.7-3.7-3.4-3.7c-0.7,0-1.6,0.4-1.5,1c0,0-1.5-1.9-2.4-1.5c-1,0.5-1.1,0.8-1,1.7c0,0-0.9-1.5-1.6-1.1
						c-0.7,0.4-1.2,0.4-0.5,2.2c0,0-1.8,0-1.1,2.2C341.1,1693.3,341.3,1695.7,344.8,1697.7z"/>
					<path fill="#F17547" d="M283.3,1698.3l3,0.5c0,0,5.7,3.2,6.9,3.9c1.2,0.6,3.3,1.1,3.5-0.3l-0.7-1.1c0,0,2.7,0.8,3.6-0.1
						c1-0.9-0.8-1.9-0.8-1.9s1.9,0.2,2.3-0.9c0.4-1.1-0.5-1.6-0.5-1.6s1.6-0.9,1.2-1.7c-0.3-0.8-5.4-2.4-6.5-2.4
						c-1.1,0-10.3-0.5-10.3-0.5s-4.8-0.6-3.5,4.5C281.8,1697.5,282.5,1698.1,283.3,1698.3z"/>
					<path fill="#F17547" d="M303,1694.8c-0.4,0.4-1.1,0.2-1.1,0.2c-0.1-0.4-1.2-0.9-2.5-1.3c0.2,0,3.7-0.1,3.9,0.1
						C303.4,1694.1,303.4,1694.4,303,1694.8z"/>
					<path fill="#090E0A" d="M301.6,1733.6c0,0,3.6,7.4,8.4,7.4l1,28c0,0,5.1,4.4,12.4,2.7c0,0,8.8-32.4,7-44.7
						C328.6,1714.8,303.1,1714.8,301.6,1733.6z"/>
					<path fill="#F17547" d="M335.1,1670.2c0-2.2-0.9-4.3-2.3-6c-1.1-1.3-2.2-3.6-2-7.2l0.3-2.8c0,0,3.4-2.6,3.2-5.5
						c-0.3-2.9-2.6-1.8-3.5-1.2c-0.9,0.6-1.9,1-1.9,1s-0.3,4.1-1.3,4.6c-1,0.4-1.3-1.3-1.3-1.3s1.8-4.7,1.3-7.4
						c-0.5-2.7-1.3-8.4-8.1-7.7c-6.8,0.8-6.3,10.9-6.5,12.6c-0.1,1.7-0.2,11.9,2.2,13.3c0.7,0.4,1.8,0.3,2.9-0.1l-2.3,5.2
						c0,0,6.3,10.1,11.8,9.1c5.5-1.1,7.4-6.3,7.4-6.3V1670.2z"/>
				</g>
			</g>
			<g>
				<path fill="#090E0A" d="M873.3,1844.8c0,0,86.9-2.7,95-6.6l112.5-9.4c0,0,30.8-2.9,34.3-5.5c0,0-19.9-10.4-40.1-6.5
					c-20.2,3.9-46.7,2.6-46.7,2.6l-148.7,11.5l4.7,4.3l-69.3,5.8l1.3,4.1l102.6-9.9c0,0,2.7,4.6,1.2,4.8c-1.6,0.2-49.3,3.1-49.3,3.1
					L873.3,1844.8z"/>
				<g>
					<path fill="#052743" d="M922.6,1823.9c0,0-3.5,3.4-4,4.2c-0.5,0.8-8.4,4-8.4,4v2.7c0,0,13,5.1,22.9,2.4l0.5-12.4l-5.3-3.5
						L922.6,1823.9z"/>
					<path fill="#052743" d="M957.9,1829.7c0,0,0,0.6-0.2,1.4c-0.4,1.8-1.5,4.8-4.9,5.5c-5,1-11,0.7-11,0.7l-0.9-12.4l4.4-5.7
						l3.4,1.9l1.9,1.1l0,0L957.9,1829.7z"/>
					<path fill="#738EC0" d="M950.8,1820.7c-0.1,0.5-0.2,1-0.4,1.4c-0.4,1-1,1.8-1.8,2.3c-2.6,1.8-6.6,1.3-7.8,0.4
						c-1.8-1.3,0-34.2,0-40.1c0-4.3-3.1-20.9-4.8-29.9c-0.1-0.7-1.1-0.6-1.1,0.1c0,17.5,0,68.4-1.3,69.9c-1.5,1.8-9.3,2.8-11.3,0
						c-2.1-2.8-3.6-17.5-7.5-36.6c-3.9-19.1,0-62.8,0-62.8l15.4-27.9l13.6,16.5l9.5,11.4c0,0,3.5,38.8,4.2,46.2
						C958.3,1779,951.6,1814.8,950.8,1820.7z"/>
					<path fill="#090E0A" d="M957.9,1829.7c0,0,0,0.6-0.2,1.4c-3.5-0.6-7.7-1.8-8.4-2.9c-0.3-0.6-0.6-2-0.7-3.7
						c-0.1-1.1-0.1-2.2-0.1-3.4c-0.3-8.4,5.6-28.4,3.6-49.7c-1.4-15.8-8.3-40.6-8.3-40.6V1714l9.5,11.4c0,0,3.5,38.8,4.2,46.2
						c0.8,7.4-6,43.1-6.7,49c-0.1,0.5-0.2,1-0.4,1.4l0,0L957.9,1829.7z"/>
					<path fill="#F17547" d="M935.6,1652.3l-1.6-10.6h-14.5l-2,10.6c0,0,7.8,10.2,8.5,10C926.7,1662,935.6,1652.3,935.6,1652.3z"/>
					<path fill="#F17547" d="M936.3,1632.8c0,0,1.8-1,2.2,0c0.4,1,0.5,6.6-1.1,7.1c-1.6,0.6-1.6,0.6-1.6,0.6s-0.8,7.2-7.7,7.3
						c-6.9,0.1-14-2.3-14.3-12.7c-0.3-10.4,4.1-17.1,11.9-16.6C933.3,1619,936.8,1625.1,936.3,1632.8z"/>
					<path fill="#EB2047" d="M956.5,1701.9c0,0,6.7,25.2-12.6,28.8c-19.3,3.6-32.9,1.9-31.1-18.5c0,0-8.9-5.7-6.5-26.6
						c2.4-20.8,3.8-24.9,11.3-33.3c0,0,9.9,4.8,18.1,0c0,0,21.4,4.7,23.9,38.2C959.6,1690.5,959.6,1698.3,956.5,1701.9z"/>
					<path fill="#090E0A" d="M943.9,1730.7c8.5-2.9,6.9-14.3,6.9-20.6c0-6.2-3.2-27.9-3.4-29.2c2.7,10.5,9.1,21.1,9.1,21.1
						S963.2,1727.1,943.9,1730.7z"/>
					<path fill="#090E0A" d="M937.3,1632.8c0,0,0.7,11.5-5.9,18.7c-6.3,6.9-21.3,9.6-21.3,9.6s6.7-8.4,3.6-20.1
						c-2.1-8,0.8-24.1,10.9-24.1C934.4,1616.9,937.2,1623.7,937.3,1632.8z"/>
				</g>
				<g>
					<path fill="#738EC0" d="M881.9,1842.6c-0.3,0.3-1.2,0.7-2.4,1.2c-6.8,3-14.1,4.5-21.5,4.5c-2.3,0-4.3-0.2-5.3-0.6
						c-3.4-1.3,0-16.2,0-16.2l0.2-0.3l3.4-6.4l7,2.5l4.6,1.7l14.2,8.9c0,0,0.4,1,0.5,2.2C882.5,1841.1,882.5,1842.1,881.9,1842.6z"
						/>
					<path fill="#738EC0" d="M811.7,1830.4c0,0-4.6,14.6-1.3,16c3.3,1.4,24.9-3.8,24.9-3.8v-4.1l-9.4-8.8l-5.4-5.8L811.7,1830.4z"/>
					<path fill="#052743" d="M873,1744c-5.8,63.8-1.2,82.3-5.2,85.1c-1.1,0.8-3.1,1.4-5.4,1.9c-3.3,0.6-7.1,0.8-9.6,0.3
						c-1.8-0.4-3.1-1.1-3.1-2.2c0-3.8-1-77.9,0-83c0,0-7.9-47.5-9.1-56.8c0,0-11.4,59.7-11.2,65.9c0.3,6.2-0.8,71.5-1.8,73.6
						c-1,2.1-17.2,3.6-18,0.3c-0.8-3.3-7.2-59.4-1.5-81.8c0,0-0.8-73.8,4.1-87.7l55.6-1.5C867.7,1657.8,878.8,1680.1,873,1744z"/>
					<path fill="#090E0A" d="M872,1679.4l-4.3-21.5l-55.6,1.5c-1.1,3.2-2,9.7-2.6,17.8c-3.2-4.8-9.9-16.3-12.6-32.3
						c-2.5-14.8,1.8-35.8,6-49.6c1.9-6.2,4.3-7.8,5.5-9.9c4.1-6.7,23.4-12.1,23.4-12.1v-13.8l0.1,0l19.7,1.7l0,0.1c0,0,0,0.1,0,0.1
						l-4.4,14.5c2.6,0.6,6.2,2,9.3,3.4c0,0,0,0,0,0c4.2,1.9,7.7,3.7,7.7,3.7c7.2,6.9,15.5,41.9,16,48.1
						C881.5,1647.6,872,1679.4,872,1679.4z"/>
					<path fill="#052743" d="M872,1673.8l-4.3-16C867.7,1657.8,870.1,1662.5,872,1673.8z"/>
					<path fill="#052743" d="M858.5,1580.3c-0.5-0.1-10.7,1.8-10.5,6.8l-10.6-0.7l4.4-8c0,0,2.1-1.3,7.4-1.5
						C851.8,1577.4,855.4,1578.8,858.5,1580.3z"/>
					<path fill="#090E0A" d="M833.1,1670.4c0,0,39.8-2.8,29.2-48.9c-10.5-46.1-26.2-43-26.2-43s-28.6-3.2-29,21.9
						C806.7,1625.7,791,1673.3,833.1,1670.4z"/>
					<path fill="#052743" d="M851.2,1563.1c-0.3,0.9-0.6,1.7-1,2.4l0,0c-1.2,2.2-2.8,3.8-5,4.2v0c-0.7,0.1-1.4,0.2-2.2,0.1
						c-6.6-0.8-11.9-12.2-11.9-12.2s-2.2,0.8-2-4.4c0.1-5.2,2-2.3,2-2.3c-0.3-3.7,0.3-7,1.5-9.7c0,0,0,0,0,0c2.7-5.6,8.7-8.3,17-5
						C859.3,1540.1,853.7,1556.8,851.2,1563.1z"/>
					<path fill="#090E0A" d="M845.1,1569.8L845.1,1569.8c-0.7,0.2-1.4,0.2-2.2,0.1c-6.6-0.8-11.9-12.2-11.9-12.2s-2.2,0.8-2-4.4
						c0.1-5.2,2-2.3,2-2.3c-0.3-3.7,0.3-7,1.5-9.7C832.5,1541.9,829.9,1567.2,845.1,1569.8z"/>
					<path fill="#F17547" d="M854.1,1578.4c-2.4-1-4.8-1.9-6.8-2.3c-5.2,0.2-7.4,1.5-7.4,1.5l-2.9,5.3c-4.1-0.8-8.1-2.5-10-6
						c0,0-2.7-11.5,0-13c2.7-1.5,29.5-0.8,30.8,4.3C858.4,1571,856.2,1575.2,854.1,1578.4z"/>
					<path fill="#FFFFFF" d="M829,1665.3L829,1665.3c-3,0.2-5.8,0.2-8.3-0.2c-0.3,0-0.7-0.1-1-0.1c-30.7-4.6-19.2-46.7-16.7-69.6
						c1.6-14.3,12.5-19.7,21.5-21.2c4.9-0.9,9.2-0.6,11.1-0.1c1.5,0.4,3.3,1.3,5.3,3.2c0.8,0.7,1.6,1.6,2.5,2.6
						c0.7,0.8,1.4,1.8,2.1,2.8c4.2,6.3,8.8,16.7,12.7,33.8C868.8,1662.5,829,1665.3,829,1665.3z"/>
					<path fill="#FFFFFF" d="M856.7,1579.5c-0.5,0-8.9,0.1-11.2,3.1c-0.4,0.5-0.6,1.1-0.6,1.9l-1.4,0.2l-7.9,0.9l4.4-8
						c0,0,0.3-0.2,0.9-0.4c1.1-0.4,3.1-1,6.5-1.1c1.8,0.4,4,1.2,6.2,2.1C854.6,1578.6,855.6,1579,856.7,1579.5z"/>
					<path fill="#D09C2A" d="M840.2,1637.5c-27.5,10.8-35.5,1.8-35.5,1.8s9-12.5,17.6-11.7C830.9,1628.5,840.2,1637.5,840.2,1637.5z
						"/>
					<path fill="#090E0A" d="M864.8,1819.1c2-11.7,1.6-78.4,1.3-86.9c-0.3-8.6-2.1-17.2-3.6-26.8c-5.8-36.9,5.3-47.5,5.3-47.5
						s11.1,22.3,5.2,86.1c-5.8,63.8-1.2,82.3-5.2,85.1l14.2,8.9c0,0,0.4,1,0.5,2.2l-21.8-2.8c0,0,0.7-2.2,1.8-6.4
						c0.3-1,0.5-2.2,0.8-3.5C863.7,1825,864.3,1822.3,864.8,1819.1z"/>
					<path fill="#FFFFFF" d="M840.2,1637.5c-18-5.7-35.5,1.8-35.5,1.8c0.4-2.4-0.8-12.2-0.8-23.1c0-16.5,2.6-35.5,17.2-35.5
						c7.7,0,12.4,5.7,15.3,13.4C842.7,1611,840.2,1637.5,840.2,1637.5z"/>
					<path fill="#FDD600" d="M819.8,1580.8c0,0-10.3,18-3.8,55.4l3.2,6.6c0,0,1.2,11.7,0.5,22.2c-30.7-4.6-19.2-46.7-16.7-69.6
						c1.6-14.3,12.5-19.7,21.5-21.2C824.5,1574.2,819.2,1577.5,819.8,1580.8z"/>
					<path fill="#090E0A" d="M819.2,1642.7c-10.8,0.7-14.5-3.4-14.5-3.4s4.6-6.4,10.4-9.7c0.3,2.1,0.6,4.3,1,6.6L819.2,1642.7z"/>
					<path fill="#D09C2A" d="M816,1636.2c-6.8,1.1-11.4,3.1-11.4,3.1c0.4-2.4-0.7-12.2-0.8-23.1c0-16,2.4-34.3,15.9-35.4
						C819.4,1581.7,809.7,1599.7,816,1636.2z"/>
					<path fill="#090E0A" d="M819.8,1580.9c0,0,18.8-3,20.8,41.1c0,0,2.8-14.4-0.1-30.2c-2.9-15.9-16.1-17.5-16.1-17.5l-10,4.9
						L819.8,1580.9z"/>
				</g>
			</g>
		</g>
	</g>
</g>
<g id="info">
</g>
<g id="header">
</g>
</svg>
