<?xml version="1.0" encoding="utf-8"?>
<!-- Generator: Adobe Illustrator 18.1.1, SVG Export Plug-In . SVG Version: 6.00 Build 0)  -->
<svg version="1.1" xmlns="http://www.w3.org/2000/svg" xmlns:xlink="http://www.w3.org/1999/xlink" x="0px" y="0px"
	 viewBox="0 0 1080 1920" enable-background="new 0 0 1080 1920" xml:space="preserve">
<g id="backs">
	<rect x="-0.2" y="-0.4" fill="#2A61AC" width="1082.7" height="1920.4"/>
	<g>
		<defs>
			<rect id="SVGID_1_" x="1" y="752.9" width="1079" height="1166.1"/>
		</defs>
		<clipPath id="SVGID_2_">
			<use xlink:href="#SVGID_1_"  overflow="visible"/>
		</clipPath>
		<g clip-path="url(#SVGID_2_)">
			<path fill="#FFFFFF" d="M934.5,1743.2l-8,4.5l-3.5,2l-12.1,6.9l6-175.5c0,0,0,0,0-0.1c0.3-0.6,2-3.2,6.1-3.2h0.2
				c4.7,0.1,6.1,2.7,6.1,2.7l3.8,146.2L934.5,1743.2z"/>
			<path fill="#052743" d="M934.5,1743.2l-8,4.5l-3.5,2v-171.9h0.2c4.7,0.1,6.1,2.7,6.1,2.7l3.8,146.2L934.5,1743.2z"/>
			<path fill="#969595" d="M917.2,1574.3l0.1-4.9c0,0,1.9-3.2,6.4-2.7c4.5,0.5,5.8,3.5,5.8,3.5l-0.1,4.1c0,0-2.5-1-6.1-1.2
				C919.7,1572.9,917.2,1574.3,917.2,1574.3z"/>
			<path fill="#FFFFFF" d="M942.4,1555.6c-0.2,10.4-8.7,18.6-19.1,18.5c-9.7-0.2-17.6-7.7-18.4-17.2c-0.1-0.6-0.1-1.3-0.1-1.9
				c0.2-10.4,8.7-18.6,19.1-18.5c9.7,0.2,17.6,7.7,18.4,17.2C942.4,1554.3,942.4,1555,942.4,1555.6z"/>
			<path fill="#738EC0" d="M942.4,1555.6c-0.2,10.4-8.7,18.6-19.1,18.5c-6.5-0.1-12.1-3.5-15.4-8.5c2.7,1.5,5.7,2.4,9,2.5
				c10.4,0.2,18.9-8.1,19.1-18.5c0-0.7,0-1.3-0.1-1.9c-0.3-3.2-1.3-6.1-3-8.7c5.2,3,8.9,8.4,9.4,14.7
				C942.4,1554.3,942.4,1555,942.4,1555.6z"/>
			<polygon fill="#FFFFFF" points="925,1523.2 920.7,1523.1 923.1,1431.3 925.2,1431.4 925,1521.5 			"/>
			<path fill="#052743" d="M925,1521.5c-0.8,0.5-1.3,0.9-1.4,0.9c-0.8,0.2,0.5-75.2,0.7-91.1l0.8,0L925,1521.5z"/>
			<path fill="#FFFFFF" d="M930.3,1537.7c-2-0.8-4.1-1.2-6.4-1.2c-3.1-0.1-6.1,0.7-8.7,2l0.6-16.8c0,0,0,0,0.1-0.1
				c0.2-0.3,0.9-1.4,2.4-2.2c0.1,0,0.1-0.1,0.2-0.1c1.1-0.6,2.5-1,4.4-0.9c0.2,0,0.3,0,0.5,0c4.9,0.2,6.4,2.7,6.4,2.7l0.2,5.3
				l0.2,7.1v0l0,0.9L930.3,1537.7z"/>
			<g>
				<path fill="#061638" d="M931.4,1578.3c-0.3,0-0.6-0.1-0.8-0.3c-2.1-2-4.8-3.2-7.6-3.3c-2.8,0-5.4,1-7.2,2.9
					c-0.4,0.5-1.2,0.5-1.6,0c-0.4-0.4-0.5-1.2,0-1.6c2.3-2.4,5.5-3.6,8.9-3.6c0,0,0,0,0,0c3.4,0.1,6.7,1.5,9.2,3.9
					c0.5,0.4,0.5,1.2,0,1.6C932,1578.2,931.7,1578.3,931.4,1578.3z"/>
			</g>
			<path fill="none" d="M914.5,1520.8c4.8-5,13-4.8,18.4,0.4"/>
			<g>
				<path fill="#061638" d="M931.3,1582.7c-0.3,0-0.6-0.1-0.8-0.3c-4.3-4.2-11-4.4-14.9-0.4c-0.4,0.5-1.2,0.5-1.6,0
					c-0.4-0.4-0.5-1.2,0-1.6c4.8-4.9,12.9-4.8,18.1,0.3c0.4,0.4,0.5,1.2,0,1.6C931.9,1582.6,931.6,1582.7,931.3,1582.7z"/>
			</g>
			<path fill="none" d="M920,1515.3c0,0,2.9-2.2,7.1,0.1"/>
			<g>
				<path fill="#052743" d="M927.2,1508.4c-0.2,0-0.4,0-0.5-0.1c-3.4-1.9-5.7-0.3-5.8-0.2c-0.5,0.4-1.2,0.3-1.6-0.2
					c-0.4-0.5-0.3-1.2,0.2-1.6c0.1-0.1,3.5-2.7,8.3,0c0.5,0.3,0.7,1,0.4,1.5C928,1508.2,927.6,1508.4,927.2,1508.4z"/>
			</g>
			<g>
				<path fill="#052743" d="M926.2,1480.9c-0.2,0-0.4,0-0.5-0.1c-2.3-1.3-3.8-0.2-3.8-0.2c-0.5,0.4-1.2,0.3-1.6-0.2
					c-0.4-0.5-0.3-1.2,0.2-1.6c0.1-0.1,2.7-2,6.3,0c0.5,0.3,0.7,1,0.4,1.5C927,1480.7,926.6,1480.9,926.2,1480.9z"/>
			</g>
			<g>
				<path fill="#052743" d="M926.5,1462c-0.2,0-0.4,0-0.5-0.1c-2.3-1.3-3.8-0.2-3.8-0.2c-0.5,0.4-1.2,0.3-1.6-0.2
					c-0.4-0.5-0.3-1.2,0.2-1.6c0.1-0.1,2.7-2,6.3,0c0.5,0.3,0.7,1,0.4,1.5C927.3,1461.8,926.9,1462,926.5,1462z"/>
			</g>
			<g>
				<path fill="#87D5EF" d="M930.3,1537.7c-2-0.7-4.1-1.2-6.4-1.2c-3.1,0-6.1,0.7-8.7,2l0.1-2.1c2.6-1.3,5.6-2,8.7-2
					c2.2,0,4.3,0.5,6.3,1.2L930.3,1537.7z"/>
			</g>
			<path fill="#061638" d="M930.3,1537.7c-2-0.7-4.1-1.2-6.4-1.2c-3.1,0-6.1,0.7-8.7,2l0.1-2.1c2.6-1.3,5.6-2,8.7-2
				c2.2,0,4.3,0.5,6.3,1.2L930.3,1537.7z"/>
		</g>
		<g clip-path="url(#SVGID_2_)">
			<polygon fill="#FFFFFF" points="1148.3,1788.7 1286.8,1814.8 1055,1810.8 725.1,1794.1 736.4,1778.9 985.2,1768.3 			"/>
			<polygon fill="#2A60AD" points="954.4,1723.6 939.4,1776.1 915.3,1777.2 914,1777.3 912.7,1777.3 904.5,1777.7 849.7,1780.1 
				840.2,1780.5 815.3,1781.6 815.3,1722.5 			"/>
			<rect x="849.7" y="1734.1" fill="#090E0A" width="54.9" height="3.3"/>
			<polygon fill="#090E0A" points="954.4,1723.6 951.4,1734.3 815.3,1734.3 815.3,1722.5 951.9,1723.6 			"/>
			<rect x="815.3" y="1716.5" fill="#090E0A" width="139.1" height="9.2"/>
			<polygon fill="#090E0A" points="951.9,1723.6 951.4,1725.7 815.3,1725.7 815.3,1722.5 			"/>
			<rect x="849.7" y="1720.1" fill="#2A60AD" width="54.9" height="7.2"/>
			<g>
				<polygon fill="#090E0A" points="815.3,1716.5 815.3,1781.6 789.2,1781.6 789.2,1723.5 793.5,1722.3 				"/>
				<polygon fill="#052743" points="793.5,1722.3 793.5,1781.6 789.2,1781.6 789.2,1723.5 				"/>
			</g>
			<polygon fill="#052743" points="849.7,1734.3 849.7,1780.1 840.2,1780.5 840.2,1734.3 			"/>
			<polygon fill="#090E0A" points="849.7,1734.3 849.7,1780.1 847,1780.5 847,1734.3 			"/>
			<polygon fill="#052743" points="914,1734.3 914,1777.3 904.5,1777.7 904.5,1734.3 			"/>
		</g>
		<g clip-path="url(#SVGID_2_)">
			<g>
				<polygon fill="#FFFFFF" points="1178.5,1689.9 1177.3,1760.4 1176.7,1800.2 1116.4,1809.2 1018.6,1824 1016.4,1824.3 
					1006.6,1825.8 1006.6,1573.8 1054.8,1599.6 1054.8,1644.4 1084.5,1655.3 1084.8,1655.4 1089.3,1657 1152,1680.1 1169.6,1686.6 
									"/>
				<path fill="#EB2047" d="M1118.3,1797.2l-1.9,12.1l-97.8,14.7l-2.2,0.3l-9.8,1.5v-162.4c3.8,1.1,42.1,13.9,45.6,74.5
					C1055.9,1801.6,1118.3,1797.2,1118.3,1797.2z"/>
				<polygon fill="#FFFFFF" points="1006.6,1639.5 1006.6,1825.7 1001.2,1824.9 995.8,1824.1 993.9,1823.8 991.2,1823.4 988.4,1823 
					911.7,1811.5 904.9,1810.5 904.9,1668.9 				"/>
				<polygon fill="#FFFFFF" points="964.3,1674.5 1006.6,1663.3 1006.6,1573.8 964.3,1589.3 				"/>
				<g>
					<defs>
						<polygon id="SVGID_3_" points="964,1674.5 1006.3,1663.3 1006.3,1573.8 964,1589.3 						"/>
					</defs>
					<clipPath id="SVGID_4_">
						<use xlink:href="#SVGID_3_"  overflow="visible"/>
					</clipPath>
					<g clip-path="url(#SVGID_4_)">
						
							<line fill="none" stroke="#061638" stroke-width="0.4663" stroke-miterlimit="10" x1="963.7" y1="1589.5" x2="1006.6" y2="1573.8"/>
						
							<line fill="none" stroke="#061638" stroke-width="0.4663" stroke-miterlimit="10" x1="963.7" y1="1595.2" x2="1006.6" y2="1579.8"/>
						
							<line fill="none" stroke="#061638" stroke-width="0.4663" stroke-miterlimit="10" x1="963.7" y1="1600.9" x2="1006.6" y2="1585.8"/>
						
							<line fill="none" stroke="#061638" stroke-width="0.4663" stroke-miterlimit="10" x1="963.7" y1="1606.7" x2="1006.6" y2="1591.7"/>
						
							<line fill="none" stroke="#061638" stroke-width="0.4663" stroke-miterlimit="10" x1="963.7" y1="1612.4" x2="1006.6" y2="1597.7"/>
						
							<line fill="none" stroke="#061638" stroke-width="0.4663" stroke-miterlimit="10" x1="963.7" y1="1618.1" x2="1006.6" y2="1603.7"/>
						
							<line fill="none" stroke="#061638" stroke-width="0.4663" stroke-miterlimit="10" x1="963.7" y1="1623.8" x2="1006.6" y2="1609.6"/>
						
							<line fill="none" stroke="#061638" stroke-width="0.4663" stroke-miterlimit="10" x1="963.7" y1="1629.5" x2="1006.6" y2="1615.6"/>
						
							<line fill="none" stroke="#061638" stroke-width="0.4663" stroke-miterlimit="10" x1="963.7" y1="1635.2" x2="1006.6" y2="1621.6"/>
						
							<line fill="none" stroke="#061638" stroke-width="0.4663" stroke-miterlimit="10" x1="963.7" y1="1641" x2="1006.6" y2="1627.5"/>
						
							<line fill="none" stroke="#061638" stroke-width="0.4663" stroke-miterlimit="10" x1="963.7" y1="1646.7" x2="1006.6" y2="1633.5"/>
						
							<line fill="none" stroke="#061638" stroke-width="0.4663" stroke-miterlimit="10" x1="963.7" y1="1652.4" x2="1006.6" y2="1639.5"/>
					</g>
				</g>
				<polygon fill="#FDD600" points="938.4,1701.1 917.8,1701.1 917.8,1679.4 938.4,1675.1 				"/>
				<polyline fill="#FFFFFF" points="983.8,1689.9 899.6,1701.7 899.6,1710.1 983.8,1698.2 983.8,1689.9 				"/>
				<rect x="983.8" y="1689.9" fill="#FFFFFF" width="7.3" height="13.1"/>
				<polygon fill="#040404" points="988.4,1707.6 988.4,1823 911.7,1811.5 911.7,1717.7 				"/>
				<polygon fill="#040404" points="986.6,1703 913.6,1713.2 899.6,1710.1 983.8,1698.2 				"/>
				<polygon fill="#040404" points="1006.5,1572.1 1058.2,1599.8 1058.2,1598.5 1006.5,1570.8 				"/>
				<polyline fill="#040404" points="1006.6,1570.7 962.1,1587 962.1,1588.3 1006.6,1572 				"/>
				<path fill="#FDD600" d="M1001.2,1651.4v173.5l-5.4-0.8v-172.7c0.9-0.2,1.8-0.3,2.7-0.3
					C999.4,1651.1,1000.3,1651.2,1001.2,1651.4z"/>
				<g>
					<polygon fill="#052743" points="1001.2,1652.8 1001.2,1667.2 995.8,1671.7 995.8,1657.3 					"/>
				</g>
				<g>
					<polygon fill="#052743" points="1001.2,1682.5 1001.2,1696.9 995.8,1701.4 995.8,1687 					"/>
				</g>
				<g>
					<polygon fill="#052743" points="1001.2,1712.3 1001.2,1726.7 995.8,1731.1 995.8,1716.7 					"/>
				</g>
				<g>
					<polygon fill="#052743" points="1001.2,1742 1001.2,1756.4 995.8,1760.8 995.8,1746.4 					"/>
				</g>
				<g>
					<polygon fill="#052743" points="1001.2,1771.7 1001.2,1786.1 995.8,1790.5 995.8,1776.1 					"/>
				</g>
				<polygon fill="#121212" points="993.9,1690.8 993.9,1823.8 991.2,1823.4 991.2,1690.8 				"/>
			</g>
			<path fill="none" stroke="#2A60AD" stroke-width="3.9927" stroke-miterlimit="10" d="M914,1042.3"/>
		</g>
		<g clip-path="url(#SVGID_2_)">
			<g>
				<polygon fill="#FFFFFF" points="397.4,1686.6 397.4,1655.1 207.3,1703.3 207.3,1951.8 397.4,1951.8 				"/>
				<polyline fill="#052743" points="217,1726.2 397.4,1686.6 397.4,1655.1 207.3,1703.3 				"/>
				<rect x="397.4" y="1655.1" fill="#121212" width="24.9" height="31.7"/>
				<path fill="#052743" d="M449,1613.4v64h13.7v-64c-2.1-1.3-4.5-2-6.9-2C453.5,1611.4,451.1,1612.1,449,1613.4z"/>
				<polygon fill="#090E0A" points="449,1644.3 449,1677.4 462.7,1677.4 462.7,1654.1 				"/>
				<rect x="554.2" y="1773.5" fill="#FFFFFF" width="111.3" height="150.9"/>
				<polygon fill="#090E0A" points="650.2,1924.4 609.8,1787.2 609.8,1924.4 				"/>
				<polygon fill="#FFFFFF" points="43.4,1623.4 93,1623.4 93,1581.4 43.4,1566.6 				"/>
				<rect x="34.3" y="1566.6" fill="#121212" width="9.1" height="36.1"/>
				<polygon fill="#FFFFFF" points="134.1,1632.8 159.8,1632.8 159.8,1599.6 134.1,1591.8 				"/>
				<rect x="126.9" y="1591.8" fill="#121212" width="7.3" height="28.6"/>
				<g>
					<g>
						<path fill="#738EC0" d="M46.1,1550.3l44.1,13.2v37.4H46.1V1550.3z M88.1,1565.2l-39.9-12v45.6h39.9V1565.2z"/>
					</g>
					<g>
						
							<rect x="67.1" y="1546.2" transform="matrix(-0.2879 0.9577 -0.9577 -0.2879 1589.5909 1954.2654)" fill="#738EC0" width="2.1" height="43.8"/>
					</g>
					<g>
						<polygon fill="#738EC0" points="77.8,1561.3 77.8,1576.9 79.9,1577.5 79.9,1561.3 						"/>
					</g>
					<g>
						<polygon fill="#738EC0" points="60.1,1555.9 60.1,1571.6 62.2,1572.2 62.2,1555.9 						"/>
					</g>
				</g>
				<path fill="none" stroke="#5F5F5F" stroke-width="2.1209" stroke-miterlimit="10" d="M356.7,1904.8v43h26.9v-43
					c-4.2-1.6-8.7-2.5-13.5-2.5C365.5,1902.3,360.9,1903.1,356.7,1904.8z"/>
				<polygon fill="#090E0A" points="390.3,1688.1 390.3,1667.5 240.1,1703 240.1,1721.1 				"/>
				<path fill="#090E0A" d="M359.4,1712.6v29.7l25.9-4.4v-31.3c-2.3-0.6-4.7-0.9-7.1-0.9C371,1705.8,364.5,1708.3,359.4,1712.6z"/>
				<path fill="#090E0A" d="M325.1,1719v29l25.9-4.4V1714c-2.5-0.7-5.2-1.1-8-1.1C336.3,1712.9,330.1,1715.2,325.1,1719z"/>
				<path fill="#090E0A" d="M293.6,1725.3v28.1l23.9-4V1720c-2-0.4-4.1-0.7-6.2-0.7C304.6,1719.4,298.5,1721.6,293.6,1725.3z"/>
				<path fill="#738EC0" d="M293.6,1768.5v27.8l23.9-2.7v-30.4c-2-0.4-4.1-0.7-6.2-0.7C304.6,1762.5,298.5,1764.7,293.6,1768.5z"/>
				<polygon fill="#090E0A" points="267.9,1887.1 397.4,1697.6 397.4,1735.9 397.4,1934.3 272.1,1930.5 				"/>
				<polygon fill="#FFFFFF" points="668.8,1924.4 668.8,1966.1 397.4,1966.1 397.4,1686.5 416.7,1652 507.4,1677.3 609.8,1705.9 
					609.8,1924.4 				"/>
				<path fill="#EB2047" d="M668.8,1924.4v41.7H560.4c35.1-126.2-35.1-97-85.4-147.3c-50.3-50.2,32.4-141.5,32.4-141.5l102.4,28.6
					v218.5H668.8z"/>
				<rect x="637.7" y="1789.1" fill="#090E0A" width="6.7" height="15.4"/>
				<polyline fill="none" stroke="#090E0A" stroke-width="2.1209" stroke-miterlimit="10" points="259.2,1759.2 293.6,1753.4 
					317.5,1749.4 325.1,1748.1 351,1743.7 359.4,1742.3 385.3,1737.9 397.4,1735.9 				"/>
				<polyline fill="none" stroke="#090E0A" stroke-width="2.1209" stroke-miterlimit="10" points="261.7,1799.9 293.6,1796.3 
					317.5,1793.6 397.4,1784.6 				"/>
				
					<line fill="none" stroke="#090E0A" stroke-width="2.1209" stroke-miterlimit="10" x1="397.4" y1="1836.5" x2="243.9" y2="1846.1"/>
				
					<line fill="none" stroke="#090E0A" stroke-width="2.1209" stroke-miterlimit="10" x1="397.4" y1="1697.6" x2="229.1" y2="1731.4"/>
				<polygon fill="#FFFFFF" points="-308,1496.8 -308,1966.1 409.8,1966.1 407,1924.4 352.2,1924.4 352.2,1882.5 279,1882.5 
					279,1644.4 3.6,1575.1 -65.5,1557.7 				"/>
				<g>
					<path fill="#EB2047" d="M-65.5,1557.7c13.2,9.4,25.2,20.6,35.5,33.2c4.9,6,9.5,12.5,16,16.6c7.8,5,17.5,6,26.7,6.6
						c27.8,1.9,56.1,1.1,83,8.1c27,7.1,53.3,23.8,63.1,49.9c3.7,9.9,4.9,20.6,9,30.3c4.1,9.7,12.2,18.9,22.7,19.5
						c8.3,0.5,15.8-4.4,23.7-6.9c22.5-7.1,45.1,4.9,64.7,19.5v-90.2L-65.5,1557.7z"/>
				</g>
				<polygon fill="#17B89E" points="-308,1496.8 -308,1912.9 30.5,1918 16.3,1844.8 130.5,1846.8 3.6,1575.1 -65.5,1557.7 				"/>
				<g>
					<defs>
						<path id="SVGID_5_" d="M668.8,1924.4v41.7H560.4c35.1-126.2-35.1-97-85.4-147.3c-50.3-50.2,32.4-141.5,32.4-141.5l102.4,28.6
							v218.5H668.8z"/>
					</defs>
					<clipPath id="SVGID_6_">
						<use xlink:href="#SVGID_5_"  overflow="visible"/>
					</clipPath>
					<g clip-path="url(#SVGID_6_)">
						
							<line fill="none" stroke="#F2B62D" stroke-width="22.4995" stroke-miterlimit="10" x1="1105.3" y1="1796.9" x2="660.4" y2="2146.3"/>
						
							<line fill="none" stroke="#F2B62D" stroke-width="22.4995" stroke-miterlimit="10" x1="1085.1" y1="1771.2" x2="640.2" y2="2120.7"/>
						
							<line fill="none" stroke="#F2B62D" stroke-width="22.4995" stroke-miterlimit="10" x1="1065" y1="1745.6" x2="620.1" y2="2095"/>
						
							<line fill="none" stroke="#F2B62D" stroke-width="22.4995" stroke-miterlimit="10" x1="1044.8" y1="1719.9" x2="599.9" y2="2069.4"/>
						
							<line fill="none" stroke="#F2B62D" stroke-width="22.4995" stroke-miterlimit="10" x1="1024.7" y1="1694.2" x2="579.8" y2="2043.7"/>
						
							<line fill="none" stroke="#F2B62D" stroke-width="22.4995" stroke-miterlimit="10" x1="1004.5" y1="1668.6" x2="559.6" y2="2018.1"/>
						
							<line fill="none" stroke="#F2B62D" stroke-width="22.4995" stroke-miterlimit="10" x1="984.4" y1="1642.9" x2="539.5" y2="1992.4"/>
						
							<line fill="none" stroke="#F2B62D" stroke-width="22.4995" stroke-miterlimit="10" x1="964.2" y1="1617.3" x2="519.3" y2="1966.8"/>
						
							<line fill="none" stroke="#F2B62D" stroke-width="22.4995" stroke-miterlimit="10" x1="944.1" y1="1591.6" x2="499.2" y2="1941.1"/>
						
							<line fill="none" stroke="#F2B62D" stroke-width="22.4995" stroke-miterlimit="10" x1="923.9" y1="1566" x2="479" y2="1915.4"/>
						
							<line fill="none" stroke="#F2B62D" stroke-width="22.4995" stroke-miterlimit="10" x1="903.8" y1="1540.3" x2="458.9" y2="1889.8"/>
						
							<line fill="none" stroke="#F2B62D" stroke-width="22.4995" stroke-miterlimit="10" x1="883.6" y1="1514.7" x2="438.7" y2="1864.1"/>
					</g>
				</g>
			</g>
			<g>
				<defs>
					<polygon id="SVGID_7_" points="-308,1484 -308,1953.3 409.8,1953.3 407,1911.6 352.2,1911.6 352.2,1869.7 279,1869.7 
						279,1631.7 3.6,1562.4 -65.5,1545 					"/>
				</defs>
				<clipPath id="SVGID_8_">
					<use xlink:href="#SVGID_7_"  overflow="visible"/>
				</clipPath>
			</g>
		</g>
	</g>
</g>
<g id="info">
</g>
<g id="header">
</g>
</svg>
