<?xml version="1.0" encoding="utf-8"?>
<!-- Generator: Adobe Illustrator 18.1.1, SVG Export Plug-In . SVG Version: 6.00 Build 0)  -->
<svg version="1.1" id="Layer_1" xmlns="http://www.w3.org/2000/svg" xmlns:xlink="http://www.w3.org/1999/xlink" x="0px" y="0px"
	 viewBox="0 0 1080 1920" enable-background="new 0 0 1080 1920" xml:space="preserve">
<rect x="-0.2" y="-0.4" fill="#16B89D" width="1080.2" height="1920.4"/>
<g>
	<defs>
		<rect id="SVGID_1_" x="0" y="1001" width="1079.1" height="919"/>
	</defs>
	<clipPath id="SVGID_2_">
		<use xlink:href="#SVGID_1_"  overflow="visible"/>
	</clipPath>
	<g clip-path="url(#SVGID_2_)">
		<rect x="-233.8" y="1768.4" fill="#052743" width="1341.5" height="151.6"/>
		<g>
			<g>
				<rect x="131.6" y="1713" fill="#0E1210" width="400.4" height="62.6"/>
			</g>
			<polygon fill="#0E1210" points="885.1,1770.3 1023.7,1796.3 791.8,1792.3 461.8,1775.7 473.2,1760.4 722,1749.8 			"/>
			<polygon fill="#2B61AD" points="114.6,1769.7 400.9,1782.2 400.3,1755.9 114.9,1755.9 			"/>
			<g>
				<path fill="#FFFFFF" d="M580.5,1649.2l-10.7,6l-4.7,2.6l-16.1,9.1l8-232.9c0,0,0-0.1,0.1-0.1c0.4-0.7,2.7-4.2,8.1-4.3h0.2
					c6.2,0.1,8.1,3.5,8.1,3.5l5,194L580.5,1649.2z"/>
				<path fill="#091838" d="M580.5,1649.2l-10.7,6l-4.7,2.6v-228.1h0.2c6.2,0.1,8.1,3.5,8.1,3.5l5,194L580.5,1649.2z"/>
				<path fill="#969595" d="M557.6,1425l0.1-6.5c0,0,2.6-4.2,8.5-3.6c5.9,0.6,7.7,4.6,7.7,4.6l-0.1,5.5c0,0-3.3-1.4-8.1-1.5
					C560.9,1423.3,557.6,1425,557.6,1425z"/>
				<path fill="#FFFFFF" d="M591,1400.3c-0.2,13.8-11.6,24.7-25.3,24.5c-12.9-0.2-23.4-10.2-24.4-22.8c-0.1-0.8-0.1-1.7-0.1-2.6
					c0.2-13.8,11.6-24.7,25.3-24.5c12.9,0.2,23.3,10.2,24.4,22.8C591,1398.5,591,1399.4,591,1400.3z"/>
				<path fill="#748DBF" d="M591,1400.3c-0.2,13.8-11.6,24.7-25.3,24.5c-8.6-0.1-16.1-4.6-20.5-11.3c3.5,2,7.6,3.2,11.9,3.3
					c13.8,0.2,25.1-10.7,25.3-24.5c0-0.9,0-1.7-0.1-2.6c-0.4-4.2-1.8-8.1-4-11.5c6.9,4,11.8,11.2,12.5,19.5
					C591,1398.5,591,1399.4,591,1400.3z"/>
				<polygon fill="#FFFFFF" points="568,1357.2 562.2,1357.1 565.4,1235.3 568.2,1235.4 568,1355 				"/>
				<path fill="#091838" d="M568,1355c-1,0.7-1.7,1.2-1.9,1.2c-1,0.3,0.6-99.8,1-120.9l1.1,0L568,1355z"/>
				<path fill="#FFFFFF" d="M574.9,1376.6c-2.6-1-5.5-1.6-8.4-1.6c-4.2-0.1-8.1,0.9-11.6,2.6l0.8-22.3c0,0,0,0,0.1-0.1
					c0.3-0.4,1.3-1.8,3.2-2.9c0.1,0,0.2-0.1,0.2-0.1c1.4-0.7,3.4-1.3,5.9-1.3c0.2,0,0.4,0,0.6,0c6.5,0.3,8.5,3.5,8.5,3.5l0.2,7
					l0.3,9.5v0l0,1.1L574.9,1376.6z"/>
				<g>
					<path fill="#091838" d="M576.4,1430.3c-0.4,0-0.7-0.1-1-0.4c-2.8-2.7-6.4-4.2-10.1-4.3c-3.7,0-7.1,1.3-9.6,3.9
						c-0.6,0.6-1.5,0.6-2.1,0c-0.6-0.6-0.6-1.5,0-2.1c3.1-3.2,7.2-4.8,11.8-4.8c0,0,0,0,0.1,0c4.5,0.1,8.8,1.9,12.2,5.2
						c0.6,0.6,0.6,1.5,0,2.1C577.3,1430.2,576.9,1430.3,576.4,1430.3z"/>
				</g>
				<path fill="none" d="M554,1354.1c6.4-6.6,17.3-6.4,24.4,0.5"/>
				<g>
					<path fill="#091838" d="M576.4,1436.2c-0.4,0-0.7-0.1-1-0.4c-5.7-5.6-14.6-5.8-19.7-0.5c-0.6,0.6-1.5,0.6-2.1,0
						c-0.6-0.6-0.6-1.5,0-2.1c6.3-6.5,17.1-6.3,24,0.4c0.6,0.6,0.6,1.5,0,2.1C577.2,1436.1,576.8,1436.3,576.4,1436.2z"/>
				</g>
				<path fill="none" d="M561.4,1346.8c0,0,3.8-3,9.3,0.2"/>
				<g>
					<path fill="#091838" d="M570.9,1337.6c-0.2,0-0.5-0.1-0.7-0.2c-4.5-2.5-7.6-0.4-7.7-0.3c-0.7,0.5-1.6,0.4-2.1-0.3
						c-0.5-0.7-0.4-1.6,0.3-2.1c0.2-0.1,4.7-3.5,11,0c0.7,0.4,1,1.3,0.6,2.1C571.9,1337.4,571.4,1337.6,570.9,1337.6z"/>
				</g>
				<g>
					<path fill="#091838" d="M569.6,1301.1c-0.2,0-0.5-0.1-0.7-0.2c-3-1.7-5-0.3-5.1-0.2c-0.7,0.5-1.6,0.4-2.1-0.3
						c-0.5-0.7-0.4-1.6,0.3-2.1c0.1-0.1,3.6-2.7,8.4,0c0.7,0.4,1,1.3,0.6,2.1C570.6,1300.8,570.1,1301.1,569.6,1301.1z"/>
				</g>
				<g>
					<path fill="#091838" d="M570,1276c-0.2,0-0.5-0.1-0.7-0.2c-3.1-1.7-5.1-0.2-5.1-0.2c-0.7,0.5-1.6,0.4-2.1-0.3
						c-0.5-0.7-0.4-1.6,0.3-2.1c0.1-0.1,3.6-2.7,8.4,0c0.7,0.4,1,1.3,0.6,2C571,1275.7,570.5,1276,570,1276z"/>
				</g>
				<path fill="#88D2EB" d="M574.9,1376.5c-2.6-1-5.5-1.6-8.5-1.6c-4.2-0.1-8.1,0.9-11.6,2.6l0.1-2.8c3.5-1.7,7.4-2.7,11.5-2.6
					c2.9,0,5.7,0.6,8.3,1.6L574.9,1376.5z"/>
				<path fill="#091838" d="M574.9,1376.5c-2.6-1-5.5-1.6-8.5-1.6c-4.2-0.1-8.1,0.9-11.6,2.6l0.1-2.8c3.5-1.7,7.4-2.7,11.5-2.6
					c2.9,0,5.7,0.6,8.3,1.6L574.9,1376.5z"/>
			</g>
			<rect x="525.9" y="1646.7" fill="#0E1210" width="186.6" height="36.1"/>
			<g>
				
					<line fill="none" stroke="#194987" stroke-width="1.9622" stroke-miterlimit="10" x1="143.4" y1="1689.4" x2="427.6" y2="1687.5"/>
				
					<line fill="none" stroke="#194987" stroke-width="1.9622" stroke-miterlimit="10" x1="177.6" y1="1689.2" x2="176.7" y2="1698.2"/>
				
					<line fill="none" stroke="#194987" stroke-width="1.9622" stroke-miterlimit="10" x1="221.2" y1="1689" x2="220.2" y2="1698.1"/>
				
					<line fill="none" stroke="#194987" stroke-width="1.9622" stroke-miterlimit="10" x1="245.7" y1="1688.5" x2="244.7" y2="1697.6"/>
				<line fill="none" stroke="#194987" stroke-width="1.9622" stroke-miterlimit="10" x1="269" y1="1688.7" x2="268" y2="1697.7"/>
				
					<line fill="none" stroke="#194987" stroke-width="1.9622" stroke-miterlimit="10" x1="292.6" y1="1688.2" x2="291.6" y2="1697.2"/>
				
					<line fill="none" stroke="#194987" stroke-width="1.9622" stroke-miterlimit="10" x1="315.3" y1="1688.2" x2="314.4" y2="1697.3"/>
				
					<line fill="none" stroke="#194987" stroke-width="1.9622" stroke-miterlimit="10" x1="399.3" y1="1687.3" x2="398.4" y2="1696.3"/>
			</g>
			<rect x="121.8" y="1697" fill="#748DBF" width="410.3" height="18.2"/>
			<rect x="500.4" y="1675.5" fill="#052743" width="161.1" height="36"/>
			<rect x="452.1" y="1602.6" fill="#0E1210" width="122.7" height="49.8"/>
			<polygon fill="#2B61AD" points="691.2,1705.1 676.2,1757.7 652.1,1758.7 650.8,1758.8 649.5,1758.8 641.3,1759.2 586.4,1761.6 
				576.9,1762 552.1,1763.1 552.1,1704 			"/>
			<rect x="586.4" y="1715.7" fill="#0E1210" width="54.9" height="3.3"/>
			<polygon fill="#0E1210" points="691.2,1705.1 688.1,1715.8 552.1,1715.8 552.1,1704 688.7,1705.1 			"/>
			<rect x="655" y="1564.5" fill="#0E1210" width="44" height="10"/>
			<polygon fill="#748DBF" points="703.2,1576 703.2,1654.5 662,1660.1 628.8,1593.1 615.8,1567 			"/>
			<polygon fill="#052743" points="703.2,1590.2 703.2,1654.5 662,1660.1 628.8,1593.1 628.8,1590.2 			"/>
			<path fill="#CBCACA" d="M688.1,1649.7v7.8l-4.2,0.5L539,1673.5l-11,1.2h0l-8.4,0.9c16.1-50.9,48.9-107.2,86.4-108.7
				C673.9,1563.9,688.1,1649.7,688.1,1649.7z"/>
			<path fill="#CBCACA" d="M688.1,1649.7v7.8l-4.2,0.5L539,1673.5l-11,1.2h0l-8.4,0.9c16.1-50.9,45.1-107.2,86.4-108.7
				C676.2,1564.2,688.1,1649.7,688.1,1649.7z"/>
			<path fill="#FFFFFF" d="M688.1,1649.7v7.8l-4.2,0.5L539,1673.5l-11,1.2h0l-8.4,0.9c16.1-50.9,45.1-107.2,86.4-108.7
				C676.2,1564.2,688.1,1649.7,688.1,1649.7z"/>
			<path fill="#0E1210" d="M607.3,1571c-41.2,1.5-66.8,56.2-83,106.9l-2.6,0.3c16.1-50.9,41.9-105.9,83.2-107.4
				C608.9,1570.7,610.4,1570.9,607.3,1571z"/>
			<path fill="#748DBF" d="M683.9,1657.9c-18.4,2-36.8,4-55.1,5.9c-33.6,3.6-67.2,7.2-100.7,10.8c9.4-28.8,27.7-78.8,57.5-93.9
				c15.8-8,30.4-7.3,43.2-1.2C656.1,1592.4,675.7,1629.7,683.9,1657.9z"/>
			<path fill="#0E1210" d="M612,1574.9c-6.3,0.5-12.9,2.3-19.8,5.8c-29.6,15-47.8,64.2-57.3,93.2c-2.3,0.2-4.6,0.5-6.9,0.7
				c9.4-28.8,27.7-78.8,57.5-93.9C594.9,1576,603.7,1574.3,612,1574.9z"/>
			<g>
				<g>
					<polygon fill="#091838" points="338.5,1709.5 334.7,1700.8 254.7,1700.8 121.9,1700.8 118.9,1706.4 255.1,1706.6 255.5,1709.1 
											"/>
				</g>
			</g>
			<polygon fill="#091838" points="885.1,1264.5 1171.6,1372.4 1171.6,1641.2 885.1,1603.9 			"/>
			<polygon fill="#052743" points="1171.6,1641.2 1171.6,1704.5 1109.2,1701.6 885.1,1691.3 885.1,1603.9 1109.2,1633.1 			"/>
			<polygon fill="#0E1210" points="1171.6,1641.2 1171.6,1704.5 1109.2,1701.6 1109.2,1633.1 			"/>
			<polygon fill="#0E1210" points="676.2,1708.1 676.2,1766.4 885.1,1770.3 885.1,1691.3 			"/>
			<polygon fill="#68C9D0" points="849,1706.6 818.9,1709.1 818.9,1761.8 849,1762.4 875.3,1762.9 875.3,1704.5 			"/>
			<polygon fill="#0E1210" points="818.9,1709.1 818.9,1761.8 742.6,1760.4 742.6,1715.2 			"/>
			<polygon fill="#FFFFFF" points="875.3,1704.5 875.3,1762.9 862.2,1762.7 862.2,1705.6 			"/>
			<polygon fill="#0E1210" points="885.1,1691.3 1171.6,1704.5 1171.6,1756.5 885.1,1770.3 			"/>
			<polygon fill="#4E4F4F" points="1159.8,1715.7 1159.8,1745.3 902.3,1757.7 896.9,1757.9 896.9,1703.6 902.3,1703.8 			"/>
			<polygon fill="#748DBF" points="1159.8,1715.7 1159.8,1745.3 902.3,1757.7 896.9,1757.9 896.9,1703.6 902.3,1703.8 			"/>
			<polygon fill="#052743" points="1159.8,1715.7 1159.8,1718.2 896.9,1706 896.9,1703.6 902.3,1703.8 			"/>
			<rect x="937.3" y="1700.4" fill="#0E1210" width="8.2" height="58.8"/>
			<rect x="1015.5" y="1700.4" fill="#0E1210" width="8.2" height="58.8"/>
			<rect x="1105.1" y="1708.3" fill="#0E1210" width="8.2" height="43"/>
			<polygon fill="#0E1210" points="552.1,1704 552.1,1763.1 525.9,1763.1 525.9,1711 530.3,1709.8 			"/>
			<polygon fill="#0E1210" points="688.7,1705.1 688.1,1707.2 552.1,1707.2 552.1,1704 			"/>
			<rect x="586.4" y="1701.6" fill="#2B61AD" width="54.9" height="7.2"/>
			<polygon fill="#052743" points="530.3,1709.8 530.3,1763.1 525.9,1763.1 525.9,1711 			"/>
			<rect x="487" y="1728.7" fill="#748DBF" width="45" height="3.9"/>
			<rect x="487" y="1763.1" fill="#091838" width="38.9" height="6.6"/>
			<polygon fill="#052743" points="487,1728.7 487,1732.6 452.7,1736.6 452.7,1732.7 			"/>
			<polygon fill="#0E1210" points="487,1732.6 487,1736.5 464.1,1739.1 464.1,1735.3 			"/>
			<polygon fill="#2B61AD" points="487,1736.5 487,1764.4 464.1,1767.1 464.1,1739.2 			"/>
			<rect x="461.8" y="1763.1" fill="#052743" width="25.2" height="6.6"/>
			<polygon fill="#748DBF" points="487,1713 487,1728.7 467.9,1730.9 467.9,1715.3 			"/>
			<rect x="487" y="1736.5" fill="#052743" width="32.7" height="26.5"/>
			<rect x="493.2" y="1733.5" fill="#0E1210" width="20.2" height="29.5"/>
			<rect x="487" y="1713" fill="#052743" width="32.7" height="15.7"/>
			<polygon fill="#091838" points="519.7,1713 496.3,1728.7 519.7,1728.7 			"/>
			<polygon fill="#FCD602" points="709.5,1717.9 709.5,1759.8 686,1759.3 686,1719.8 			"/>
			<polygon fill="#FCD602" points="742.6,1715.2 742.6,1760.4 734.6,1760.3 731.1,1760.2 712.5,1759.8 712.5,1717.7 731.1,1716.2 
				734.6,1715.9 			"/>
			<polygon fill="#052743" points="586.4,1715.8 586.4,1761.6 576.9,1762 576.9,1715.8 			"/>
			<polygon fill="#0E1210" points="586.4,1715.8 586.4,1761.6 583.8,1762 583.8,1715.8 			"/>
			<polygon fill="#052743" points="650.8,1715.8 650.8,1758.8 641.3,1759.2 641.3,1715.8 			"/>
			<polygon fill="#FFFFFF" points="885.1,1264.5 885.1,1603.9 742.8,1629.3 727.6,1632 676.2,1641.2 676.2,1383.9 727.6,1354.5 
				742.8,1345.9 755.8,1338.4 			"/>
			<polygon fill="#FFFFFF" points="875.3,1595.7 741,1619.7 725.9,1622.4 686,1629.5 686,1389.6 732.5,1363.1 747.6,1354.4 
				875.3,1281.4 			"/>
			<polygon fill="#FCD602" points="755.8,1338.4 676.2,1454.2 676.2,1383.9 727.6,1354.5 742.8,1345.9 			"/>
			<polygon fill="#41BA92" points="885.1,1337.6 742.8,1629.3 885.1,1603.9 			"/>
			<path fill="#FFFFFF" d="M746,1351.5l-15.2,8.7l-48.1,27.5v245.6l43.7-7.8l15.2-2.7l137-24.4v-322.7L746,1351.5z M875.3,1595.7
				l-134.3,24l-15.2,2.7l-39.9,7.1v-239.8l46.5-26.6l15.2-8.7l127.7-73V1595.7z"/>
			<polygon fill="#052743" points="742.8,1345.9 742.8,1629.3 727.6,1632 727.6,1354.5 			"/>
			<polygon fill="#091838" points="746.2,1343 746.2,1344.2 733,1351.7 733,1628.8 731.1,1629.2 731.1,1351.7 			"/>
			<polygon fill="#748DBF" points="775.3,1301.1 775.3,1650.4 735.2,1650.4 735.2,1324 			"/>
			<polygon fill="#748DBF" points="775.3,1301.1 775.3,1650.4 735.2,1650.4 735.2,1324 			"/>
			<g>
				<defs>
					<polygon id="SVGID_3_" points="775.3,1301.1 775.3,1650.4 735.2,1650.4 735.2,1324 					"/>
				</defs>
				<clipPath id="SVGID_4_">
					<use xlink:href="#SVGID_3_"  overflow="visible"/>
				</clipPath>
				<g clip-path="url(#SVGID_4_)">
					
						<line fill="none" stroke="#091838" stroke-width="0.6541" stroke-miterlimit="10" x1="721" y1="1320.3" x2="790.4" y2="1280.7"/>
					
						<line fill="none" stroke="#091838" stroke-width="0.6541" stroke-miterlimit="10" x1="720.6" y1="1337.6" x2="790.6" y2="1299.3"/>
					
						<line fill="none" stroke="#091838" stroke-width="0.6541" stroke-miterlimit="10" x1="720.1" y1="1354.9" x2="790.8" y2="1317.9"/>
					
						<line fill="none" stroke="#091838" stroke-width="0.6541" stroke-miterlimit="10" x1="719.7" y1="1372.2" x2="791" y2="1336.5"/>
					
						<line fill="none" stroke="#091838" stroke-width="0.6541" stroke-miterlimit="10" x1="719.2" y1="1389.5" x2="791.2" y2="1355.1"/>
					
						<line fill="none" stroke="#091838" stroke-width="0.6541" stroke-miterlimit="10" x1="718.7" y1="1406.8" x2="791.3" y2="1373.6"/>
					
						<line fill="none" stroke="#091838" stroke-width="0.6541" stroke-miterlimit="10" x1="718.3" y1="1424" x2="791.5" y2="1392.2"/>
					
						<line fill="none" stroke="#091838" stroke-width="0.6541" stroke-miterlimit="10" x1="717.8" y1="1441.3" x2="791.7" y2="1410.8"/>
					
						<line fill="none" stroke="#091838" stroke-width="0.6541" stroke-miterlimit="10" x1="717.3" y1="1458.6" x2="791.9" y2="1429.4"/>
					
						<line fill="none" stroke="#091838" stroke-width="0.6541" stroke-miterlimit="10" x1="716.9" y1="1475.9" x2="792.1" y2="1448"/>
					
						<line fill="none" stroke="#091838" stroke-width="0.6541" stroke-miterlimit="10" x1="716.4" y1="1493.2" x2="792.3" y2="1466.6"/>
					
						<line fill="none" stroke="#091838" stroke-width="0.6541" stroke-miterlimit="10" x1="716" y1="1510.5" x2="792.5" y2="1485.2"/>
					
						<line fill="none" stroke="#091838" stroke-width="0.6541" stroke-miterlimit="10" x1="715.5" y1="1527.8" x2="792.7" y2="1503.8"/>
					<line fill="none" stroke="#091838" stroke-width="0.6541" stroke-miterlimit="10" x1="715" y1="1545" x2="792.9" y2="1522.3"/>
					
						<line fill="none" stroke="#091838" stroke-width="0.6541" stroke-miterlimit="10" x1="714.6" y1="1562.3" x2="793.1" y2="1540.9"/>
					
						<line fill="none" stroke="#091838" stroke-width="0.6541" stroke-miterlimit="10" x1="714.1" y1="1579.6" x2="793.2" y2="1559.5"/>
					
						<line fill="none" stroke="#091838" stroke-width="0.6541" stroke-miterlimit="10" x1="713.6" y1="1596.9" x2="793.4" y2="1578.1"/>
					
						<line fill="none" stroke="#091838" stroke-width="0.6541" stroke-miterlimit="10" x1="713.2" y1="1614.2" x2="793.6" y2="1596.7"/>
					
						<line fill="none" stroke="#091838" stroke-width="0.6541" stroke-miterlimit="10" x1="712.7" y1="1631.5" x2="793.8" y2="1615.3"/>
					
						<line fill="none" stroke="#091838" stroke-width="0.6541" stroke-miterlimit="10" x1="712.3" y1="1648.7" x2="794" y2="1633.9"/>
				</g>
			</g>
			<polygon fill="#091838" points="782.3,1650.4 775.3,1650.4 775.3,1301.1 782.3,1307.2 			"/>
			<g>
				<polygon fill="#052743" points="885.1,1603.9 885.1,1616.2 656.7,1656.9 656.7,1644.7 				"/>
				<polygon fill="#052743" points="656.7,1694.7 885.1,1673.6 885.1,1691.3 656.7,1709.9 				"/>
				<polygon fill="#0E1210" points="885.1,1616.2 885.1,1673.6 656.7,1694.7 656.7,1656.9 				"/>
				<polygon fill="#2B61AD" points="885.1,1621.4 742.6,1686.8 885.1,1673.6 				"/>
				<polygon fill="#052743" points="661.5,1697 656.7,1697 656.7,1656.9 662,1660.1 				"/>
			</g>
			<polyline fill="#0E1210" points="487,1769.7 479.9,1769.7 479.9,1763.1 487,1763.1 			"/>
			<g>
				<line fill="none" stroke="#194987" stroke-width="0.6541" stroke-miterlimit="10" x1="139.3" y1="1613.2" x2="355" y2="1668"/>
				
					<line fill="none" stroke="#194987" stroke-width="0.6541" stroke-miterlimit="10" x1="144.1" y1="1630.9" x2="355" y2="1656.9"/>
				
					<line fill="none" stroke="#194987" stroke-width="0.6541" stroke-miterlimit="10" x1="143.6" y1="1655.3" x2="304.2" y2="1660.1"/>
				
					<line fill="none" stroke="#194987" stroke-width="0.6541" stroke-miterlimit="10" x1="139.3" y1="1674.6" x2="323.3" y2="1664.8"/>
			</g>
			<g>
				<polygon fill="#2B61AD" points="315.4,1728.7 315.4,1769.7 342.8,1769.7 342.8,1733.5 340.2,1728.7 				"/>
				<polygon fill="#2B61AD" points="315.4,1728.7 315.4,1769.7 231.6,1765.9 231.8,1763.4 232.2,1758.7 233.7,1740.3 242.3,1735.9 
					263.1,1733.8 				"/>
				<polygon fill="#0E1210" points="263.1,1733.8 232.2,1758.7 233.7,1740.3 242.3,1735.9 				"/>
				<rect x="317" y="1735.4" fill="#0E1210" width="24.1" height="20.7"/>
				<rect x="315.4" y="1766.4" fill="#0E1210" width="27.4" height="3.3"/>
				<rect x="323.2" y="1736.5" fill="#052743" width="4.5" height="3.3"/>
				<path fill="#052743" d="M315.4,1728.7v4.8l-81.8,6.7l0.8-2.4c1-0.9,2.2-1.4,3.5-1.5L315.4,1728.7z"/>
				<polygon fill="#0E1210" points="316.2,1769.7 315.4,1769.7 231.6,1765.9 231.8,1763.4 315.4,1766.4 				"/>
			</g>
			<g>
				<path fill="#748DBF" d="M532,1822.8c0,5.5-59.1,10-132.1,10c-73,0-132.1-4.5-132.1-10c0-5.5,59.1-10,132.1-10
					C472.9,1812.7,532,1817.2,532,1822.8z"/>
				<g>
					<path fill="#0E1210" d="M454.2,1461.8c-1.3,0.7-2.6,1.4-3.9,2.1l-46.8,11.9c-1.4,0.4-2.8-0.5-3.2-1.9c-0.4-1.4,0.5-2.8,1.9-3.2
						c0.1,0,0.1,0,0.2,0l48.7-9C452.1,1461.8,453.2,1461.8,454.2,1461.8z"/>
					<path fill="none" stroke="#748DBF" stroke-width="0.9154" stroke-miterlimit="10" d="M456.1,1460.8c-0.6,0.4-1.3,0.7-1.9,1.1
						c-1.3,0.7-2.6,1.4-3.9,2.1c-13,7-28.1,14.5-44.4,22.2c-43,20.2-80.7,34.5-94.1,36.3c-3,0.4-4.7,0.1-5.2-0.8
						c-0.6-1.2,1.3-3.5,5.1-6.5c12.4-9.9,45.5-28.4,85.6-47.2c1.2-0.5,2.3-1.1,3.5-1.6c50.9-23.7,93.5-38.8,95.8-33.9
						C498.2,1435.6,481.9,1446.7,456.1,1460.8z"/>
					<g>
						<path fill="#FCD602" d="M343.4,1510.2c4.4,6.3-2.5,13.2-8.8,8.8c-0.2-0.1-0.4-0.3-0.5-0.5c-4.4-6.3,2.5-13.2,8.8-8.8
							C343.1,1509.8,343.2,1510,343.4,1510.2z"/>
						<path fill="#052743" d="M344.8,1514.3c0,3.3-2.7,6-6,6c-2.2,0-4.1-1.2-5.2-2.9c1.1,0.9,2.4,1.4,3.9,1.4c3.3,0,6-2.7,6-6
							c0-1.1-0.3-2.2-0.9-3.1C343.9,1510.8,344.8,1512.5,344.8,1514.3z"/>
					</g>
					<rect x="396.7" y="1485.1" fill="#FFFFFF" width="10.2" height="69.7"/>
					<path fill="#0E1210" d="M404,1476.7c-0.1,0-0.2,0.1-0.3,0.1l-62.3,10.5l-2.8,0.5c0.5-0.3,1-0.6,1.5-0.8
						c-0.3-0.1-0.6-0.1-0.9-0.2l2.7-0.7l60.3-16.3c1.9-0.5,3.9,0.6,4.4,2.5C407,1474.2,405.9,1476.2,404,1476.7z"/>
					<path fill="#0E1210" d="M459.3,1495c-1.3,0.2-2.9,0.3-4.3,0.5l-14.7-5.5c1.1-0.6,2.2-1.2,3.2-1.8L459.3,1495z"/>
					<path fill="#052743" d="M443.5,1488.2c-1.1,0.6-2.1,1.2-3.2,1.8l-41.6-15.5c-1.4-0.5-2.1-2-1.6-3.3c0.5-1.4,2-2.1,3.3-1.6
						c0,0,0.1,0,0.1,0L443.5,1488.2z"/>
					<rect x="400.5" y="1485.1" fill="#052743" width="6.4" height="69.7"/>
					<path fill="#FCD602" d="M412.5,1462.1c10.5,14.7-5.7,31-20.5,20.5c-0.4-0.3-0.7-0.6-1-1c-10.5-14.7,5.7-30.9,20.5-20.5
						C411.9,1461.4,412.2,1461.7,412.5,1462.1z"/>
					<path fill="#0E1210" d="M415.9,1471.8c0,7.8-6.3,14.1-14.1,14.1c-7.8,0-14.1-6.3-14.1-14.1v0c2.2,4.8,7.1,8.2,12.8,8.2
						c7.7,0,14-6.3,14.1-14C415.4,1467.8,415.9,1469.7,415.9,1471.8z"/>
					<path fill="#052743" d="M398.1,1471.4c-0.6,1.7-2.4,2.7-4.1,2.1c-0.1,0-0.1,0-0.2-0.1l-72.8-29.2c0.5-0.5,1-1,1.5-1.5
						l73.5,24.5C397.7,1467.8,398.6,1469.7,398.1,1471.4z"/>
					<path fill="none" stroke="#748DBF" stroke-width="0.9154" stroke-miterlimit="10" d="M434.5,1528.1
						c47.2-21.9,75.4-61.3,64.1-92.4c-12.4-34-67.2-45.3-122.4-25.2c-21.5,7.8-39.9,19.3-53.7,32.4c-0.5,0.5-1,1-1.5,1.5
						c-20.4,20.2-29.8,43.9-22.4,64.2c3.1,8.5,8.8,15.6,16.6,21.1"/>
					<path fill="none" stroke="#748DBF" stroke-width="0.9154" stroke-miterlimit="10" d="M496.8,1432.5c6.9,15.5-31,47.6-84.9,71.8
						c-53.8,24.1-103.1,31.2-110,15.7c-6.9-15.5,31-47.6,84.9-71.8C440.6,1424.1,489.8,1417.1,496.8,1432.5z"/>
					<g>
						<path fill="#748DBF" d="M427.6,1494.2c3.9,5.5-2.1,11.6-7.6,7.6c-0.2-0.1-0.3-0.3-0.4-0.4c-3.8-5.5,2.2-11.4,7.6-7.6
							C427.4,1493.9,427.5,1494,427.6,1494.2z"/>
						<path fill="#052743" d="M428.9,1497.8c0,2.9-2.3,5.2-5.2,5.2c-2.8,0-5.1-2.2-5.2-5.1c0.9,1.5,2.6,2.6,4.5,2.6
							c2.9,0,5.2-2.3,5.2-5.2c0-0.1,0-0.1,0-0.2C428.6,1495.9,428.9,1496.8,428.9,1497.8z"/>
					</g>
					<path fill="none" stroke="#748DBF" stroke-width="0.9154" stroke-miterlimit="10" d="M415.9,1540.1c-52.9,10-99,2.1-104.1-17.7
						c-0.1-0.3-0.2-0.6-0.2-0.9c-0.4-2.1-0.3-4.2,0.2-6.4c2.1-9.1,11.9-18.7,26.8-27.2c0.5-0.3,1-0.6,1.5-0.8
						c0.6-0.3,1.2-0.6,1.7-0.9c15.6-8.3,36.1-15.4,59.1-19.9c0.4-0.1,0.7-0.1,1.1-0.2c17.5-3.3,34.3-4.7,49.1-4.3
						c1.1,0,2.1,0.1,3.2,0.1c1.2,0.1,2.4,0.1,3.6,0.2h0c23.4,1.6,40.8,7.8,46.6,17.7c0.9,1.5,1.5,3.2,1.9,4.9
						C510.1,1505.1,469.7,1529.9,415.9,1540.1z"/>
					<path fill="none" stroke="#748DBF" stroke-width="0.9154" stroke-miterlimit="10" d="M494.2,1527.8
						c-8.3,13.6-57-1.1-108.8-32.8c-51.8-31.7-87-68.4-78.7-82c8.3-13.6,57,1.1,108.8,32.8C467.2,1477.5,502.5,1514.2,494.2,1527.8z
						"/>
					<path fill="none" stroke="#748DBF" stroke-width="0.9154" stroke-miterlimit="10" d="M496,1525c-2.5,4.8-47.9-13.5-101.6-40.9
						c-53.6-27.4-95.1-53.5-92.7-58.3c2.5-4.8,47.9,13.5,101.6,40.9C456.9,1494.1,498.4,1520.2,496,1525z"/>
					<g>
						<path fill="#748DBF" d="M348.7,1434.7c5.4,7.7-3,16.2-10.8,10.7c-0.2-0.2-0.4-0.4-0.6-0.6c-5.5-7.7,3-16.2,10.8-10.7
							C348.3,1434.3,348.5,1434.5,348.7,1434.7z"/>
						<path fill="#FFFFFF" d="M346.7,1433.3c-0.7-0.2-1.4-0.3-2.2-0.3c-4.5,0-8.2,3.4-8.8,7.7c0-0.3-0.1-0.7-0.1-1
							c0-4.1,3.3-7.4,7.4-7.4C344.4,1432.4,345.6,1432.7,346.7,1433.3z"/>
						<path fill="#052743" d="M350.4,1439.8c0,4.1-3.3,7.4-7.4,7.4c-2.7,0-5-1.4-6.3-3.6c1.3,1.1,2.9,1.7,4.8,1.7
							c4.1,0,7.4-3.3,7.4-7.4c0-1.4-0.4-2.7-1.1-3.8C349.4,1435.5,350.4,1437.5,350.4,1439.8z"/>
					</g>
					<path fill="none" stroke="#748DBF" stroke-width="0.9154" stroke-miterlimit="10" d="M502.8,1492.5
						c-11.8,28.4-57,46.7-109,42.2c-58.8-5.1-103.9-37.4-100.9-72.1c3-34.7,53.1-58.7,111.8-53.7c36.7,3.2,68.1,17,85.8,35.4"/>
					<path fill="none" stroke="#FFFFFF" stroke-width="0.9154" stroke-miterlimit="10" d="M490.5,1444.3
						c10.6,11,16.3,23.7,15.1,36.7c-0.3,4-1.3,7.8-2.8,11.5"/>
					<path fill="none" stroke="#748DBF" stroke-width="0.9154" stroke-miterlimit="10" d="M315.2,1529.6
						c-7.7-5.5-13.5-12.6-16.6-21.1c-12.4-34,22.4-77.9,77.6-98c55.2-20.1,110-8.8,122.4,25.2c11.3,31.2-16.8,70.6-64.1,92.4"/>
					<path fill="none" stroke="#FFFFFF" stroke-width="0.9154" stroke-miterlimit="10" d="M434.5,1528.1c-4.4,2-8.9,3.9-13.5,5.6
						c-41.4,15.1-82.6,12.5-105.8-4.1"/>
					<g>
						<path fill="#FCD602" d="M500.3,1468.8c4.4,6.2-2.4,13.1-8.7,8.7c-0.2-0.1-0.4-0.3-0.5-0.5c-4.4-6.2,2.5-13.1,8.7-8.7
							C500,1468.4,500.1,1468.6,500.3,1468.8z"/>
						<path fill="#052743" d="M501.7,1472.9c0,3.3-2.7,6-6,6c-3.3,0-6-2.7-6-6c0-0.2,0-0.4,0-0.5c0.3,3,2.8,5.4,6,5.4
							c3.1,0,5.7-2.4,6-5.4C501.7,1472.5,501.7,1472.7,501.7,1472.9z"/>
					</g>
					<path fill="none" stroke="#748DBF" stroke-width="0.9154" stroke-miterlimit="10" d="M368.6,1525.1
						c-36-20.8-60.7-50.4-67.1-76.9"/>
					<path fill="none" stroke="#FFFFFF" stroke-width="0.9154" stroke-miterlimit="10" d="M481.4,1539.4
						c-25.2,14.9-70.4,10.1-112.7-14.3"/>
					<path fill="none" stroke="#748DBF" stroke-width="0.9154" stroke-miterlimit="10" d="M335.6,1394c25.9-6.2,62.3,0.7,96.8,20.6
						c52.7,30.4,81.2,79.8,63.6,110.3c-3.5,6-8.4,10.8-14.6,14.4"/>
					<path fill="none" stroke="#FFFFFF" stroke-width="0.9154" stroke-miterlimit="10" d="M301.5,1448.2c-3-12.2-2-23.8,3.6-33.5
						c6.1-10.5,16.9-17.4,30.6-20.7"/>
					<g>
						<path fill="#748DBF" d="M331.4,1529.2c-1.6,6.4-9.9,5.9-10.6-0.7c0-0.2,0-0.4,0-0.6c1.6-6.4,9.9-5.9,10.6,0.7
							C331.5,1528.8,331.4,1529,331.4,1529.2z"/>
						<path fill="#052743" d="M329.5,1532.4c-2.2,1.9-5.4,1.7-7.3-0.5c-1.2-1.4-1.6-3.3-1-5c0,1.2,0.4,2.4,1.3,3.3
							c1.9,2.2,5.2,2.4,7.3,0.5c0.7-0.6,1.2-1.5,1.5-2.3C331.3,1529.9,330.7,1531.4,329.5,1532.4z"/>
					</g>
					<g>
						<path fill="#748DBF" d="M484.6,1433.9c3.1,4.4-1.7,9.3-6.2,6.2c-0.1-0.1-0.3-0.2-0.4-0.4c-3-4.4,1.7-9.2,6.2-6.2
							C484.4,1433.6,484.5,1433.8,484.6,1433.9z"/>
						<path fill="#052743" d="M485.6,1436.8c0,2.4-1.9,4.3-4.3,4.3c-2.3,0-4.3-1.9-4.3-4.3c0-0.3,0-0.5,0.1-0.8
							c0.4,2,2.1,3.5,4.2,3.5c2.1,0,3.8-1.5,4.2-3.5C485.6,1436.3,485.6,1436.6,485.6,1436.8z"/>
					</g>
					<g>
						<path fill="#FCD602" d="M452.7,1458.1c4.8,0.3,5.5,6.5,0.8,7.8c-0.2,0-0.3,0.1-0.5,0c-4.8-0.4-5.4-6.4-0.8-7.8
							C452.4,1458.1,452.6,1458.1,452.7,1458.1z"/>
						<path fill="#052743" d="M455.3,1459.1c1.6,1.3,1.9,3.7,0.5,5.4c-1.3,1.6-3.7,1.9-5.4,0.5c-0.2-0.1-0.3-0.3-0.5-0.5
							c1.6,0.9,3.6,0.5,4.8-0.9c1.2-1.5,1.1-3.5-0.1-4.9C454.9,1458.8,455.1,1458.9,455.3,1459.1z"/>
					</g>
					<g>
						<path fill="#FCD602" d="M327.7,1404.5c3.8,5.4-2.2,11.4-7.6,7.6c-0.2-0.1-0.3-0.3-0.4-0.4c-3.9-5.5,2.2-11.5,7.6-7.6
							C327.4,1404.2,327.6,1404.3,327.7,1404.5z"/>
						<path fill="#052743" d="M328.4,1410.2c-0.8,1.8-2.7,3.1-4.8,3.1c-2.9,0-5.2-2.3-5.2-5.2c0-1.4,0.5-2.7,1.4-3.6
							c-0.3,0.6-0.4,1.4-0.4,2.1c0,2.9,2.3,5.2,5.2,5.2C326.1,1411.8,327.5,1411.2,328.4,1410.2z"/>
					</g>
					<g>
						<path fill="#748DBF" d="M506.8,1487.4c5.5,7.7-3,16.2-10.8,10.8c-0.2-0.2-0.4-0.4-0.6-0.6c-5.4-7.7,3-16.2,10.8-10.8
							C506.4,1487,506.6,1487.2,506.8,1487.4z"/>
						<path fill="#FFFFFF" d="M508.5,1492.5c-2.8-3.1-6.8-5.1-11.3-5.1c-0.5,0-1,0-1.5,0.1c1.4-1.4,3.3-2.3,5.4-2.3
							C505.2,1485.1,508.5,1488.4,508.5,1492.5z"/>
						<path fill="#052743" d="M508.1,1495c-1,2.9-3.8,4.9-7,4.9c-4.1,0-7.4-3.3-7.4-7.4c0-2,0.8-3.8,2.1-5.1
							c-0.3,0.8-0.4,1.6-0.4,2.5c0,4.1,3.3,7.4,7.4,7.4C504.9,1497.3,506.7,1496.4,508.1,1495z"/>
					</g>
					<g>
						<path fill="#FCD602" d="M420.6,1466.7c6.5,9.2-3.6,19.3-12.7,12.7c-0.3-0.2-0.5-0.4-0.7-0.7c-6.4-9.2,3.6-19.2,12.7-12.7
							C420.2,1466.2,420.4,1466.5,420.6,1466.7z"/>
						<path fill="#0E1210" d="M422.1,1475.7c-1.2,3.4-4.4,5.8-8.2,5.8c-4.8,0-8.8-3.9-8.8-8.8c0-2.4,0.9-4.5,2.4-6.1
							c-0.3,0.9-0.5,1.9-0.5,2.9c0,4.8,3.9,8.8,8.8,8.8C418.3,1478.4,420.6,1477.4,422.1,1475.7z"/>
					</g>
					<path fill="#0E1210" d="M349.1,1451.7c-0.1,1.1-0.3,2.3-0.9,3.5l-27.2-10.9c0.5-0.5,1-1,1.5-1.5L349.1,1451.7z"/>
				</g>
				<g>
					<path fill="#FFFFFF" d="M526,1624.6v23.5c2.3,0.4,4.3,0.8,6.1,1.1v42.1H268.5v-41.9c2.9-0.6,5.8-1.1,8.7-1.7l1.2-26.2l-6.1-5
						l-3.8-3.1v-41.5c0,0,57.8-22.8,140.1-20c0.6,0,1.2,0,1.8,0.1c0.5,0,0.9,0,1.4,0.1c0.6,0,1.1,0,1.6,0.1c0.8,0,1.6,0.1,2.3,0.1
						c0.9,0,1.9,0.1,2.8,0.2c1.5,0.1,2.9,0.2,4.4,0.3c0.3,0,0.6,0,0.9,0.1c2,0.1,4.1,0.3,6.2,0.5c0.7,0.1,1.4,0.1,2.1,0.2
						c0.7,0.1,1.4,0.1,2.1,0.2c2.3,0.2,4.6,0.5,7,0.7c0.9,0.1,1.7,0.2,2.6,0.3c4,0.5,8,1,12.1,1.7c0.5,0.1,1.1,0.2,1.7,0.3
						c2.5,0.4,4.9,0.8,7.4,1.2c0.8,0.1,1.6,0.3,2.4,0.4c2.8,0.5,5.6,1.1,8.4,1.6c1.2,0.3,2.5,0.5,3.7,0.8c1,0.2,2.1,0.5,3.1,0.7
						c2.3,0.5,4.6,1,6.9,1.6c1.8,0.4,3.6,0.9,5.4,1.4c0.1,0,0.2,0,0.2,0.1c0.8,0.2,1.5,0.4,2.3,0.6c0.8,0.2,1.7,0.5,2.5,0.7
						c0.1,0,0.3,0.1,0.4,0.1c1,0.3,2.1,0.6,3.1,0.9c1,0.3,2,0.6,3.1,0.9c0.2,0,0.3,0.1,0.5,0.1c1.1,0.3,2.2,0.7,3.4,1
						c0.3,0.1,0.5,0.2,0.8,0.2c1,0.3,2,0.6,3,0.9c0.9,0.3,1.8,0.6,2.7,0.9c2.7,0.9,5.4,1.8,8.2,2.7c1.1,0.4,2.2,0.8,3.2,1.1
						c0.1,0,0.2,0.1,0.3,0.1c1.1,0.4,2.3,0.8,3.4,1.2v43.2l-0.2,0.2L526,1624.6z"/>
					<path fill="#748DBF" d="M526,1624.6v23.5c2.3,0.4,4.3,0.8,6.1,1.1v41.5H398.9c16.3-20.3,69.3-85.9,101.5-124.9
						c1,0.3,2.1,0.6,3.1,0.9c1,0.3,2,0.6,3.1,0.9c0.2,0,0.3,0.1,0.5,0.1c1.1,0.3,2.2,0.7,3.4,1c0.3,0.1,0.5,0.2,0.8,0.2
						c1,0.3,2,0.6,3,0.9c0.9,0.3,1.8,0.6,2.7,0.9c2.7,0.9,5.4,1.8,8.2,2.7c1.1,0.4,2.2,0.8,3.2,1.1c0.1,0,0.2,0.1,0.3,0.1
						c1.1,0.4,2.3,0.8,3.4,1.2v43.2l-0.2,0.2L526,1624.6z"/>
					<path fill="#CBCACA" d="M532,1613.7v5.3l-0.2,0.2l-5.8,5.3v23.5c-1.2-0.2-2.6-0.4-3.9-0.7c-0.4-0.1-0.7-0.1-1.1-0.2
						c-0.1,0-0.2,0-0.3,0c-37.5-6.2-122-16.6-214.7-4c-1.1,0.1-2.1,0.3-3.2,0.4c-1.1,0.1-2.1,0.3-3.2,0.5c-2.6,0.4-5.2,0.8-7.8,1.2
						c0,0-0.1,0-0.1,0c-0.1,0-0.1,0-0.2,0l0,0c-1.8,0.3-3.6,0.6-5.4,0.9c-0.7,0.1-1.4,0.2-2.1,0.4c-0.5,0.1-1,0.2-1.4,0.2
						c-0.8,0.1-1.5,0.3-2.3,0.4c-1,0.2-1.9,0.3-2.9,0.5l1.2-26.2l-6.1-5l-3.8-3.1v-1.6c1.4-0.3,2.7-0.7,4.1-1
						c1.1-0.3,2.2-0.5,3.3-0.8c0.2-0.1,0.5-0.1,0.8-0.2c0.2-0.1,0.4-0.1,0.7-0.2c1-0.2,1.9-0.4,2.9-0.7c0,0,0,0,0,0
						c0.4-0.1,0.9-0.2,1.3-0.3c0,0,0,0,0,0c0.3-0.1,0.7-0.1,1-0.2h0c0.7-0.2,1.4-0.3,2.2-0.5c1.3-0.3,2.7-0.6,4-0.8
						c1.3-0.3,2.7-0.5,4-0.8h0c1.3-0.3,2.7-0.5,4-0.8c1.1-0.2,2.3-0.4,3.4-0.6c0.1,0,0.2,0,0.3-0.1c0,0,0.1,0,0.1,0
						c0.2,0,0.5-0.1,0.7-0.1c1.2-0.2,2.3-0.4,3.5-0.6c1.3-0.2,2.6-0.4,3.9-0.6c1.3-0.2,2.5-0.4,3.8-0.6c1.3-0.2,2.6-0.4,4-0.6
						c0.3,0,0.6-0.1,0.9-0.1c0.9-0.1,1.8-0.3,2.7-0.4c0.3,0,0.5-0.1,0.8-0.1c0.1,0,0.2,0,0.3,0c1.2-0.2,2.3-0.3,3.5-0.5
						c1.3-0.2,2.6-0.3,3.9-0.5c2.5-0.3,5.1-0.6,7.6-0.8c0.1,0,0.2,0,0.2,0c2.5-0.3,5-0.5,7.5-0.7c2.7-0.3,5.4-0.5,8.1-0.7
						c0,0,0,0,0.1,0c1.2-0.1,2.3-0.2,3.5-0.2c0.5,0,1-0.1,1.6-0.1c0.9-0.1,1.8-0.1,2.7-0.2c0.9-0.1,1.8-0.1,2.7-0.2
						c0.9,0,1.8-0.1,2.7-0.1c0.9,0,1.8-0.1,2.7-0.1c2.1-0.1,4.2-0.2,6.3-0.2c0.4,0,0.9,0,1.3,0c1.8-0.1,3.6-0.1,5.3-0.1
						c1,0,2,0,2.9-0.1c1,0,1.9,0,2.9,0h0c0.9,0,1.9,0,2.9,0c3.4,0,6.8,0,10.1,0c1.2,0,2.4,0,3.6,0.1c1.2,0,2.4,0,3.6,0.1
						c1.2,0,2.4,0.1,3.6,0.1c3.6,0.1,7.1,0.2,10.5,0.4c0.3,0,0.6,0,0.8,0c2.2,0.1,4.3,0.2,6.4,0.3c2.1,0.1,4.2,0.3,6.3,0.4
						c0.4,0,0.8,0.1,1.2,0.1c1.8,0.1,3.5,0.3,5.2,0.4c0.4,0,0.7,0.1,1.1,0.1c5.2,0.4,10.3,0.9,15.2,1.5c1,0.1,2,0.2,2.9,0.3
						c0.4,0,0.7,0.1,1.1,0.1c1.2,0.1,2.5,0.3,3.7,0.4c0.4,0,0.8,0.1,1.2,0.1c1.9,0.2,3.8,0.5,5.7,0.7c1,0.1,2.1,0.3,3.1,0.4
						c0.1,0,0.2,0,0.3,0c0.5,0.1,1,0.1,1.5,0.2c1.9,0.3,3.7,0.5,5.5,0.8c1.8,0.3,3.5,0.5,5.2,0.8c0.4,0.1,0.8,0.1,1.3,0.2
						c0.4,0.1,0.9,0.1,1.3,0.2c0.9,0.1,1.7,0.3,2.6,0.4c0.4,0.1,0.8,0.1,1.3,0.2c0.2,0,0.5,0.1,0.7,0.1c1.8,0.3,3.5,0.6,5.2,0.9
						c0.8,0.1,1.6,0.3,2.3,0.4c0.2,0,0.3,0.1,0.5,0.1c2.4,0.5,4.8,0.9,7,1.4c1,0.2,2.1,0.4,3,0.6c0.6,0.1,1.3,0.3,1.9,0.4
						c1,0.2,1.9,0.4,2.9,0.6c1.3,0.3,2.6,0.6,3.9,0.9c0.1,0,0.1,0,0.2,0C525.4,1612,528.9,1612.9,532,1613.7z"/>
					<path fill="#2B61AD" d="M532,1613.7v5.3l-0.2,0.2l-5.8,5.3v23.5c-1.2-0.2-2.6-0.4-3.9-0.7c-0.4-0.1-0.7-0.1-1.1-0.2
						c-0.1,0-0.2,0-0.3,0c-19-3.1-49.3-7.1-86.1-8.9c-37-1.8-80.5-1.4-125.8,4.5c-1,0.1-1.9,0.2-2.9,0.4c-1.1,0.1-2.1,0.3-3.2,0.4
						c-1.1,0.1-2.1,0.3-3.2,0.5c-2.6,0.4-5.2,0.8-7.8,1.2c0,0-0.1,0-0.1,0c-0.1,0-0.1,0-0.2,0l0,0c-1.8,0.3-3.6,0.6-5.4,0.9
						c-0.7,0.1-1.4,0.2-2.1,0.4c-0.5,0.1-1,0.2-1.4,0.2c-0.8,0.1-1.5,0.3-2.3,0.4c-1,0.2-1.9,0.3-2.9,0.5l1.2-26.2l-6.1-5l-3.8-3.1
						v-1.6c1.4-0.3,2.7-0.7,4.1-1c0.5-0.1,1-0.3,1.5-0.4c0.6-0.1,1.2-0.3,1.8-0.4c0.2-0.1,0.5-0.1,0.8-0.2c0.2-0.1,0.4-0.1,0.7-0.2
						c1-0.2,1.9-0.4,2.9-0.7c0,0,0,0,0,0c0.4-0.1,0.9-0.2,1.3-0.3h0c0.3-0.1,0.7-0.1,1-0.2h0c0.7-0.2,1.4-0.3,2.2-0.5
						c1.3-0.3,2.7-0.6,4-0.8c1.3-0.3,2.7-0.5,4-0.8h0c1.3-0.3,2.7-0.5,4-0.8c1.1-0.2,2.3-0.4,3.4-0.6c0.1,0,0.2,0,0.3-0.1
						c0,0,0.1,0,0.1,0c0.2,0,0.5-0.1,0.7-0.1c1.2-0.2,2.3-0.4,3.5-0.6c1.3-0.2,2.6-0.4,3.9-0.6c1.3-0.2,2.5-0.4,3.8-0.6
						c1.3-0.2,2.6-0.4,4-0.6c0.3,0,0.6-0.1,0.9-0.1c0.9-0.1,1.8-0.3,2.7-0.4c0.3,0,0.5-0.1,0.8-0.1c0.1,0,0.2,0,0.3,0
						c1.2-0.2,2.4-0.3,3.5-0.5c1.3-0.2,2.6-0.3,3.9-0.5c2.5-0.3,5-0.6,7.6-0.8c0.1,0,0.2,0,0.2,0c2.5-0.3,5-0.5,7.5-0.7
						c2.7-0.3,5.4-0.5,8.1-0.7c0,0,0,0,0.1,0c1.2-0.1,2.3-0.2,3.5-0.2c0.5,0,1-0.1,1.6-0.1c0.9-0.1,1.8-0.1,2.7-0.2
						c0.9-0.1,1.8-0.1,2.7-0.2c0.9,0,1.8-0.1,2.7-0.1c0.9,0,1.8-0.1,2.7-0.1c2.1-0.1,4.2-0.2,6.3-0.2c0.4,0,0.9,0,1.3,0
						c1.8-0.1,3.6-0.1,5.3-0.1c1,0,2,0,2.9-0.1c1,0,1.9,0,2.9,0h0c1,0,1.9,0,2.9,0c3.4,0,6.8,0,10.1,0c1.2,0,2.4,0,3.6,0.1
						c1.2,0,2.4,0,3.6,0.1c1.2,0,2.4,0.1,3.6,0.1c3.6,0.1,7.1,0.2,10.5,0.4c0.3,0,0.6,0,0.8,0c2.2,0.1,4.3,0.2,6.4,0.3
						c2.1,0.1,4.2,0.3,6.3,0.4c0.4,0,0.8,0.1,1.2,0.1c1.8,0.1,3.5,0.3,5.2,0.4c0.4,0,0.7,0.1,1.1,0.1c5.2,0.4,10.3,0.9,15.2,1.5
						c1,0.1,2,0.2,2.9,0.3c0.4,0,0.7,0.1,1.1,0.1c1.1,0.1,2.1,0.3,3.2,0.4c0.2,0,0.3,0,0.5,0.1c0.4,0,0.8,0.1,1.2,0.1
						c1.9,0.2,3.8,0.5,5.7,0.7c1,0.1,2.1,0.3,3.1,0.4c0.1,0,0.2,0,0.3,0c0.5,0.1,1,0.1,1.5,0.2c1.9,0.3,3.7,0.5,5.5,0.8
						c1.8,0.3,3.5,0.5,5.2,0.8c0.4,0.1,0.8,0.1,1.3,0.2c0.4,0.1,0.9,0.1,1.3,0.2c0.9,0.1,1.7,0.3,2.6,0.4c0.4,0.1,0.8,0.1,1.3,0.2
						c0.2,0,0.5,0.1,0.7,0.1c1.8,0.3,3.5,0.6,5.2,0.9c0.8,0.1,1.6,0.3,2.3,0.4c0.2,0,0.3,0.1,0.5,0.1c2.4,0.5,4.8,0.9,7,1.4
						c1,0.2,2.1,0.4,3,0.6c0.6,0.1,1.3,0.3,1.9,0.4c1,0.2,1.9,0.4,2.9,0.6c1.3,0.3,2.6,0.6,3.9,0.9c0.1,0,0.1,0,0.2,0
						C525.4,1612,528.9,1612.9,532,1613.7z"/>
					<path fill="#052743" d="M532,1613.7v5.3l-0.2,0.2l-5.8,5.3v23.5c-1.2-0.2-2.6-0.4-3.9-0.7c-0.4-0.1-0.7-0.1-1.1-0.2
						c-0.1,0-0.2,0-0.3,0c-19-3.1-49.3-7.1-86.1-8.9c9.7-12,20-24.6,29.9-36.8c0.2,0,0.3,0,0.5,0.1c0.4,0,0.8,0.1,1.2,0.1
						c1.9,0.2,3.8,0.5,5.7,0.7c1,0.1,2.1,0.3,3.1,0.4c0.1,0,0.2,0,0.3,0c0.5,0.1,1,0.1,1.5,0.2c1.9,0.3,3.7,0.5,5.5,0.8
						c1.8,0.3,3.5,0.5,5.2,0.8c0.4,0.1,0.8,0.1,1.3,0.2c0.4,0.1,0.9,0.1,1.3,0.2c0.9,0.1,1.7,0.3,2.6,0.4c0.4,0.1,0.8,0.1,1.3,0.2
						c0.2,0,0.5,0.1,0.7,0.1c1.8,0.3,3.5,0.6,5.2,0.9c0.8,0.1,1.6,0.3,2.3,0.4c0.2,0,0.3,0.1,0.5,0.1c2.4,0.5,4.8,0.9,7,1.4
						c1,0.2,2.1,0.4,3,0.6c0.6,0.1,1.3,0.3,1.9,0.4c1,0.2,1.9,0.4,2.9,0.6c1.3,0.3,2.6,0.6,3.9,0.9c0.1,0,0.1,0,0.2,0
						C525.4,1612,528.9,1612.9,532,1613.7z"/>
					<path fill="#052743" d="M532,1613.7v5.3l-0.2,0.2c-3.8-0.9-8.3-2-13.5-3.1c-0.7-0.1-1.3-0.3-2-0.4c-5.1-1.1-10.8-2.2-17-3.3
						c-0.5-0.1-0.9-0.2-1.4-0.2c-7.7-1.4-16.2-2.7-25.4-4c-0.5-0.1-0.9-0.1-1.4-0.2c-9.4-1.2-19.6-2.4-30.3-3.2
						c-0.9-0.1-1.7-0.1-2.6-0.2c-21.6-1.7-45.5-2.4-70.8-1.3c-0.9,0-1.7,0.1-2.6,0.1c-10,0.5-20.2,1.3-30.6,2.4
						c-0.7,0.1-1.4,0.2-2.2,0.2c-9,1-18.2,2.3-27.4,3.8c-0.9,0.1-1.7,0.3-2.6,0.4c-4.8,0.8-9.5,1.7-14.3,2.7c-1,0.2-2,0.4-2.9,0.6
						c-4.1,0.9-8.3,1.8-12.4,2.8l-3.8-3.1v-1.6c1.4-0.3,2.7-0.7,4.1-1c0.5-0.1,1-0.3,1.5-0.4c0.6-0.1,1.2-0.3,1.8-0.4
						c0.2-0.1,0.5-0.1,0.8-0.2c0.2-0.1,0.4-0.1,0.7-0.2c1-0.2,1.9-0.4,2.9-0.7c0,0,0,0,0,0c0.4-0.1,0.9-0.2,1.3-0.3c0,0,0,0,0,0
						c0.3-0.1,0.7-0.1,1-0.2h0c0.7-0.2,1.4-0.3,2.2-0.5c1.3-0.3,2.7-0.6,4-0.8c1.3-0.3,2.7-0.5,4-0.8h0c1.3-0.3,2.7-0.5,4-0.8
						c1.1-0.2,2.3-0.4,3.4-0.6c0.1,0,0.2,0,0.3-0.1c0,0,0.1,0,0.1,0c0.2,0,0.5-0.1,0.7-0.1c1.2-0.2,2.3-0.4,3.5-0.6
						c1.3-0.2,2.6-0.4,3.9-0.6c1.3-0.2,2.5-0.4,3.8-0.6c1.3-0.2,2.6-0.4,4-0.6c0.3,0,0.6-0.1,0.9-0.1c0.9-0.1,1.8-0.3,2.7-0.4
						c0.3,0,0.5-0.1,0.8-0.1c0.1,0,0.2,0,0.3,0c1.2-0.2,2.3-0.3,3.5-0.5c1.3-0.2,2.6-0.3,3.9-0.5c2.5-0.3,5.1-0.6,7.6-0.8
						c0.1,0,0.2,0,0.2,0c2.5-0.3,5-0.5,7.5-0.7c2.7-0.3,5.4-0.5,8.1-0.7c0,0,0,0,0.1,0c1.2-0.1,2.3-0.2,3.5-0.2c0.5,0,1-0.1,1.6-0.1
						c0.9-0.1,1.8-0.1,2.7-0.2c0.9-0.1,1.8-0.1,2.7-0.2c0.9,0,1.8-0.1,2.7-0.1c0.9,0,1.8-0.1,2.7-0.1c2.1-0.1,4.2-0.2,6.3-0.2
						c0.4,0,0.9,0,1.3,0c1.8-0.1,3.6-0.1,5.3-0.1c1,0,2,0,2.9-0.1c1,0,1.9,0,2.9,0h0c0.9,0,1.9,0,2.9,0c3.4,0,6.8,0,10.1,0
						c1.2,0,2.4,0,3.6,0.1c1.2,0,2.4,0,3.6,0.1c1.2,0,2.4,0.1,3.6,0.1c3.6,0.1,7.1,0.2,10.5,0.4c0.3,0,0.6,0,0.8,0
						c2.2,0.1,4.3,0.2,6.4,0.3c2.1,0.1,4.2,0.3,6.3,0.4c0.4,0,0.8,0.1,1.2,0.1c1.8,0.1,3.5,0.3,5.2,0.4c0.4,0,0.7,0.1,1.1,0.1
						c5.2,0.4,10.3,0.9,15.2,1.5c1,0.1,2,0.2,2.9,0.3c0.4,0,0.7,0.1,1.1,0.1c1.2,0.1,2.5,0.3,3.7,0.4c0.4,0,0.8,0.1,1.2,0.1
						c1.9,0.2,3.8,0.5,5.7,0.7c1,0.1,2.1,0.3,3.1,0.4c0.1,0,0.2,0,0.3,0c0.5,0.1,1,0.1,1.5,0.2c1.9,0.3,3.7,0.5,5.5,0.8
						c1.8,0.3,3.5,0.5,5.2,0.8c0.4,0.1,0.8,0.1,1.3,0.2c0.4,0.1,0.9,0.1,1.3,0.2c0.9,0.1,1.7,0.3,2.6,0.4c0.4,0.1,0.8,0.1,1.3,0.2
						c0.2,0,0.5,0.1,0.7,0.1c1.8,0.3,3.5,0.6,5.2,0.9c0.8,0.1,1.6,0.3,2.3,0.4c0.2,0,0.3,0.1,0.5,0.1c2.4,0.5,4.8,0.9,7,1.4
						c1,0.2,2.1,0.4,3,0.6c0.6,0.1,1.3,0.3,1.9,0.4c1,0.2,1.9,0.4,2.9,0.6c1.3,0.3,2.6,0.6,3.9,0.9c0.1,0,0.1,0,0.2,0
						C525.4,1612,528.9,1612.9,532,1613.7z"/>
					<g>
						<path fill="#0E1210" d="M287.7,1613c-1,0.2-2,0.4-2.9,0.6l-3.4-2.5l0.1-2.4v0l0,0L287.7,1613z"/>
						<path fill="#0E1210" d="M304.6,1609.8c-0.9,0.1-1.7,0.3-2.6,0.4l-1.6-2.6l0.1-2.7v-0.1l0.1,0.1L304.6,1609.8z"/>
						<path fill="#0E1210" d="M334.2,1605.7c-0.7,0.1-1.4,0.2-2.2,0.2l-3.1-3.9l-0.2-1.1l1.4-0.1L334.2,1605.7z"/>
						<path fill="#0E1210" d="M367.4,1603.2c-0.9,0-1.7,0.1-2.6,0.1l0.2-5.6L367.4,1603.2z"/>
						<path fill="#0E1210" d="M475.2,1602.3v2.3l-2.7,3.4h0c-0.5-0.1-0.9-0.1-1.4-0.2l3.7-5.1h0L475.2,1602.3z"/>
						<path fill="#0E1210" d="M502.4,1607.3v1l-3.1,4c-0.5-0.1-0.9-0.2-1.4-0.2c0.9-1.2,3.1-3.7,4.1-4.9
							C502.1,1607.2,502.2,1607.2,502.4,1607.3z"/>
						<path fill="#0E1210" d="M521.3,1611v1.4l-3.1,3.7c-0.7-0.1-1.3-0.3-2-0.4l4.9-4.5L521.3,1611z"/>
						<path fill="#0E1210" d="M440.9,1599l-0.1,5.6c-0.9-0.1-1.7-0.1-2.6-0.2L440.9,1599z"/>
					</g>
				</g>
				<path fill="#0E1210" d="M532,1691.3c0,4.5-59,8.2-131.7,8.2c-72.8,0-131.7-3.7-131.7-8.2c0-4.5,59-8.2,131.7-8.2
					C473,1683.1,532,1686.7,532,1691.3z"/>
				<ellipse fill="#0E1210" cx="379.5" cy="1708.8" rx="9.2" ry="10.6"/>
				<path fill="#0E1210" d="M424.1,1825v-132.8h-47.5V1825c6.5,1.1,14.8,1.8,23.8,1.8C409.3,1826.7,417.5,1826.1,424.1,1825z"/>
				<g>
					<path fill="#FFFFFF" d="M281.6,1608.1l-0.3,5.7l-1.9,34l-2.2,0.8l1.6-33.5l0.3-6C279.9,1608.7,280.7,1608.4,281.6,1608.1z"/>
					<path fill="#FFFFFF" d="M300.4,1604.8l-0.1,4.4l-0.9,38.5l-2.1,0.2l0.9-38.4l0.1-4.5c0.2,0,0.3,0,0.5-0.1L300.4,1604.8z"/>
					<polygon fill="#FFFFFF" points="328.9,1600.9 328.8,1642.4 326.1,1642.6 326.8,1598.9 328.7,1598.7 					"/>
					<polygon fill="#FFFFFF" points="365.2,1597 363.6,1638.2 362.2,1638.2 362,1638.2 363.5,1597.1 					"/>
					<polygon fill="#FFFFFF" points="404.2,1596.2 403.6,1638.2 401.2,1638.2 402.3,1596.2 					"/>
					<polygon fill="#FFFFFF" points="440.6,1638.6 440.6,1630.7 440.9,1598.1 442.7,1598.2 442.6,1628.3 442.5,1638.7 					"/>
					<path fill="#748DBF" d="M442.6,1628.3l0,10.4c-0.6,0-1.3-0.1-1.9-0.1l0-7.8C441.3,1629.9,441.9,1629.1,442.6,1628.3z"/>
					<polygon fill="#748DBF" points="476.9,1602.5 476.9,1607.6 476.6,1642.7 474.8,1642.7 475.2,1602.3 476,1602.4 					"/>
					<polygon fill="#748DBF" points="504.3,1606.9 504.2,1646.8 502.6,1646.6 502.4,1606.6 					"/>
					<polygon fill="#748DBF" points="522.9,1610.5 522.9,1649.6 521.3,1649.3 521.3,1610.1 					"/>
				</g>
				<g>
					<path fill="#0E1210" d="M427.2,1709.9c0.5-4.8-1-8.8-3.3-9.1c-2.4-0.3-4.7,3.4-5.2,8.1c-0.5,4.8,1,8.8,3.3,9.1
						C424.4,1718.3,426.7,1714.7,427.2,1709.9z"/>
					<path fill="#748DBF" d="M396.3,1706.7c0-5.8-4.1-10.6-9.2-10.6c-5.1,0-9.2,4.7-9.2,10.6c0,5.8,4.1,10.6,9.2,10.6
						C392.2,1717.3,396.3,1712.6,396.3,1706.7z"/>
					<path fill="#0E1210" d="M395.6,1706.7c0-5.1-4-9.3-8.9-9.3c-4.9,0-8.9,4.1-8.9,9.3c0,5.1,4,9.3,8.9,9.3
						C391.7,1715.9,395.6,1711.8,395.6,1706.7z"/>
					<path fill="#052743" d="M430.3,1709.9c0.5-4.8-1-8.8-3.3-9.1c-2.4-0.3-4.7,3.4-5.2,8.1c-0.5,4.8,1,8.8,3.3,9.1
						C427.5,1718.3,429.8,1714.7,430.3,1709.9z"/>
					<path fill="#052743" d="M430.3,1709.9c0.5-4.8-1-8.8-3.3-9.1c-2.4-0.3-4.7,3.4-5.2,8.1c-0.5,4.8,1,8.8,3.3,9.1
						C427.5,1718.3,429.8,1714.7,430.3,1709.9z"/>
					<path fill="#0E1210" d="M430.2,1709.3c0.5-4.2-0.9-7.8-2.9-8c-2.1-0.2-4.2,3-4.6,7.2c-0.5,4.2,0.9,7.8,2.9,8
						C427.7,1716.7,429.8,1713.5,430.2,1709.3z"/>
					
						<line fill="none" stroke="#748DBF" stroke-width="1.3082" stroke-miterlimit="10" x1="426.1" y1="1709.5" x2="424.9" y2="1705.2"/>
					
						<line fill="none" stroke="#748DBF" stroke-width="1.3082" stroke-miterlimit="10" x1="387.1" y1="1706.7" x2="383.7" y2="1701.6"/>
				</g>
				<g>
					
						<line fill="none" stroke="#748DBF" stroke-width="0.4906" stroke-miterlimit="10" x1="281.4" y1="1567.5" x2="279.9" y2="1607.7"/>
					
						<line fill="none" stroke="#748DBF" stroke-width="0.4906" stroke-miterlimit="10" x1="300.3" y1="1562.5" x2="298.9" y2="1602.6"/>
					
						<line fill="none" stroke="#748DBF" stroke-width="0.4906" stroke-miterlimit="10" x1="328.9" y1="1556.8" x2="327.5" y2="1598.8"/>
					
						<line fill="none" stroke="#748DBF" stroke-width="0.4906" stroke-miterlimit="10" x1="326.8" y1="1643.3" x2="325.5" y2="1684.5"/>
					
						<line fill="none" stroke="#748DBF" stroke-width="0.4906" stroke-miterlimit="10" x1="364.7" y1="1552.6" x2="363.6" y2="1596.2"/>
					
						<line fill="none" stroke="#748DBF" stroke-width="0.4906" stroke-miterlimit="10" x1="362" y1="1641.3" x2="360.8" y2="1683.4"/>
					
						<line fill="none" stroke="#748DBF" stroke-width="0.4906" stroke-miterlimit="10" x1="404.8" y1="1551.7" x2="403.4" y2="1595.6"/>
					
						<line fill="none" stroke="#748DBF" stroke-width="0.4906" stroke-miterlimit="10" x1="401.6" y1="1640.6" x2="400.2" y2="1683.1"/>
					
						<line fill="none" stroke="#748DBF" stroke-width="0.4906" stroke-miterlimit="10" x1="442.6" y1="1554.4" x2="441.6" y2="1597.7"/>
					
						<line fill="none" stroke="#748DBF" stroke-width="0.4906" stroke-miterlimit="10" x1="441.4" y1="1641.1" x2="440.4" y2="1683.4"/>
					
						<line fill="none" stroke="#748DBF" stroke-width="0.4906" stroke-miterlimit="10" x1="475.9" y1="1600.9" x2="475.9" y2="1559.8"/>
					
						<line fill="none" stroke="#748DBF" stroke-width="0.4906" stroke-miterlimit="10" x1="476.2" y1="1684.6" x2="476.2" y2="1643.1"/>
					
						<line fill="none" stroke="#748DBF" stroke-width="0.4906" stroke-miterlimit="10" x1="503.4" y1="1605.5" x2="503.4" y2="1566.5"/>
					
						<line fill="none" stroke="#748DBF" stroke-width="0.4906" stroke-miterlimit="10" x1="503.4" y1="1686.2" x2="503.4" y2="1645.9"/>
					
						<line fill="none" stroke="#748DBF" stroke-width="0.4906" stroke-miterlimit="10" x1="522.8" y1="1572.5" x2="522.1" y2="1609.8"/>
					
						<line fill="none" stroke="#748DBF" stroke-width="0.4906" stroke-miterlimit="10" x1="522.7" y1="1688.2" x2="522.2" y2="1648.8"/>
					
						<line fill="none" stroke="#748DBF" stroke-width="0.4906" stroke-miterlimit="10" x1="278.5" y1="1650.5" x2="277" y2="1688.4"/>
					
						<line fill="none" stroke="#748DBF" stroke-width="0.4906" stroke-miterlimit="10" x1="297.4" y1="1647.2" x2="296.4" y2="1686.2"/>
				</g>
				<path fill="none" stroke="#748DBF" stroke-width="0.9154" stroke-miterlimit="10" d="M505.4,1475.8
					c-1.1,15.7-49.6,24.9-108.2,20.7c-58.6-4.3-105.2-20.4-104.1-36.1c1.1-15.7,49.6-24.9,108.2-20.7
					C459.9,1444,506.5,1460.1,505.4,1475.8z"/>
			</g>
			<polygon fill="#0E1210" points="146.9,1699.4 131.7,1699.4 132,1693.2 136,1593 136.3,1584.7 142.3,1584.7 142.6,1593 
				146.6,1693.2 			"/>
			<polygon fill="#0E1210" points="146.8,1697 131.8,1697 132,1693.2 146.6,1693.2 			"/>
			<rect x="248.1" y="1710.6" fill="#748DBF" width="4.4" height="59.6"/>
			<rect x="841.2" y="1704" fill="#0E1210" width="3.5" height="59.1"/>
			<rect x="736" y="1704" fill="#0E1210" width="3.5" height="59.1"/>
			<g>
				<path fill="#0E1210" d="M784.2,1798.3c0,0,213.5,10.8,201.3,8.8c-9.7-1.6-196.5-12-196.5-12L784.2,1798.3z"/>
				<rect x="784.2" y="1671.1" fill="#2B61AD" width="6.7" height="127.1"/>
				<rect x="787.5" y="1671.1" fill="#052743" width="3.3" height="127.1"/>
				<rect x="784.2" y="1781.7" fill="#0E1210" width="6.7" height="16.6"/>
			</g>
			<polygon fill="#748DBF" points="885.1,1616.2 1171.6,1653.4 1171.6,1690 885.1,1673.6 			"/>
			<polygon fill="#748DBF" points="1171.6,1756.5 1240.6,1756.5 1240.6,1816.9 791.8,1824.8 791.8,1816.9 1071.2,1809 885.1,1770.3 
							"/>
			<rect x="680.7" y="1648" fill="#052743" width="1.5" height="49"/>
			<rect x="702.4" y="1645.9" fill="#052743" width="1.5" height="49"/>
			<rect x="734.5" y="1641.5" fill="#052743" width="1.5" height="49"/>
			<rect x="834.3" y="1622.2" fill="#052743" width="1.5" height="63.6"/>
			<polygon fill="#052743" points="902.3,1703.8 902.3,1757.7 896.9,1757.9 896.9,1703.6 			"/>
			<rect x="911.4" y="1613.1" fill="#052743" width="4.8" height="69.8"/>
			<rect x="949.6" y="1614.7" fill="#052743" width="2.1" height="69.8"/>
			<rect x="1072.7" y="1630.4" fill="#052743" width="2.1" height="69.8"/>
			<rect x="1072.7" y="1632.9" fill="#052743" width="2.1" height="61.8"/>
			<rect x="985.3" y="1619.3" fill="#052743" width="4.8" height="69.8"/>
			<rect x="580.5" y="1709.9" fill="#0E1210" width="70.3" height="12.1"/>
			<rect x="586.4" y="1722" fill="#0E1210" width="54.9" height="2.2"/>
			<polygon fill="#68C9D0" points="142.6,1593 136,1593 136.3,1584.7 142.3,1584.7 			"/>
			<path fill="#748DBF" d="M574.5,1361.4c-2.8-3.8-5.8-7.3-8.7-10.5c6.5,0.3,8.5,3.5,8.5,3.5L574.5,1361.4z"/>
			<g>
				<g>
					<path fill="#0E1210" d="M995.9,1835.9c0,0,25-2.2,29.1-3.6c0,0,2.4,0.5,6.8,0.8c4.4,0.3,25.4-0.8,25.4-0.8s3.7,0.8,12.2,0
						c8.6-0.8,19.5-0.5,23.2-1.4l-1.3-1.3c0,0,14.3,0.8,15.5-0.9c0,0-20.5-1.3-21.1-0.7c-0.6,0.6-43.6,1-43.6,1l7.6,1.3l-53.1,3.2
						L995.9,1835.9z"/>
					<path fill="#0E1210" d="M1006.6,1740.7c0,0,0.3-2.7,2.5-2.5c2.2,0.1,5.6,2,6.3,5.7c0.7,3.7-2.9,6.4-5,6l-4.3-2.5L1006.6,1740.7
						z"/>
					<path fill="#695122" d="M1004.7,1748.3c0,0-0.7-1.8-0.5-2.7c0.2-0.8,2.4-4.9,2.4-4.9s-0.2,3,0.6,3.8c0,0,0.8-0.2,0.9,0.4
						c0.2,0.6-0.9,1.1-0.9,1.1l3.3,3.9l-3.5,2.1L1004.7,1748.3z"/>
					<path fill="#052743" d="M1035.1,1829.9c0,0-8.1,4-10.3,4.3c-2.2,0.3-17.4-39.9-17.4-39.9c-0.3,10.7-4.4,37.7-4.4,37.7l2.7,1
						l-0.2,2c-1.8,0.5-9.6,0.8-9.6,0.8l-2-45.3l-0.2-4.3l21.5-1.6l2.2-0.2l1.8,4.7c1.4,4.2,10.2,39,10.2,39l2.1,0.8l1-0.6
						c0.7-0.4,1.6-0.2,2,0.4c0.1,0.2,0.2,0.3,0.3,0.5L1035.1,1829.9z"/>
					<path fill="#FFFFFF" d="M1018.9,1782.9c0.8,3.1,1.1,5.6,0.3,6.3c-0.6,0.5-2.4,1.1-4.9,1.6c-6.6,1.4-17.6,2.3-20.5-0.2
						c-0.4-0.3-0.6-0.7-0.7-1.2c-0.5-3.6-2.6-6.3-3.1-12.6c-0.6-6.2,0.8-12.4,3.6-17.9l2.8-5.4c0,0,1.4-2.4,7-2.7l0.7-2.4
						c0,0,4.9,0.1,7.5,2.4v2.1c0,0,4.4,0.5,5.7,5c1.3,4.5,2.9,24.9,2.9,24.9S1019.8,1782.8,1018.9,1782.9z"/>
					<path fill="#0E1210" d="M1034.7,1828.7l-3.1,1.3h-3.1c0,0-2.6-9.8-4.1-15.5c-1.5-5.7-9.9-23.7-9.9-23.7s-0.2-1.4,0.7-2.7
						c0.2-0.3,0.3-1.6,0.2-3.5c-0.2-5.3-1.4-14.8-1.6-16.1c0-0.1,0-0.1,0-0.1c0.9,2.3,5.1,14.1,5.2,14.5h0c0.8,3.1,1.1,5.6,0.3,6.3
						c1.4,4.2,10.2,39,10.2,39l2.1,0.8l1-0.6C1033.3,1827.9,1034.2,1828.1,1034.7,1828.7z"/>
				</g>
				<g>
					<g>
						<path fill="#0E1210" d="M537.3,1780.5l-6.1-16.6c0,0,3.1-5.1,3-16.4c-0.1-8-3.4-14.8-5.4-18c-1-1.7-2.9-2.8-4.9-2.6
							c-1.8,0.2-3.7,1.2-3.9,4.8c-0.5,7.1,2.9,21.7,2.9,21.7v12.3l9,15.3l-2.1,2.8l-3.8,1.8l0.1,1.5l5.1,0c0.8,0,1.6-0.4,2-1
							L537.3,1780.5z"/>
						<path fill="#0E1210" d="M524.7,1760.5l-1.3,21.5l-4.8,2.4c-0.5,0.3-0.7,0.9-0.7,1.5l0,0h10.3l1.6-17.4L524.7,1760.5z"/>
						<path fill="#F17547" d="M526.8,1727.4c0,0,2.8-8.6-3-8.8c-5.8-0.3-5,6.6-2.4,8.8c1.5,1.3,3.9,2.2,3.9,2.2L526.8,1727.4z"/>
						<path fill="#2B61AD" d="M536.1,1753.7c0,0-0.6,0.2-1.5,0.5c-3.5,1.1-12.2,3.4-13.5,0.2c-0.3-0.8-0.8-2.3-1.2-4.2
							c-1.8-7.5-3.8-21,1.5-22.8c4.2-1.4,8.4-0.4,11.3,6.6C534.5,1738.2,535.7,1744.5,536.1,1753.7z"/>
						<path fill="#0E1210" d="M536.1,1753.7c0,0-0.6,0.2-1.5,0.5c-3.5,1.1-12.2,3.4-13.5,0.2c-0.3-0.8-0.8-2.3-1.2-4.2
							c5.7-2.1,6.7-10.2,6.7-10.2l6.1-5.9C534.5,1738.2,535.7,1744.5,536.1,1753.7z"/>
						<path fill="#0E1210" d="M520.6,1722.8l0.7,5.9c0,0,6.5,0.5,8.8-0.9c0,0-0.9-4.3-3.1-6.2
							C524.8,1719.8,520.6,1722.8,520.6,1722.8z"/>
					</g>
					<path fill="none" stroke="#0E1210" stroke-width="0.752" stroke-miterlimit="10" d="M529.5,1749.9c0,0-5.9-22.2-9.5-22.1"/>
					<path fill="#052743" d="M529.2,1723.8c-0.7,2-3.9,2.6-7.1,1.4c-3.2-1.2-5.1-3.7-4.4-5.7c0.7-2,3.9-2.6,7.1-1.4
						C528,1719.3,530,1721.8,529.2,1723.8z"/>
					<path fill="#052743" d="M527,1721.6c-0.5,1.5-2.5,2.1-4.4,1.4c-1.9-0.7-3-2.5-2.4-4c0.6-1.5,2.5-2.1,4.4-1.4
						C526.5,1718.4,527.6,1720.1,527,1721.6z"/>
					<path fill="#052743" d="M527,1721.6c-0.5,1.5-2.5,2.1-4.4,1.4c-1.9-0.7-3-2.5-2.4-4c0.6-1.5,2.5-2.1,4.4-1.4
						C526.5,1718.4,527.6,1720.1,527,1721.6z"/>
					<path fill="#0E1210" d="M527,1721.6c-0.5,1.5-2.5,2.1-4.4,1.4c-1.1-0.4-1.9-1.2-2.3-2.1c0.4,0.4,0.9,0.7,1.5,0.9
						c1.9,0.7,3.9,0.1,4.4-1.4c0.2-0.6,0.2-1.3-0.1-1.9C527,1719.4,527.4,1720.6,527,1721.6z"/>
					<polygon fill="#2B61AD" points="520.1,1759.5 529.8,1758.2 532.1,1757.9 530.9,1748.7 518.9,1750.3 					"/>
					<path fill="#0E1210" d="M529.4,1755.9c0,0.3,0.2,1.2,0.4,2.3l2.3-0.3l-1.3-9.2c0,0-2.7,5.8-5.1,6.4
						C526,1755.1,529.3,1755,529.4,1755.9z"/>
				</g>
				<g>
					<path fill="#FFFFFF" d="M480.4,1736.9c0,0-5.1,1-5.5,5.6c-0.4,4.5,1,5.7,2.8,5.4l0,26.7l-2.8,1.8h4.4c0,0,2.8-12.7,3.1-17.1
						l1.6,17.1c0,0,2.8,1.1,3.5,0.8c0.7-0.3-0.6-2.4-0.6-2.4l0.8-30.2c0,0,1.5-7.2-1.6-8.4l-2.3-0.4l0-1.2v-1.2
						c0-0.7-0.2-1.4-0.6-1.9c-0.4-0.6-1.1-1.2-2.2-1.1c-2.2,0.2-2.4,5.3-0.8,5.4C481.7,1735.9,480.4,1736.9,480.4,1736.9z"/>
					<rect x="478.8" y="1737.4" fill="#FCD602" width="7.3" height="19.5"/>
					<path fill="#052743" d="M478.9,1735.3c0,0,1.7-1.3,2.5-1.1l1-1.9l0.7,1c0,0-1.8,2.9-2.8,3.1
						C479.3,1736.5,478.7,1736.4,478.9,1735.3z"/>
					<path fill="#052743" d="M483.6,1735.8c0,0-0.8,27.1,0.7,28.8c1.5,1.7,4.1,0.8,4.3-0.5c0.1-1.3,0.8-24.1-1.1-26.8
						C485.6,1734.6,483.6,1735.8,483.6,1735.8z"/>
					<path fill="#052743" d="M480.3,1736.3c0,0,0.2,28.4-0.8,28.8c-1,0.4-3.5,1.6-3.5-0.6c0-2.2,0-15.8,0-15.8s-2.4-4.6-1.1-7.9
						C476.1,1737.5,480.3,1736.3,480.3,1736.3z"/>
				</g>
				<g>
					<polygon fill="#748DBF" points="331.1,1796 330.5,1803.9 338.9,1807.2 340.5,1806 335.5,1801.6 335.1,1795 					"/>
					<polygon fill="#748DBF" points="342.9,1796.3 343.3,1799.6 349,1802.6 348.8,1803.9 338.9,1802.9 339.3,1796.3 341.3,1795 
											"/>
					<path fill="#695122" d="M336.4,1731.4l1.4-3c0,0-1.9-8.5,2.6-7.6c4.4,0.9,3.5,7.2,3.5,7.2s-0.3,3-1,3.4c-1.3,0.7-1.7,0-1.7,0
						l-0.3,4.3l-5.7-0.5L336.4,1731.4z"/>
					<path fill="#0E1210" d="M334.9,1774.5c0,0-5.4,20.4-4.3,22.8c0.4,0.8,1.2,1.3,2,1.5c1.5,0.4,3.3,0,3.3,0l3.6-18.9L339,1796
						c1.4,1.8,4.5,0,4.5,0s1.6-10.1,2.5-16.1c0.9-6-0.9-19.6-0.9-19.6h3.4l-6.1-27.1c-3.1,0.5-5.9-1.9-5.9-1.9s-0.8-0.1-1.9,0.2
						c-2.2,0.6-5.8,2.8-7.1,10.6c-2.1,11.7,5.6,16.4,5.6,16.4C332.1,1763.2,334.9,1774.5,334.9,1774.5z"/>
					<path fill="#052743" d="M334.9,1774.5c0,0-5.4,20.4-4.3,22.8c0.4,0.8,1.2,1.3,2,1.5c0,0,1.1-9.4,3.4-14.8
						c2.3-5.5,5.6-22.2,6.4-25.1c0.8-2.8-2.2-9.5-2.8-12c-0.6-2.6-0.1-6.3,1.5-7.5c1.6-1.2-0.3-1.5-2.6-2.4c-2.3-0.9-4-5.4-4-5.4
						c-2.2,0.6-5.8,2.8-7.1,10.6c-2.1,11.7,5.6,16.4,5.6,16.4C332.1,1763.2,334.9,1774.5,334.9,1774.5z"/>
					<path fill="#FFFFFF" d="M343.6,1721.9c-0.2,1.9-1.8,3.3-3.8,3.3c-1.4,0-2.6-0.7-3.2-1.8c0.2-1.9,1.8-3.3,3.8-3.3
						C341.7,1720.1,342.9,1720.8,343.6,1721.9z"/>
					<path fill="#FFFFFF" d="M336.8,1722.2c-1.9-0.1-3.5,1.1-4.1,2.7c-0.1,0.2-0.3,0.4-0.5,0.4h0c-1.7,0-3.2,1.1-3.7,2.6
						c-0.2,0.5-0.6,0.8-1.1,0.9c0,0,0,0,0,0c-0.9,0.2-1.6,0.9-1.7,1.9c-0.1,1.3,0.9,2.3,2.1,2.3c0.4,0,0.8-0.1,1.1-0.3
						c0.4-0.3,1-0.3,1.4,0c0.6,0.3,1.3,0.5,2,0.5c1.6,0,3-1,3.6-2.3c0.1-0.2,0.3-0.3,0.6-0.3c0.1,0,0.2,0,0.3,0c2.4,0,4.3-2,4.2-4.4
						C340.6,1724,338.9,1722.3,336.8,1722.2z"/>
					<polygon fill="#0E1210" points="338.7,1806.5 409.4,1804.8 413.9,1801.8 349.4,1802.3 349.5,1803.4 387.9,1803.4 384.2,1804.3 
						340.3,1805.5 					"/>
				</g>
				<g>
					<path fill="#052743" d="M469.8,1780.3h6.2v0c0-0.8-0.6-1.4-1.4-1.6l-3.7-0.7l1.8-15.5c0.5-4,0.3-8-0.6-11.9l0,0l-6.5,0.9
						l0.3,28.6l3.1-0.1l-0.9-16.2l0.2,15.3C468.5,1779.8,469.1,1780.3,469.8,1780.3z"/>
					<path fill="#748DBF" d="M464.9,1741.3c-0.7,6.1,0.7,13.9,0.7,13.9l7.1-2.3c0,0,2.1-15.6,0-18.2
						C470.6,1732.1,465.6,1735.2,464.9,1741.3z"/>
					<path fill="#F17547" d="M472.2,1734.6c0,0,1.3,0.4,1.6-2.5c0.3-3-2.6-3.3-3.3-2.4c-1.3,1.7-0.9,5.2-0.9,5.2L472.2,1734.6z"/>
					<path fill="#052743" d="M470.3,1734.2l0.5-2.9l1.9-0.7c0,0,1.6-2.5-1.9-1.8c-3.1,0.7-1.3,5.5-1.3,5.5L470.3,1734.2z"/>
					<path fill="#68C9D0" d="M467.3,1734.8c-0.7-0.7-0.1-1.9,0.9-2c1.9-0.1,6.4-0.1,6.7,1.5C475.2,1736.2,468.2,1735.8,467.3,1734.8
						C467.3,1734.8,467.3,1734.8,467.3,1734.8z"/>
					<path fill="#68C9D0" d="M467.4,1734.2c0,0-2.9,17.7-1.1,18.4c1.9,0.8,2.7,0,2.8-0.3c0.6-1.1,1.2-18.1,1.2-18.1H467.4z"/>
				</g>
				<g>
					<path fill="#75273E" d="M496.3,1736.1c0,0-0.4-2.7,0.5-4.4c1.2-2.3,4.6-1,4.2,1.5c-0.1,0.8-0.4,1.7-1,2.9c0,0,0.2,2.7-2.1,3.2
						C495.6,1739.7,496.3,1736.1,496.3,1736.1z"/>
					<path fill="#052743" d="M501.5,1748.5l-0.4,23.1c-1.1,1.1-4.2,1.1-6.4,0.9c-1.6-0.1-2.8-0.3-2.8-0.3s-0.8-16.4-1.4-25.8
						c-0.6-9.4,5.8-10.3,5.8-10.3h3.7C502.6,1740.1,501.5,1748.5,501.5,1748.5z"/>
					<path fill="#0E1210" d="M493.3,1762.7c0.3,3,1.3,9.9,1.3,9.9c-1.6-0.1-2.8-0.3-2.8-0.3s-0.8-16.4-1.4-25.8c0,0,2.7,9.3,3.6,9.6
						c0.9,0.4,2.1,0,2.1,0S493.1,1759.7,493.3,1762.7z"/>
					<path fill="#0E1210" d="M494.6,1772.7v5.5c0,0,3,0.8,4.6,0.6v-0.6l-2.3-1.7v-3.9H494.6z"/>
					<polyline fill="#0E1210" points="493.5,1772.4 491.4,1775.6 494.1,1777.2 494.6,1777 494.6,1772.6 					"/>
					<path fill="#052743" d="M500.9,1731.9c-0.3-0.3-0.8-1-1.2-1.1c-2.7-0.8-1.4,6.4-1.4,6.4l0.6,0l-1.1,2l-1.4-2.1
						c0,0-2.4-8.5,1.7-8C499.9,1729.2,500.8,1730.7,500.9,1731.9z"/>
				</g>
			</g>
			<g>
				<path fill="#0E1210" d="M627.4,1882.1c0,0,68.1-2.1,74.5-5.2l88.2-7.4c0,0,24.1-2.2,26.9-4.3c0,0-15.6-8.2-31.4-5.1
					c-15.9,3.1-36.6,2-36.6,2l-116.6,9l3.7,3.3l-54.3,4.6l1,3.2l80.5-7.7c0,0,2.1,3.6,0.9,3.8c-1.2,0.2-38.6,2.4-38.6,2.4
					L627.4,1882.1z"/>
				<g>
					<path fill="#052743" d="M666.1,1865.8c0,0-2.7,2.6-3.1,3.3c-0.4,0.6-6.6,3.1-6.6,3.1v2.1c0,0,10.2,4,18,1.9l0.4-9.7l-4.1-2.7
						L666.1,1865.8z"/>
					<path fill="#052743" d="M693.8,1870.3c0,0,0,0.5-0.2,1.1c-0.3,1.4-1.2,3.8-3.9,4.3c-3.9,0.8-8.6,0.5-8.6,0.5l-0.7-9.8l3.4-4.5
						l2.6,1.5l1.5,0.9l0,0L693.8,1870.3z"/>
					<path fill="#748DBF" d="M688.2,1863.3c0,0.4-0.1,0.8-0.3,1.1c-0.3,0.8-0.8,1.4-1.4,1.8c-2,1.4-5.2,1-6.1,0.3
						c-1.4-1,0-26.8,0-31.5c0-3.4-2.4-16.4-3.8-23.4c-0.1-0.5-0.9-0.5-0.9,0.1c0,13.7,0,53.6-1,54.8c-1.2,1.4-7.3,2.2-8.9,0
						c-1.6-2.2-2.8-13.7-5.9-28.7c-3-15,0-49.2,0-49.2l12.1-21.9l10.7,12.9l7.4,9c0,0,2.7,30.5,3.3,36.2
						C694.1,1830.6,688.8,1858.6,688.2,1863.3z"/>
					<path fill="#0E1210" d="M693.8,1870.3c0,0,0,0.5-0.2,1.1c-2.7-0.5-6.1-1.4-6.5-2.3c-0.3-0.5-0.4-1.6-0.5-2.9
						c-0.1-0.8-0.1-1.8-0.1-2.7c-0.2-6.6,4.4-22.2,2.9-39c-1.1-12.4-6.5-31.8-6.5-31.8v-13l7.4,9c0,0,2.7,30.5,3.3,36.2
						c0.6,5.8-4.7,33.8-5.3,38.5c0,0.4-0.1,0.8-0.3,1.1l0,0L693.8,1870.3z"/>
					<path fill="#F17547" d="M676.3,1731.2l-1.3-8.3h-11.4l-1.5,8.3c0,0,6.1,8,6.7,7.8C669.3,1738.9,676.3,1731.2,676.3,1731.2z"/>
					<path fill="#F17547" d="M676.8,1715.9c0,0,1.4-0.8,1.7,0c0.3,0.8,0.4,5.1-0.9,5.6c-1.3,0.5-1.3,0.5-1.3,0.5s-0.6,5.6-6.1,5.8
						c-5.4,0.1-11-1.8-11.2-10c-0.2-8.2,3.2-13.4,9.3-13C674.5,1705.1,677.2,1709.9,676.8,1715.9z"/>
					<path fill="#E92348" d="M692.7,1770.1c0,0,5.2,19.7-9.9,22.6c-15.1,2.8-25.8,1.5-24.4-14.5c0,0-7-4.5-5.1-20.8
						c1.9-16.3,3-19.5,8.9-26.1c0,0,7.7,3.8,14.2,0c0,0,16.7,3.7,18.8,29.9C695.1,1761.2,695.1,1767.3,692.7,1770.1z"/>
					<path fill="#0E1210" d="M682.8,1792.7c6.7-2.3,5.4-11.2,5.4-16.2c0-4.8-2.5-21.8-2.7-22.9c2.1,8.2,7.2,16.5,7.2,16.5
						S697.9,1789.8,682.8,1792.7z"/>
					<path fill="#0E1210" d="M677.7,1715.9c0,0,0.5,9-4.6,14.7c-4.9,5.4-16.7,7.5-16.7,7.5s5.2-6.6,2.8-15.8
						c-1.7-6.3,0.6-18.9,8.5-18.9C675.3,1703.5,677.5,1708.8,677.7,1715.9z"/>
				</g>
				<g>
					<path fill="#748DBF" d="M634.2,1880.4c-0.3,0.2-1,0.6-1.9,1c-5.3,2.4-11.1,3.6-16.9,3.5c-1.8,0-3.4-0.1-4.2-0.4
						c-2.6-1,0-12.7,0-12.7l0.1-0.2l2.7-5l5.5,2l3.6,1.3l11.1,7c0,0,0.3,0.8,0.4,1.7C634.7,1879.2,634.6,1880.1,634.2,1880.4z"/>
					<path fill="#748DBF" d="M579.1,1870.9c0,0-3.6,11.4-1,12.5c2.6,1.1,19.5-3,19.5-3v-3.2l-7.4-6.9l-4.2-4.6L579.1,1870.9z"/>
					<path fill="#052743" d="M627.2,1803.1c-4.6,50-0.9,64.6-4.1,66.7c-0.9,0.6-2.5,1.1-4.2,1.5c-2.6,0.5-5.5,0.6-7.6,0.2
						c-1.4-0.3-2.4-0.8-2.4-1.7c0-3-0.8-61.1,0-65.1c0,0-6.2-37.2-7.1-44.5c0,0-8.9,46.8-8.7,51.7c0.2,4.8-0.6,56.1-1.4,57.7
						c-0.8,1.6-13.5,2.8-14.1,0.2c-0.6-2.6-5.7-46.5-1.2-64.2c0,0-0.6-57.9,3.2-68.8l43.6-1.2C623.1,1735.6,631.8,1753,627.2,1803.1
						z"/>
					<path fill="#0E1210" d="M626.4,1752.5l-3.4-16.9l-43.6,1.2c-0.9,2.5-1.5,7.6-2,14c-2.5-3.8-7.8-12.8-9.9-25.3
						c-1.9-11.6,1.4-28.1,4.7-38.9c1.5-4.8,3.3-6.1,4.3-7.7c3.2-5.3,18.4-9.5,18.4-9.5v-10.9l0.1,0l15.5,1.4l0,0.1c0,0,0,0.1,0,0.1
						l-3.5,11.4c2.1,0.5,4.8,1.6,7.3,2.7c0,0,0,0,0,0c3.3,1.5,6,2.9,6,2.9c5.7,5.4,12.1,32.9,12.5,37.7
						C633.9,1727.5,626.4,1752.5,626.4,1752.5z"/>
					<path fill="#052743" d="M626.4,1748.1l-3.4-12.5C623.1,1735.6,624.9,1739.3,626.4,1748.1z"/>
					<path fill="#052743" d="M615.9,1674.7c-0.4,0-8.4,1.4-8.3,5.3l-8.3-0.6l3.5-6.2c0,0,1.7-1,5.8-1.2
						C610.6,1672.5,613.4,1673.6,615.9,1674.7z"/>
					<path fill="#0E1210" d="M595.9,1745.4c0,0,31.2-2.2,22.9-38.3c-8.3-36.1-20.6-33.7-20.6-33.7s-22.4-2.5-22.7,17.2
						C575.2,1710.3,562.9,1747.7,595.9,1745.4z"/>
					<path fill="#052743" d="M610.1,1661.3c-0.2,0.7-0.5,1.3-0.8,1.9l0,0c-0.9,1.7-2.2,3-3.9,3.3v0c-0.5,0.1-1.1,0.1-1.7,0.1
						c-5.2-0.6-9.3-9.6-9.3-9.6s-1.7,0.6-1.6-3.4c0.1-4,1.6-1.8,1.6-1.8c-0.2-2.9,0.2-5.5,1.2-7.6c0,0,0,0,0,0
						c2.1-4.4,6.8-6.5,13.4-3.9C616.5,1643.3,612.1,1656.3,610.1,1661.3z"/>
					<path fill="#0E1210" d="M605.4,1666.5L605.4,1666.5c-0.5,0.1-1.1,0.1-1.7,0.1c-5.2-0.6-9.3-9.6-9.3-9.6s-1.7,0.6-1.6-3.4
						c0.1-4,1.6-1.8,1.6-1.8c-0.2-2.9,0.2-5.5,1.2-7.6C595.5,1644.7,593.4,1664.5,605.4,1666.5z"/>
					<path fill="#F17547" d="M612.4,1673.3c-1.9-0.8-3.8-1.5-5.3-1.8c-4.1,0.1-5.8,1.2-5.8,1.2l-2.3,4.2c-3.2-0.6-6.4-2-7.9-4.7
						c0,0-2.1-9.1,0-10.2c2.1-1.2,23.2-0.6,24.1,3.4C615.8,1667.4,614.1,1670.7,612.4,1673.3z"/>
					<path fill="#FFFFFF" d="M592.7,1741.4L592.7,1741.4c-2.4,0.2-4.6,0.1-6.5-0.1c-0.3,0-0.5-0.1-0.8-0.1
						c-24-3.6-15.1-36.6-13.1-54.6c1.2-11.2,9.8-15.4,16.8-16.7c3.8-0.7,7.2-0.5,8.7-0.1c1.2,0.3,2.6,1.1,4.2,2.5
						c0.6,0.6,1.3,1.2,2,2.1c0.5,0.6,1.1,1.4,1.7,2.2c3.3,4.9,6.9,13.1,10,26.5C623.9,1739.2,592.7,1741.4,592.7,1741.4z"/>
					<path fill="#FFFFFF" d="M614.4,1674.1c-0.4,0-7,0-8.8,2.5c-0.3,0.4-0.5,0.9-0.5,1.5l-1.1,0.1l-6.2,0.7l3.5-6.3
						c0,0,0.2-0.1,0.7-0.3c0.8-0.3,2.5-0.8,5.1-0.9c1.4,0.3,3.1,0.9,4.8,1.6C612.8,1673.4,613.6,1673.8,614.4,1674.1z"/>
					<path fill="#D09C2A" d="M601.5,1719.6c-21.6,8.5-27.8,1.4-27.8,1.4s7-9.8,13.8-9.2C594.2,1712.5,601.5,1719.6,601.5,1719.6z"/>
					<path fill="#0E1210" d="M620.8,1862c1.6-9.2,1.2-61.4,1-68.2c-0.2-6.7-1.7-13.5-2.8-21c-4.6-29,4.1-37.3,4.1-37.3
						s8.7,17.5,4.1,67.5c-4.6,50-0.9,64.6-4.1,66.7l11.1,7c0,0,0.3,0.8,0.4,1.7l-17.1-2.2c0,0,0.6-1.8,1.4-5
						c0.2-0.8,0.4-1.7,0.6-2.8C619.9,1866.7,620.4,1864.5,620.8,1862z"/>
					<path fill="#FFFFFF" d="M601.5,1719.6c-14.1-4.4-27.8,1.4-27.8,1.4c0.3-1.9-0.6-9.6-0.6-18.1c0-12.9,2-27.9,13.5-27.8
						c6,0,9.7,4.5,12,10.5C603.4,1698.8,601.5,1719.6,601.5,1719.6z"/>
					<path fill="#FCD602" d="M585.5,1675.2c0,0-8.1,14.1-3,43.5l2.5,5.2c0,0,0.9,9.2,0.4,17.4c-24-3.6-15.1-36.6-13.1-54.6
						c1.2-11.2,9.8-15.4,16.8-16.7C589.2,1669.9,585.1,1672.6,585.5,1675.2z"/>
					<path fill="#0E1210" d="M585,1723.7c-8.5,0.5-11.3-2.7-11.3-2.7s3.6-5,8.1-7.6c0.2,1.7,0.5,3.4,0.8,5.2L585,1723.7z"/>
					<path fill="#D09C2A" d="M582.6,1718.6c-5.4,0.9-8.9,2.4-8.9,2.4c0.3-1.9-0.6-9.6-0.6-18.1c0-12.5,1.9-26.9,12.5-27.8
						C585.2,1675.8,577.6,1690,582.6,1718.6z"/>
					<path fill="#0E1210" d="M585.5,1675.2c0,0,14.7-2.3,16.4,32.2c0,0,2.2-11.3-0.1-23.7c-2.3-12.4-12.6-13.7-12.6-13.7l-7.8,3.9
						L585.5,1675.2z"/>
				</g>
			</g>
		</g>
	</g>
</g>
</svg>
