<?xml version="1.0" encoding="utf-8"?>
<!-- Generator: Adobe Illustrator 22.1.0, SVG Export Plug-In . SVG Version: 6.00 Build 0)  -->
<svg version="1.1" id="Layer_1" xmlns="http://www.w3.org/2000/svg" xmlns:xlink="http://www.w3.org/1999/xlink" x="0px" y="0px"
	 viewBox="0 0 886 262" style="enable-background:new 0 0 886 262;" xml:space="preserve">
<style type="text/css">
	.st0{fill:#FFFFFF;}
	.st1{fill:#094A79;}
	.st2{fill:#F3F3F3;}
	.st3{fill:#E91F46;}
</style>
<g>
	<g>
		<path class="st0" d="M4.2,246.8v-0.2c0-5.5,3.4-9.3,8.2-9.3c2.7,0,4.4,1,5.8,2.4l-2.3,2.9c-1.1-1.1-2.2-1.8-3.7-1.8
			c-2.4,0-4.2,2.3-4.2,5.8v0.1c0,3.6,1.9,5.8,4.3,5.8c1.5,0,2.5-0.7,3.7-1.9l2.3,2.7c-1.6,1.7-3.4,2.7-6.2,2.7
			C7.5,256,4.2,252.4,4.2,246.8z"/>
		<path class="st0" d="M21.1,246.9v-0.3c0-5.5,3.4-9.3,8.2-9.3c4.8,0,8.2,3.8,8.2,9.2v0.3c0,5.4-3.4,9.3-8.2,9.3
			C24.4,256.1,21.1,252.3,21.1,246.9z M33.6,246.8v-0.2c0-3.6-1.8-5.8-4.3-5.8c-2.5,0-4.3,2.2-4.3,5.8v0.2c0,3.6,1.8,5.8,4.4,5.8
			S33.6,250.4,33.6,246.8z"/>
		<path class="st0" d="M41.4,237.6h3.5l7,10.6v-10.6h3.7v18.2h-3.2l-7.2-11v11h-3.7V237.6z"/>
		<path class="st0" d="M64,241.1h-4.6v-3.5h12.9v3.5h-4.6v14.7H64V241.1z"/>
		<path class="st0" d="M79.6,237.5h3.6l6.5,18.3h-3.9l-1.4-4h-6.3l-1.3,4H73L79.6,237.5z M83.3,248.5l-2-5.9l-2,5.9H83.3z"/>
		<path class="st0" d="M93.2,237.6H97v18.2h-3.8V237.6z"/>
		<path class="st0" d="M101.4,237.6h3.5l7,10.6v-10.6h3.7v18.2h-3.2l-7.2-11v11h-3.7V237.6z"/>
		<path class="st0" d="M119.6,237.6h11.7v3.4h-8v3.9h7v3.4h-7v4.1h8.1v3.4h-11.8V237.6z"/>
		<path class="st0" d="M135.4,237.6h6.8c2.1,0,3.8,0.6,4.9,1.7c1,1,1.5,2.4,1.5,4.2v0.1c0,2.8-1.4,4.5-3.4,5.4l3.9,6.8h-4.3l-3.4-6
			h-2.4v6h-3.8V237.6z M142,246.5c1.9,0,3-1.1,3-2.7v0c0-1.8-1.1-2.7-3-2.7h-2.7v5.5H142z"/>
		<path class="st0" d="M151.5,253.3l2.2-2.8c1.2,1.1,2.7,2.1,4.5,2.1c1.5,0,2.3-0.7,2.3-1.8v0c0-0.9-0.5-1.5-3.1-2.5
			c-3.2-1.2-5.2-2.5-5.2-5.6v-0.1c0-3.2,2.4-5.3,6-5.3c2.1,0,4.2,0.7,5.9,2.2l-2.1,2.9c-1.1-0.9-2.5-1.7-3.9-1.7
			c-1.3,0-2.1,0.6-2.1,1.6v0c0,1,0.6,1.5,3.5,2.7c3.2,1.2,4.9,2.6,4.9,5.4v0.1c0,3.4-2.6,5.5-6.1,5.5
			C156,256,153.5,255.2,151.5,253.3z"/>
		<path class="st0" d="M189.9,237.6h3.8v18.2h-3.8V237.6z"/>
		<path class="st0" d="M220,237.6h11.7v3.4h-8v3.9h7v3.4h-7v4.1h8.1v3.4H220V237.6z"/>
		<path class="st0" d="M236,237.6h5.9c5.3,0,8.7,3.6,8.7,9v0.2c0,5.3-3.4,9-8.7,9H236V237.6z M239.8,241v11.4h2.1
			c2.9,0,4.8-2,4.8-5.6v-0.1c0-3.6-1.9-5.6-4.8-5.6H239.8z"/>
		<path class="st0" d="M254,246.8v-0.2c0-5.4,3.6-9.3,8.5-9.3c2.5,0,4.3,0.7,6,2.1l-2.2,2.9c-1-0.9-2-1.6-3.8-1.6
			c-2.6,0-4.6,2.4-4.6,5.7v0.2c0,3.7,2.1,5.8,4.7,5.8c1.1,0,2-0.3,2.7-0.8v-3.2H262v-3.3h6.9v8.4c-1.7,1.2-3.8,2.3-6.5,2.3
			C257.6,256,254,252.5,254,246.8z"/>
		<path class="st0" d="M273.3,237.6H285v3.4h-8v3.9h7v3.4h-7v4.1h8.1v3.4h-11.8V237.6z"/>
		<path class="st0" d="M310.8,237.6h3.8v18.2h-3.8V237.6z"/>
		<path class="st0" d="M340.9,237.6h6.1c4.1,0,6.7,2.4,6.7,6.2v0.1c0,4.2-3,6.3-6.8,6.4h-2.1v5.5h-3.8V237.6z M346.8,246.9
			c1.9,0,3-1.2,3-2.9v0c0-1.9-1.1-2.9-3.1-2.9h-2.1v5.9H346.8z"/>
		<path class="st0" d="M357.2,237.6h6.8c2.1,0,3.8,0.6,4.9,1.7c1,1,1.5,2.4,1.5,4.2v0.1c0,2.8-1.4,4.5-3.4,5.4l3.9,6.8h-4.3l-3.4-6
			H361v6h-3.8V237.6z M363.8,246.5c1.9,0,3-1.1,3-2.7v0c0-1.8-1.1-2.7-3-2.7H361v5.5H363.8z"/>
		<path class="st0" d="M375,237.6h3.8v18.2H375V237.6z"/>
		<path class="st0" d="M382.3,237.6h4.1l3.8,12.5l3.8-12.5h4l-6.1,18.3h-3.5L382.3,237.6z"/>
		<path class="st0" d="M403.3,237.5h3.6l6.5,18.3h-3.9l-1.4-4h-6.3l-1.3,4h-3.8L403.3,237.5z M407.1,248.5l-2-5.9l-2,5.9H407.1z"/>
		<path class="st0" d="M418.7,241.1h-4.6v-3.5H427v3.5h-4.6v14.7h-3.7V241.1z"/>
		<path class="st0" d="M430.9,237.6h11.7v3.4h-8v3.9h7v3.4h-7v4.1h8.1v3.4h-11.8V237.6z"/>
		<path class="st0" d="M453.4,246.8v-0.2c0-5.5,3.4-9.3,8.2-9.3c2.7,0,4.4,1,5.8,2.4l-2.3,2.9c-1.1-1.1-2.2-1.8-3.7-1.8
			c-2.4,0-4.2,2.3-4.2,5.8v0.1c0,3.6,1.9,5.8,4.3,5.8c1.5,0,2.5-0.7,3.7-1.9l2.3,2.7c-1.6,1.7-3.4,2.7-6.2,2.7
			C456.6,256,453.4,252.4,453.4,246.8z"/>
		<path class="st0" d="M471.4,237.6h3.8v14.7h7.4v3.5h-11.1V237.6z"/>
		<path class="st0" d="M484.9,246.9v-0.3c0-5.5,3.4-9.3,8.2-9.3c4.8,0,8.2,3.8,8.2,9.2v0.3c0,5.4-3.4,9.3-8.2,9.3
			C488.2,256.1,484.9,252.3,484.9,246.9z M497.4,246.8v-0.2c0-3.6-1.8-5.8-4.3-5.8c-2.5,0-4.3,2.2-4.3,5.8v0.2
			c0,3.6,1.8,5.8,4.4,5.8C495.6,252.6,497.4,250.4,497.4,246.8z"/>
		<path class="st0" d="M505.1,248.7v-11.1h3.8v11.2c0,2.6,1.2,3.8,3.2,3.8c1.9,0,3.2-1.2,3.2-3.8v-11.2h3.7v11c0,5-2.8,7.4-7,7.4
			C507.8,256.1,505.1,253.6,505.1,248.7z"/>
		<path class="st0" d="M523.4,237.6h5.9c5.3,0,8.7,3.6,8.7,9v0.2c0,5.3-3.4,9-8.7,9h-5.9V237.6z M527.1,241v11.4h2.1
			c2.9,0,4.8-2,4.8-5.6v-0.1c0-3.6-1.9-5.6-4.8-5.6H527.1z"/>
		<path class="st0" d="M563.6,237.6h3.8v18.2h-3.8V237.6z"/>
		<path class="st0" d="M593.7,237.6h6.1c4.1,0,6.7,2.4,6.7,6.2v0.1c0,4.2-3,6.3-6.8,6.4h-2.1v5.5h-3.8V237.6z M599.5,246.9
			c1.9,0,3-1.2,3-2.9v0c0-1.9-1.1-2.9-3.1-2.9h-2.1v5.9H599.5z"/>
		<path class="st0" d="M610.3,248.7v-11.1h3.8v11.2c0,2.6,1.2,3.8,3.2,3.8s3.2-1.2,3.2-3.8v-11.2h3.7v11c0,5-2.8,7.4-7,7.4
			C613,256.1,610.3,253.6,610.3,248.7z"/>
		<path class="st0" d="M628.4,237.6h6.8c2,0,3.7,0.5,4.8,1.6c0.8,0.8,1.2,1.8,1.2,3.1v0.1c0,2.1-1.2,3.3-2.5,4
			c1.9,0.8,3.2,1.9,3.2,4.3v0.1c0,3.3-2.6,5-6.6,5h-6.9V237.6z M637.4,242.9c0-1.3-0.9-2-2.5-2h-2.8v4.1h2.6
			C636.4,245,637.4,244.3,637.4,242.9L637.4,242.9z M635.4,248.2h-3.3v4.3h3.4c1.7,0,2.8-0.7,2.8-2.1v0
			C638.2,249,637.3,248.2,635.4,248.2z"/>
		<path class="st0" d="M645.7,237.6h3.8v14.7h7.4v3.5h-11.1V237.6z"/>
		<path class="st0" d="M660.9,237.6h3.8v18.2h-3.8V237.6z"/>
		<path class="st0" d="M668.6,246.8v-0.2c0-5.5,3.4-9.3,8.2-9.3c2.7,0,4.4,1,5.8,2.4l-2.3,2.9c-1.1-1.1-2.2-1.8-3.7-1.8
			c-2.4,0-4.2,2.3-4.2,5.8v0.1c0,3.6,1.9,5.8,4.3,5.8c1.5,0,2.5-0.7,3.7-1.9l2.3,2.7c-1.6,1.7-3.4,2.7-6.2,2.7
			C671.9,256,668.6,252.4,668.6,246.8z"/>
		<path class="st0" d="M693.1,246.8v-0.2c0-5.5,3.4-9.3,8.2-9.3c2.7,0,4.4,1,5.8,2.4l-2.3,2.9c-1.1-1.1-2.2-1.8-3.7-1.8
			c-2.4,0-4.2,2.3-4.2,5.8v0.1c0,3.6,1.9,5.8,4.3,5.8c1.5,0,2.5-0.7,3.7-1.9l2.3,2.7c-1.6,1.7-3.4,2.7-6.2,2.7
			C696.3,256,693.1,252.4,693.1,246.8z"/>
		<path class="st0" d="M711.2,237.6h3.8v14.7h7.4v3.5h-11.1V237.6z"/>
		<path class="st0" d="M724.7,246.9v-0.3c0-5.5,3.4-9.3,8.2-9.3c4.8,0,8.2,3.8,8.2,9.2v0.3c0,5.4-3.4,9.3-8.2,9.3
			C728.1,256.1,724.7,252.3,724.7,246.9z M737.3,246.8v-0.2c0-3.6-1.8-5.8-4.3-5.8c-2.5,0-4.3,2.2-4.3,5.8v0.2
			c0,3.6,1.8,5.8,4.4,5.8C735.5,252.6,737.3,250.4,737.3,246.8z"/>
		<path class="st0" d="M744.8,248.7v-11.1h3.8v11.2c0,2.6,1.2,3.8,3.2,3.8s3.2-1.2,3.2-3.8v-11.2h3.7v11c0,5-2.8,7.4-7,7.4
			C747.5,256.1,744.8,253.6,744.8,248.7z"/>
		<path class="st0" d="M763.1,237.6h5.9c5.3,0,8.7,3.6,8.7,9v0.2c0,5.3-3.4,9-8.7,9h-5.9V237.6z M766.8,241v11.4h2.1
			c2.9,0,4.8-2,4.8-5.6v-0.1c0-3.6-1.9-5.6-4.8-5.6H766.8z"/>
		<path class="st0" d="M803.3,237.6h3.8v18.2h-3.8V237.6z"/>
		<path class="st0" d="M833.4,237.6h3.5l7,10.6v-10.6h3.7v18.2h-3.2l-7.2-11v11h-3.7V237.6z"/>
		<path class="st0" d="M851.2,237.6H863v3.5h-8v4.1h7v3.5h-7v7.2h-3.8V237.6z"/>
		<path class="st0" d="M866.2,237.6h4.1l3.8,12.5l3.8-12.5h4l-6.1,18.3h-3.5L866.2,237.6z"/>
	</g>
	<rect x="4.1" y="5.9" class="st1" width="261.6" height="55.1"/>
	<g>
		<path class="st2" d="M22.4,24.3h4l3.1,12l3.3-12H36l3.4,12l3-12h3.9l-5.2,18.3h-3.5l-3.3-11.6L31,42.6h-3.4L22.4,24.3z"/>
		<path class="st2" d="M50,24.3h11.7v3.4h-8v3.9h7v3.4h-7v4.1h8.1v3.4H50V24.3z"/>
		<path class="st2" d="M66,24.3h3.8v14.7h7.4v3.5H66V24.3z"/>
		<path class="st2" d="M79.4,33.6v-0.2c0-5.5,3.4-9.3,8.2-9.3c2.7,0,4.4,1,5.8,2.4l-2.3,2.9c-1.1-1.1-2.2-1.8-3.7-1.8
			c-2.4,0-4.2,2.3-4.2,5.8v0.1c0,3.6,1.9,5.8,4.3,5.8c1.5,0,2.5-0.7,3.7-1.9l2.3,2.7c-1.6,1.7-3.4,2.7-6.2,2.7
			C82.6,42.8,79.4,39.1,79.4,33.6z"/>
		<path class="st2" d="M96.2,33.6v-0.3c0-5.5,3.4-9.3,8.2-9.3c4.8,0,8.2,3.8,8.2,9.2v0.3c0,5.4-3.4,9.3-8.2,9.3
			C99.6,42.9,96.2,39.1,96.2,33.6z M108.7,33.6v-0.2c0-3.6-1.8-5.8-4.3-5.8c-2.5,0-4.3,2.2-4.3,5.8v0.2c0,3.6,1.8,5.8,4.4,5.8
			C107,39.4,108.7,37.1,108.7,33.6z"/>
		<path class="st2" d="M116.6,24.3h4l4.1,7.4l4-7.4h4v18.2h-3.7V30.9l-4.3,7.5h-0.1l-4.3-7.5v11.6h-3.7V24.3z"/>
		<path class="st2" d="M137,24.3h11.7v3.4h-8v3.9h7v3.4h-7v4.1h8.1v3.4H137V24.3z"/>
		<path class="st2" d="M163.7,27.8h-4.6v-3.5H172v3.5h-4.6v14.7h-3.7V27.8z"/>
		<path class="st2" d="M174.3,33.6v-0.3c0-5.5,3.4-9.3,8.2-9.3c4.8,0,8.2,3.8,8.2,9.2v0.3c0,5.4-3.4,9.3-8.2,9.3
			C177.7,42.9,174.3,39.1,174.3,33.6z M186.9,33.6v-0.2c0-3.6-1.8-5.8-4.3-5.8c-2.5,0-4.3,2.2-4.3,5.8v0.2c0,3.6,1.8,5.8,4.4,5.8
			C185.1,39.4,186.9,37.1,186.9,33.6z"/>
		<path class="st2" d="M205.6,27.8H201v-3.5h12.9v3.5h-4.6v14.7h-3.7V27.8z"/>
		<path class="st2" d="M217.9,24.3h3.8v7.3h6v-7.3h3.8v18.2h-3.8v-7.4h-6v7.4h-3.8V24.3z"/>
		<path class="st2" d="M235.5,24.3h11.7v3.4h-8v3.9h7v3.4h-7v4.1h8.1v3.4h-11.8V24.3z"/>
	</g>
	<g>
		<path class="st1" d="M9.8,214.4c-3.9-3.8-5.8-8.8-5.8-15.1v-33.7c0-6.3,1.9-11.4,5.8-15.1c3.9-3.8,9-5.7,15.5-5.7
			c6.4,0,11.6,1.9,15.5,5.7c3.9,3.8,5.8,8.8,5.8,15.1v33.7c0,6.3-1.9,11.4-5.8,15.1c-3.9,3.8-9.1,5.7-15.5,5.7
			C18.9,220.1,13.7,218.2,9.8,214.4z M30,205.3c1.2-1.4,1.8-3.2,1.8-5.4V165c0-2.2-0.6-4-1.8-5.4c-1.2-1.4-2.8-2.1-4.7-2.1
			c-2,0-3.5,0.7-4.7,2.1c-1.2,1.4-1.7,3.2-1.7,5.4v34.9c0,2.2,0.6,4,1.7,5.4c1.2,1.4,2.7,2.1,4.7,2.1
			C27.3,207.3,28.8,206.7,30,205.3z"/>
		<path class="st1" d="M87.6,148.3c3,1.9,5.3,4.5,7,7.9c1.6,3.4,2.5,7.3,2.5,11.6c0,6.5-1.8,11.7-5.3,15.7
			c-3.5,3.9-8.1,5.9-13.8,5.9h-7.9c-0.4,0-0.5,0.2-0.5,0.5v28c0,0.4-0.1,0.6-0.4,0.9c-0.2,0.2-0.5,0.4-0.9,0.4H56
			c-0.4,0-0.6-0.1-0.9-0.4c-0.2-0.2-0.4-0.5-0.4-0.9v-71.2c0-0.3,0.1-0.6,0.4-0.9c0.2-0.2,0.5-0.4,0.9-0.4h21.2
			C81.1,145.5,84.6,146.5,87.6,148.3z M80.2,175.3c1.4-1.7,2.1-4.1,2.1-7.1c0-3.1-0.7-5.5-2.1-7.3c-1.4-1.8-3.2-2.6-5.4-2.6h-4.6
			c-0.4,0-0.5,0.2-0.5,0.5v18.5c0,0.4,0.2,0.5,0.5,0.5h4.6C77,177.9,78.8,177,80.2,175.3z"/>
		<path class="st1" d="M143.6,158c-0.2,0.2-0.5,0.4-0.9,0.4h-22c-0.4,0-0.5,0.2-0.5,0.5v16.6c0,0.4,0.2,0.5,0.5,0.5h12.6
			c0.3,0,0.6,0.1,0.9,0.4c0.2,0.2,0.4,0.5,0.4,0.9v10.2c0,0.4-0.1,0.6-0.4,0.9c-0.2,0.2-0.5,0.4-0.9,0.4h-12.6
			c-0.4,0-0.5,0.2-0.5,0.5V206c0,0.4,0.2,0.5,0.5,0.5h22c0.3,0,0.6,0.1,0.9,0.4c0.2,0.2,0.4,0.5,0.4,0.9V218c0,0.4-0.1,0.6-0.4,0.9
			c-0.2,0.2-0.5,0.4-0.9,0.4h-36.1c-0.4,0-0.6-0.1-0.9-0.4c-0.2-0.2-0.4-0.5-0.4-0.9v-71.1c0-0.3,0.1-0.6,0.4-0.9
			c0.2-0.2,0.5-0.4,0.9-0.4h36.1c0.3,0,0.6,0.1,0.9,0.4c0.2,0.2,0.4,0.5,0.4,0.9v10.2C143.9,157.4,143.8,157.7,143.6,158z"/>
		<path class="st1" d="M152.4,218.9c-0.2-0.2-0.4-0.5-0.4-0.9v-71.1c0-0.3,0.1-0.6,0.4-0.9c0.2-0.2,0.5-0.4,0.9-0.4h13.3
			c0.7,0,1.2,0.4,1.4,1.1l13.6,39.3c0.1,0.2,0.2,0.3,0.4,0.3c0.2,0,0.3-0.2,0.3-0.4v-39c0-0.3,0.1-0.6,0.4-0.9
			c0.2-0.2,0.5-0.4,0.9-0.4h12.1c0.4,0,0.6,0.1,0.9,0.4c0.2,0.2,0.4,0.5,0.4,0.9V218c0,0.4-0.1,0.6-0.4,0.9
			c-0.2,0.2-0.5,0.4-0.9,0.4h-13.4c-0.7,0-1.2-0.3-1.4-1.1l-13.6-39.4c-0.1-0.2-0.2-0.3-0.4-0.3c-0.2,0-0.3,0.1-0.3,0.3l0.1,39.2
			c0,0.4-0.1,0.6-0.4,0.9c-0.2,0.2-0.5,0.4-0.9,0.4h-12.1C152.9,219.2,152.6,219.1,152.4,218.9z"/>
		<path class="st1" d="M227.4,218.9c-0.2-0.2-0.4-0.5-0.4-0.9v-71.1c0-0.3,0.1-0.6,0.4-0.9c0.2-0.2,0.5-0.4,0.9-0.4h12.3
			c0.3,0,0.6,0.1,0.9,0.4c0.2,0.2,0.4,0.5,0.4,0.9V218c0,0.4-0.1,0.6-0.4,0.9c-0.2,0.2-0.5,0.4-0.9,0.4h-12.3
			C227.9,219.2,227.6,219.1,227.4,218.9z"/>
		<path class="st1" d="M251.1,218.9c-0.2-0.2-0.4-0.5-0.4-0.9v-71.1c0-0.3,0.1-0.6,0.4-0.9c0.2-0.2,0.5-0.4,0.9-0.4h13.3
			c0.7,0,1.2,0.4,1.4,1.1l13.6,39.3c0.1,0.2,0.2,0.3,0.4,0.3c0.2,0,0.3-0.2,0.3-0.4v-39c0-0.3,0.1-0.6,0.4-0.9
			c0.2-0.2,0.5-0.4,0.9-0.4h12.1c0.4,0,0.6,0.1,0.9,0.4c0.2,0.2,0.4,0.5,0.4,0.9V218c0,0.4-0.1,0.6-0.4,0.9
			c-0.2,0.2-0.5,0.4-0.9,0.4h-13.4c-0.7,0-1.2-0.3-1.4-1.1l-13.6-39.4c-0.1-0.2-0.2-0.3-0.4-0.3c-0.2,0-0.3,0.1-0.3,0.3l0.1,39.2
			c0,0.4-0.1,0.6-0.4,0.9c-0.2,0.2-0.5,0.4-0.9,0.4H252C251.7,219.2,251.4,219.1,251.1,218.9z"/>
		<path class="st1" d="M341.8,158c-0.2,0.2-0.5,0.4-0.9,0.4H319c-0.4,0-0.5,0.2-0.5,0.5v16.6c0,0.4,0.2,0.5,0.5,0.5h12.5
			c0.4,0,0.6,0.1,0.9,0.4c0.2,0.2,0.4,0.5,0.4,0.9v10.2c0,0.4-0.1,0.6-0.4,0.9c-0.2,0.2-0.5,0.4-0.9,0.4H319c-0.4,0-0.5,0.2-0.5,0.5
			V218c0,0.4-0.1,0.6-0.4,0.9c-0.2,0.2-0.5,0.4-0.9,0.4h-12.3c-0.4,0-0.6-0.1-0.9-0.4c-0.2-0.2-0.4-0.5-0.4-0.9v-71.1
			c0-0.3,0.1-0.6,0.4-0.9c0.2-0.2,0.5-0.4,0.9-0.4h36c0.3,0,0.6,0.1,0.9,0.4c0.2,0.2,0.4,0.5,0.4,0.9v10.2
			C342.2,157.4,342,157.7,341.8,158z"/>
		<path class="st1" d="M376,218.2l-8.1-29c-0.1-0.3-0.3-0.4-0.5-0.4h-3.6c-0.4,0-0.5,0.2-0.5,0.5V218c0,0.4-0.1,0.6-0.4,0.9
			c-0.2,0.2-0.5,0.4-0.9,0.4h-12.3c-0.4,0-0.6-0.1-0.9-0.4c-0.2-0.2-0.4-0.5-0.4-0.9v-71.2c0-0.3,0.1-0.6,0.4-0.9
			c0.2-0.2,0.5-0.4,0.9-0.4H371c3.9,0,7.3,0.9,10.3,2.8c3,1.9,5.3,4.5,7,7.9c1.6,3.4,2.5,7.2,2.5,11.5c0,4.1-0.8,7.8-2.4,10.9
			c-1.6,3.2-3.8,5.6-6.6,7.5c-0.1,0.1-0.2,0.2-0.3,0.3c-0.1,0.1-0.1,0.2,0,0.4l9.7,31l0.1,0.4c0,0.7-0.4,1.1-1.2,1.1h-12.6
			C376.7,219.2,376.2,218.9,376,218.2z M363.3,158.9v17.9c0,0.4,0.2,0.5,0.5,0.5h4.7c2.2,0,3.9-0.8,5.3-2.5c1.4-1.7,2.1-4,2.1-6.8
			c0-3-0.7-5.4-2.1-7c-1.4-1.7-3.1-2.5-5.3-2.5h-4.7C363.5,158.3,363.3,158.5,363.3,158.9z"/>
		<path class="st1" d="M430.1,218.1l-1.7-10.1c0-0.3-0.2-0.5-0.6-0.5h-13.1c-0.4,0-0.6,0.1-0.6,0.4l-1.9,10.2
			c-0.1,0.8-0.5,1.2-1.4,1.2h-12.3c-0.9,0-1.3-0.5-1.1-1.4l15.5-71.1c0.1-0.8,0.6-1.2,1.4-1.2h14.2c0.8,0,1.2,0.4,1.4,1.2l15.4,71.1
			l0.1,0.4c0,0.6-0.4,0.9-1.2,0.9h-12.6C430.6,219.2,430.2,218.8,430.1,218.1z M416.8,196h9c0.3,0,0.4-0.2,0.4-0.5l-4.4-27.1
			c-0.1-0.2-0.2-0.3-0.3-0.3c-0.1,0-0.2,0.1-0.3,0.3l-4.9,27.1C416.2,195.8,416.4,196,416.8,196z"/>
		<path class="st1" d="M458.7,217.6c-3.1-1.6-5.5-3.9-7.2-6.8c-1.7-2.9-2.5-6.3-2.5-10v-3.4c0-0.4,0.1-0.6,0.4-0.9
			c0.2-0.2,0.5-0.4,0.9-0.4h12.1c0.3,0,0.6,0.1,0.9,0.4c0.2,0.2,0.4,0.5,0.4,0.9v2.6c0,2.2,0.5,3.9,1.6,5.3c1.1,1.3,2.5,2,4.2,2
			c1.7,0,3.1-0.6,4.2-1.9c1.1-1.3,1.7-2.9,1.7-4.9c0-2.1-0.7-3.9-2.1-5.4c-1.4-1.5-4.1-3.7-8.2-6.7c-3.5-2.5-6.3-4.8-8.5-6.7
			c-2.2-2-4-4.4-5.6-7.3c-1.5-2.9-2.3-6.2-2.3-10c0-6,1.9-10.7,5.6-14.3c3.7-3.6,8.6-5.4,14.6-5.4c6.2,0,11.1,1.9,14.9,5.6
			c3.8,3.7,5.7,8.6,5.7,14.6v2.5c0,0.4-0.1,0.6-0.4,0.9c-0.2,0.2-0.5,0.4-0.9,0.4h-12.1c-0.4,0-0.6-0.1-0.9-0.4
			c-0.2-0.2-0.4-0.5-0.4-0.9v-2.8c0-2.2-0.5-3.9-1.6-5.2c-1.1-1.3-2.5-1.9-4.4-1.9c-1.7,0-3,0.6-4,1.8c-1,1.2-1.5,2.9-1.5,5.1
			c0,2.1,0.7,4,2,5.6c1.3,1.6,3.9,3.9,7.8,6.7c4.3,3.2,7.6,5.7,9.8,7.7c2.2,2,3.9,4.2,5.2,6.7c1.2,2.5,1.8,5.4,1.8,8.7
			c0,6.2-1.9,11.1-5.7,14.7c-3.8,3.6-8.7,5.5-14.8,5.5C465.3,220.1,461.8,219.3,458.7,217.6z"/>
		<path class="st1" d="M538.2,146c0.2,0.2,0.4,0.5,0.4,0.9v10.2c0,0.4-0.1,0.6-0.4,0.9c-0.2,0.2-0.5,0.4-0.9,0.4h-13.1
			c-0.4,0-0.5,0.2-0.5,0.5V218c0,0.4-0.1,0.6-0.4,0.9c-0.2,0.2-0.5,0.4-0.9,0.4h-12.3c-0.4,0-0.6-0.1-0.9-0.4
			c-0.2-0.2-0.4-0.5-0.4-0.9v-59.1c0-0.3-0.2-0.5-0.5-0.5h-12.6c-0.4,0-0.6-0.1-0.9-0.4c-0.2-0.2-0.4-0.5-0.4-0.9v-10.2
			c0-0.3,0.1-0.6,0.4-0.9c0.2-0.2,0.5-0.4,0.9-0.4h41.6C537.7,145.6,538,145.7,538.2,146z"/>
		<path class="st1" d="M573.3,218.2l-8.1-29c-0.1-0.3-0.3-0.4-0.5-0.4h-3.6c-0.4,0-0.5,0.2-0.5,0.5V218c0,0.4-0.1,0.6-0.4,0.9
			c-0.2,0.2-0.5,0.4-0.9,0.4H547c-0.4,0-0.6-0.1-0.9-0.4c-0.2-0.2-0.4-0.5-0.4-0.9v-71.2c0-0.3,0.1-0.6,0.4-0.9
			c0.2-0.2,0.5-0.4,0.9-0.4h21.2c3.9,0,7.3,0.9,10.3,2.8c3,1.9,5.3,4.5,7,7.9c1.6,3.4,2.5,7.2,2.5,11.5c0,4.1-0.8,7.8-2.4,10.9
			c-1.6,3.2-3.8,5.6-6.6,7.5c-0.1,0.1-0.2,0.2-0.3,0.3c-0.1,0.1-0.1,0.2,0,0.4l9.7,31l0.1,0.4c0,0.7-0.4,1.1-1.2,1.1h-12.6
			C574,219.2,573.5,218.9,573.3,218.2z M560.6,158.9v17.9c0,0.4,0.2,0.5,0.5,0.5h4.7c2.2,0,3.9-0.8,5.3-2.5c1.4-1.7,2.1-4,2.1-6.8
			c0-3-0.7-5.4-2.1-7c-1.4-1.7-3.1-2.5-5.3-2.5h-4.7C560.8,158.3,560.6,158.5,560.6,158.9z"/>
		<path class="st1" d="M600.7,214.1c-3.8-4-5.7-9.2-5.7-15.8v-51.4c0-0.3,0.1-0.6,0.4-0.9c0.2-0.2,0.5-0.4,0.9-0.4h12.3
			c0.4,0,0.6,0.1,0.9,0.4c0.2,0.2,0.4,0.5,0.4,0.9v52.9c0,2.2,0.6,4.1,1.7,5.5c1.1,1.4,2.6,2.1,4.4,2.1c1.8,0,3.3-0.7,4.4-2.1
			c1.1-1.4,1.6-3.2,1.6-5.5v-52.9c0-0.3,0.1-0.6,0.4-0.9c0.2-0.2,0.5-0.4,0.9-0.4h12.3c0.3,0,0.6,0.1,0.9,0.4
			c0.2,0.2,0.4,0.5,0.4,0.9v51.4c0,6.6-1.9,11.9-5.7,15.8c-3.8,4-8.9,5.9-15.1,5.9C609.6,220.1,604.5,218.1,600.7,214.1z"/>
		<path class="st1" d="M650,214.4c-3.8-3.7-5.7-8.8-5.7-15.1v-34.1c0-6.2,1.9-11.2,5.7-14.9c3.8-3.7,8.9-5.6,15.2-5.6
			c6.4,0,11.5,1.9,15.3,5.6c3.8,3.7,5.7,8.7,5.7,14.9v1.2c0,0.4-0.1,0.6-0.4,0.9c-0.2,0.2-0.5,0.4-0.9,0.4l-12.3,0.5
			c-0.8,0-1.3-0.4-1.3-1.2v-2.7c0-2-0.6-3.7-1.7-4.9c-1.1-1.3-2.6-1.9-4.5-1.9c-1.8,0-3.3,0.6-4.4,1.9c-1.1,1.3-1.7,2.9-1.7,4.9
			v36.3c0,2,0.6,3.7,1.7,4.9c1.1,1.2,2.6,1.8,4.4,1.8c1.9,0,3.4-0.6,4.5-1.8c1.1-1.2,1.7-2.9,1.7-4.9v-2.8c0-0.3,0.1-0.6,0.4-0.9
			c0.2-0.2,0.5-0.4,0.9-0.4L685,197c0.8,0,1.3,0.4,1.3,1.2v1.2c0,6.3-1.9,11.3-5.8,15.1c-3.9,3.8-8.9,5.6-15.2,5.6
			C658.9,220.1,653.9,218.2,650,214.4z"/>
		<path class="st1" d="M736.4,146c0.2,0.2,0.4,0.5,0.4,0.9v10.2c0,0.4-0.1,0.6-0.4,0.9c-0.2,0.2-0.5,0.4-0.9,0.4h-13.1
			c-0.4,0-0.5,0.2-0.5,0.5V218c0,0.4-0.1,0.6-0.4,0.9c-0.2,0.2-0.5,0.4-0.9,0.4h-12.3c-0.4,0-0.6-0.1-0.9-0.4
			c-0.2-0.2-0.4-0.5-0.4-0.9v-59.1c0-0.3-0.2-0.5-0.5-0.5h-12.6c-0.4,0-0.6-0.1-0.9-0.4c-0.2-0.2-0.4-0.5-0.4-0.9v-10.2
			c0-0.3,0.1-0.6,0.4-0.9c0.2-0.2,0.5-0.4,0.9-0.4h41.6C735.8,145.6,736.1,145.7,736.4,146z"/>
		<path class="st1" d="M749.8,214.1c-3.8-4-5.7-9.2-5.7-15.8v-51.4c0-0.3,0.1-0.6,0.4-0.9c0.2-0.2,0.5-0.4,0.9-0.4h12.3
			c0.3,0,0.6,0.1,0.9,0.4c0.2,0.2,0.4,0.5,0.4,0.9v52.9c0,2.2,0.6,4.1,1.7,5.5c1.1,1.4,2.6,2.1,4.4,2.1c1.8,0,3.3-0.7,4.4-2.1
			c1.1-1.4,1.6-3.2,1.6-5.5v-52.9c0-0.3,0.1-0.6,0.4-0.9c0.2-0.2,0.5-0.4,0.9-0.4h12.3c0.3,0,0.6,0.1,0.9,0.4
			c0.2,0.2,0.4,0.5,0.4,0.9v51.4c0,6.6-1.9,11.9-5.7,15.8c-3.8,4-8.9,5.9-15.1,5.9C758.7,220.1,753.7,218.1,749.8,214.1z"/>
		<path class="st1" d="M821.3,218.2l-8.1-29c-0.1-0.3-0.3-0.4-0.5-0.4h-3.6c-0.4,0-0.5,0.2-0.5,0.5V218c0,0.4-0.1,0.6-0.4,0.9
			c-0.2,0.2-0.5,0.4-0.9,0.4H795c-0.4,0-0.6-0.1-0.9-0.4c-0.2-0.2-0.4-0.5-0.4-0.9v-71.2c0-0.3,0.1-0.6,0.4-0.9
			c0.2-0.2,0.5-0.4,0.9-0.4h21.2c3.9,0,7.3,0.9,10.3,2.8c3,1.9,5.3,4.5,7,7.9c1.6,3.4,2.5,7.2,2.5,11.5c0,4.1-0.8,7.8-2.4,10.9
			c-1.6,3.2-3.8,5.6-6.6,7.5c-0.1,0.1-0.2,0.2-0.3,0.3c-0.1,0.1-0.1,0.2,0,0.4l9.7,31l0.1,0.4c0,0.7-0.4,1.1-1.2,1.1h-12.6
			C822,219.2,821.5,218.9,821.3,218.2z M808.6,158.9v17.9c0,0.4,0.2,0.5,0.5,0.5h4.7c2.2,0,3.9-0.8,5.3-2.5c1.4-1.7,2.1-4,2.1-6.8
			c0-3-0.7-5.4-2.1-7c-1.4-1.7-3.1-2.5-5.3-2.5h-4.7C808.7,158.3,808.6,158.5,808.6,158.9z"/>
		<path class="st1" d="M881.5,158c-0.2,0.2-0.5,0.4-0.9,0.4h-22c-0.4,0-0.5,0.2-0.5,0.5v16.6c0,0.4,0.2,0.5,0.5,0.5h12.6
			c0.3,0,0.6,0.1,0.9,0.4c0.2,0.2,0.4,0.5,0.4,0.9v10.2c0,0.4-0.1,0.6-0.4,0.9c-0.2,0.2-0.5,0.4-0.9,0.4h-12.6
			c-0.4,0-0.5,0.2-0.5,0.5V206c0,0.4,0.2,0.5,0.5,0.5h22c0.3,0,0.6,0.1,0.9,0.4c0.2,0.2,0.4,0.5,0.4,0.9V218c0,0.4-0.1,0.6-0.4,0.9
			c-0.2,0.2-0.5,0.4-0.9,0.4h-36.1c-0.4,0-0.6-0.1-0.9-0.4c-0.2-0.2-0.4-0.5-0.4-0.9v-71.1c0-0.3,0.1-0.6,0.4-0.9
			c0.2-0.2,0.5-0.4,0.9-0.4h36.1c0.3,0,0.6,0.1,0.9,0.4c0.2,0.2,0.4,0.5,0.4,0.9v10.2C881.9,157.4,881.7,157.7,881.5,158z"/>
	</g>
	<g>
		<path class="st0" d="M15.1,79c3.6,0.1,6.6,2.8,6.6,6.1v36.6c-0.1,3.3-3,5.9-6.6,6h-4.2c-3.7,0-6.8-2.7-6.8-6V85
			c0-3.3,3-6.1,6.8-6.1H15.1z M13.3,123.3c1.6,0,2.9-1.2,2.9-2.7V85.9c0-1.5-1.3-2.7-2.9-2.7h-0.8c-1.6,0.1-2.9,1.2-2.9,2.7v34.8
			c0,1.4,1.3,2.6,2.9,2.7H13.3z"/>
		<path class="st0" d="M44.4,79.5c3.6,0,6.9,2.7,6.9,6v12.3c0,4.6-2.5,8-7.8,8h-3.3v21.4h-3.9c-1.3,0-1.5-0.7-1.5-1V79.5H44.4z
			 M46,86.3C45.9,85,44.7,84,43.2,84h-2.9v17.2h2.9c1.5,0,2.7-1,2.9-2.3V86.3z"/>
		<path class="st0" d="M81.4,122.3c-0.6,1.2-1.5,3.1-1.7,3.5c-0.4,0.6-1.2,1.3-3,1.3H64.5V80.8c0.1-0.7,0.8-1.4,1.7-1.4h14.2
			L78.6,83c-0.3,0.6-1.1,1.4-2.9,1.4h-4.4c-0.8,0-1.3,0.5-1.3,1.2v14.2h8.2c-0.6,1.2-1.5,3.2-1.7,3.6c-0.4,0.6-1.1,1.3-2.9,1.3h-2.3
			c-0.7,0-1.3,0.5-1.3,1.2v16.6H81.4z"/>
		<path class="st0" d="M110.2,127.2h-2.5c-3,0-3.4-2.1-3.6-3.1l-5.9-23.6v26.6h-5.5V79.5h2.5c3,0,3.6,1.3,3.9,2.7l5.6,24.8V79.5h5.5
			V127.2z"/>
		<path class="st0" d="M131.7,91.5v-5.5c0-1.5-1.3-2.7-2.9-2.7c-1.6,0-2.9,1.2-2.9,2.7v4.6c0,2.8,2.4,6.4,2.4,6.4l6.5,11
			c2.7,4.4,2.4,7.6,2.4,7.6v6.1c0,3.3-3,6.1-6.8,6.1H127c-3.6-0.1-6.5-2.8-6.6-6.1v-4.9c0-1.6,0.8-2.3,1.5-2.7c0.5-0.1,2.7-1,4-1.6
			v8.3c0,1.4,1.3,2.6,2.9,2.6c1.6,0,2.9-1.2,2.9-2.7v-5.5c0-2.8-2.4-6.5-2.4-6.5l-6.5-11c-2.7-4.4-2.4-7.6-2.4-7.6v-4.9
			c0-3.3,3-6.3,6.8-6.3h3.4c3.6,0.1,6.6,3.1,6.6,6.3v1.8c0,1.6-0.8,2.3-1.5,2.7C135.3,90,133.2,90.9,131.7,91.5z"/>
		<path class="st0" d="M168.5,83c-0.3,0.6-1.1,1.3-2.9,1.3h-4.3c-0.8,0-1.3,0.5-1.4,1.2v41.7h-3.9c-1.3,0-1.5-0.7-1.5-1V84.3h-7.7
			V81c0-0.8,0.8-1.5,1.7-1.5h21.7L168.5,83z"/>
		<path class="st0" d="M193.8,127.2h-6L183,94.3l-4.8,32.9h-6l8.1-47.7h3c2.3,0,2.7,1.3,2.9,2.6L193.8,127.2z"/>
		<path class="st0" d="M219.8,121.6c0,3.3-2.9,5.9-6.5,6.1h-3.3c-3.8,0-6.8-2.7-6.8-6.1V85c0-3.3,3-6.1,6.8-6.1h3.3
			c3.6,0.1,6.5,2.8,6.5,6.1v7.3c0,1.6-0.8,2.3-1.4,2.6l-4,1.6V85.9c0-1.4-1.3-2.6-3-2.6c-1.6,0-2.9,1.2-2.9,2.6v34.8
			c0,1.5,1.3,2.7,2.9,2.7c1.7,0,3-1.2,3-2.7v-6.4c0-1.6,0.8-2.3,1.4-2.7c0.5-0.2,2.6-1,4-1.6V121.6z"/>
		<path class="st0" d="M243.4,127.2l-7.3-21.3v21.3h-5.4V81.3c0-1.5,1.1-1.8,1.7-1.8h3.6v17.4l6.7-17.2h5.7l-8.6,21.5l9.2,26.1
			H243.4z"/>
		<path class="st0" d="M298.5,91.5v-5.5c0-1.5-1.3-2.7-2.9-2.7c-1.6,0-2.9,1.2-2.9,2.7v4.6c0,2.8,2.4,6.4,2.4,6.4l6.5,11
			c2.7,4.4,2.4,7.6,2.4,7.6v6.1c0,3.3-3,6.1-6.8,6.1h-3.4c-3.6-0.1-6.5-2.8-6.6-6.1v-4.9c0-1.6,0.8-2.3,1.5-2.7c0.5-0.1,2.7-1,4-1.6
			v8.3c0,1.4,1.3,2.6,2.9,2.6c1.6,0,2.9-1.2,2.9-2.7v-5.5c0-2.8-2.4-6.5-2.4-6.5l-6.5-11c-2.7-4.4-2.4-7.6-2.4-7.6v-4.9
			c0-3.3,3-6.3,6.8-6.3h3.4c3.6,0.1,6.6,3.1,6.6,6.3v1.8c0,1.6-0.8,2.3-1.5,2.7C302.1,90,300,90.9,298.5,91.5z"/>
		<path class="st0" d="M331.8,121.6c0,3.3-3,5.7-6.5,5.8v0.1H321c-3.7,0-6.8-2.5-6.8-5.9V80.8c0.1-0.7,0.8-1.4,1.6-1.4h3.9v41.2
			c0,1.4,1.2,2.6,2.8,2.6h0.8c1.6,0,2.9-1.2,2.9-2.6V79.5h5.5V121.6z"/>
		<path class="st0" d="M365,127.2h-5.4v-24.6l-4.1,16.4h-1.7c-3.2,0-3.8-2.9-4.1-3.9l-3.2-12.5v24.6h-5.4V79.5h3.3
			c2.1,0,2.4,1.8,2.4,1.8l6.3,27.4l6-27.5c0.1-0.2,0.5-1.7,2.4-1.7h3.3V127.2z"/>
		<path class="st0" d="M398.4,127.2H393v-24.6l-4.1,16.4h-1.7c-3.2,0-3.8-2.9-4.1-3.9l-3.2-12.5v24.6h-5.4V79.5h3.3
			c2.1,0,2.4,1.8,2.4,1.8l6.3,27.4l6-27.5c0.1-0.2,0.5-1.7,2.4-1.7h3.3V127.2z"/>
		<path class="st0" d="M412.1,79.5c1.6,0,2.2,1.1,2.2,1.9v45.8h-3.9c-1.3,0-1.5-0.7-1.6-1V79.5H412.1z"/>
		<path class="st0" d="M446.3,83c-0.3,0.6-1.1,1.3-2.9,1.3h-4.3c-0.8,0-1.3,0.5-1.4,1.2v41.7h-3.9c-1.3,0-1.5-0.7-1.5-1V84.3h-7.7
			V81c0-0.8,0.8-1.5,1.7-1.5h21.7L446.3,83z"/>
		<path class="st0" d="M493.5,127.2h-2.4h-0.4c-2.7,0-3.2-2.9-3.3-3.3l-7.6-44.4h4.2c0.4,0,1.3,0.3,1.6,1.8l5.1,29.9l5.4-31.8h5.5
			L493.5,127.2z"/>
		<path class="st0" d="M526.2,127.2h-6l-4.8-32.9l-4.8,32.9h-6l8.1-47.7h3c2.3,0,2.7,1.3,2.9,2.6L526.2,127.2z"/>
		<path class="st0" d="M553.2,127.2h-2.5c-3,0-3.4-2.1-3.6-3.1l-5.9-23.6v26.6h-5.5V79.5h2.5c3,0,3.6,1.3,3.9,2.7l5.6,24.8V79.5h5.5
			V127.2z"/>
		<path class="st0" d="M580,121.6c0,3.3-2.9,5.9-6.5,6.1h-3.3c-3.8,0-6.8-2.7-6.8-6.1V85c0-3.3,3-6.1,6.8-6.1h3.3
			c3.6,0.1,6.5,2.8,6.5,6.1v7.3c0,1.6-0.8,2.3-1.4,2.6l-4,1.6V85.9c0-1.4-1.3-2.6-3-2.6c-1.6,0-2.9,1.2-2.9,2.6v34.8
			c0,1.5,1.3,2.7,2.9,2.7c1.7,0,3-1.2,3-2.7v-6.4c0-1.6,0.8-2.3,1.4-2.7c0.5-0.2,2.6-1,4-1.6V121.6z"/>
		<path class="st0" d="M601,79c3.6,0.1,6.6,2.8,6.6,6.1v36.6c-0.1,3.3-3,5.9-6.6,6h-4.2c-3.7,0-6.8-2.7-6.8-6V85
			c0-3.3,3-6.1,6.8-6.1H601z M599.2,123.3c1.6,0,2.9-1.2,2.9-2.7V85.9c0-1.5-1.3-2.7-2.9-2.7h-0.8c-1.6,0.1-2.9,1.2-2.9,2.7v34.8
			c0,1.4,1.3,2.6,2.9,2.7H599.2z"/>
		<path class="st0" d="M635.3,121.6c0,3.3-3,5.7-6.5,5.8v0.1h-4.2c-3.7,0-6.8-2.5-6.8-5.9V80.8c0.1-0.7,0.8-1.4,1.6-1.4h3.9v41.2
			c0,1.4,1.2,2.6,2.8,2.6h0.8c1.6,0,2.9-1.2,2.9-2.6V79.5h5.5V121.6z"/>
		<path class="st0" d="M657.2,127.2h-2.4h-0.4c-2.7,0-3.2-2.9-3.3-3.3l-7.6-44.4h4.2c0.4,0,1.3,0.3,1.6,1.8l5.1,29.9l5.4-31.8h5.5
			L657.2,127.2z"/>
		<path class="st0" d="M691.2,122.3c-0.6,1.2-1.5,3.1-1.7,3.5c-0.4,0.6-1.2,1.3-3,1.3h-12.2V80.8c0.1-0.7,0.8-1.4,1.7-1.4h14.2
			l-1.8,3.5c-0.3,0.6-1.1,1.4-2.9,1.4h-4.4c-0.8,0-1.3,0.5-1.3,1.2v14.2h8.2c-0.6,1.2-1.5,3.2-1.7,3.6c-0.4,0.6-1.1,1.3-2.9,1.3
			h-2.3c-0.7,0-1.3,0.5-1.3,1.2v16.6H691.2z"/>
		<path class="st0" d="M711.3,127.2v-17.4c0-2.3-1.4-3.1-2.8-3.1h-2.9v20.5h-5.5V79.5h10c3.6,0,6.7,2.7,6.7,6v14.7
			c0,0,0.2,3.7-2,4.2c2.1,1,2,4.5,2,4.5v18.3H711.3z M708.5,102c1.4,0,2.8-0.5,2.8-2.7V86.5c0-1.8-1.4-2.5-2.8-2.5h-2.9v18H708.5z"
			/>
	</g>
	<g>
		<g>
			<g>
				<g>
					<path class="st3" d="M815.5,127.2c-3.8,0-7.5-0.4-11.3-1.1c-8-1.5-15.5-4.6-22.3-9.1c-6.8-4.5-12.5-10.3-17-17
						c-4.3-6.5-7.3-13.8-8.8-21.5c-1.6-7.7-1.6-15.5-0.1-23.2c1.5-8,4.6-15.5,9.1-22.3c4.5-6.8,10.3-12.5,17-17
						c6.5-4.3,13.8-7.3,21.5-8.8c7.7-1.6,15.5-1.6,23.2-0.1c8,1.5,15.5,4.6,22.3,9.1c6.8,4.5,12.5,10.3,17,17
						c4.3,6.5,7.3,13.8,8.8,21.5c1.6,7.7,1.6,15.5,0.1,23.2c-1.5,8-4.6,15.5-9.1,22.3s-10.3,12.5-17,17c-6.5,4.3-13.8,7.3-21.5,8.8
						C823.5,126.8,819.5,127.2,815.5,127.2z"/>
				</g>
			</g>
		</g>
		<g>
			<g>
				<path class="st0" d="M816.5,44.4c3.7-5.6,11.5-6.9,16.9-2.6c4.7,3.8,5.5,10.6,2.2,15.6l-8.1,12.2l-2.8-1.8
					c-0.3-0.2-0.8,0-0.8,0.4l0.7,11.6c0,0.7,0.7,1.1,1.3,0.9l11-3.9c0.4-0.1,0.4-0.6,0.1-0.9l-2.8-1.9l8-12c5.9-8.9,4-21.1-4.8-27.3
					c-9-6.4-21.6-4-27.7,5.1l-1.5,2.3c-1.2,1.9-0.7,4.4,1.1,5.6v0c1.9,1.2,4.4,0.7,5.6-1.1L816.5,44.4z"/>
			</g>
			<g>
				<path class="st0" d="M814.7,88.7c-3.7,5.6-11.5,6.9-16.9,2.6c-4.7-3.8-5.5-10.6-2.2-15.6l8.1-12.2l2.8,1.8
					c0.3,0.2,0.8,0,0.8-0.4l-0.7-11.6c0-0.7-0.7-1.1-1.3-0.9l-11,3.9c-0.4,0.1-0.4,0.6-0.1,0.9L797,59l-8,12
					c-5.9,8.9-4,21.1,4.8,27.3c9,6.4,21.6,4,27.7-5.1l1.5-2.3c1.2-1.9,0.7-4.4-1.1-5.6l0,0c-1.9-1.2-4.4-0.7-5.6,1.1L814.7,88.7z"/>
			</g>
		</g>
	</g>
</g>
</svg>
