<?xml version="1.0" encoding="utf-8"?>
<!-- Generator: Adobe Illustrator 18.1.1, SVG Export Plug-In . SVG Version: 6.00 Build 0)  -->
<svg version="1.1" id="Layer_1" xmlns="http://www.w3.org/2000/svg" xmlns:xlink="http://www.w3.org/1999/xlink" x="0px" y="0px"
	 viewBox="0 0 1080 353.5" enable-background="new 0 0 1080 353.5" xml:space="preserve">
<g>
	<g>
		<g>
			<g>
				<path fill="#010101" d="M92.2,209.5c11,0,14.4,7.7,14.4,17.7v47.3c0,10-3.4,17.7-14.4,17.7H78.1c-11,0-14.4-7.7-14.4-17.7v-47.3
					c0-10,3.4-17.7,14.4-17.7H92.2z M89.7,280.1c4.8,0,4.8-5.8,4.8-11.1v-36.4c0-5.3,0-11.1-4.8-11.1h-9.3c-4.8,0-4.7,5.8-4.7,11.1
					V269c0,5.3-0.1,11.1,4.7,11.1H89.7z"/>
				<path fill="#010101" d="M159.8,227.1v16.5c0,10-3.4,17.7-14.2,17.7H130V292h-12.1v-82.6h27.6
					C156.4,209.5,159.8,217.2,159.8,227.1z M143.1,249.3c4.7,0,4.7-5.8,4.7-11.2v-5.6c0-5.3,0-11.1-4.7-11.1H130v27.9H143.1z"/>
				<path fill="#010101" d="M212.9,221.4h-29.6v27.9h22.2v12h-22.2v18.8h29.9v12h-42v-82.6h42v12H212.9z"/>
				<path fill="#010101" d="M267.3,209.6V292h-12l-18.8-52v52h-12v-82.4h12l18.8,52v-52H267.3z"/>
				<path fill="#010101" d="M319.2,209.5V292h-12.1v-82.6H319.2z"/>
				<path fill="#010101" d="M373.3,209.6V292h-12l-18.8-52v52h-12v-82.4h12l18.8,52v-52H373.3z"/>
				<path fill="#010101" d="M396.6,221.4v27.9h22.2v12h-22.2V292h-12v-82.6h41.9v12H396.6z"/>
				<path fill="#010101" d="M481.5,292h-13.7l-16.5-30.7h-3.4V292h-12.1v-82.6h27.6c11,0,14.4,7.7,14.4,17.7v16.5
					c0,9.4-3.1,16.9-12.8,17.7L481.5,292z M461,249.3c4.8,0,4.7-5.8,4.7-11.2v-5.6c0-5.3,0.1-11.1-4.7-11.1h-13.1v27.9H461z"/>
				<path fill="#010101" d="M531.3,292h-12.1l-2.4-20.8h-13l-2.4,20.8h-12.1l9.5-82.6h22.9L531.3,292z M515.5,259.1l-4.4-37.7h-1.6
					l-4.4,37.7H515.5z"/>
				<path fill="#010101" d="M582,280.5c-2.8,9.1-11.8,11.8-20.5,11.5c-9,0.1-15.4-1.9-18.8-7.8c-3.3-6-2.7-13.8-2.7-20.4h12
					c0,3.3-0.1,6.4,0.3,9.5c0.6,4.6,2.4,6.4,9.3,6.5c7.5-0.1,9.3-3,8.8-10.8c-0.4-5.3-2.8-9.1-7.7-13.1l-12-9.5
					c-7.8-6.1-11.1-12-10.4-20.9c1-12.7,10.7-16.4,21.4-16.1c8.5,0,15.2,2.7,18.6,9.3c2.3,4.1,2.8,9.8,2.7,16.1h-13
					c0-7,1-13.2-8.4-13.4c-4,0.1-6.7,0.6-8,2.7c-2.3,3.6-1.4,8,2.1,10.8l14.7,11.7c6.7,5.4,12,12,12.5,20.8
					C583.3,271.7,583.3,276.2,582,280.5z"/>
				<path fill="#010101" d="M633.9,209.5v12h-15.4V292h-12.1v-70.6h-15.4v-12H633.9z"/>
				<path fill="#010101" d="M689.6,292h-13.7l-16.5-30.7H656V292h-12.1v-82.6h27.6c11,0,14.4,7.7,14.4,17.7v16.5
					c0,9.4-3.1,16.9-12.8,17.7L689.6,292z M669.1,249.3c4.8,0,4.7-5.8,4.7-11.2v-5.6c0-5.3,0.1-11.1-4.7-11.1H656v27.9H669.1z"/>
				<path fill="#010101" d="M740.1,209.5v64.9c0,10-3.4,17.7-14.2,17.7h-14.2c-10.8,0-14.2-7.7-14.2-17.7v-64.9h12V269
					c0,5.3,0,11.1,4.7,11.1h9.4c4.7,0,4.7-5.8,4.7-11.1v-59.5H740.1z"/>
				<path fill="#010101" d="M782.3,235.1v-2.6c0-5.3,0-11.1-4.7-11.1h-9.4c-4.7,0-4.7,5.8-4.7,11.1V269c0,5.3,0,11.1,4.7,11.1h9.4
					c4.7,0,4.7-5.8,4.7-11.1v-2.6h12.1v8c0,10-3.6,17.7-14.4,17.7h-14.2c-10.8,0-14.2-7.7-14.2-17.7v-47.3c0-10,3.4-17.7,14.2-17.7
					H780c10.8,0,14.4,7.7,14.4,17.7v8H782.3z"/>
				<path fill="#010101" d="M844.3,209.5v12H829V292h-12.1v-70.6h-15.4v-12H844.3z"/>
				<path fill="#010101" d="M897,209.5v64.9c0,10-3.4,17.7-14.2,17.7h-14.2c-10.8,0-14.2-7.7-14.2-17.7v-64.9h12V269
					c0,5.3,0,11.1,4.7,11.1h9.4c4.7,0,4.7-5.8,4.7-11.1v-59.5H897z"/>
				<path fill="#010101" d="M954.1,292h-13.7l-16.5-30.7h-3.4V292h-12.1v-82.6H936c11,0,14.4,7.7,14.4,17.7v16.5
					c0,9.4-3.1,16.9-12.8,17.7L954.1,292z M933.6,249.3c4.8,0,4.7-5.8,4.7-11.2v-5.6c0-5.3,0.1-11.1-4.7-11.1h-13.1v27.9H933.6z"/>
				<path fill="#010101" d="M1005.1,221.4h-29.6v27.9h22.2v12h-22.2v18.8h29.9v12h-42v-82.6h42v12H1005.1z"/>
			</g>
		</g>
		<g>
			<path fill="#FFFFFF" d="M93.8,144.6v30.6c0,6.5-2.2,11.4-9.3,11.4h-9.1c-7.1,0-9.3-5-9.3-11.4v-30.6c0-6.5,2.2-11.4,9.3-11.4h9.1
				C91.6,133.2,93.8,138.2,93.8,144.6z M90.3,144.9c0-5.2-2.1-7.9-6.5-8.2H76c-4.3,0.3-6.5,3-6.5,8.2V175c0,5.2,2.1,7.9,6.5,8.3h7.8
				c4.3-0.4,6.5-3.1,6.5-8.3V144.9z M89.5,145v29.9c0,1.8-0.3,7.5-6.4,7.5h-6.4c-6.2,0-6.4-5.7-6.4-7.5c-0.1-10-0.1-19.9,0-29.9
				c0-1.8,0.2-7.5,6.4-7.5h6.4C89.2,137.5,89.5,143.2,89.5,145z M86.1,148.1c0-3.4,0-7.2-3.1-7.2h-6c-3.1,0-3,3.8-3,7.2v23.6
				c0,3.4-0.1,7.2,3,7.2h6c3.1,0,3.1-3.8,3.1-7.2V148.1z"/>
			<path fill="#FFFFFF" d="M128.3,144.6v10.7c0,6.5-2.2,11.4-9.2,11.4H109v19.9h-7.8v-53.5h17.9
				C126.1,133.2,128.3,138.2,128.3,144.6z M124.9,144.9c0-5.2-2.2-7.9-6.5-8.3h-13.7v46.7h0.9v-19.9h12.8c4.3-0.4,6.5-3.1,6.5-8.3
				V144.9z M124,145c0.1,10,0.1,0,0,10c0,1.8-0.2,7.5-6.3,7.5h-12.2v-24.9h12.2C123.8,137.5,124,143.2,124,145z M117.5,159
				c3,0,3-3.8,3-7.3v-3.6c0-3.4,0-7.2-3-7.2H109V159H117.5z"/>
			<path fill="#FFFFFF" d="M143.5,140.9V159h14.4v7.7h-14.4v12.2h19.4v7.7h-27.2v-53.5h27.2v7.7H143.5z M140,162.4v-24.9
				c8.8,0,14.1,0,19.4,0v-0.9c-6.7,0-13.5,0-20.2,0v46.7c6.7,0,13.5,0,20.2,0v-0.9c-5.3,0-10.6,0-19.4,0v-19h14.4v-0.9H140z"/>
			<path fill="#FFFFFF" d="M197.9,133.3v53.4h-7.7L178,153v33.7h-7.7v-53.4h7.7l12.2,33.7v-33.7H197.9z M194.6,136.7h-0.9v45.7h-0.8
				l-17.2-45.7h-1.9v46.7h0.8v-45.7h0.5l17.2,45.7h2.3V136.7z"/>
			<path fill="#FFFFFF" d="M232.6,179.2c-1.8,5.9-7.7,7.7-13.3,7.5c-5.8,0.1-10-1.2-12.2-5.1c-2.1-3.9-1.8-8.9-1.8-13.2h7.7
				c0,2.1-0.1,4.1,0.2,6.2c0.4,3,1.6,4.2,6,4.2c4.9-0.1,6-1.9,5.7-7c-0.3-3.4-1.8-5.9-5-8.5l-7.7-6.2c-5.1-4-7.2-7.7-6.7-13.6
				c0.6-8.2,6.9-10.6,13.8-10.4c5.5,0,9.9,1.8,12.1,6c1.5,2.7,1.8,6.4,1.8,10.4h-8.4c0-4.5,0.6-8.6-5.4-8.7
				c-2.6,0.1-4.3,0.4-5.2,1.8c-1.5,2.3-0.9,5.2,1.4,7l9.5,7.6c4.3,3.5,7.7,7.7,8.1,13.5C233.4,173.5,233.4,176.4,232.6,179.2z
				 M222.9,159.9l-9.5-7.6c-2.4-2.2-3.5-4.5-3.5-7.3c0-5.4,4.4-7.6,9.1-7.6c5.1-0.1,9.5,3.2,9.5,8.6h1c0-5.8-4.8-9.4-10-9.5
				c-1.8,0-3.3,0.1-5,0.6c-3.6,1.3-5.7,4-5.7,7.8c0,3.7,1.6,6,4.4,8.4c2.8,2.4,5.9,4.8,8.8,7.1c3.7,3,6.1,5.8,6.5,11
				c0.2,2.8,0.1,5.9-1.9,8.1c-2.2,2.5-5.7,2.7-8.8,2.6c-2.3-0.1-4.4-0.3-6-1.8c-1.8-1.8-2.2-4.4-2.2-8.6h-0.8c0,2.9,0.2,5.9,1.3,8
				c1.8,3.1,5.9,3.4,9,3.3c6.2-0.1,10.2-2.5,10.5-9.1C229.8,167.5,228,164,222.9,159.9z"/>
			<path fill="#FFFFFF" d="M266.3,133.2v7.7h-10v45.7h-7.8v-45.7h-10v-7.7H266.3z M262.8,136.7h-20.8v0.8h10v45.7h0.9v-45.7h10
				V136.7z"/>
			<path fill="#FFFFFF" d="M296.7,186.7h-7.8l-1.6-13.5h-8.4l-1.6,13.5h-7.8l6.2-53.5h14.8L296.7,186.7z M291.9,183.3h0.8l-5.3-46.7
				h-8.7l-5.3,46.7h0.8l1.6-13.6h14.7L291.9,183.3z M286.6,137.5l3.6,31.4h-14.4l3.6-31.4H286.6z M286.5,165.4l-2.9-24.4h-1
				l-2.9,24.4H286.5z"/>
			<path fill="#FFFFFF" d="M322.2,149.8v-1.7c0-3.4,0-7.2-3-7.2H313c-3,0-3,3.8-3,7.2v23.6c0,3.4,0,7.2,3,7.2h6.1c3,0,3-3.8,3-7.2
				v-1.7h7.8v5.2c0,6.5-2.3,11.4-9.3,11.4h-9.2c-7,0-9.2-5-9.2-11.4v-30.6c0-6.5,2.2-11.4,9.2-11.4h9.2c7,0,9.3,5,9.3,11.4v5.2
				H322.2z M325.6,145c0,0.4,0,0.8,0,1.4h0.9v-1.5c0-5.5-2.5-8.3-7.4-8.3H313c-5,0-7.4,2.8-7.4,8.3V175c0,5.5,2.4,8.3,7.4,8.3h6.1
				c4.9,0,7.4-2.8,7.4-8.3v-1.4h-0.9c0,0.5,0,0.9,0,1.3c0,1.8-0.2,7.5-6.3,7.5h-6.5c-6.1,0-6.3-5.7-6.3-7.5c-0.1-10-0.1-19.9,0-29.9
				c0-1.8,0.2-7.5,6.3-7.5h6.5C325.4,137.5,325.6,143.2,325.6,145z"/>
			<path fill="#FFFFFF" d="M366.2,186.7h-8.9l-12.2-22.8v22.8h-7.8v-53.5h7.8v20.8l11.1-20.8h8.9l-13.7,25.7L366.2,186.7z
				 M359.4,183.3h1l-13-24.3l12-22.3h-1l-11.7,21.9h-5v-21.9h-0.8v46.7h0.8v-23.9h5L359.4,183.3z"/>
			<path fill="#FFFFFF" d="M418.4,179.2c-1.8,5.9-7.7,7.7-13.3,7.5c-5.8,0.1-10-1.2-12.2-5.1c-2.1-3.9-1.8-8.9-1.8-13.2h7.7
				c0,2.1-0.1,4.1,0.2,6.2c0.4,3,1.6,4.2,6,4.2c4.9-0.1,6-1.9,5.7-7c-0.3-3.4-1.8-5.9-5-8.5l-7.7-6.2c-5.1-4-7.2-7.7-6.7-13.6
				c0.6-8.2,6.9-10.6,13.8-10.4c5.5,0,9.9,1.8,12.1,6c1.5,2.7,1.8,6.4,1.8,10.4h-8.4c0-4.5,0.6-8.6-5.4-8.7
				c-2.6,0.1-4.3,0.4-5.2,1.8c-1.5,2.3-0.9,5.2,1.4,7l9.5,7.6c4.3,3.5,7.7,7.7,8.1,13.5C419.3,173.5,419.3,176.4,418.4,179.2z
				 M408.8,159.9l-9.5-7.6c-2.4-2.2-3.5-4.5-3.5-7.3c0-5.4,4.4-7.6,9.1-7.6c5.1-0.1,9.5,3.2,9.5,8.6h1c0-5.8-4.8-9.4-10-9.5
				c-1.8,0-3.3,0.1-5,0.6c-3.6,1.3-5.7,4-5.7,7.8c0,3.7,1.6,6,4.4,8.4c2.8,2.4,5.9,4.8,8.8,7.1c3.7,3,6.1,5.8,6.5,11
				c0.2,2.8,0.1,5.9-1.9,8.1c-2.2,2.5-5.7,2.7-8.8,2.6c-2.3-0.1-4.4-0.3-6-1.8c-1.8-1.8-2.2-4.4-2.2-8.6h-0.8c0,2.9,0.2,5.9,1.3,8
				c1.8,3.1,5.9,3.4,9,3.3c6.2-0.1,10.2-2.5,10.5-9.1C415.7,167.5,413.8,164,408.8,159.9z"/>
			<path fill="#FFFFFF" d="M454.3,133.2v42.1c0,6.5-2.2,11.4-9.2,11.4h-9.2c-7,0-9.2-5-9.2-11.4v-42.1h7.7v38.5c0,3.4,0,7.2,3,7.2
				h6.1c3,0,3-3.8,3-7.2v-38.5H454.3z M450.9,136.7h-0.8V175c-0.1,1.8-0.3,7.5-6.4,7.5h-6.5c-6.1,0-6.3-5.7-6.3-7.5
				c-0.1-6.5-0.1-31.8-0.1-38.3h-0.8v38.4c0,5.2,2.2,7.9,6.5,8.2h7.7c4.4-0.3,6.5-3,6.5-8.2V136.7z"/>
			<path fill="#FFFFFF" d="M502.1,133.2v53.5h-7.8v-29.6l-8.8,29.6h-7.2l-8.8-29.6v29.6h-7.8v-53.5h7.8l12.4,41.4l12.4-41.4H502.1z
				 M498.6,136.6h-2.1l-13.8,45.7c-0.5,0-0.9,0-1.4,0l-13.9-45.7h-2v46.7h0.8v-45.7h0.6l13.8,45.7h2.8l13.8-45.7h0.6v45.7h0.9V136.6
				z"/>
			<path fill="#FFFFFF" d="M549.9,133.2v53.5H542v-29.6l-8.8,29.6h-7.2l-8.8-29.6v29.6h-7.8v-53.5h7.8l12.4,41.4l12.4-41.4H549.9z
				 M546.4,136.6h-2.1l-13.8,45.7c-0.5,0-0.9,0-1.4,0l-13.9-45.7h-2v46.7h0.8v-45.7h0.6l13.8,45.7h2.8l13.8-45.7h0.6v45.7h0.9V136.6
				z"/>
			<path fill="#FFFFFF" d="M565.1,133.2v53.5h-7.8v-53.5H565.1z M561.6,136.6h-0.9v46.7h0.9V136.6z"/>
			<path fill="#FFFFFF" d="M599.3,133.2v7.7h-10v45.7h-7.8v-45.7h-10v-7.7H599.3z M595.8,136.7h-20.8v0.8h10v45.7h0.9v-45.7h10
				V136.7z"/>
			<path fill="#FFFFFF" d="M651.4,168.1v7.1c0,6.5-2.2,11.4-9.3,11.4h-17.9v-53.5h12.5c9.9,0,11.9,4.6,11.9,11.7v6.3
				c0,2.3-1.8,5.2-3.1,5.1C651.4,157.9,651.4,162.8,651.4,168.1z M647.9,165.2c0-5-2-7.7-6.3-8.2c2.3-1.2,3.5-3.7,3.5-7.4
				c0-1.6,0-3.1,0-4.7c0-5-2.1-8.3-7.5-8.3c-3.3,0-6.6,0-10,0v46.7h12.8c5,0,7.4-2.8,7.4-8.3C647.9,171.7,647.9,168.5,647.9,165.2z
				 M637.8,157c-3,0-6.2,0-9.3,0v-19.5c3.1,0,6.3,0,9.3,0c6.2,0,6.4,5.7,6.4,7.5c0,1.5,0,3,0,4.5C644.2,151.3,644,157,637.8,157z
				 M647,165.3c0.1,3.2,0,6.5,0,9.6c0,1.8-0.2,7.5-6.3,7.5h-12.2v-24.5c3,0,6.1,0,9.1,0h3C646.8,157.8,647,163.5,647,165.3z
				 M632,153.5h6.6c2.6,0,2.1-2.5,2.1-5.2v-4.1c0-2-0.6-3.2-2.7-3.2H632V153.5z M640.5,178.9c3.1,0,3-3.8,3-7.2v-3.9
				c0-3.7-0.6-6.5-4.1-6.5H632v17.6H640.5z"/>
			<path fill="#FFFFFF" d="M666.6,140.9V159H681v7.7h-14.4v12.2H686v7.7h-27.2v-53.5H686v7.7H666.6z M663.1,162.4v-24.9
				c8.8,0,14.1,0,19.4,0v-0.9c-6.7,0-13.5,0-20.2,0v46.7c6.7,0,13.5,0,20.2,0v-0.9c-5.3,0-10.6,0-19.4,0v-19h14.4v-0.9H663.1z"/>
			<path fill="#FFFFFF" d="M722.5,186.7h-8.9l-10.7-19.9h-2.2v19.9h-7.8v-53.5h17.9c7.1,0,9.3,5,9.3,11.4v10.7c0,6.1-2,11-8.3,11.4
				L722.5,186.7z M715.7,183.3h1L706,163.3h4.1c4.3-0.4,6.5-3,6.5-8.2v-10.2c0-5.2-2.1-7.9-6.5-8.2h-13.7v46.6h0.9v-19.9h7.7
				L715.7,183.3z M715.7,155c0,1.8-0.2,7.5-6.4,7.5h-12.1v-25h12.1c6.2,0,6.4,5.7,6.4,7.5C715.8,154.9,715.8,145.1,715.7,155z
				 M709.2,159c3.1,0,3-3.8,3-7.3v-3.6c0-3.4,0.1-7.2-3-7.2h-8.5V159H709.2z"/>
			<path fill="#FFFFFF" d="M755.2,178.9v7.7H728v-53.5h7.8v45.7H755.2z M751.8,182.3c-5.3,0-10.6,0-19.4,0v-45.7h-0.9v46.7
				c6.8,0,13.6,0,20.3,0V182.3z"/>
			<path fill="#FFFFFF" d="M770.5,133.2v53.5h-7.8v-53.5H770.5z M767,136.6H766v46.7h0.9V136.6z"/>
			<path fill="#FFFFFF" d="M805.5,133.3v53.4h-7.7L785.6,153v33.7h-7.7v-53.4h7.7l12.2,33.7v-33.7H805.5z M802.2,136.7h-0.9v45.7
				h-0.8l-17.2-45.7h-1.9v46.7h0.8v-45.7h0.5l17.2,45.7h2.3V136.7z"/>
		</g>
		<g>
			<g>
				<path fill="#010101" d="M64.6,144.3V175c0,7.2,2.8,12.9,10.8,12.9h9.1c1.9,0,3.5-0.3,4.8-0.9c-2.2,2.9-4.7,5.2-8.2,5.2h-9
					c-8,0-10.8-5.7-10.8-12.9v-29.9v0.1c0-4.8,1.1-7.5,4.3-11.3V138C64.9,139.9,64.6,142,64.6,144.3z M83.8,177
					c0.9-0.8,0.8-4.2,0.8-5.5v-23.6c0-2.4,0.4-5.7-1.9-5.7h-5.7c-0.3,0-0.6,0.1-0.7,0.3c-0.7,0.6-0.8,2.5-0.8,4
					c4.5,0,4.8,0.1,5.1,0.3c0.9,0.7,0.8,4.2,0.8,5.4v25.1L83.8,177z"/>
				<path fill="#010101" d="M108,187.9l-3.5,4.2h-8.1v-53.2l3.3-4v52.9H108z M115.8,157.3v-1.5v-4.6c0-1.8,0.1-4.8-1.6-4.8h-3.8
					v-4.2c7.4,0,7.7,0.1,7.8,0.3c0.8,0.6,0.8,3.4,0.8,4.4v4.7c0,1.3,0.1,4.7-0.8,5.5c-0.2,0.2-0.5,0.2-0.7,0.2H115.8z M115.8,172.2
					h-5.3V168h8.7c1.4,0,2.7-0.2,3.8-0.6C118.2,172.1,117,172.2,115.8,172.2z"/>
				<path fill="#010101" d="M162.7,187.9l-3.5,4.2H131v-55l3.3-4v54.7H162.7z M161.9,142.1l-3.5,4.2H145v-4.2H161.9z M157,168
					l-3.6,4.2H145V168H157z"/>
				<path fill="#010101" d="M177,188l-3.5,4.2h-8V139l3.3-4V188H177z M196.9,188l-3.5,4.2h-7.7l-6.3-17.6v-13.5l9.6,26.8H196.9z
					 M185.4,149.1V139l3.3-4v23.3L185.4,149.1z"/>
				<path fill="#010101" d="M214,192.1c-4.5-0.3-8.9-1.6-11.3-5.8c-1.7-2.9-1.9-6.3-2-9.5v-2.6l3.3-4.1c0,4.1,0,8.3,2,11.9
					c2.8,4.9,8.1,5.9,13.3,5.8c3.2,0.1,6.5-0.4,9.1-1.8c-1.7,2.1-3.4,4.1-5.6,5.2C220.9,192.3,216.6,192.2,214,192.1z M204.1,143.2
					c-0.6,6.6,2.2,10.8,7.3,14.8l7.7,6.2c2.5,2,4.2,4.2,4.4,7.5c0.1,1.2,0.2,3.6-0.7,4.5c-0.6,0.6-1.6,0.8-2.6,0.9v-1.2
					c-0.3-3.3-1.9-5.4-4.4-7.5l-7.7-6.1c-5.1-4.1-7.8-8.2-7.3-14.8c0.2-2.7,1.9-4.4,3.7-6.5C204.3,141.7,204.2,142.4,204.1,143.2z
					 M215.4,143.2c0.6-1.1,2.9-1.1,4-1.1c4.6,0.4,4,2.9,4,7.2v1.4h8.9l-3.5,4.3h-3.8l-4.8-3.9c0-1.4-0.2-2.9-0.7-3.6
					c-0.6-1-2.2-1.1-3.3-1.2c-0.3,0-0.6,0-0.9,0.1C214.7,145.5,214.8,144.3,215.4,143.2z"/>
				<path fill="#010101" d="M255.3,187.9l-3.6,4.2h-8v-45.7h-10V139l3.3-4v7.1h10v45.7H255.3z M265.2,142.1l-3.5,4.2h-4v-4.2H265.2z
					"/>
				<path fill="#010101" d="M277.1,187.9l-3.5,4.2h-9l6.2-54.8l3.3-4l-6.2,54.5H277.1z M282.7,178.7h-3l0.6-4.2h5.8l1.6,13.5h8.5
					l-3.3,4.2h-8.5L282.7,178.7z M284.8,163.6h-3.4l1.7-14.8L284.8,163.6z"/>
				<path fill="#010101" d="M300.8,144.3V175c0,7.2,2.8,12.9,10.7,12.9h9.2c2.8,0,4.9-0.6,6.5-1.8c-2.4,3.1-5.1,6.1-8.9,6.1h-10.1
					c-7.9,0-10.7-5.7-10.7-12.9v-31.4c0.1-3.6,1.3-6.1,4.2-9.8C300.8,140.5,300.8,142,300.8,144.3z M312.3,142.4
					c0.2-0.2,0.6-0.3,0.7-0.3h6.1c0.3,0,0.6,0.1,0.7,0.3c0.8,0.6,0.8,3.4,0.8,4.4v4.1h8.8l-3.5,4.2h-8.6v-4.1c0-1,0-3.9-0.8-4.5
					c-0.2-0.2-0.5-0.3-5.1-0.3C311.5,144.9,311.6,143,312.3,142.4z M319.8,177c-0.2,0.2-0.5,0.2-0.7,0.2h-1.8v-2.7l3.3-4.1
					C320.7,172.7,320.8,176.2,319.8,177z"/>
				<path fill="#010101" d="M344.2,187.9l-3.5,4.2h-8v-53.2l3.3-4v52.9H344.2z M346.7,145.9l1.8-3.2l2.9-3.6l-4.6,8.8V145.9z
					 M365.3,187.9l-3.6,4.2h-8.6l-6.5-12.2v-10.5l9.8,18.4H365.3z"/>
				<path fill="#010101" d="M399.8,192.1c-4.5-0.3-8.9-1.6-11.3-5.8c-1.7-2.9-1.9-6.3-2-9.5v-2.6l3.3-4.1c0,4.1,0,8.3,2,11.9
					c2.8,4.9,8.1,5.9,13.3,5.8c3.2,0.1,6.5-0.4,9.1-1.8c-1.7,2.1-3.4,4.1-5.6,5.2C406.7,192.3,402.4,192.2,399.8,192.1z
					 M389.9,143.2c-0.6,6.6,2.2,10.8,7.3,14.8l7.7,6.2c2.5,2,4.2,4.2,4.4,7.5c0.1,1.2,0.2,3.6-0.7,4.5c-0.6,0.6-1.6,0.8-2.6,0.9
					v-1.2c-0.3-3.3-1.9-5.4-4.4-7.5l-7.7-6.1c-5.1-4.1-7.8-8.2-7.3-14.8c0.2-2.7,1.9-4.4,3.7-6.5C390.1,141.7,390,142.4,389.9,143.2
					z M401.3,143.2c0.6-1.1,2.9-1.1,4-1.1c4.6,0.4,4,2.9,4,7.2v1.4h8.9l-3.5,4.3h-3.8l-4.8-3.9c0-1.4-0.2-2.9-0.7-3.6
					c-0.6-1-2.2-1.1-3.3-1.2c-0.3,0-0.6,0-0.9,0.1C400.5,145.5,400.6,144.3,401.3,143.2z"/>
				<path fill="#010101" d="M432.5,192.1c-7.9,0-10.7-5.7-10.7-12.9v-40.3l3.3-4v40c0,7.2,2.8,12.9,10.7,12.9h9.2
					c1.8,0,3.4-0.3,4.7-0.8c-2.2,2.7-4.6,5-8,5.1H432.5z M445.1,171.5c0,1.3,0.1,4.7-0.8,5.5c-0.2,0.2-0.5,0.2-2.5,0.2
					c0-0.6,0-1.1,0-38.3l3.3-4.1V171.5z"/>
				<path fill="#010101" d="M468.5,187.9l-3.5,4.2h-8.1v-53.2l3.3-4.1v53H468.5z M484.6,187.9l-3.6,4.2h-7.1l-2.9-9.7v-15.5
					l6.2,20.9H484.6z M480.9,165.7l7.7-25.7l3.2-3.8l-9.9,32.9L480.9,165.7z M501.2,187.9l-3.5,4.2h-8.2v-13.9l3.3-11.3v20.9H501.2z
					"/>
				<path fill="#010101" d="M516.3,187.9l-3.5,4.2h-8.1v-53.2l3.3-4.1v53H516.3z M532.3,187.9l-3.6,4.2h-7.1l-2.9-9.7v-15.5
					l6.2,20.9H532.3z M528.6,165.7l7.7-25.7l3.2-3.8l-9.9,32.9L528.6,165.7z M548.9,187.9l-3.5,4.2h-8.2v-13.9l3.3-11.3v20.9H548.9z
					"/>
				<path fill="#010101" d="M564.1,187.9l-3.6,4.2h-8v-55l3.3-4v54.7H564.1z"/>
				<path fill="#010101" d="M588.3,187.9l-3.6,4.2h-8v-45.7h-10V139l3.3-4v7.1h10v45.7H588.3z M598.3,142.1l-3.5,4.2h-4v-4.2H598.3z
					"/>
				<path fill="#010101" d="M622.8,187.9h19.3c2,0,3.7-0.4,5-1c-2.2,2.9-4.7,5.3-8.3,5.3h-19.3v-55.1l3.3-4V187.9z M639.1,151.7
					c0.4-0.5,0.2-3.1,0.2-3.7v-4.1c0-0.7,0-1.8-1.2-1.8h-4.6v4.2h1.3c0.9,0,1.2,0.6,1.2,1.8v3.6H639.1z M641.2,177
					c0.9-0.8,0.8-4.2,0.8-5.5v-3.9c0-1.2,0-3.7-0.9-4.6c-0.5-0.4-1.1-0.5-1.8-0.5h-5.9v4.2c3.2,0,3.9,0.1,4.3,0.5
					c0.9,0.9,0.9,3.4,0.9,4.6c0,4.2,0.1,4.8,0,5.3C640.8,177.2,641.1,177.2,641.2,177z"/>
				<path fill="#010101" d="M685.8,187.9l-3.5,4.2h-28.2v-55l3.3-4v54.7H685.8z M685,142.1l-3.5,4.2h-13.4v-4.2H685z M680.1,168
					l-3.6,4.2h-8.4V168H680.1z"/>
				<path fill="#010101" d="M699.7,187.9l-3.5,4.2h-8.1v-53.2l3.3-4v52.9H699.7z M707.5,157.3v-6.1c0-1,0-3.9-0.8-4.5
					c-0.2-0.2-0.5-0.3-0.7-0.3h-3.7v-4.2h7c0.3,0,0.6,0.1,0.7,0.3c0.8,0.6,0.8,3.4,0.8,4.4v4.7c0,1.3,0.1,4.7-0.8,5.5
					c-0.2,0.2-0.5,0.2-0.7,0.2H707.5z M721.5,187.9l-3.6,4.2h-8.5l-7.2-13.6V168l10.5,19.8H721.5z M715,169.4l-1-1.8
					c1.2-0.3,2.2-0.7,3-1.3C716.5,167.5,715.9,168.5,715,169.4z"/>
				<path fill="#010101" d="M754.2,187.9l-3.5,4.2h-27.5v-53.2l3.3-4v52.9H754.2z"/>
				<path fill="#010101" d="M769.4,187.9l-3.6,4.2h-8v-55l3.3-4v54.7H769.4z"/>
				<path fill="#010101" d="M784.6,188l-3.5,4.2h-8V139l3.3-4V188H784.6z M804.5,188l-3.5,4.2h-7.7l-6.3-17.6v-13.5l9.6,26.8H804.5z
					 M793,149.1V139l3.3-4v23.3L793,149.1z"/>
			</g>
		</g>
		<g>
			<g>
				<g>
					<path fill="#FCD602" d="M73.2,95.7c0.1,0.8-0.3,1.7-1.1,1.8c-5.6,1.3-10.1-4.4-9.3-10.1c0.9-6.7,6-15.1,14-15
						c3.6,0,5.6,2.6,5.6,6.2c0,2-0.9,4.9-1.5,7.2c-1.1,4.2-2.5,9.5-3.1,14c-0.6,4.6-0.4,8.3,1.9,8.5c3.4,0.5,5.6-5.6,8.2-13
						c1.5-4.1,3-8.6,5.2-12.8c0.4-0.9,0.8-1.7,1.2-2.2c1-1.7,3.4-0.1,2.6,1.5c-0.5,0.7-0.9,1.5-1.3,2.3c-2.1,4.4-6.2,18.4-4,22.9
						c0.4,0.9,1.2,1.5,2.5,1.5c4.4-0.1,9.3-11.1,14.3-22.8c1.9-4.2,3.7-8.6,5.6-12.5c0.9-1.9,3.4-0.4,2.7,1.3
						c-1.9,3.9-3.8,8.1-5.6,12.3c-5.5,12.6-10.7,24.6-17.1,24.7c-4.1,0-5.8-2.9-6.1-6.4c-0.1-0.8-0.4-0.7-0.7-0.1
						c-2,4.2-4.3,6.7-7.9,6.3c-4.6-0.6-5.3-5.7-4.5-11.9c0.7-4.7,2-10.1,3.2-14.4c0.5-2.1,1.5-5,1.5-6.5c0-1.9-0.7-3.2-2.6-3.2
						c-6.4-0.1-10.4,7.1-11,12.4c-0.5,3.6,2.1,7.7,5.6,6.8C72.2,94.4,73,94.9,73.2,95.7z"/>
					<path fill="#FCD602" d="M116.7,108.2c6.7-0.3,10.3-5.2,13.2-10.6c0.4-0.7,1.3-1,2.1-0.6c0.7,0.4,1,1.3,0.6,2
						c-3.5,6.4-7.7,11.9-15.7,12.2c-2.6,0.1-5-0.6-6.5-2.3c-5.4-6,3.4-21,11.4-21.4c2.8-0.1,4.9,1.3,5.2,4c0.3,3.4-2.4,6.9-5.8,9.7
						c-2.7,2.2-6,3.9-8.5,4.6c-0.3,0.1-0.5,0.3-0.5,0.5C112.9,107.7,114.6,108.2,116.7,108.2z M119.1,98.8c2.7-2.2,4.9-4.9,4.6-7.2
						c-0.1-0.9-0.9-1.1-2-1.1c-4.2,0.3-8.8,6.5-9.9,11.4c-0.1,0.9-0.2,1,0.6,0.8C114.4,101.9,116.9,100.6,119.1,98.8z"/>
					<path fill="#FCD602" d="M137.6,73.4c0.3-0.8,1.1-1.3,1.9-1s1.2,1.1,0.9,1.9c-2.9,9.1-5.9,18.3-8.9,27.4
						c-0.6,1.9-1.9,5.5,0.2,6.3c1.6,0.5,3.6-1.3,5.4-3.4c2.1-2.5,3.8-5.7,4.6-7.1c0.4-0.7,1.3-1,2.1-0.6c0.7,0.4,1,1.3,0.6,2
						c-2,3.6-7.7,14-13.6,11.9c-4.3-1.6-3.3-6.2-2.2-9.6L137.6,73.4z"/>
					<path fill="#FCD602" d="M150.9,99.7c-0.5-0.7-0.5-1.6,0.2-2.1c1.5-1.2,3-2.8,3.5-4.5c0.3-0.9,0.3-1.6-0.3-2.2
						c-1.6-1.5-4.8,1.1-6.2,2.5c-2.4,2.5-5.2,7.2-5.1,10.8c0.1,3,2.3,4,5,3.9c6.8-0.3,10.3-5.2,13.2-10.6c0.4-0.7,1.3-1,2-0.6
						c0.7,0.4,1,1.3,0.6,2c-3.4,6.4-7.6,11.9-15.7,12.2c-4.4,0.1-8-2.1-8.1-6.7c-0.3-7.4,8.6-18.9,14.8-16.6
						c0.7,0.3,1.4,0.7,1.9,1.4c2.9,3.5-0.7,8.2-3.7,10.7C152.4,100.4,151.4,100.3,150.9,99.7z"/>
					<path fill="#FCD602" d="M161.9,107.6c-2.1-3.3-1.6-7.7-0.1-11.6c1-2.6,2.5-4.7,4.2-6.1c2.1-1.7,4.4-2.6,6.2-2.4
						c5.6,0.5,7.1,5.8,6.2,11.3c-0.1,0.5-0.7,3.4-2.2,6.2c4.3,6,9.4-4,11.2-7.4c0.4-0.7,1.3-1,2-0.6c0.7,0.4,1,1.3,0.6,2.1
						c-2.2,4-6,11.2-11.2,10.8c-1.8-0.1-3.2-1.1-4.3-2.3c-0.3,0.4-0.5,0.6-0.9,0.9c-1.6,1.6-3.5,2.6-5.6,2.6
						C165.5,111,163.2,109.8,161.9,107.6z M174.1,91.4c-1.3-1.5-3.3-1.7-6.2,0.7c-1.3,1.1-2.6,2.8-3.4,4.9c-1.2,3-1.7,6.5-0.2,9
						c2.4,3.6,6.5,1.3,8.3-1.4C171,100.6,171.5,94.6,174.1,91.4z M174.5,101.4c0.8-2.1,1.1-4.4,0.9-6.4
						C174.5,96.8,174.1,99.2,174.5,101.4z"/>
					<path fill="#FCD602" d="M192.3,87.5c0.8,0.3,1.2,1.1,0.9,1.9c0.1,0.3,0.1,0.3,0.4,0.1c1.3-0.9,2.4-1.5,3.6-1.8
						c3-0.8,5.4,0.5,6.5,2.6c0.3,0.6,0.7,0.7,1.1,0.2c1.7-1.6,3.4-2.5,4.9-2.8c4.7-1.2,8.1,2.6,6.9,7c-0.9,2.6-1.6,4.8-2.2,6.5
						c-0.5,1.8-1.9,5.8-0.5,6.5c0.6,0.3,1.6,0.2,2.2-0.1c3-1.2,6.3-6.6,8.3-10.3c0.4-0.7,1.3-1,2-0.6s1,1.3,0.6,2.1
						c-2.4,4.5-5.8,10.1-9.8,11.6c-1.5,0.6-3.3,0.7-4.7-0.1c-3.7-1.9-1.8-7.5-1-10.1c0.5-1.7,1.3-4,2.1-6.5
						c1.1-4.2-4.5-6.2-10.6,3.4c-0.5,1.5-1,3-1.5,4.6c-0.6,1.9-1.3,4.4-0.7,7.2c0.2,0.8-0.3,1.6-1.1,1.8c-0.8,0.2-1.6-0.3-1.8-1.1
						c-0.8-3.7,0.1-6.7,0.8-8.9c0.7-2.1,1.3-4,2.3-7c1.1-4-4-6-9.8,2.3c-0.6,0.8-0.7,1.1-1,2l-3.8,11.8c-0.3,0.8-1.1,1.2-1.9,0.9
						c-0.8-0.2-1.2-1.1-0.9-1.9c2.2-6.9,4.4-13.8,6.6-20.6C190.6,87.7,191.5,87.3,192.3,87.5z"/>
					<path fill="#FCD602" d="M230.9,108.2c6.7-0.3,10.3-5.2,13.2-10.6c0.4-0.7,1.3-1,2.1-0.6c0.7,0.4,1,1.3,0.6,2
						c-3.5,6.4-7.7,11.9-15.7,12.2c-2.6,0.1-5-0.6-6.5-2.3c-5.4-6,3.4-21,11.4-21.4c2.8-0.1,4.9,1.3,5.2,4c0.3,3.4-2.4,6.9-5.8,9.7
						c-2.7,2.2-6,3.9-8.5,4.6c-0.3,0.1-0.5,0.3-0.5,0.5C227.2,107.7,228.9,108.2,230.9,108.2z M233.4,98.8c2.7-2.2,4.9-4.9,4.6-7.2
						c-0.1-0.9-0.9-1.1-2-1.1c-4.2,0.3-8.8,6.5-9.9,11.4c-0.1,0.9-0.2,1,0.6,0.8C228.7,101.9,231.2,100.6,233.4,98.8z"/>
					<path fill="#FCD602" d="M269.5,86.7c0.8,0,1.5,0.7,1.5,1.5c0,0.9-0.7,1.5-1.5,1.5h-2c-0.8,0-0.9-0.1-1.2,0.7l-3.7,11.3
						c-0.6,1.9-1.8,5.6,0.3,6.3c1.5,0.6,3.5-1.2,5.3-3.4c2.1-2.6,3.8-5.7,4.6-7.1c0.4-0.7,1.3-1,2.1-0.6c0.7,0.4,1,1.3,0.6,2.1
						c-2,3.6-7.7,14-13.6,11.9c-4-1.5-3.4-5.6-2.5-8.6l3.9-11.9c0.1-0.6,0.1-0.7-0.6-0.7h-2c-0.8,0-1.5-0.7-1.5-1.5
						c0-0.8,0.7-1.5,1.5-1.5h3.2c0.7,0,0.7-0.4,0.9-1.1l4-12.2c0.3-0.8,1.1-1.2,1.9-0.9c0.8,0.3,1.2,1.1,0.9,1.9l-3.8,11.8
						c-0.3,0.7,0.1,0.6,0.7,0.6H269.5z"/>
					<path fill="#FCD602" d="M273.4,107.6c-2.1-3.3-1.6-7.7-0.1-11.6c1-2.6,2.5-4.7,4.2-6.1c2.1-1.7,4.4-2.6,6.2-2.4
						c5.6,0.5,7.1,5.8,6.2,11.3c-0.1,0.5-0.7,3.4-2.2,6.2c4.3,6,9.4-4,11.2-7.4c0.4-0.7,1.3-1,2-0.6c0.7,0.4,1,1.3,0.6,2.1
						c-2.2,4-6,11.2-11.2,10.8c-1.8-0.1-3.2-1.1-4.3-2.3c-0.3,0.4-0.5,0.6-0.9,0.9c-1.6,1.6-3.5,2.6-5.6,2.6
						C277,111,274.7,109.8,273.4,107.6z M285.6,91.4c-1.3-1.5-3.3-1.7-6.2,0.7c-1.3,1.1-2.6,2.8-3.4,4.9c-1.2,3-1.7,6.5-0.2,9
						c2.4,3.6,6.5,1.3,8.3-1.4C282.5,100.6,283,94.6,285.6,91.4z M286,101.4c0.8-2.1,1.1-4.4,0.9-6.4C286,96.8,285.6,99.2,286,101.4
						z"/>
					<path fill="#FCD602" d="M324.2,86.7c0.8,0,1.5,0.7,1.5,1.5c0,0.9-0.7,1.5-1.5,1.5h-2c-0.8,0-0.9-0.1-1.2,0.7l-3.7,11.3
						c-0.6,1.9-1.8,5.6,0.3,6.3c1.5,0.6,3.5-1.2,5.3-3.4c2.1-2.6,3.8-5.7,4.6-7.1c0.4-0.7,1.3-1,2.1-0.6c0.7,0.4,1,1.3,0.6,2.1
						c-2,3.6-7.7,14-13.6,11.9c-4-1.5-3.4-5.6-2.5-8.6l3.9-11.9c0.1-0.6,0.1-0.7-0.6-0.7h-2c-0.8,0-1.5-0.7-1.5-1.5
						c0-0.8,0.7-1.5,1.5-1.5h3.2c0.7,0,0.7-0.4,0.9-1.1l4-12.2c0.3-0.8,1.1-1.2,1.9-0.9s1.2,1.1,0.9,1.9l-3.8,11.8
						c-0.3,0.7,0.1,0.6,0.7,0.6H324.2z"/>
					<path fill="#FCD602" d="M335.3,73.4c0.3-0.8,1.1-1.3,1.9-1c0.8,0.3,1.3,1.1,1,1.9l-4.7,14.4c0,0.3-0.2,1.1,0.3,0.6
						c1.2-0.8,2.3-1.3,3.4-1.6c4.7-1.2,8.1,2.6,6.9,7.1c-0.8,2.4-1.7,4.8-2.4,7.2c-0.7,2-1.6,5.2-0.3,5.9c0.7,0.3,1.6,0.1,2.2-0.1
						c3-1.2,6.3-6.7,8.3-10.3c0.4-0.7,1.3-1,2-0.6c0.7,0.4,1,1.3,0.6,2c-2.4,4.6-5.9,10.1-9.9,11.7c-1.4,0.5-3.2,0.7-4.6-0.1
						c-3.3-1.7-2.2-6.4-1.3-9.1c0.8-2.5,1.7-5,2.4-7.4c1.1-4-4-6-9.6,2c-0.8,1.1-0.9,1.5-1.3,2.8l-3.6,11.2c-0.3,0.8-1.1,1.3-1.9,1
						c-0.8-0.3-1.2-1.1-0.9-1.9L335.3,73.4z"/>
					<path fill="#FCD602" d="M358.5,108.2c6.7-0.3,10.3-5.2,13.2-10.6c0.4-0.7,1.3-1,2.1-0.6c0.7,0.4,1,1.3,0.6,2
						c-3.5,6.4-7.7,11.9-15.7,12.2c-2.6,0.1-5-0.6-6.5-2.3c-5.4-6,3.4-21,11.4-21.4c2.8-0.1,4.9,1.3,5.2,4c0.3,3.4-2.4,6.9-5.8,9.7
						c-2.7,2.2-6,3.9-8.5,4.6c-0.3,0.1-0.5,0.3-0.5,0.5C354.7,107.7,356.4,108.2,358.5,108.2z M360.9,98.8c2.7-2.2,4.9-4.9,4.6-7.2
						c-0.1-0.9-0.9-1.1-2-1.1c-4.2,0.3-8.8,6.5-9.9,11.4c-0.1,0.9-0.2,1,0.6,0.8C356.2,101.9,358.7,100.6,360.9,98.8z"/>
				</g>
			</g>
		</g>
		<g>
			<g>
				<g>
					<g>
						<path fill="#E92348" d="M955.3,183.4c-3.7,0-7.3-0.3-11-1c-7.8-1.5-15.1-4.5-21.8-8.9c-6.7-4.4-12.2-10-16.6-16.6
							c-4.2-6.4-7.1-13.5-8.6-21c-1.5-7.5-1.6-15.2-0.1-22.7c1.5-7.8,4.5-15.1,8.9-21.8c4.4-6.7,10-12.2,16.7-16.6
							c6.4-4.2,13.5-7.1,21-8.6c7.5-1.5,15.2-1.6,22.7-0.1c7.8,1.5,15.1,4.5,21.8,8.9c6.7,4.4,12.2,10,16.6,16.6
							c4.2,6.4,7.1,13.5,8.6,21c1.5,7.5,1.6,15.2,0.1,22.7c-1.5,7.8-4.5,15.1-8.9,21.8c-4.4,6.7-10,12.2-16.7,16.6
							c-6.4,4.2-13.4,7.1-21,8.6C963.1,183,959.2,183.4,955.3,183.4z"/>
					</g>
				</g>
			</g>
			<g>
				<g>
					<path fill="#FFFFFF" d="M956.2,102.5c3.6-5.5,11.2-6.7,16.5-2.5c4.6,3.7,5.4,10.4,2.2,15.3l-7.9,11.9l-2.7-1.8
						c-0.3-0.2-0.8,0-0.7,0.4l0.7,11.4c0,0.6,0.7,1.1,1.3,0.8l10.7-3.8c0.4-0.1,0.4-0.6,0.1-0.9l-2.8-1.8l7.8-11.8
						c5.8-8.7,3.9-20.6-4.6-26.6c-8.8-6.2-21.1-3.9-27,5l-1.5,2.3c-1.2,1.8-0.7,4.3,1.1,5.5l0,0c1.8,1.2,4.3,0.7,5.5-1.1
						L956.2,102.5z"/>
				</g>
				<g>
					<path fill="#FFFFFF" d="M954.5,145.9c-3.6,5.5-11.2,6.7-16.5,2.5c-4.6-3.7-5.4-10.4-2.1-15.2l7.9-11.9l2.7,1.8
						c0.3,0.2,0.8,0,0.7-0.4l-0.7-11.4c0-0.6-0.7-1.1-1.3-0.8l-10.7,3.8c-0.4,0.1-0.4,0.6-0.1,0.9l2.8,1.8l-7.8,11.8
						c-5.8,8.7-3.9,20.6,4.6,26.6c8.8,6.3,21.1,3.9,27-5l1.5-2.3c1.2-1.8,0.7-4.3-1.1-5.5l0,0c-1.8-1.2-4.3-0.7-5.5,1.1L954.5,145.9
						z"/>
				</g>
			</g>
		</g>
	</g>
</g>
</svg>
