<?xml version="1.0" encoding="UTF-8" standalone="no"?>
<svg width="955px" height="228px" viewBox="0 0 955 228" version="1.1" xmlns="http://www.w3.org/2000/svg" xmlns:xlink="http://www.w3.org/1999/xlink">
    <title>OpenStack Summit Berlin Open Infrastructure</title>
    <desc></desc>
    <defs></defs>
    <g id="logo" stroke="none" stroke-width="1" fill="none" fill-rule="evenodd">
        <g transform="translate(1.000000, 0.000000)" fill-rule="nonzero" id="Group">
            <g transform="translate(2.000000, 144.000000)" fill="#010101">
                <path d="M29.2,0.5 C40.2,0.5 43.6,8.2 43.6,18.2 L43.6,65.5 C43.6,75.5 40.2,83.2 29.2,83.2 L15.1,83.2 C4.1,83.2 0.7,75.5 0.7,65.5 L0.7,18.2 C0.7,8.2 4.1,0.5 15.1,0.5 L29.2,0.5 Z M26.7,71.1 C31.5,71.1 31.5,65.3 31.5,60 L31.5,23.6 C31.5,18.3 31.5,12.5 26.7,12.5 L17.4,12.5 C12.6,12.5 12.7,18.3 12.7,23.6 L12.7,60 C12.7,65.3 12.6,71.1 17.4,71.1 L26.7,71.1 Z" id="Shape"></path>
                <path d="M96.8,18.1 L96.8,34.6 C96.8,44.6 93.4,52.3 82.6,52.3 L67,52.3 L67,83 L54.9,83 L54.9,0.4 L82.5,0.4 C93.4,0.5 96.8,8.2 96.8,18.1 Z M80.1,40.3 C84.8,40.3 84.8,34.5 84.8,29.1 L84.8,23.5 C84.8,18.2 84.8,12.4 80.1,12.4 L67,12.4 L67,40.3 L80.1,40.3 Z" id="Shape"></path>
                <polygon id="Shape" points="149.9 12.4 120.3 12.4 120.3 40.3 142.5 40.3 142.5 52.3 120.3 52.3 120.3 71.1 150.2 71.1 150.2 83.1 108.2 83.1 108.2 0.5 150.2 0.5 150.2 12.5 149.9 12.5"></polygon>
                <polygon id="Shape" points="204.3 0.6 204.3 83 192.3 83 173.5 31 173.5 83 161.5 83 161.5 0.6 173.5 0.6 192.3 52.6 192.3 0.6 204.3 0.6"></polygon>
                <polygon id="Shape" points="256.2 0.5 256.2 83 244.1 83 244.1 0.4 256.2 0.4"></polygon>
                <polygon id="Shape" points="310.3 0.6 310.3 83 298.3 83 279.5 31 279.5 83 267.5 83 267.5 0.6 279.5 0.6 298.3 52.6 298.3 0.6 310.3 0.6"></polygon>
                <polygon id="Shape" points="333.6 12.4 333.6 40.3 355.8 40.3 355.8 52.3 333.6 52.3 333.6 83 321.6 83 321.6 0.4 363.5 0.4 363.5 12.4"></polygon>
                <path d="M418.5,83 L404.8,83 L388.3,52.3 L384.9,52.3 L384.9,83 L372.8,83 L372.8,0.4 L400.4,0.4 C411.4,0.4 414.8,8.1 414.8,18.1 L414.8,34.6 C414.8,44 411.7,51.5 402,52.3 L418.5,83 Z M398,40.3 C402.8,40.3 402.7,34.5 402.7,29.1 L402.7,23.5 C402.7,18.2 402.8,12.4 398,12.4 L384.9,12.4 L384.9,40.3 L398,40.3 Z" id="Shape"></path>
                <path d="M468.3,83 L456.2,83 L453.8,62.2 L440.8,62.2 L438.4,83 L426.3,83 L435.8,0.4 L458.7,0.4 L468.3,83 Z M452.5,50.1 L448.1,12.4 L446.5,12.4 L442.1,50.1 L452.5,50.1 Z" id="Shape"></path>
                <path d="M519,71.5 C516.2,80.6 507.2,83.3 498.5,83 C489.5,83.1 483.1,81.1 479.7,75.2 C476.4,69.2 477,61.4 477,54.8 L489,54.8 C489,58.1 488.9,61.2 489.3,64.3 C489.9,68.9 491.7,70.7 498.6,70.8 C506.1,70.7 507.9,67.8 507.4,60 C507,54.7 504.6,50.9 499.7,46.9 L487.7,37.4 C479.9,31.3 476.6,25.4 477.3,16.5 C478.3,3.8 488,0.1 498.7,0.4 C507.2,0.4 513.9,3.1 517.3,9.7 C519.6,13.8 520.1,19.5 520,25.8 L507,25.8 C507,18.8 508,12.6 498.6,12.4 C494.6,12.5 491.9,13 490.6,15.1 C488.3,18.7 489.2,23.1 492.7,25.9 L507.4,37.6 C514.1,43 519.4,49.6 519.9,58.4 C520.3,62.7 520.3,67.2 519,71.5 Z" id="Shape"></path>
                <polygon id="Shape" points="570.9 0.5 570.9 12.5 555.5 12.5 555.5 83 543.4 83 543.4 12.4 528 12.4 528 0.4 570.9 0.4"></polygon>
                <path d="M626.6,83 L612.9,83 L596.4,52.3 L593,52.3 L593,83 L580.9,83 L580.9,0.4 L608.5,0.4 C619.5,0.4 622.9,8.1 622.9,18.1 L622.9,34.6 C622.9,44 619.8,51.5 610.1,52.3 L626.6,83 Z M606.1,40.3 C610.9,40.3 610.8,34.5 610.8,29.1 L610.8,23.5 C610.8,18.2 610.9,12.4 606.1,12.4 L593,12.4 L593,40.3 L606.1,40.3 Z" id="Shape"></path>
                <path d="M677.1,0.5 L677.1,65.4 C677.1,75.4 673.7,83.1 662.9,83.1 L648.7,83.1 C637.9,83.1 634.5,75.4 634.5,65.4 L634.5,0.5 L646.5,0.5 L646.5,60 C646.5,65.3 646.5,71.1 651.2,71.1 L660.6,71.1 C665.3,71.1 665.3,65.3 665.3,60 L665.3,0.5 L677.1,0.5 Z" id="Shape"></path>
                <path d="M719.3,26.1 L719.3,23.5 C719.3,18.2 719.3,12.4 714.6,12.4 L705.2,12.4 C700.5,12.4 700.5,18.2 700.5,23.5 L700.5,60 C700.5,65.3 700.5,71.1 705.2,71.1 L714.6,71.1 C719.3,71.1 719.3,65.3 719.3,60 L719.3,57.4 L731.4,57.4 L731.4,65.4 C731.4,75.4 727.8,83.1 717,83.1 L702.8,83.1 C692,83.1 688.6,75.4 688.6,65.4 L688.6,18.1 C688.6,8.1 692,0.4 702.8,0.4 L717,0.4 C727.8,0.4 731.4,8.1 731.4,18.1 L731.4,26.1 L719.3,26.1 Z" id="Shape"></path>
                <polygon id="Shape" points="781.3 0.5 781.3 12.5 766 12.5 766 83 753.9 83 753.9 12.4 738.5 12.4 738.5 0.4 781.3 0.4"></polygon>
                <path d="M834,0.5 L834,65.4 C834,75.4 830.6,83.1 819.8,83.1 L805.6,83.1 C794.8,83.1 791.4,75.4 791.4,65.4 L791.4,0.5 L803.4,0.5 L803.4,60 C803.4,65.3 803.4,71.1 808.1,71.1 L817.5,71.1 C822.2,71.1 822.2,65.3 822.2,60 L822.2,0.5 L834,0.5 Z" id="Shape"></path>
                <path d="M891.1,83 L877.4,83 L860.9,52.3 L857.5,52.3 L857.5,83 L845.4,83 L845.4,0.4 L873,0.4 C884,0.4 887.4,8.1 887.4,18.1 L887.4,34.6 C887.4,44 884.3,51.5 874.6,52.3 L891.1,83 Z M870.6,40.3 C875.4,40.3 875.3,34.5 875.3,29.1 L875.3,23.5 C875.3,18.2 875.4,12.4 870.6,12.4 L857.5,12.4 L857.5,40.3 L870.6,40.3 Z" id="Shape"></path>
                <polygon id="Shape" points="942.1 12.4 912.5 12.4 912.5 40.3 934.7 40.3 934.7 52.3 912.5 52.3 912.5 71.1 942.4 71.1 942.4 83.1 900.4 83.1 900.4 0.5 942.4 0.5 942.4 12.5 942.1 12.5"></polygon>
            </g>
            <g transform="translate(5.000000, 68.000000)" fill="#FFFFFF">
                <path d="M27.8,11.6 L27.8,42.2 C27.8,48.7 25.6,53.6 18.5,53.6 L9.4,53.6 C2.3,53.6 0.1,48.6 0.1,42.2 L0.1,11.6 C0.1,5.1 2.3,0.2 9.4,0.2 L18.5,0.2 C25.6,0.2 27.8,5.2 27.8,11.6 Z M24.3,11.9 C24.3,6.7 22.2,4 17.8,3.7 L10,3.7 C5.7,4 3.5,6.7 3.5,11.9 L3.5,42 C3.5,47.2 5.6,49.9 10,50.3 L17.8,50.3 C22.1,49.9 24.3,47.2 24.3,42 L24.3,11.9 Z M23.5,12 L23.5,41.9 C23.5,43.7 23.2,49.4 17.1,49.4 L10.7,49.4 C4.5,49.4 4.3,43.7 4.3,41.9 C4.2,31.9 4.2,22 4.3,12 C4.3,10.2 4.5,4.5 10.7,4.5 L17.1,4.5 C23.2,4.5 23.5,10.2 23.5,12 Z M20.1,15.1 C20.1,11.7 20.1,7.9 17,7.9 L11,7.9 C7.9,7.9 8,11.7 8,15.1 L8,38.7 C8,42.1 7.9,45.9 11,45.9 L17,45.9 C20.1,45.9 20.1,42.1 20.1,38.7 L20.1,15.1 Z" id="Shape"></path>
                <path d="M62.3,11.6 L62.3,22.3 C62.3,28.8 60.1,33.7 53.1,33.7 L43,33.7 L43,53.6 L35.2,53.6 L35.2,0.1 L53.1,0.1 C60.1,0.2 62.3,5.2 62.3,11.6 Z M58.9,11.9 C58.9,6.7 56.7,4 52.4,3.6 L38.7,3.6 L38.7,50.3 L39.6,50.3 L39.6,30.4 L52.4,30.4 C56.7,30 58.9,27.3 58.9,22.1 L58.9,11.9 Z M58,12 C58.1,22 58.1,12 58,22 C58,23.8 57.8,29.5 51.7,29.5 L39.5,29.5 L39.5,4.6 L51.7,4.6 C57.8,4.5 58,10.2 58,12 Z M51.5,26 C54.5,26 54.5,22.2 54.5,18.7 L54.5,15.1 C54.5,11.7 54.5,7.9 51.5,7.9 L43,7.9 L43,26 L51.5,26 Z" id="Shape"></path>
                <path d="M77.5,7.9 L77.5,26 L91.9,26 L91.9,33.7 L77.5,33.7 L77.5,45.9 L96.9,45.9 L96.9,53.6 L69.7,53.6 L69.7,0.1 L96.9,0.1 L96.9,7.8 L77.5,7.8 L77.5,7.9 Z M74,29.4 L74,4.5 C82.8,4.5 88.1,4.5 93.4,4.5 L93.4,3.6 C86.7,3.6 79.9,3.6 73.2,3.6 L73.2,50.3 C79.9,50.3 86.7,50.3 93.4,50.3 L93.4,49.4 C88.1,49.4 82.8,49.4 74,49.4 L74,30.4 L88.4,30.4 L88.4,29.5 L74,29.5 L74,29.4 Z" id="Shape"></path>
                <path d="M131.9,0.3 L131.9,53.7 L124.2,53.7 L112,20 L112,53.7 L104.3,53.7 L104.3,0.3 L112,0.3 L124.2,34 L124.2,0.3 L131.9,0.3 Z M128.6,3.7 L127.7,3.7 L127.7,49.4 L126.9,49.4 L109.7,3.7 L107.8,3.7 L107.8,50.4 L108.6,50.4 L108.6,4.7 L109.1,4.7 L126.3,50.4 L128.6,50.4 L128.6,3.7 Z" id="Shape"></path>
                <path d="M166.6,46.2 C164.8,52.1 158.9,53.9 153.3,53.7 C147.5,53.8 143.3,52.5 141.1,48.6 C139,44.7 139.3,39.7 139.3,35.4 L147,35.4 C147,37.5 146.9,39.5 147.2,41.6 C147.6,44.6 148.8,45.8 153.2,45.8 C158.1,45.7 159.2,43.9 158.9,38.8 C158.6,35.4 157.1,32.9 153.9,30.3 L146.2,24.1 C141.1,20.1 139,16.4 139.5,10.5 C140.1,2.3 146.4,-0.1 153.3,0.1 C158.8,0.1 163.2,1.9 165.4,6.1 C166.9,8.8 167.2,12.5 167.2,16.5 L158.8,16.5 C158.8,12 159.4,7.9 153.4,7.8 C150.8,7.9 149.1,8.2 148.2,9.6 C146.7,11.9 147.3,14.8 149.6,16.6 L159.1,24.2 C163.4,27.7 166.8,31.9 167.2,37.7 C167.4,40.5 167.4,43.4 166.6,46.2 Z M156.9,26.9 L147.4,19.3 C145,17.1 143.9,14.8 143.9,12 C143.9,6.6 148.3,4.4 153,4.4 C158.1,4.3 162.5,7.6 162.5,13 L163.5,13 C163.5,7.2 158.7,3.6 153.5,3.5 C151.7,3.5 150.2,3.6 148.5,4.1 C144.9,5.4 142.8,8.1 142.8,11.9 C142.8,15.6 144.4,17.9 147.2,20.3 C150,22.7 153.1,25.1 156,27.4 C159.7,30.4 162.1,33.2 162.5,38.4 C162.7,41.2 162.6,44.3 160.6,46.5 C158.4,49 154.9,49.2 151.8,49.1 C149.5,49 147.4,48.8 145.8,47.3 C144,45.5 143.6,42.9 143.6,38.7 L142.8,38.7 C142.8,41.6 143,44.6 144.1,46.7 C145.9,49.8 150,50.1 153.1,50 C159.3,49.9 163.3,47.5 163.6,40.9 C163.8,34.5 162,31 156.9,26.9 Z" id="Shape"></path>
                <path d="M200.3,0.2 L200.3,7.9 L190.3,7.9 L190.3,53.6 L182.5,53.6 L182.5,7.9 L172.5,7.9 L172.5,0.2 L200.3,0.2 Z M196.8,3.7 L176,3.7 L176,4.5 L186,4.5 L186,50.2 L186.9,50.2 L186.9,4.5 L196.9,4.5 L196.9,3.7 L196.8,3.7 Z" id="Shape"></path>
                <path d="M230.7,53.7 L222.9,53.7 L221.3,40.2 L212.9,40.2 L211.3,53.7 L203.5,53.7 L209.7,0.2 L224.5,0.2 L230.7,53.7 Z M225.9,50.3 L226.7,50.3 L221.4,3.6 L212.7,3.6 L207.4,50.3 L208.2,50.3 L209.8,36.7 L224.5,36.7 L225.9,50.3 Z M220.6,4.5 L224.2,35.9 L209.8,35.9 L213.4,4.5 L220.6,4.5 Z M220.5,32.4 L217.6,8 L216.6,8 L213.7,32.4 L220.5,32.4 Z" id="Shape"></path>
                <path d="M256.2,16.8 L256.2,15.1 C256.2,11.7 256.2,7.9 253.2,7.9 L247,7.9 C244,7.9 244,11.7 244,15.1 L244,38.7 C244,42.1 244,45.9 247,45.9 L253.1,45.9 C256.1,45.9 256.1,42.1 256.1,38.7 L256.1,37 L263.9,37 L263.9,42.2 C263.9,48.7 261.6,53.6 254.6,53.6 L245.4,53.6 C238.4,53.6 236.2,48.6 236.2,42.2 L236.2,11.6 C236.2,5.1 238.4,0.2 245.4,0.2 L254.6,0.2 C261.6,0.2 263.9,5.2 263.9,11.6 L263.9,16.8 L256.2,16.8 Z M259.6,12 C259.6,12.4 259.6,12.8 259.6,13.4 L260.5,13.4 L260.5,11.9 C260.5,6.4 258,3.6 253.1,3.6 L247,3.6 C242,3.6 239.6,6.4 239.6,11.9 L239.6,42 C239.6,47.5 242,50.3 247,50.3 L253.1,50.3 C258,50.3 260.5,47.5 260.5,42 L260.5,40.6 L259.6,40.6 C259.6,41.1 259.6,41.5 259.6,41.9 C259.6,43.7 259.4,49.4 253.3,49.4 L246.8,49.4 C240.7,49.4 240.5,43.7 240.5,41.9 C240.4,31.9 240.4,22 240.5,12 C240.5,10.2 240.7,4.5 246.8,4.5 L253.3,4.5 C259.4,4.5 259.6,10.2 259.6,12 Z" id="Shape"></path>
                <path d="M300.2,53.7 L291.3,53.7 L279.1,30.9 L279.1,53.7 L271.3,53.7 L271.3,0.2 L279.1,0.2 L279.1,21 L290.2,0.2 L299.1,0.2 L285.4,25.9 L300.2,53.7 Z M293.4,50.3 L294.4,50.3 L281.4,26 L293.4,3.7 L292.4,3.7 L280.7,25.6 L275.7,25.6 L275.7,3.7 L274.9,3.7 L274.9,50.4 L275.7,50.4 L275.7,26.5 L280.7,26.5 L293.4,50.3 Z" id="Shape"></path>
                <path d="M352.4,46.2 C350.6,52.1 344.7,53.9 339.1,53.7 C333.3,53.8 329.1,52.5 326.9,48.6 C324.8,44.7 325.1,39.7 325.1,35.4 L332.8,35.4 C332.8,37.5 332.7,39.5 333,41.6 C333.4,44.6 334.6,45.8 339,45.8 C343.9,45.7 345,43.9 344.7,38.8 C344.4,35.4 342.9,32.9 339.7,30.3 L332,24.1 C326.9,20.1 324.8,16.4 325.3,10.5 C325.9,2.3 332.2,-0.1 339.1,0.1 C344.6,0.1 349,1.9 351.2,6.1 C352.7,8.8 353,12.5 353,16.5 L344.6,16.5 C344.6,12 345.2,7.9 339.2,7.8 C336.6,7.9 334.9,8.2 334,9.6 C332.5,11.9 333.1,14.8 335.4,16.6 L344.9,24.2 C349.2,27.7 352.6,31.9 353,37.7 C353.3,40.5 353.3,43.4 352.4,46.2 Z M342.8,26.9 L333.3,19.3 C330.9,17.1 329.8,14.8 329.8,12 C329.8,6.6 334.2,4.4 338.9,4.4 C344,4.3 348.4,7.6 348.4,13 L349.4,13 C349.4,7.2 344.6,3.6 339.4,3.5 C337.6,3.5 336.1,3.6 334.4,4.1 C330.8,5.4 328.7,8.1 328.7,11.9 C328.7,15.6 330.3,17.9 333.1,20.3 C335.9,22.7 339,25.1 341.9,27.4 C345.6,30.4 348,33.2 348.4,38.4 C348.6,41.2 348.5,44.3 346.5,46.5 C344.3,49 340.8,49.2 337.7,49.1 C335.4,49 333.3,48.8 331.7,47.3 C329.9,45.5 329.5,42.9 329.5,38.7 L328.7,38.7 C328.7,41.6 328.9,44.6 330,46.7 C331.8,49.8 335.9,50.1 339,50 C345.2,49.9 349.2,47.5 349.5,40.9 C349.7,34.5 347.8,31 342.8,26.9 Z" id="Shape"></path>
                <path d="M388.3,0.2 L388.3,42.3 C388.3,48.8 386.1,53.7 379.1,53.7 L369.9,53.7 C362.9,53.7 360.7,48.7 360.7,42.3 L360.7,0.2 L368.4,0.2 L368.4,38.7 C368.4,42.1 368.4,45.9 371.4,45.9 L377.5,45.9 C380.5,45.9 380.5,42.1 380.5,38.7 L380.5,0.2 L388.3,0.2 Z M384.9,3.7 L384.1,3.7 L384.1,42 C384,43.8 383.8,49.5 377.7,49.5 L371.2,49.5 C365.1,49.5 364.9,43.8 364.9,42 C364.8,35.5 364.8,10.2 364.8,3.7 L364,3.7 L364,42.1 C364,47.3 366.2,50 370.5,50.3 L378.2,50.3 C382.6,50 384.7,47.3 384.7,42.1 L384.7,3.7 L384.9,3.7 Z" id="Shape"></path>
                <path d="M436.1,0.2 L436.1,53.7 L428.3,53.7 L428.3,24.1 L419.5,53.7 L412.3,53.7 L403.5,24.1 L403.5,53.7 L395.7,53.7 L395.7,0.2 L403.5,0.2 L415.9,41.6 L428.3,0.2 L436.1,0.2 Z M432.6,3.6 L430.5,3.6 L416.7,49.3 C416.2,49.3 415.8,49.3 415.3,49.3 L401.4,3.6 L399.4,3.6 L399.4,50.3 L400.2,50.3 L400.2,4.6 L400.8,4.6 L414.6,50.3 L417.4,50.3 L431.2,4.6 L431.8,4.6 L431.8,50.3 L432.7,50.3 L432.7,3.6 L432.6,3.6 Z" id="Shape"></path>
                <path d="M483.9,0.2 L483.9,53.7 L476,53.7 L476,24.1 L467.2,53.7 L460,53.7 L451.2,24.1 L451.2,53.7 L443.4,53.7 L443.4,0.2 L451.2,0.2 L463.6,41.6 L476,0.2 L483.9,0.2 Z M480.4,3.6 L478.3,3.6 L464.5,49.3 C464,49.3 463.6,49.3 463.1,49.3 L449.2,3.6 L447.2,3.6 L447.2,50.3 L448,50.3 L448,4.6 L448.6,4.6 L462.4,50.3 L465.2,50.3 L479,4.6 L479.6,4.6 L479.6,50.3 L480.5,50.3 L480.5,3.6 L480.4,3.6 Z" id="Shape"></path>
                <path d="M499.1,0.2 L499.1,53.7 L491.3,53.7 L491.3,0.2 L499.1,0.2 Z M495.6,3.6 L494.7,3.6 L494.7,50.3 L495.6,50.3 L495.6,3.6 Z" id="Shape"></path>
                <path d="M533.3,0.2 L533.3,7.9 L523.3,7.9 L523.3,53.6 L515.5,53.6 L515.5,7.9 L505.5,7.9 L505.5,0.2 L533.3,0.2 Z M529.8,3.7 L509,3.7 L509,4.5 L519,4.5 L519,50.2 L519.9,50.2 L519.9,4.5 L529.9,4.5 L529.9,3.7 L529.8,3.7 Z" id="Shape"></path>
                <path d="M585.4,35.1 L585.4,42.2 C585.4,48.7 583.2,53.6 576.1,53.6 L558.2,53.6 L558.2,0.1 L570.7,0.1 C580.6,0.1 582.6,4.7 582.6,11.8 L582.6,18.1 C582.6,20.4 580.8,23.3 579.5,23.2 C585.4,24.9 585.4,29.8 585.4,35.1 Z M581.9,32.2 C581.9,27.2 579.9,24.5 575.6,24 C577.9,22.8 579.1,20.3 579.1,16.6 C579.1,15 579.1,13.5 579.1,11.9 C579.1,6.9 577,3.6 571.6,3.6 C568.3,3.6 565,3.6 561.6,3.6 L561.6,50.3 L574.4,50.3 C579.4,50.3 581.8,47.5 581.8,42 C581.9,38.7 581.9,35.5 581.9,32.2 Z M571.8,24 C568.8,24 565.6,24 562.5,24 L562.5,4.5 C565.6,4.5 568.8,4.5 571.8,4.5 C578,4.5 578.2,10.2 578.2,12 C578.2,13.5 578.2,15 578.2,16.5 C578.2,18.3 578,24 571.8,24 Z M581,32.3 C581.1,35.5 581,38.8 581,41.9 C581,43.7 580.8,49.4 574.7,49.4 L562.5,49.4 L562.5,24.9 C565.5,24.9 568.6,24.9 571.6,24.9 L574.6,24.9 C580.8,24.8 581,30.5 581,32.3 Z M566,20.5 L572.6,20.5 C575.2,20.5 574.7,18 574.7,15.3 L574.7,11.2 C574.7,9.2 574.1,8 572,8 L566,8 L566,20.5 Z M574.5,45.9 C577.6,45.9 577.5,42.1 577.5,38.7 L577.5,34.8 C577.5,31.1 576.9,28.3 573.4,28.3 L566,28.3 L566,45.9 L574.5,45.9 Z" id="Shape"></path>
                <path d="M600.6,7.9 L600.6,26 L615,26 L615,33.7 L600.6,33.7 L600.6,45.9 L620,45.9 L620,53.6 L592.8,53.6 L592.8,0.1 L620,0.1 L620,7.8 L600.6,7.8 L600.6,7.9 Z M597.1,29.4 L597.1,4.5 C605.9,4.5 611.2,4.5 616.5,4.5 L616.5,3.6 C609.8,3.6 603,3.6 596.3,3.6 L596.3,50.3 C603,50.3 609.8,50.3 616.5,50.3 L616.5,49.4 C611.2,49.4 605.9,49.4 597.1,49.4 L597.1,30.4 L611.5,30.4 L611.5,29.5 L597.1,29.5 L597.1,29.4 Z" id="Shape"></path>
                <path d="M656.5,53.7 L647.6,53.7 L636.9,33.8 L634.7,33.8 L634.7,53.7 L626.9,53.7 L626.9,0.2 L644.8,0.2 C651.9,0.2 654.1,5.2 654.1,11.6 L654.1,22.3 C654.1,28.4 652.1,33.3 645.8,33.7 L656.5,53.7 Z M649.7,50.3 L650.7,50.3 L640,30.3 L644.1,30.3 C648.4,29.9 650.6,27.3 650.6,22.1 L650.6,11.9 C650.6,6.7 648.5,4 644.1,3.7 L630.4,3.7 L630.4,50.3 L631.3,50.3 L631.3,30.4 L639,30.4 L649.7,50.3 Z M649.7,22 C649.7,23.8 649.5,29.5 643.3,29.5 L631.2,29.5 L631.2,4.5 L643.3,4.5 C649.5,4.5 649.7,10.2 649.7,12 C649.8,21.9 649.8,12.1 649.7,22 Z M643.2,26 C646.3,26 646.2,22.2 646.2,18.7 L646.2,15.1 C646.2,11.7 646.3,7.9 643.2,7.9 L634.7,7.9 L634.7,26 L643.2,26 Z" id="Shape"></path>
                <path d="M689.2,45.9 L689.2,53.6 L662,53.6 L662,0.1 L669.8,0.1 L669.8,45.8 L689.2,45.8 L689.2,45.9 Z M685.8,49.3 C680.5,49.3 675.2,49.3 666.4,49.3 L666.4,3.6 L665.5,3.6 L665.5,50.3 C672.3,50.3 679.1,50.3 685.8,50.3 L685.8,49.3 Z" id="Shape"></path>
                <path d="M704.5,0.2 L704.5,53.7 L696.7,53.7 L696.7,0.2 L704.5,0.2 Z M701,3.6 L700,3.6 L700,50.3 L700.9,50.3 L700.9,3.6 L701,3.6 Z" id="Shape"></path>
                <path d="M739.5,0.3 L739.5,53.7 L731.8,53.7 L719.6,20 L719.6,53.7 L711.9,53.7 L711.9,0.3 L719.6,0.3 L731.8,34 L731.8,0.3 L739.5,0.3 Z M736.2,3.7 L735.3,3.7 L735.3,49.4 L734.5,49.4 L717.3,3.7 L715.4,3.7 L715.4,50.4 L716.2,50.4 L716.2,4.7 L716.7,4.7 L733.9,50.4 L736.2,50.4 L736.2,3.7 Z" id="Shape"></path>
            </g>
            <g transform="translate(0.000000, 68.000000)" fill="#010101">
                <path d="M3.6,11.3 L3.6,42 C3.6,49.2 6.4,54.9 14.4,54.9 L23.5,54.9 C25.4,54.9 27,54.6 28.3,54 C26.1,56.9 23.6,59.2 20.1,59.2 L11.1,59.2 C3.1,59.2 0.3,53.5 0.3,46.3 L0.3,16.4 L0.3,16.5 C0.3,11.7 1.4,9 4.6,5.2 L4.6,5 C3.9,6.9 3.6,9 3.6,11.3 Z M22.8,44 C23.7,43.2 23.6,39.8 23.6,38.5 L23.6,14.9 C23.6,12.5 24,9.2 21.7,9.2 L16,9.2 C15.7,9.2 15.4,9.3 15.3,9.5 C14.6,10.1 14.5,12 14.5,13.5 C19,13.5 19.3,13.6 19.6,13.8 C20.5,14.5 20.4,18 20.4,19.2 L20.4,44.3 L22.8,44 Z" id="Shape"></path>
                <path d="M47,54.9 L43.5,59.1 L35.4,59.1 L35.4,5.9 L38.7,1.9 L38.7,54.8 L47,54.8 L47,54.9 Z M54.8,24.3 L54.8,22.8 L54.8,18.2 C54.8,16.4 54.9,13.4 53.2,13.4 L49.4,13.4 L49.4,9.2 C56.8,9.2 57.1,9.3 57.2,9.5 C58,10.1 58,12.9 58,13.9 L58,18.6 C58,19.9 58.1,23.3 57.2,24.1 C57,24.3 56.7,24.3 56.5,24.3 L54.8,24.3 Z M54.8,39.2 L49.5,39.2 L49.5,35 L58.2,35 C59.6,35 60.9,34.8 62,34.4 C57.2,39.1 56,39.2 54.8,39.2 Z" id="Shape"></path>
                <path d="M101.7,54.9 L98.2,59.1 L70,59.1 L70,4.1 L73.3,0.1 L73.3,54.8 L101.7,54.8 L101.7,54.9 Z M100.9,9.1 L97.4,13.3 L84,13.3 L84,9.1 L100.9,9.1 Z M96,35 L92.4,39.2 L84,39.2 L84,35 L96,35 Z" id="Shape"></path>
                <path d="M116,55 L112.5,59.2 L104.5,59.2 L104.5,6 L107.8,2 L107.8,55 L116,55 Z M135.9,55 L132.4,59.2 L124.7,59.2 L118.4,41.6 L118.4,28.1 L128,54.9 L135.9,54.9 L135.9,55 Z M124.4,16.1 L124.4,6 L127.7,2 L127.7,25.3 L124.4,16.1 Z" id="Shape"></path>
                <path d="M153,59.1 C148.5,58.8 144.1,57.5 141.7,53.3 C140,50.4 139.8,47 139.7,43.8 L139.7,41.2 L143,37.1 C143,41.2 143,45.4 145,49 C147.8,53.9 153.1,54.9 158.3,54.8 C161.5,54.9 164.8,54.4 167.4,53 C165.7,55.1 164,57.1 161.8,58.2 C159.9,59.3 155.6,59.2 153,59.1 Z M143.1,10.2 C142.5,16.8 145.3,21 150.4,25 L158.1,31.2 C160.6,33.2 162.3,35.4 162.5,38.7 C162.6,39.9 162.7,42.3 161.8,43.2 C161.2,43.8 160.2,44 159.2,44.1 L159.2,42.9 C158.9,39.6 157.3,37.5 154.8,35.4 L147.1,29.3 C142,25.2 139.3,21.1 139.8,14.5 C140,11.8 141.7,10.1 143.5,8 C143.3,8.7 143.2,9.4 143.1,10.2 Z M154.4,10.2 C155,9.1 157.3,9.1 158.4,9.1 C163,9.5 162.4,12 162.4,16.3 L162.4,17.7 L171.3,17.7 L167.8,22 L164,22 L159.2,18.1 C159.2,16.7 159,15.2 158.5,14.5 C157.9,13.5 156.3,13.4 155.2,13.3 C154.9,13.3 154.6,13.3 154.3,13.4 C153.7,12.5 153.8,11.3 154.4,10.2 Z" id="Shape"></path>
                <path d="M194.3,54.9 L190.7,59.1 L182.7,59.1 L182.7,13.4 L172.7,13.4 L172.7,6 L176,2 L176,9.1 L186,9.1 L186,54.8 L194.3,54.8 L194.3,54.9 Z M204.2,9.1 L200.7,13.3 L196.7,13.3 L196.7,9.1 L204.2,9.1 Z" id="Shape"></path>
                <path d="M216.1,54.9 L212.6,59.1 L203.6,59.1 L209.8,4.3 L213.1,0.3 L206.9,54.8 L216.1,54.8 L216.1,54.9 Z M221.7,45.7 L218.7,45.7 L219.3,41.5 L225.1,41.5 L226.7,55 L235.2,55 L231.9,59.2 L223.4,59.2 L221.7,45.7 Z M223.8,30.6 L220.4,30.6 L222.1,15.8 L223.8,30.6 Z" id="Shape"></path>
                <path d="M239.8,11.3 L239.8,42 C239.8,49.2 242.6,54.9 250.5,54.9 L259.7,54.9 C262.5,54.9 264.6,54.3 266.2,53.1 C263.8,56.2 261.1,59.2 257.3,59.2 L247.2,59.2 C239.3,59.2 236.5,53.5 236.5,46.3 L236.5,14.9 C236.6,11.3 237.8,8.8 240.7,5.1 C239.8,7.5 239.8,9 239.8,11.3 Z M251.3,9.4 C251.5,9.2 251.9,9.1 252,9.1 L258.1,9.1 C258.4,9.1 258.7,9.2 258.8,9.4 C259.6,10 259.6,12.8 259.6,13.8 L259.6,17.9 L268.4,17.9 L264.9,22.1 L256.3,22.1 L256.3,18 C256.3,17 256.3,14.1 255.5,13.5 C255.3,13.3 255,13.2 250.4,13.2 C250.5,11.9 250.6,10 251.3,9.4 Z M258.8,44 C258.6,44.2 258.3,44.2 258.1,44.2 L256.3,44.2 L256.3,41.5 L259.6,37.4 C259.7,39.7 259.8,43.2 258.8,44 Z" id="Shape"></path>
                <path d="M283.2,54.9 L279.7,59.1 L271.7,59.1 L271.7,5.9 L275,1.9 L275,54.8 L283.2,54.8 L283.2,54.9 Z M285.7,12.9 L287.5,9.7 L290.4,6.1 L285.8,14.9 L285.8,12.9 L285.7,12.9 Z M304.3,54.9 L300.7,59.1 L292.1,59.1 L285.6,46.9 L285.6,36.4 L295.4,54.8 L304.3,54.8 L304.3,54.9 Z" id="Shape"></path>
                <path d="M338.8,59.1 C334.3,58.8 329.9,57.5 327.5,53.3 C325.8,50.4 325.6,47 325.5,43.8 L325.5,41.2 L328.8,37.1 C328.8,41.2 328.8,45.4 330.8,49 C333.6,53.9 338.9,54.9 344.1,54.8 C347.3,54.9 350.6,54.4 353.2,53 C351.5,55.1 349.8,57.1 347.6,58.2 C345.7,59.3 341.4,59.2 338.8,59.1 Z M328.9,10.2 C328.3,16.8 331.1,21 336.2,25 L343.9,31.2 C346.4,33.2 348.1,35.4 348.3,38.7 C348.4,39.9 348.5,42.3 347.6,43.2 C347,43.8 346,44 345,44.1 L345,42.9 C344.7,39.6 343.1,37.5 340.6,35.4 L332.9,29.3 C327.8,25.2 325.1,21.1 325.6,14.5 C325.8,11.8 327.5,10.1 329.3,8 C329.1,8.7 329,9.4 328.9,10.2 Z M340.3,10.2 C340.9,9.1 343.2,9.1 344.3,9.1 C348.9,9.5 348.3,12 348.3,16.3 L348.3,17.7 L357.2,17.7 L353.7,22 L349.9,22 L345.1,18.1 C345.1,16.7 344.9,15.2 344.4,14.5 C343.8,13.5 342.2,13.4 341.1,13.3 C340.8,13.3 340.5,13.3 340.2,13.4 C339.5,12.5 339.6,11.3 340.3,10.2 Z" id="Shape"></path>
                <path d="M371.5,59.1 C363.6,59.1 360.8,53.4 360.8,46.2 L360.8,5.9 L364.1,1.9 L364.1,41.9 C364.1,49.1 366.9,54.8 374.8,54.8 L384,54.8 C385.8,54.8 387.4,54.5 388.7,54 C386.5,56.7 384.1,59 380.7,59.1 L371.5,59.1 Z M384.1,38.5 C384.1,39.8 384.2,43.2 383.3,44 C383.1,44.2 382.8,44.2 380.8,44.2 C380.8,43.6 380.8,43.1 380.8,5.9 L384.1,1.8 L384.1,38.5 Z" id="Shape"></path>
                <path d="M407.5,54.9 L404,59.1 L395.9,59.1 L395.9,5.9 L399.2,1.8 L399.2,54.8 L407.5,54.8 L407.5,54.9 Z M423.6,54.9 L420,59.1 L412.9,59.1 L410,49.4 L410,33.9 L416.2,54.8 L423.6,54.8 L423.6,54.9 Z M419.9,32.7 L427.6,7 L430.8,3.2 L420.9,36.1 L419.9,32.7 Z M440.2,54.9 L436.7,59.1 L428.5,59.1 L428.5,45.2 L431.8,33.9 L431.8,54.8 L440.2,54.8 L440.2,54.9 Z" id="Shape"></path>
                <path d="M455.3,54.9 L451.8,59.1 L443.7,59.1 L443.7,5.9 L447,1.8 L447,54.8 L455.3,54.8 L455.3,54.9 Z M471.3,54.9 L467.7,59.1 L460.6,59.1 L457.7,49.4 L457.7,33.9 L463.9,54.8 L471.3,54.8 L471.3,54.9 Z M467.6,32.7 L475.3,7 L478.5,3.2 L468.6,36.1 L467.6,32.7 Z M487.9,54.9 L484.4,59.1 L476.2,59.1 L476.2,45.2 L479.5,33.9 L479.5,54.8 L487.9,54.8 L487.9,54.9 Z" id="Shape"></path>
                <polygon id="Shape" points="503.1 54.9 499.5 59.1 491.5 59.1 491.5 4.1 494.8 0.1 494.8 54.8 503.1 54.8"></polygon>
                <path d="M527.3,54.9 L523.7,59.1 L515.7,59.1 L515.7,13.4 L505.7,13.4 L505.7,6 L509,2 L509,9.1 L519,9.1 L519,54.8 L527.3,54.8 L527.3,54.9 Z M537.3,9.1 L533.8,13.3 L529.8,13.3 L529.8,9.1 L537.3,9.1 Z" id="Shape"></path>
                <path d="M561.8,54.9 L581.1,54.9 C583.1,54.9 584.8,54.5 586.1,53.9 C583.9,56.8 581.4,59.2 577.8,59.2 L558.5,59.2 L558.5,4.1 L561.8,0.1 L561.8,54.9 Z M578.1,18.7 C578.5,18.2 578.3,15.6 578.3,15 L578.3,10.9 C578.3,10.2 578.3,9.1 577.1,9.1 L572.5,9.1 L572.5,13.3 L573.8,13.3 C574.7,13.3 575,13.9 575,15.1 L575,18.7 L578.1,18.7 Z M580.2,44 C581.1,43.2 581,39.8 581,38.5 L581,34.6 C581,33.4 581,30.9 580.1,30 C579.6,29.6 579,29.5 578.3,29.5 L572.4,29.5 L572.4,33.7 C575.6,33.7 576.3,33.8 576.7,34.2 C577.6,35.1 577.6,37.6 577.6,38.8 C577.6,43 577.7,43.6 577.6,44.1 C579.8,44.2 580.1,44.2 580.2,44 Z" id="Shape"></path>
                <path d="M624.8,54.9 L621.3,59.1 L593.1,59.1 L593.1,4.1 L596.4,0.1 L596.4,54.8 L624.8,54.8 L624.8,54.9 Z M624,9.1 L620.5,13.3 L607.1,13.3 L607.1,9.1 L624,9.1 Z M619.1,35 L615.5,39.2 L607.1,39.2 L607.1,35 L619.1,35 Z" id="Shape"></path>
                <path d="M638.7,54.9 L635.2,59.1 L627.1,59.1 L627.1,5.9 L630.4,1.9 L630.4,54.8 L638.7,54.8 L638.7,54.9 Z M646.5,24.3 L646.5,18.2 C646.5,17.2 646.5,14.3 645.7,13.7 C645.5,13.5 645.2,13.4 645,13.4 L641.3,13.4 L641.3,9.2 L648.3,9.2 C648.6,9.2 648.9,9.3 649,9.5 C649.8,10.1 649.8,12.9 649.8,13.9 L649.8,18.6 C649.8,19.9 649.9,23.3 649,24.1 C648.8,24.3 648.5,24.3 648.3,24.3 L646.5,24.3 Z M660.5,54.9 L656.9,59.1 L648.4,59.1 L641.2,45.5 L641.2,35 L651.7,54.8 L660.5,54.8 L660.5,54.9 Z M654,36.4 L653,34.6 C654.2,34.3 655.2,33.9 656,33.3 C655.5,34.5 654.9,35.5 654,36.4 Z" id="Shape"></path>
                <polygon id="Shape" points="693.2 54.9 689.7 59.1 662.2 59.1 662.2 5.9 665.5 1.9 665.5 54.8 693.2 54.8"></polygon>
                <polygon id="Shape" points="708.4 54.9 704.8 59.1 696.8 59.1 696.8 4.1 700.1 0.1 700.1 54.8 708.4 54.8"></polygon>
                <path d="M723.6,55 L720.1,59.2 L712.1,59.2 L712.1,6 L715.4,2 L715.4,55 L723.6,55 Z M743.5,55 L740,59.2 L732.3,59.2 L726,41.6 L726,28.1 L735.6,54.9 L743.5,54.9 L743.5,55 Z M732,16.1 L732,6 L735.3,2 L735.3,25.3 L732,16.1 Z" id="Shape"></path>
            </g>
            <g transform="translate(1.000000, 7.000000)" fill="#FCD602">
                <path d="M11.2,23.7 C11.3,24.5 10.9,25.4 10.1,25.5 C4.5,26.8 5.32907052e-15,21.1 0.8,15.4 C1.7,8.7 6.8,0.3 14.8,0.4 C18.4,0.4 20.4,3 20.4,6.6 C20.4,8.6 19.5,11.5 18.9,13.8 C17.8,18 16.4,23.3 15.8,27.8 C15.2,32.4 15.4,36.1 17.7,36.3 C21.1,36.8 23.3,30.7 25.9,23.3 C27.4,19.2 28.9,14.7 31.1,10.5 C31.5,9.6 31.9,8.8 32.3,8.3 C33.3,6.6 35.7,8.2 34.9,9.8 C34.4,10.5 34,11.3 33.6,12.1 C31.5,16.5 27.4,30.5 29.6,35 C30,35.9 30.8,36.5 32.1,36.5 C36.5,36.4 41.4,25.4 46.4,13.7 C48.3,9.5 50.1,5.1 52,1.2 C52.9,-0.7 55.4,0.8 54.7,2.5 C52.8,6.4 50.9,10.6 49.1,14.8 C43.6,27.4 38.4,39.4 32,39.5 C27.9,39.5 26.2,36.6 25.9,33.1 C25.8,32.3 25.5,32.4 25.2,33 C23.2,37.2 20.9,39.7 17.3,39.3 C12.7,38.7 12,33.6 12.8,27.4 C13.5,22.7 14.8,17.3 16,13 C16.5,10.9 17.5,8 17.5,6.5 C17.5,4.6 16.8,3.3 14.9,3.3 C8.5,3.2 4.5,10.4 3.9,15.7 C3.4,19.3 6,23.4 9.5,22.5 C10.2,22.4 11,22.9 11.2,23.7 Z" id="Shape"></path>
                <path d="M54.7,36.2 C61.4,35.9 65,31 67.9,25.6 C68.3,24.9 69.2,24.6 70,25 C70.7,25.4 71,26.3 70.6,27 C67.1,33.4 62.9,38.9 54.9,39.2 C52.3,39.3 49.9,38.6 48.4,36.9 C43,30.9 51.8,15.9 59.8,15.5 C62.6,15.4 64.7,16.8 65,19.5 C65.3,22.9 62.6,26.4 59.2,29.2 C56.5,31.4 53.2,33.1 50.7,33.8 C50.4,33.9 50.2,34.1 50.2,34.3 C50.9,35.7 52.6,36.2 54.7,36.2 Z M57.1,26.8 C59.8,24.6 62,21.9 61.7,19.6 C61.6,18.7 60.8,18.5 59.7,18.5 C55.5,18.8 50.9,25 49.8,29.9 C49.7,30.8 49.6,30.9 50.4,30.7 C52.4,29.9 54.9,28.6 57.1,26.8 Z" id="Shape"></path>
                <path d="M75.6,1.4 C75.9,0.6 76.7,0.1 77.5,0.4 C78.3,0.7 78.7,1.5 78.4,2.3 C75.5,11.4 72.5,20.6 69.5,29.7 C68.9,31.6 67.6,35.2 69.7,36 C71.3,36.5 73.3,34.7 75.1,32.6 C77.2,30.1 78.9,26.9 79.7,25.5 C80.1,24.8 81,24.5 81.8,24.9 C82.5,25.3 82.8,26.2 82.4,26.9 C80.4,30.5 74.7,40.9 68.8,38.8 C64.5,37.2 65.5,32.6 66.6,29.2 L75.6,1.4 Z" id="Shape"></path>
                <path d="M88.9,27.7 C88.4,27 88.4,26.1 89.1,25.6 C90.6,24.4 92.1,22.8 92.6,21.1 C92.9,20.2 92.9,19.5 92.3,18.9 C90.7,17.4 87.5,20 86.1,21.4 C83.7,23.9 80.9,28.6 81,32.2 C81.1,35.2 83.3,36.2 86,36.1 C92.8,35.8 96.3,30.9 99.2,25.5 C99.6,24.8 100.5,24.5 101.2,24.9 C101.9,25.3 102.2,26.2 101.8,26.9 C98.4,33.3 94.2,38.8 86.1,39.1 C81.7,39.2 78.1,37 78,32.4 C77.7,25 86.6,13.5 92.8,15.8 C93.5,16.1 94.2,16.5 94.7,17.2 C97.6,20.7 94,25.4 91,27.9 C90.4,28.4 89.4,28.3 88.9,27.7 Z" id="Shape"></path>
                <path d="M99.9,35.6 C97.8,32.3 98.3,27.9 99.8,24 C100.8,21.4 102.3,19.3 104,17.9 C106.1,16.2 108.4,15.3 110.2,15.5 C115.8,16 117.3,21.3 116.4,26.8 C116.3,27.3 115.7,30.2 114.2,33 C118.5,39 123.6,29 125.4,25.6 C125.8,24.9 126.7,24.6 127.4,25 C128.1,25.4 128.4,26.3 128,27.1 C125.8,31.1 122,38.3 116.8,37.9 C115,37.8 113.6,36.8 112.5,35.6 C112.2,36 112,36.2 111.6,36.5 C110,38.1 108.1,39.1 106,39.1 C103.5,39 101.2,37.8 99.9,35.6 Z M112.1,19.4 C110.8,17.9 108.8,17.7 105.9,20.1 C104.6,21.2 103.3,22.9 102.5,25 C101.3,28 100.8,31.5 102.3,34 C104.7,37.6 108.8,35.3 110.6,32.6 C109,28.6 109.5,22.6 112.1,19.4 Z M112.5,29.4 C113.3,27.3 113.6,25 113.4,23 C112.5,24.8 112.1,27.2 112.5,29.4 Z" id="Shape"></path>
                <path d="M130.3,15.5 C131.1,15.8 131.5,16.6 131.2,17.4 C131.3,17.7 131.3,17.7 131.6,17.5 C132.9,16.6 134,16 135.2,15.7 C138.2,14.9 140.6,16.2 141.7,18.3 C142,18.9 142.4,19 142.8,18.5 C144.5,16.9 146.2,16 147.7,15.7 C152.4,14.5 155.8,18.3 154.6,22.7 C153.7,25.3 153,27.5 152.4,29.2 C151.9,31 150.5,35 151.9,35.7 C152.5,36 153.5,35.9 154.1,35.6 C157.1,34.4 160.4,29 162.4,25.3 C162.8,24.6 163.7,24.3 164.4,24.7 C165.1,25.1 165.4,26 165,26.8 C162.6,31.3 159.2,36.9 155.2,38.4 C153.7,39 151.9,39.1 150.5,38.3 C146.8,36.4 148.7,30.8 149.5,28.2 C150,26.5 150.8,24.2 151.6,21.7 C152.7,17.5 147.1,15.5 141,25.1 C140.5,26.6 140,28.1 139.5,29.7 C138.9,31.6 138.2,34.1 138.8,36.9 C139,37.7 138.5,38.5 137.7,38.7 C136.9,38.9 136.1,38.4 135.9,37.6 C135.1,33.9 136,30.9 136.7,28.7 C137.4,26.6 138,24.7 139,21.7 C140.1,17.7 135,15.7 129.2,24 C128.6,24.8 128.5,25.1 128.2,26 L124.4,37.8 C124.1,38.6 123.3,39 122.5,38.7 C121.7,38.5 121.3,37.6 121.6,36.8 C123.8,29.9 126,23 128.2,16.2 C128.6,15.7 129.5,15.3 130.3,15.5 Z" id="Shape"></path>
                <path d="M168.9,36.2 C175.6,35.9 179.2,31 182.1,25.6 C182.5,24.9 183.4,24.6 184.2,25 C184.9,25.4 185.2,26.3 184.8,27 C181.3,33.4 177.1,38.9 169.1,39.2 C166.5,39.3 164.1,38.6 162.6,36.9 C157.2,30.9 166,15.9 174,15.5 C176.8,15.4 178.9,16.8 179.2,19.5 C179.5,22.9 176.8,26.4 173.4,29.2 C170.7,31.4 167.4,33.1 164.9,33.8 C164.6,33.9 164.4,34.1 164.4,34.3 C165.2,35.7 166.9,36.2 168.9,36.2 Z M171.4,26.8 C174.1,24.6 176.3,21.9 176,19.6 C175.9,18.7 175.1,18.5 174,18.5 C169.8,18.8 165.2,25 164.1,29.9 C164,30.8 163.9,30.9 164.7,30.7 C166.7,29.9 169.2,28.6 171.4,26.8 Z" id="Shape"></path>
                <path d="M207.5,14.7 C208.3,14.7 209,15.4 209,16.2 C209,17.1 208.3,17.7 207.5,17.7 L205.5,17.7 C204.7,17.7 204.6,17.6 204.3,18.4 L200.6,29.7 C200,31.6 198.8,35.3 200.9,36 C202.4,36.6 204.4,34.8 206.2,32.6 C208.3,30 210,26.9 210.8,25.5 C211.2,24.8 212.1,24.5 212.9,24.9 C213.6,25.3 213.9,26.2 213.5,27 C211.5,30.6 205.8,41 199.9,38.9 C195.9,37.4 196.5,33.3 197.4,30.3 L201.3,18.4 C201.4,17.8 201.4,17.7 200.7,17.7 L198.7,17.7 C197.9,17.7 197.2,17 197.2,16.2 C197.2,15.4 197.9,14.7 198.7,14.7 L201.9,14.7 C202.6,14.7 202.6,14.3 202.8,13.6 L206.8,1.4 C207.1,0.6 207.9,0.2 208.7,0.5 C209.5,0.8 209.9,1.6 209.6,2.4 L205.8,14.2 C205.5,14.9 205.9,14.8 206.5,14.8 L207.5,14.8 L207.5,14.7 Z" id="Shape"></path>
                <path d="M211.4,35.6 C209.3,32.3 209.8,27.9 211.3,24 C212.3,21.4 213.8,19.3 215.5,17.9 C217.6,16.2 219.9,15.3 221.7,15.5 C227.3,16 228.8,21.3 227.9,26.8 C227.8,27.3 227.2,30.2 225.7,33 C230,39 235.1,29 236.9,25.6 C237.3,24.9 238.2,24.6 238.9,25 C239.6,25.4 239.9,26.3 239.5,27.1 C237.3,31.1 233.5,38.3 228.3,37.9 C226.5,37.8 225.1,36.8 224,35.6 C223.7,36 223.5,36.2 223.1,36.5 C221.5,38.1 219.6,39.1 217.5,39.1 C215,39 212.7,37.8 211.4,35.6 Z M223.6,19.4 C222.3,17.9 220.3,17.7 217.4,20.1 C216.1,21.2 214.8,22.9 214,25 C212.8,28 212.3,31.5 213.8,34 C216.2,37.6 220.3,35.3 222.1,32.6 C220.5,28.6 221,22.6 223.6,19.4 Z M224,29.4 C224.8,27.3 225.1,25 224.9,23 C224,24.8 223.6,27.2 224,29.4 Z" id="Shape"></path>
                <path d="M262.2,14.7 C263,14.7 263.7,15.4 263.7,16.2 C263.7,17.1 263,17.7 262.2,17.7 L260.2,17.7 C259.4,17.7 259.3,17.6 259,18.4 L255.3,29.7 C254.7,31.6 253.5,35.3 255.6,36 C257.1,36.6 259.1,34.8 260.9,32.6 C263,30 264.7,26.9 265.5,25.5 C265.9,24.8 266.8,24.5 267.6,24.9 C268.3,25.3 268.6,26.2 268.2,27 C266.2,30.6 260.5,41 254.6,38.9 C250.6,37.4 251.2,33.3 252.1,30.3 L256,18.4 C256.1,17.8 256.1,17.7 255.4,17.7 L253.4,17.7 C252.6,17.7 251.9,17 251.9,16.2 C251.9,15.4 252.6,14.7 253.4,14.7 L256.6,14.7 C257.3,14.7 257.3,14.3 257.5,13.6 L261.5,1.4 C261.8,0.6 262.6,0.2 263.4,0.5 C264.2,0.8 264.6,1.6 264.3,2.4 L260.5,14.2 C260.2,14.9 260.6,14.8 261.2,14.8 L262.2,14.8 L262.2,14.7 Z" id="Shape"></path>
                <path d="M273.3,1.4 C273.6,0.6 274.4,0.1 275.2,0.4 C276,0.7 276.5,1.5 276.2,2.3 L271.5,16.7 C271.5,17 271.3,17.8 271.8,17.3 C273,16.5 274.1,16 275.2,15.7 C279.9,14.5 283.3,18.3 282.1,22.8 C281.3,25.2 280.4,27.6 279.7,30 C279,32 278.1,35.2 279.4,35.9 C280.1,36.2 281,36 281.6,35.8 C284.6,34.6 287.9,29.1 289.9,25.5 C290.3,24.8 291.2,24.5 291.9,24.9 C292.6,25.3 292.9,26.2 292.5,26.9 C290.1,31.5 286.6,37 282.6,38.6 C281.2,39.1 279.4,39.3 278,38.5 C274.7,36.8 275.8,32.1 276.7,29.4 C277.5,26.9 278.4,24.4 279.1,22 C280.2,18 275.1,16 269.5,24 C268.7,25.1 268.6,25.5 268.2,26.8 L264.6,38 C264.3,38.8 263.5,39.3 262.7,39 C261.9,38.7 261.5,37.9 261.8,37.1 L273.3,1.4 Z" id="Shape"></path>
                <path d="M296.5,36.2 C303.2,35.9 306.8,31 309.7,25.6 C310.1,24.9 311,24.6 311.8,25 C312.5,25.4 312.8,26.3 312.4,27 C308.9,33.4 304.7,38.9 296.7,39.2 C294.1,39.3 291.7,38.6 290.2,36.9 C284.8,30.9 293.6,15.9 301.6,15.5 C304.4,15.4 306.5,16.8 306.8,19.5 C307.1,22.9 304.4,26.4 301,29.2 C298.3,31.4 295,33.1 292.5,33.8 C292.2,33.9 292,34.1 292,34.3 C292.7,35.7 294.4,36.2 296.5,36.2 Z M298.9,26.8 C301.6,24.6 303.8,21.9 303.5,19.6 C303.4,18.7 302.6,18.5 301.5,18.5 C297.3,18.8 292.7,25 291.6,29.9 C291.5,30.8 291.4,30.9 292.2,30.7 C294.2,29.9 296.7,28.6 298.9,26.8 Z" id="Shape"></path>
            </g>
            <g transform="translate(835.000000, 0.000000)">
                <path d="M59.3,118.4 C55.6,118.4 52,118.1 48.3,117.4 C40.5,115.9 33.2,112.9 26.5,108.5 C19.8,104.1 14.3,98.5 9.9,91.9 C5.7,85.5 2.8,78.4 1.3,70.9 C-0.2,63.4 -0.3,55.7 1.2,48.2 C2.7,40.4 5.7,33.1 10.1,26.4 C14.5,19.7 20.1,14.2 26.8,9.8 C33.2,5.6 40.3,2.7 47.8,1.2 C55.3,-0.3 63,-0.4 70.5,1.1 C78.3,2.6 85.6,5.6 92.3,10 C99,14.4 104.5,20 108.9,26.6 C113.1,33 116,40.1 117.5,47.6 C119,55.1 119.1,62.8 117.6,70.3 C116.1,78.1 113.1,85.4 108.7,92.1 C104.3,98.8 98.7,104.3 92,108.7 C85.6,112.9 78.6,115.8 71,117.3 C67.1,118 63.2,118.4 59.3,118.4 Z" id="Shape" fill="#FF3333"></path>
                <g transform="translate(30.000000, 24.000000)" fill="#FFFFFF" id="Shape">
                    <path d="M30.2,13.5 C33.8,8 41.4,6.8 46.7,11 C51.3,14.7 52.1,21.4 48.9,26.3 L41,38.2 L38.3,36.4 C38,36.2 37.5,36.4 37.6,36.8 L38.3,48.2 C38.3,48.8 39,49.3 39.6,49 L50.3,45.2 C50.7,45.1 50.7,44.6 50.4,44.3 L47.6,42.5 L55.4,30.7 C61.2,22 59.3,10.1 50.8,4.1 C42,-2.1 29.7,0.2 23.8,9.1 L22.3,11.4 C21.1,13.2 21.6,15.7 23.4,16.9 C25.2,18.1 27.7,17.6 28.9,15.8 L30.2,13.5 Z"></path>
                    <path d="M28.5,56.9 C24.9,62.4 17.3,63.6 12,59.4 C7.4,55.7 6.6,49 9.9,44.2 L17.8,32.3 L20.5,34.1 C20.8,34.3 21.3,34.1 21.2,33.7 L20.5,22.3 C20.5,21.7 19.8,21.2 19.2,21.5 L8.5,25.3 C8.1,25.4 8.1,25.9 8.4,26.2 L11.2,28 L3.4,39.8 C-2.4,48.5 -0.5,60.4 8,66.4 C16.8,72.7 29.1,70.3 35,61.4 L36.5,59.1 C37.7,57.3 37.2,54.8 35.4,53.6 C33.6,52.4 31.1,52.9 29.9,54.7 L28.5,56.9 Z"></path>
                </g>
            </g>
        </g>
    </g>
</svg>