<?xml version="1.0" encoding="utf-8"?>
<!-- Generator: Adobe Illustrator 18.1.1, SVG Export Plug-In . SVG Version: 6.00 Build 0)  -->
<svg version="1.1" xmlns="http://www.w3.org/2000/svg" xmlns:xlink="http://www.w3.org/1999/xlink" x="0px" y="0px"
	 viewBox="0 0 1080 318" enable-background="new 0 0 1080 318" xml:space="preserve">
<g id="Background">
	<g id="_x3C_OpenDev_Logo_x3E_">
		<path fill="#FFFFFF" d="M322.3,157.3c0,13.5-10.9,24.5-24.4,24.5c-13.5,0-24.5-11-24.5-24.5c0-13.5,11-24.4,24.5-24.4
			C311.3,132.9,322.3,143.8,322.3,157.3 M297.8,122.4c-19.2,0-34.8,15.6-34.8,34.8s15.6,34.8,34.8,34.8s34.8-15.6,34.8-34.8
			S317.1,122.4,297.8,122.4"/>
		<path fill="#FFFFFF" d="M401.1,157.3c0,13.5-10.9,24.5-24.4,24.5c-13.5,0-24.5-11-24.5-24.5c0-13.5,11-24.4,24.5-24.4
			C390.1,132.9,401.1,143.8,401.1,157.3 M376.7,122.4c-19.2,0-34.8,15.6-34.8,34.9v57.4c0,1.7,1.2,2.9,2.9,2.9h4.4
			c1.7,0,2.9-1.2,2.9-2.9v-33c6.5,6.6,15.5,10.3,24.7,10.3c19.2,0,34.8-15.6,34.8-34.8S395.9,122.4,376.7,122.4"/>
		<path fill="#FFFFFF" d="M599.8,183.8c-14.6,0-26.5-11.9-26.5-26.5c0-14.7,11.9-26.6,26.5-26.6c14.7,0,26.6,11.9,26.6,26.6
			C626.4,171.9,614.4,183.8,599.8,183.8 M631.7,99h-4.4c-0.6,0-0.8,0.2-0.8,0.8v38.3l-2.8-3c-6.2-6.7-15-10.6-24-10.6
			c-18.1,0-32.7,14.7-32.7,32.7c0,18.1,14.7,32.7,32.7,32.7s32.7-14.7,32.7-32.7l-0.1-2.5h0.1v-55C632.5,99.2,632.3,99,631.7,99"/>
		<path fill="#FFFFFF" d="M430.6,152c2.3-12.9,13.1-19.7,22.9-19.7c11.1,0,20.9,8.4,23,19.7H430.6z M453.5,122.4
			c-19.2,0-33.8,14.5-33.8,33.6c0,17.7,13,36,34.7,36c10.1,0,19.5-4,26.6-11.4c1.1-1.2,1-2.7,0-3.8l-2.7-3.4c-0.7-0.9-1.5-1.2-2-1.2
			c-1.2-0.1-1.8,0.6-2,0.8c-3.5,3.2-10.7,8.6-20,8.6c-12,0-21.7-8.6-23.8-20.9h54.1c1.8,0,2.9-1.1,2.9-2.9l0-0.1
			C486.6,137,472.5,122.4,453.5,122.4"/>
		<path fill="#FFFFFF" d="M653.8,152.2c2.2-14.4,14.2-22,25-22c12.3,0,23.1,9.5,25.1,22l0.3,1.8h-50.7L653.8,152.2z M679.8,190
			c9.5,0,18.4-3.8,25.1-10.7c0.4-0.4,0.4-0.7-0.1-1.2l-2.7-3.4l-0.5-0.4l-0.4,0.3c-3.7,3.4-11.4,9.1-21.4,9.1
			c-13.2,0-23.9-9.5-25.9-23.2l-0.3-1.8h56.6c0.6,0,0.8-0.1,0.8-0.8c-1-19.6-14.2-33.4-32.1-33.4c-18.1,0-31.7,13.6-31.7,31.5
			C647.1,172.7,659.3,190,679.8,190"/>
		<path fill="#FFFFFF" d="M743.4,188.9h2.8c0.7,0,0.8-0.4,0.9-0.6l25.7-62.7l0-0.1l-0.1,0H767c-0.7,0-0.8,0.4-0.9,0.6l-21.2,54
			l-21.1-54c-0.1-0.2-0.2-0.6-0.9-0.6h-5.9l-0.1,0l0,0.1l25.5,62.6C742.6,188.5,742.8,188.9,743.4,188.9"/>
		<path fill="#FFFFFF" d="M546.3,188.9 M550.8,191c1.7,0,2.9-1.2,2.9-2.9v-37.5c0-15.5-12.6-28.1-28.2-28.2l-0.3,0
			c-15.5,0-28.1,12.6-28.1,28.2v37.5c0,1.7,1.2,2.9,2.9,2.9h4.5c1.7,0,2.9-1.2,2.9-2.9v-37.5c0-9.9,8.1-18,18-18c9.9,0,18,8.1,18,18
			v37.5c0,1.7,1.2,2.9,2.9,2.9H550.8z"/>
		<path fill="#D31366" d="M209.2,168.2c-1.7,0-3.1,1.4-3.1,3.1s1.4,3.1,3.1,3.1c1.7,0,3.1-1.4,3.1-3.1S210.9,168.2,209.2,168.2"/>
		<path fill="#D31366" d="M209.2,208.1c1.7,0,3.1-1.4,3.1-3.1c0-1.7-1.4-3.1-3.1-3.1c-1.7,0-3.1,1.4-3.1,3.1
			C206,206.7,207.4,208.1,209.2,208.1"/>
		<path fill="#D31366" d="M77.5,162c-0.6-0.6-1.4-0.9-2.2-0.9c-0.8,0-1.6,0.3-2.2,0.9c-1.2,1.2-1.2,3.2,0,4.4c1.2,1.2,3.2,1.2,4.4,0
			C78.7,165.2,78.7,163.2,77.5,162"/>
		<path fill="#D31366" d="M97.9,136.3c-0.8,0-1.6,0.3-2.2,0.9c-1.2,1.2-1.2,3.2,0,4.4c1.2,1.2,3.3,1.2,4.4,0c1.2-1.2,1.2-3.2,0-4.4
			C99.5,136.6,98.7,136.3,97.9,136.3"/>
		<path fill="#D31366" d="M88.4,171.3c0-10.9,8.9-19.8,19.8-19.8c10.9,0,19.8,8.9,19.8,19.8c0,10.9-8.9,19.8-19.8,19.8
			C97.3,191.1,88.4,182.2,88.4,171.3 M195.5,154.3v34c0,1.5-1.2,2.8-2.8,2.8h-17c-10.9,0-19.8-8.9-19.8-19.8
			c0-10.9,8.9-19.8,19.8-19.8h17C194.2,151.5,195.5,152.8,195.5,154.3 M219.4,124l-7.5,0v39.1c3.4,1.2,5.9,4.4,5.9,8.2
			c0,4.8-3.9,8.7-8.7,8.7c-4.8,0-8.7-3.9-8.7-8.7c0-3.8,2.5-7,5.9-8.2v-41.9c0-1.5,1.2-2.8,2.8-2.8l7.5,0v-7.1h-21.1v26.3
			c0,1.5-1.2,2.8-2.8,2.8h-17.2c-17,0-30.9,13.9-30.9,30.9c0,17,13.9,30.9,30.9,30.9H201c1.2-3.4,4.4-5.9,8.2-5.9
			c4.8,0,8.7,3.9,8.7,8.7c0,4.8-3.9,8.7-8.7,8.7c-3.8,0-7-2.5-8.2-5.9h-25.5c-15.2,0-28.2-9.3-33.7-22.5c-1.8,4.4-4.4,8.5-8,12.1
			c-7.1,7.1-16.4,10.7-25.8,10.7c-9.3,0-18.7-3.6-25.8-10.7c-6.8-6.8-10.5-15.7-10.6-25.3c-0.9-0.4-1.8-1-2.6-1.8
			c-3.4-3.4-3.4-8.9,0-12.3c3.3-3.3,9-3.3,12.3,0c3.4,3.4,3.4,8.9,0,12.3h0c-1.2,1.2-2.6,1.9-4.1,2.3c0.3,7.9,3.4,15.2,9,20.8
			c12,12,31.6,12,43.7,0c12-12,12-31.6,0-43.7c-6.3-6.3-14.7-9.4-23.4-9c-0.3,1.8-1.1,3.5-2.4,4.8c-1.6,1.6-3.8,2.5-6.1,2.5
			c-2.3,0-4.5-0.9-6.1-2.5c-3.4-3.4-3.4-8.9,0-12.3c3.4-3.4,8.9-3.4,12.3,0c0.6,0.6,1,1.3,1.4,2c10.6-0.8,20.8,3,28.4,10.5
			c3.5,3.5,6.1,7.5,7.9,11.9c5.4-13.3,18.5-22.8,33.8-22.8h14.4v-26.3c0-1.5,1.2-2.8,2.8-2.8h26.7c1.5,0,2.8,1.2,2.8,2.8v12.7
			C222.2,122.8,220.9,124,219.4,124 M152.7,66.9c-51.3,0-92.8,41.6-92.8,92.8c0,51.3,41.6,92.8,92.8,92.8s92.8-41.5,92.8-92.8
			C245.5,108.5,203.9,66.9,152.7,66.9"/>
		<path fill="#D31366" d="M122.4,171.3c0-7.9-6.4-14.2-14.2-14.2c-7.9,0-14.2,6.4-14.2,14.2c0,7.9,6.4,14.2,14.2,14.2
			C116,185.6,122.4,179.2,122.4,171.3"/>
		<path fill="#D31366" d="M161.4,171.3c0,7.9,6.4,14.2,14.2,14.2h14.2v-28.5h-14.2C167.8,157.1,161.4,163.5,161.4,171.3"/>
		<path fill="#D31366" d="M835.5,159.7L835.5,159.7c-0.1-6.7,5.3-12.3,12-12.3l0.5,0c4-0.2,7.8,1.7,10.1,5l-4.9,3.8
			c-1.4-1.7-2.9-2.7-5.2-2.7c-3.3,0-5.6,2.8-5.6,6.2v0.1c0,3.6,2.4,6.3,5.6,6.3c2.4,0,3.9-1.1,5.3-2.9l5,3.5
			c-3.9,5.7-11.7,7-17.4,3.1C837.6,167.4,835.6,163.7,835.5,159.7"/>
		<rect x="861.8" y="147.8" fill="#D31366" width="6.5" height="23.7"/>
		<path fill="#D31366" d="M935.8,159.7L935.8,159.7c-0.1-6.7,5.3-12.3,12-12.3l0.5,0c4-0.2,7.8,1.7,10.1,5l-4.9,3.8
			c-1.4-1.7-2.9-2.7-5.2-2.7c-3.3,0-5.6,2.8-5.6,6.2v0.1c0,3.6,2.4,6.3,5.6,6.3c2.4,0,3.9-1.1,5.3-2.9l5,3.5
			c-3.9,5.7-11.7,7-17.4,3.1C937.9,167.4,935.9,163.7,935.8,159.7"/>
		<path fill="#D31366" d="M971.2,165.6c3.9,0,6.6-2.1,6.6-6v-0.1c0-3.8-2.6-6-6.6-6h-2.7v12L971.2,165.6L971.2,165.6z M962,147.8
			h9.1c8.5,0,13.3,4.9,13.3,11.7v0.1c0,6.9-5,11.9-13.5,11.9h-9V147.8z"/>
		<path fill="#D31366" d="M850.8,107.4l6.9,6.9c17.5,1.4,32.6,12.8,38.9,29.2c1.7-6.3,4.2-12.4,7.6-18
			c-10.3-15.1-26.9-24.7-45.1-26.3L850.8,107.4z"/>
		<path fill="#D31366" d="M850.8,212.1l-8.3-8.3c-24.4-6.3-39.1-31.2-32.8-55.5c4.6-17.8,19.4-31,37.5-33.7l-7.2-7.2l5.4-5.4
			l2.9-2.9c-33.4,3.1-58,32.8-54.9,66.2c2.6,27.2,23,49.4,49.9,54.2L850.8,212.1z"/>
		<path fill="#D31366" d="M962.4,99l8.5,8.5l-5.4,5.4l-1.4,1.4c25.1,2.1,43.8,24.1,41.7,49.2c-1.7,20.9-17.5,38-38.2,41.3l-7.4,7.4
			l7.8,7.8c33.3-4.2,56.9-34.6,52.6-67.9C1016.9,122.5,992.2,100,962.4,99z"/>
		<path fill="#D31366" d="M952.8,114.7l7.3-7.3l-8-8c-30.2,4.1-52.7,29.8-52.6,60.3c0,24.9-20,45.2-44.9,45.6l6.9,6.9l-5.4,5.4l-3,3
			h0.8c33.5,0,60.8-27.2,60.8-60.7v-0.1C914.7,137.5,930.8,118.5,952.8,114.7"/>
		<path fill="#D31366" d="M949.4,212.1l5.4-5.4l1.7-1.7c-17.4-1.6-32.4-12.9-38.7-29.2c-1.7,6.4-4.2,12.4-7.6,18.1
			c10.8,15.8,28.4,25.6,47.5,26.4L949.4,212.1z"/>
	</g>
</g>
<g id="Overlay">
</g>
</svg>
