<?xml version="1.0" encoding="utf-8"?>
<!-- Generator: Adobe Illustrator 22.1.0, SVG Export Plug-In . SVG Version: 6.00 Build 0)  -->
<svg version="1.1" id="Layer_1" xmlns="http://www.w3.org/2000/svg" xmlns:xlink="http://www.w3.org/1999/xlink" x="0px" y="0px"
	 viewBox="0 0 886 282" style="enable-background:new 0 0 886 282;" xml:space="preserve">
<style type="text/css">
	.st0{fill:#ED1944;}
	.st1{fill:#FFFFFF;}
	.st2{fill:#00468B;}
	.st3{fill:#F8F8FA;}
</style>
<g>
	<g>
		<g>
			<g>
				<g>
					<path class="st0" d="M752.3,131.9c-3.9,0-7.8-0.4-11.6-1.1c-8.2-1.6-16-4.7-23-9.4s-13-10.6-17.6-17.6
						c-4.5-6.8-7.5-14.2-9.1-22.2c-1.6-8-1.7-16.1-0.1-24c1.6-8.2,4.7-16,9.4-23c4.7-7,10.6-13,17.6-17.6c6.8-4.5,14.2-7.5,22.2-9.1
						c8-1.6,16.1-1.7,24-0.1c8.2,1.6,16,4.7,23,9.4s13,10.6,17.6,17.6c4.5,6.8,7.5,14.2,9.1,22.2c1.6,8,1.7,16.1,0.1,24
						c-1.6,8.2-4.7,16-9.4,23c-4.7,7-10.6,13-17.6,17.6c-6.8,4.5-14.2,7.5-22.2,9.1C760.6,131.5,756.5,131.9,752.3,131.9z"/>
				</g>
			</g>
		</g>
		<g>
			<g>
				<path class="st1" d="M753.3,46.2c3.8-5.8,11.9-7.1,17.4-2.7c4.9,3.9,5.7,11,2.3,16.1l-8.4,12.6l-2.8-1.9c-0.3-0.2-0.8,0-0.8,0.5
					l0.7,12c0,0.7,0.7,1.1,1.4,0.9l11.4-4c0.4-0.1,0.5-0.7,0.1-0.9l-2.9-2l8.3-12.5c6.1-9.2,4.1-21.8-4.9-28.2
					c-9.4-6.6-22.3-4.2-28.6,5.3l-1.6,2.4c-1.3,1.9-0.8,4.5,1.2,5.8v0c1.9,1.3,4.5,0.8,5.8-1.2L753.3,46.2z"/>
			</g>
			<g>
				<path class="st1" d="M751.5,92.1c-3.8,5.8-11.9,7.1-17.4,2.7c-4.9-3.9-5.7-11-2.3-16.1l8.4-12.6l2.8,1.9c0.3,0.2,0.8,0,0.8-0.5
					l-0.7-12c0-0.7-0.7-1.1-1.4-0.9l-11.4,4c-0.4,0.1-0.5,0.7-0.1,0.9l2.9,2l-8.3,12.5c-6.1,9.2-4.1,21.8,4.9,28.2
					c9.4,6.6,22.3,4.2,28.6-5.3l1.6-2.4c1.3-1.9,0.8-4.5-1.2-5.8v0c-1.9-1.3-4.5-0.8-5.8,1.2L751.5,92.1z"/>
			</g>
		</g>
	</g>
	<g>
		<g>
			<g>
				<path class="st1" d="M5.6,266.7v-0.2c0-5.6,3.2-9.4,7.7-9.4c2.5,0,4.2,1,5.5,2.5l-2.1,3c-1-1.1-2.1-1.9-3.5-1.9
					c-2.3,0-4,2.3-4,5.9v0.1c0,3.7,1.8,5.9,4,5.9c1.4,0,2.4-0.7,3.5-1.9l2.1,2.7c-1.5,1.7-3.2,2.8-5.8,2.8
					C8.6,276.1,5.6,272.4,5.6,266.7z"/>
				<path class="st1" d="M21.9,257.3h3.5v18.6h-3.5V257.3z"/>
				<path class="st1" d="M36.3,254.9h2.9L30.1,279h-2.9L36.3,254.9z"/>
				<path class="st1" d="M39.7,266.7v-0.2c0-5.6,3.2-9.4,7.7-9.4c2.5,0,4.2,1,5.5,2.5l-2.1,3c-1-1.1-2.1-1.9-3.5-1.9
					c-2.3,0-4,2.3-4,5.9v0.1c0,3.7,1.8,5.9,4,5.9c1.4,0,2.4-0.7,3.5-1.9l2.1,2.7c-1.5,1.7-3.2,2.8-5.8,2.8
					C42.8,276.1,39.7,272.4,39.7,266.7z"/>
				<path class="st1" d="M55.9,257.3h5.5c4.9,0,8.1,3.7,8.1,9.1v0.2c0,5.4-3.2,9.2-8.1,9.2h-5.5V257.3z M59.4,260.8v11.6h1.9
					c2.7,0,4.5-2,4.5-5.7v-0.1c0-3.7-1.8-5.8-4.5-5.8H59.4z"/>
				<path class="st1" d="M90.7,257.3h3.5v18.6h-3.5V257.3z"/>
				<path class="st1" d="M115.5,266.7v-0.2c0-5.6,3.2-9.4,7.7-9.4c2.5,0,4.2,1,5.5,2.5l-2.1,3c-1-1.1-2.1-1.9-3.5-1.9
					c-2.3,0-4,2.3-4,5.9v0.1c0,3.7,1.8,5.9,4,5.9c1.4,0,2.4-0.7,3.5-1.9l2.1,2.7c-1.5,1.7-3.2,2.8-5.8,2.8
					C118.5,276.1,115.5,272.4,115.5,266.7z"/>
				<path class="st1" d="M130.5,266.8v-0.3c0-5.6,3.2-9.5,7.7-9.5c4.5,0,7.7,3.9,7.7,9.4v0.3c0,5.5-3.2,9.5-7.7,9.5
					C133.7,276.2,130.5,272.3,130.5,266.8z M142.3,266.7v-0.2c0-3.7-1.7-6-4.1-6c-2.4,0-4.1,2.3-4.1,5.9v0.2c0,3.7,1.7,6,4.1,6
					C140.6,272.6,142.3,270.3,142.3,266.7z"/>
				<path class="st1" d="M148.8,257.3h3.2l6.5,10.8v-10.8h3.5v18.6h-3l-6.7-11.2v11.2h-3.5V257.3z"/>
				<path class="st1" d="M169.3,260.8H165v-3.6h12.1v3.6h-4.3v15h-3.5V260.8z"/>
				<path class="st1" d="M183.2,257.2h3.4l6.1,18.7H189l-1.3-4h-5.9l-1.2,4h-3.6L183.2,257.2z M186.6,268.4l-1.8-6l-1.9,6H186.6z"/>
				<path class="st1" d="M195.2,257.3h3.5v18.6h-3.5V257.3z"/>
				<path class="st1" d="M202.2,257.3h3.2l6.5,10.8v-10.8h3.5v18.6h-3l-6.7-11.2v11.2h-3.5V257.3z"/>
				<path class="st1" d="M218.6,257.3h11v3.5h-7.5v4h6.6v3.5h-6.6v4.1h7.6v3.5h-11.1V257.3z"/>
				<path class="st1" d="M232.6,257.3h6.4c2,0,3.6,0.6,4.6,1.8c0.9,1,1.4,2.5,1.4,4.3v0.1c0,2.8-1.3,4.6-3.2,5.5l3.6,6.9h-4
					l-3.1-6.1h-2.2v6.1h-3.5V257.3z M238.8,266.4c1.8,0,2.8-1.1,2.8-2.8v0c0-1.9-1-2.8-2.8-2.8h-2.5v5.6H238.8z"/>
				<path class="st1" d="M247,273.4l2.1-2.8c1.1,1.1,2.5,2.1,4.2,2.1c1.4,0,2.2-0.7,2.2-1.8v0c0-0.9-0.5-1.5-2.9-2.5
					c-3-1.3-4.9-2.5-4.9-5.7v-0.1c0-3.2,2.3-5.4,5.6-5.4c2,0,3.9,0.7,5.5,2.3l-2,2.9c-1.1-1-2.3-1.7-3.6-1.7c-1.2,0-2,0.7-2,1.6v0
					c0,1.1,0.6,1.6,3.2,2.8c3,1.3,4.6,2.7,4.6,5.5v0.1c0,3.4-2.4,5.6-5.7,5.6C251.2,276.1,248.9,275.3,247,273.4z"/>
				<path class="st1" d="M280.1,257.3h3.5v18.6h-3.5V257.3z"/>
				<path class="st1" d="M305.4,257.3h11v3.5h-7.5v4h6.6v3.5h-6.6v4.1h7.6v3.5h-11.1V257.3z"/>
				<path class="st1" d="M319.8,257.3h5.5c4.9,0,8.1,3.7,8.1,9.1v0.2c0,5.4-3.2,9.2-8.1,9.2h-5.5V257.3z M323.3,260.8v11.6h1.9
					c2.7,0,4.5-2,4.5-5.7v-0.1c0-3.7-1.8-5.8-4.5-5.8H323.3z"/>
				<path class="st1" d="M335.9,266.7v-0.2c0-5.5,3.3-9.4,8-9.4c2.4,0,4,0.7,5.6,2.2l-2.1,3c-0.9-0.9-1.9-1.6-3.5-1.6
					c-2.4,0-4.3,2.4-4.3,5.8v0.2c0,3.8,1.9,6,4.4,6c1,0,1.9-0.3,2.5-0.8v-3.3h-3.1v-3.3h6.4v8.6c-1.6,1.3-3.5,2.3-6.1,2.3
					C339.2,276.1,335.9,272.5,335.9,266.7z"/>
				<path class="st1" d="M353.2,257.3h11v3.5h-7.5v4h6.6v3.5h-6.6v4.1h7.6v3.5h-11.1V257.3z"/>
				<path class="st1" d="M385.5,257.3h3.5v18.6h-3.5V257.3z"/>
				<path class="st1" d="M410.9,257.3h3.5v7.5h5.6v-7.5h3.5v18.6H420v-7.6h-5.6v7.6h-3.5V257.3z"/>
				<path class="st1" d="M427.4,257.3h5.7c3.8,0,6.2,2.4,6.2,6.4v0.1c0,4.3-2.8,6.4-6.4,6.5h-2v5.6h-3.5V257.3z M432.9,266.8
					c1.8,0,2.8-1.2,2.8-3v0c0-1.9-1-3-2.9-3h-1.9v6H432.9z"/>
				<path class="st1" d="M441.5,266.7v-0.2c0-5.6,3.2-9.4,7.7-9.4c2.5,0,4.2,1,5.5,2.5l-2.1,3c-1-1.1-2.1-1.9-3.5-1.9
					c-2.3,0-4,2.3-4,5.9v0.1c0,3.7,1.8,5.9,4,5.9c1.4,0,2.4-0.7,3.5-1.9l2.1,2.7c-1.5,1.7-3.2,2.8-5.8,2.8
					C444.5,276.1,441.5,272.4,441.5,266.7z"/>
				<path class="st1" d="M475.6,257.3h3.5v18.6h-3.5V257.3z"/>
				<path class="st1" d="M501,257.3h3.2l6.5,10.8v-10.8h3.5v18.6h-3l-6.7-11.2v11.2H501V257.3z"/>
				<path class="st1" d="M517,257.3h11v3.5h-7.4v4.2h6.5v3.5h-6.5v7.3H517V257.3z"/>
				<path class="st1" d="M530.3,257.3h3.8l3.6,12.8l3.6-12.8h3.7l-5.7,18.7H536L530.3,257.3z"/>
				<path class="st1" d="M565.5,257.3h3.5v18.6h-3.5V257.3z"/>
				<path class="st1" d="M590.9,257.3h5.7c3.8,0,6.2,2.4,6.2,6.4v0.1c0,4.3-2.8,6.4-6.4,6.5h-2v5.6h-3.5V257.3z M596.4,266.8
					c1.8,0,2.8-1.2,2.8-3v0c0-1.9-1-3-2.9-3h-1.9v6H596.4z"/>
				<path class="st1" d="M605.4,268.6v-11.3h3.5v11.4c0,2.6,1.1,3.9,3,3.9c1.8,0,3-1.3,3-3.8v-11.5h3.5v11.3c0,5.1-2.6,7.6-6.5,7.6
					C607.9,276.1,605.4,273.6,605.4,268.6z"/>
				<path class="st1" d="M622,257.3h6.3c1.9,0,3.5,0.6,4.5,1.6c0.8,0.8,1.1,1.9,1.1,3.2v0.1c0,2.2-1.1,3.3-2.3,4.1
					c1.8,0.8,3,2,3,4.4v0.1c0,3.3-2.5,5.1-6.2,5.1H622V257.3z M630.5,262.7c0-1.4-0.9-2.1-2.4-2.1h-2.6v4.2h2.5
					C629.5,264.9,630.5,264.2,630.5,262.7L630.5,262.7z M628.5,268.1h-3.1v4.3h3.2c1.6,0,2.6-0.7,2.6-2.2v0
					C631.2,268.9,630.3,268.1,628.5,268.1z"/>
				<path class="st1" d="M637.7,257.3h3.5v15h6.9v3.5h-10.4V257.3z"/>
				<path class="st1" d="M651.1,257.3h3.5v18.6h-3.5V257.3z"/>
				<path class="st1" d="M658,266.7v-0.2c0-5.6,3.2-9.4,7.7-9.4c2.5,0,4.2,1,5.5,2.5l-2.1,3c-1-1.1-2.1-1.9-3.5-1.9
					c-2.3,0-4,2.3-4,5.9v0.1c0,3.7,1.8,5.9,4,5.9c1.4,0,2.4-0.7,3.5-1.9l2.1,2.7c-1.5,1.7-3.2,2.8-5.8,2.8
					C661.1,276.1,658,272.4,658,266.7z"/>
				<path class="st1" d="M688.8,274.2c-1.2,1.2-2.6,1.9-4.5,1.9c-2.9,0-5.2-2-5.2-5.2v-0.1c0-2.3,1.1-4,3.1-5.2
					c-0.9-1.4-1.3-2.6-1.3-3.9v-0.1c0-2.5,1.8-4.7,4.7-4.7c2.7,0,4.4,2,4.4,4.5v0.1c0,2.4-1.3,3.8-3.2,4.9l2,2.7
					c0.4-0.8,0.8-1.7,1.3-2.9l2.6,1.2c-0.5,1.5-1.2,2.9-1.9,4.2l2.2,2.7l-2.6,1.9L688.8,274.2z M687,271.9L684,268
					c-1,0.7-1.4,1.7-1.4,2.6v0.1c0,1.4,0.9,2.3,2.1,2.3C685.5,272.9,686.3,272.6,687,271.9z M687,261.7L687,261.7
					c0-1.1-0.6-1.7-1.4-1.7c-0.9,0-1.5,0.7-1.5,1.7v0.1c0,0.8,0.3,1.5,0.9,2.5C686.3,263.6,687,262.8,687,261.7z"/>
				<path class="st1" d="M701.6,257.3h5.7c3.8,0,6.2,2.4,6.2,6.4v0.1c0,4.3-2.8,6.4-6.4,6.5h-2v5.6h-3.5V257.3z M707.1,266.8
					c1.8,0,2.8-1.2,2.8-3v0c0-1.9-1-3-2.9-3h-1.9v6H707.1z"/>
				<path class="st1" d="M716.2,257.3h6.4c2,0,3.6,0.6,4.6,1.8c0.9,1,1.4,2.5,1.4,4.3v0.1c0,2.8-1.3,4.6-3.2,5.5l3.6,6.9h-4
					l-3.1-6.1h-2.2v6.1h-3.5V257.3z M722.3,266.4c1.8,0,2.8-1.1,2.8-2.8v0c0-1.9-1-2.8-2.8-2.8h-2.5v5.6H722.3z"/>
				<path class="st1" d="M732.2,257.3h3.5v18.6h-3.5V257.3z"/>
				<path class="st1" d="M738.3,257.3h3.8l3.6,12.8l3.6-12.8h3.7l-5.7,18.7H744L738.3,257.3z"/>
				<path class="st1" d="M757.3,257.2h3.4l6.1,18.7h-3.7l-1.3-4h-5.9l-1.2,4h-3.6L757.3,257.2z M760.7,268.4l-1.8-6l-1.9,6H760.7z"
					/>
				<path class="st1" d="M771,260.8h-4.3v-3.6h12.1v3.6h-4.3v15H771V260.8z"/>
				<path class="st1" d="M781.6,257.3h11v3.5h-7.5v4h6.6v3.5h-6.6v4.1h7.6v3.5h-11.1V257.3z"/>
				<path class="st1" d="M801.3,266.7v-0.2c0-5.6,3.2-9.4,7.7-9.4c2.5,0,4.2,1,5.5,2.5l-2.1,3c-1-1.1-2.1-1.9-3.5-1.9
					c-2.3,0-4,2.3-4,5.9v0.1c0,3.7,1.8,5.9,4,5.9c1.4,0,2.4-0.7,3.5-1.9l2.1,2.7c-1.5,1.7-3.2,2.8-5.8,2.8
					C804.3,276.1,801.3,272.4,801.3,266.7z"/>
				<path class="st1" d="M817.4,257.3h3.5v15h6.9v3.5h-10.4V257.3z"/>
				<path class="st1" d="M829.3,266.8v-0.3c0-5.6,3.2-9.5,7.7-9.5c4.5,0,7.7,3.9,7.7,9.4v0.3c0,5.5-3.2,9.5-7.7,9.5
					C832.5,276.2,829.3,272.3,829.3,266.8z M841.1,266.7v-0.2c0-3.7-1.7-6-4.1-6c-2.4,0-4.1,2.3-4.1,5.9v0.2c0,3.7,1.7,6,4.1,6
					C839.4,272.6,841.1,270.3,841.1,266.7z"/>
				<path class="st1" d="M847.6,268.6v-11.3h3.5v11.4c0,2.6,1.1,3.9,3,3.9c1.8,0,3-1.3,3-3.8v-11.5h3.5v11.3c0,5.1-2.6,7.6-6.5,7.6
					C850.1,276.1,847.6,273.6,847.6,268.6z"/>
				<path class="st1" d="M864,257.3h5.5c4.9,0,8.1,3.7,8.1,9.1v0.2c0,5.4-3.2,9.2-8.1,9.2H864V257.3z M867.5,260.8v11.6h1.9
					c2.7,0,4.5-2,4.5-5.7v-0.1c0-3.7-1.8-5.8-4.5-5.8H867.5z"/>
			</g>
			<rect x="5.5" y="4.4" class="st2" width="299.6" height="55"/>
			<g>
				<path class="st3" d="M29.2,23.9h4l3.1,12l3.3-12h3.3l3.3,12l3-12h3.9l-5.2,18.3h-3.5l-3.3-11.5l-3.3,11.5h-3.4L29.2,23.9z"/>
				<path class="st3" d="M58.3,23.9H70v3.4h-8v3.9h7v3.4h-7v4h8.1v3.4H58.3V23.9z"/>
				<path class="st3" d="M75.9,23.9h3.8v14.7H87v3.5H75.9V23.9z"/>
				<path class="st3" d="M90.8,33.1v-0.2c0-5.5,3.4-9.2,8.2-9.2c2.7,0,4.4,1,5.8,2.4l-2.3,2.9c-1.1-1.1-2.2-1.8-3.7-1.8
					c-2.4,0-4.2,2.3-4.2,5.8V33c0,3.6,1.9,5.8,4.3,5.8c1.5,0,2.5-0.7,3.7-1.9l2.3,2.7c-1.6,1.7-3.4,2.7-6.1,2.7
					C94,42.3,90.8,38.7,90.8,33.1z"/>
				<path class="st3" d="M109.1,33.2v-0.3c0-5.4,3.4-9.3,8.2-9.3c4.8,0,8.2,3.8,8.2,9.2v0.3c0,5.4-3.4,9.3-8.2,9.3
					C112.5,42.4,109.1,38.6,109.1,33.2z M121.6,33.1v-0.2c0-3.6-1.8-5.8-4.3-5.8c-2.5,0-4.3,2.2-4.3,5.8v0.2c0,3.6,1.8,5.8,4.4,5.8
					C119.9,38.9,121.6,36.7,121.6,33.1z"/>
				<path class="st3" d="M131.1,23.9h3.9l4,7.4l4-7.4h4v18.2h-3.7V30.5l-4.3,7.5H139l-4.3-7.4v11.5h-3.7V23.9z"/>
				<path class="st3" d="M153,23.9h11.7v3.4h-8v3.9h7v3.4h-7v4h8.1v3.4H153V23.9z"/>
				<path class="st3" d="M182.7,27.4h-4.6v-3.5H191v3.5h-4.6v14.7h-3.7V27.4z"/>
				<path class="st3" d="M194.9,33.2v-0.3c0-5.4,3.4-9.3,8.2-9.3c4.8,0,8.2,3.8,8.2,9.2v0.3c0,5.4-3.4,9.3-8.2,9.3
					C198.3,42.4,194.9,38.6,194.9,33.2z M207.4,33.1v-0.2c0-3.6-1.8-5.8-4.3-5.8c-2.5,0-4.3,2.2-4.3,5.8v0.2c0,3.6,1.8,5.8,4.4,5.8
					S207.4,36.7,207.4,33.1z"/>
				<path class="st3" d="M229.3,27.4h-4.6v-3.5h12.9v3.5H233v14.7h-3.7V27.4z"/>
				<path class="st3" d="M243.1,23.9h3.8v7.3h6v-7.3h3.8v18.2h-3.8v-7.4h-6v7.4h-3.8V23.9z"/>
				<path class="st3" d="M262.2,23.9h11.7v3.4h-8v3.9h7v3.4h-7v4h8.1v3.4h-11.8V23.9z"/>
			</g>
			<g>
				<g>
					<path class="st2" d="M10.2,225.4c-3.8-3.8-5.8-8.8-5.8-15.1v-33.6c0-6.3,1.9-11.3,5.8-15.1c3.8-3.8,9-5.7,15.4-5.7
						c6.4,0,11.6,1.9,15.5,5.7c3.9,3.8,5.8,8.8,5.8,15.1v33.6c0,6.3-1.9,11.3-5.8,15.1c-3.9,3.8-9,5.7-15.5,5.7
						C19.2,231.1,14,229.2,10.2,225.4z M30.3,216.4c1.2-1.4,1.8-3.2,1.8-5.4v-34.9c0-2.2-0.6-4-1.8-5.4c-1.2-1.4-2.8-2-4.7-2
						c-2,0-3.5,0.7-4.7,2c-1.2,1.4-1.7,3.2-1.7,5.4v34.9c0,2.2,0.6,4,1.7,5.4c1.2,1.4,2.7,2,4.7,2C27.6,218.4,29.1,217.7,30.3,216.4
						z"/>
					<path class="st2" d="M87.8,159.5c3,1.9,5.3,4.5,7,7.9c1.6,3.4,2.5,7.3,2.5,11.6c0,6.5-1.8,11.7-5.2,15.6
						c-3.5,3.9-8.1,5.9-13.8,5.9h-7.9c-0.4,0-0.5,0.2-0.5,0.5V229c0,0.4-0.1,0.6-0.4,0.9c-0.2,0.2-0.5,0.4-0.9,0.4H56.3
						c-0.4,0-0.6-0.1-0.9-0.4c-0.2-0.2-0.4-0.5-0.4-0.9v-71.1c0-0.3,0.1-0.6,0.4-0.9c0.2-0.2,0.5-0.4,0.9-0.4h21.2
						C81.3,156.7,84.7,157.6,87.8,159.5z M80.4,186.4c1.4-1.7,2-4.1,2-7.1c0-3.1-0.7-5.5-2-7.2c-1.4-1.7-3.2-2.6-5.4-2.6h-4.6
						c-0.4,0-0.5,0.2-0.5,0.5v18.5c0,0.4,0.2,0.5,0.5,0.5h4.6C77.2,189,79,188.2,80.4,186.4z"/>
					<path class="st2" d="M143.7,169.1c-0.2,0.2-0.5,0.4-0.9,0.4h-21.9c-0.4,0-0.5,0.2-0.5,0.5v16.6c0,0.4,0.2,0.5,0.5,0.5h12.6
						c0.3,0,0.6,0.1,0.9,0.4c0.2,0.2,0.4,0.5,0.4,0.9v10.2c0,0.4-0.1,0.6-0.4,0.9c-0.2,0.2-0.5,0.4-0.9,0.4h-12.6
						c-0.4,0-0.5,0.2-0.5,0.5V217c0,0.4,0.2,0.5,0.5,0.5h21.9c0.3,0,0.6,0.1,0.9,0.4c0.2,0.2,0.4,0.5,0.4,0.9V229
						c0,0.4-0.1,0.6-0.4,0.9c-0.2,0.2-0.5,0.4-0.9,0.4h-36c-0.4,0-0.6-0.1-0.9-0.4c-0.2-0.2-0.4-0.5-0.4-0.9v-71
						c0-0.3,0.1-0.6,0.4-0.9c0.2-0.2,0.5-0.4,0.9-0.4h36c0.3,0,0.6,0.1,0.9,0.4c0.2,0.2,0.4,0.5,0.4,0.9v10.2
						C144,168.6,143.9,168.9,143.7,169.1z"/>
					<path class="st2" d="M152.5,229.9c-0.2-0.2-0.4-0.5-0.4-0.9v-71c0-0.3,0.1-0.6,0.4-0.9c0.2-0.2,0.5-0.4,0.9-0.4h13.2
						c0.7,0,1.2,0.4,1.4,1l13.5,39.3c0.1,0.2,0.2,0.3,0.4,0.3c0.2,0,0.3-0.2,0.3-0.4V158c0-0.3,0.1-0.6,0.4-0.9
						c0.2-0.2,0.5-0.4,0.9-0.4h12.1c0.3,0,0.6,0.1,0.9,0.4c0.2,0.2,0.4,0.5,0.4,0.9v71c0,0.4-0.1,0.6-0.4,0.9
						c-0.2,0.2-0.5,0.4-0.9,0.4h-13.3c-0.7,0-1.2-0.3-1.4-1l-13.5-39.4c-0.1-0.2-0.2-0.3-0.4-0.3c-0.2,0-0.3,0.1-0.3,0.3l0.1,39.2
						c0,0.4-0.1,0.6-0.4,0.9c-0.2,0.2-0.5,0.4-0.9,0.4h-12.1C153,230.3,152.7,230.1,152.5,229.9z"/>
					<path class="st2" d="M227.3,229.9c-0.2-0.2-0.4-0.5-0.4-0.9v-71c0-0.3,0.1-0.6,0.4-0.9c0.2-0.2,0.5-0.4,0.9-0.4h12.3
						c0.3,0,0.6,0.1,0.9,0.4c0.2,0.2,0.4,0.5,0.4,0.9v71c0,0.4-0.1,0.6-0.4,0.9c-0.2,0.2-0.5,0.4-0.9,0.4h-12.3
						C227.9,230.3,227.6,230.1,227.3,229.9z"/>
					<path class="st2" d="M251.1,229.9c-0.2-0.2-0.4-0.5-0.4-0.9v-71c0-0.3,0.1-0.6,0.4-0.9c0.2-0.2,0.5-0.4,0.9-0.4h13.2
						c0.7,0,1.2,0.4,1.4,1l13.5,39.3c0.1,0.2,0.2,0.3,0.4,0.3c0.2,0,0.3-0.2,0.3-0.4V158c0-0.3,0.1-0.6,0.4-0.9
						c0.2-0.2,0.5-0.4,0.9-0.4H294c0.3,0,0.6,0.1,0.9,0.4c0.2,0.2,0.4,0.5,0.4,0.9v71c0,0.4-0.1,0.6-0.4,0.9
						c-0.2,0.2-0.5,0.4-0.9,0.4h-13.3c-0.7,0-1.2-0.3-1.4-1l-13.5-39.4c-0.1-0.2-0.2-0.3-0.4-0.3c-0.2,0-0.3,0.1-0.3,0.3l0.1,39.2
						c0,0.4-0.1,0.6-0.4,0.9c-0.2,0.2-0.5,0.4-0.9,0.4h-12.1C251.6,230.3,251.3,230.1,251.1,229.9z"/>
					<path class="st2" d="M341.6,169.1c-0.2,0.2-0.5,0.4-0.9,0.4h-21.8c-0.4,0-0.5,0.2-0.5,0.5v16.6c0,0.4,0.2,0.5,0.5,0.5h12.5
						c0.3,0,0.6,0.1,0.9,0.4c0.2,0.2,0.4,0.5,0.4,0.9v10.2c0,0.4-0.1,0.6-0.4,0.9c-0.2,0.2-0.5,0.4-0.9,0.4h-12.5
						c-0.4,0-0.5,0.2-0.5,0.5V229c0,0.4-0.1,0.6-0.4,0.9c-0.2,0.2-0.5,0.4-0.9,0.4h-12.3c-0.4,0-0.6-0.1-0.9-0.4
						c-0.2-0.2-0.4-0.5-0.4-0.9v-71c0-0.3,0.1-0.6,0.4-0.9c0.2-0.2,0.5-0.4,0.9-0.4h35.9c0.3,0,0.6,0.1,0.9,0.4
						c0.2,0.2,0.4,0.5,0.4,0.9v10.2C341.9,168.6,341.8,168.9,341.6,169.1z"/>
					<path class="st2" d="M375.7,229.2l-8.1-29c-0.1-0.3-0.3-0.4-0.5-0.4h-3.6c-0.4,0-0.5,0.2-0.5,0.5V229c0,0.4-0.1,0.6-0.4,0.9
						c-0.2,0.2-0.5,0.4-0.9,0.4h-12.3c-0.4,0-0.6-0.1-0.9-0.4c-0.2-0.2-0.4-0.5-0.4-0.9v-71.1c0-0.3,0.1-0.6,0.4-0.9
						c0.2-0.2,0.5-0.4,0.9-0.4h21.2c3.8,0,7.3,0.9,10.3,2.8c3,1.9,5.3,4.5,7,7.9c1.6,3.4,2.5,7.2,2.5,11.4c0,4.1-0.8,7.8-2.4,10.9
						c-1.6,3.1-3.8,5.6-6.6,7.5c-0.1,0.1-0.2,0.2-0.3,0.3c-0.1,0.1-0.1,0.2,0,0.4l9.7,31l0.1,0.4c0,0.7-0.4,1-1.2,1h-12.6
						C376.4,230.3,375.9,229.9,375.7,229.2z M363,170v17.8c0,0.4,0.2,0.5,0.5,0.5h4.7c2.2,0,3.9-0.8,5.3-2.5c1.4-1.7,2-4,2-6.8
						c0-3-0.7-5.4-2-7c-1.4-1.7-3.1-2.5-5.3-2.5h-4.7C363.2,169.5,363,169.7,363,170z"/>
					<path class="st2" d="M429.7,229.1L428,219c0-0.3-0.2-0.5-0.6-0.5h-13.1c-0.4,0-0.6,0.1-0.6,0.4l-1.9,10.2
						c-0.1,0.8-0.5,1.2-1.4,1.2h-12.3c-0.9,0-1.3-0.5-1-1.4l15.4-71c0.1-0.8,0.6-1.2,1.4-1.2H428c0.8,0,1.2,0.4,1.4,1.2l15.3,71
						l0.1,0.4c0,0.6-0.4,0.9-1.2,0.9h-12.6C430.2,230.3,429.8,229.9,429.7,229.1z M416.5,207.1h9c0.3,0,0.4-0.2,0.4-0.5l-4.4-27.1
						c-0.1-0.2-0.2-0.3-0.3-0.3c-0.1,0-0.2,0.1-0.3,0.3l-4.9,27.1C415.9,206.9,416,207.1,416.5,207.1z"/>
					<path class="st2" d="M458.2,228.7c-3.1-1.6-5.5-3.9-7.1-6.8c-1.7-2.9-2.5-6.2-2.5-10v-3.4c0-0.3,0.1-0.6,0.4-0.9
						c0.2-0.2,0.5-0.4,0.9-0.4h12.1c0.3,0,0.6,0.1,0.9,0.4c0.2,0.2,0.4,0.5,0.4,0.9v2.6c0,2.2,0.5,3.9,1.6,5.2c1.1,1.3,2.5,2,4.1,2
						c1.7,0,3.1-0.6,4.2-1.9c1.1-1.3,1.7-2.9,1.7-4.9c0-2.1-0.7-3.9-2-5.4c-1.4-1.5-4.1-3.7-8.1-6.7c-3.5-2.5-6.3-4.8-8.5-6.7
						c-2.2-2-4-4.4-5.6-7.2c-1.5-2.9-2.3-6.2-2.3-10c0-5.9,1.9-10.7,5.6-14.3c3.7-3.6,8.6-5.4,14.6-5.4c6.2,0,11.1,1.9,14.9,5.6
						c3.8,3.7,5.7,8.6,5.7,14.6v2.5c0,0.4-0.1,0.6-0.4,0.9c-0.2,0.2-0.5,0.4-0.9,0.4h-12.1c-0.4,0-0.6-0.1-0.9-0.4
						c-0.2-0.2-0.4-0.5-0.4-0.9v-2.8c0-2.2-0.5-3.9-1.6-5.2c-1.1-1.3-2.5-1.9-4.4-1.9c-1.7,0-3,0.6-4,1.8c-1,1.2-1.5,2.9-1.5,5.1
						c0,2.1,0.7,4,2,5.6c1.3,1.6,3.9,3.8,7.8,6.7c4.3,3.1,7.6,5.7,9.8,7.7c2.2,2,3.9,4.2,5.1,6.7c1.2,2.5,1.8,5.4,1.8,8.7
						c0,6.2-1.9,11.1-5.7,14.7c-3.8,3.6-8.7,5.5-14.8,5.5C464.9,231.1,461.3,230.3,458.2,228.7z"/>
					<path class="st2" d="M537.7,157.1c0.2,0.2,0.4,0.5,0.4,0.9v10.2c0,0.4-0.1,0.6-0.4,0.9c-0.2,0.2-0.5,0.4-0.9,0.4h-13.1
						c-0.4,0-0.5,0.2-0.5,0.5v59c0,0.4-0.1,0.6-0.4,0.9c-0.2,0.2-0.5,0.4-0.9,0.4h-12.3c-0.4,0-0.6-0.1-0.9-0.4
						c-0.2-0.2-0.4-0.5-0.4-0.9v-59c0-0.3-0.2-0.5-0.5-0.5h-12.6c-0.4,0-0.6-0.1-0.9-0.4c-0.2-0.2-0.4-0.5-0.4-0.9V158
						c0-0.3,0.1-0.6,0.4-0.9c0.2-0.2,0.5-0.4,0.9-0.4h41.6C537.1,156.8,537.4,156.9,537.7,157.1z"/>
					<path class="st2" d="M572.7,229.2l-8.1-29c-0.1-0.3-0.3-0.4-0.5-0.4h-3.6c-0.4,0-0.5,0.2-0.5,0.5V229c0,0.4-0.1,0.6-0.4,0.9
						c-0.2,0.2-0.5,0.4-0.9,0.4h-12.3c-0.4,0-0.6-0.1-0.9-0.4c-0.2-0.2-0.4-0.5-0.4-0.9v-71.1c0-0.3,0.1-0.6,0.4-0.9
						c0.2-0.2,0.5-0.4,0.9-0.4h21.2c3.8,0,7.3,0.9,10.3,2.8c3,1.9,5.3,4.5,7,7.9c1.6,3.4,2.5,7.2,2.5,11.4c0,4.1-0.8,7.8-2.4,10.9
						c-1.6,3.1-3.8,5.6-6.6,7.5c-0.1,0.1-0.2,0.2-0.3,0.3c-0.1,0.1-0.1,0.2,0,0.4l9.7,31l0.1,0.4c0,0.7-0.4,1-1.2,1h-12.6
						C573.4,230.3,572.9,229.9,572.7,229.2z M560,170v17.8c0,0.4,0.2,0.5,0.5,0.5h4.7c2.2,0,3.9-0.8,5.3-2.5c1.4-1.7,2-4,2-6.8
						c0-3-0.7-5.4-2-7c-1.4-1.7-3.1-2.5-5.3-2.5h-4.7C560.1,169.5,560,169.7,560,170z"/>
					<path class="st2" d="M600,225.2c-3.8-4-5.7-9.2-5.7-15.8V158c0-0.3,0.1-0.6,0.4-0.9c0.2-0.2,0.5-0.4,0.9-0.4h12.3
						c0.3,0,0.6,0.1,0.9,0.4c0.2,0.2,0.4,0.5,0.4,0.9v52.8c0,2.2,0.6,4.1,1.7,5.5c1.1,1.4,2.6,2.1,4.4,2.1c1.8,0,3.3-0.7,4.4-2.1
						c1.1-1.4,1.6-3.2,1.6-5.5V158c0-0.3,0.1-0.6,0.4-0.9c0.2-0.2,0.5-0.4,0.9-0.4h12.3c0.3,0,0.6,0.1,0.9,0.4
						c0.2,0.2,0.4,0.5,0.4,0.9v51.3c0,6.6-1.9,11.8-5.7,15.8c-3.8,4-8.8,5.9-15.1,5.9C608.9,231.1,603.8,229.1,600,225.2z"/>
					<path class="st2" d="M649.3,225.5c-3.8-3.7-5.7-8.8-5.7-15.1v-34c0-6.2,1.9-11.2,5.7-14.9c3.8-3.7,8.9-5.6,15.2-5.6
						c6.4,0,11.5,1.9,15.3,5.6c3.8,3.7,5.7,8.7,5.7,14.9v1.2c0,0.4-0.1,0.6-0.4,0.9c-0.2,0.2-0.5,0.4-0.9,0.4l-12.3,0.5
						c-0.8,0-1.3-0.4-1.3-1.2v-2.7c0-2-0.6-3.7-1.7-4.9c-1.1-1.3-2.6-1.9-4.5-1.9c-1.8,0-3.3,0.6-4.4,1.9c-1.1,1.3-1.7,2.9-1.7,4.9
						v36.2c0,2,0.6,3.7,1.7,4.9c1.1,1.2,2.6,1.8,4.4,1.8c1.9,0,3.4-0.6,4.5-1.8c1.1-1.2,1.7-2.9,1.7-4.9v-2.8c0-0.3,0.1-0.6,0.4-0.9
						c0.2-0.2,0.5-0.4,0.9-0.4l12.3,0.5c0.8,0,1.3,0.4,1.3,1.2v1.2c0,6.3-1.9,11.3-5.8,15.1c-3.8,3.7-8.9,5.6-15.2,5.6
						C658.1,231.1,653.1,229.2,649.3,225.5z"/>
					<path class="st2" d="M735.5,157.1c0.2,0.2,0.4,0.5,0.4,0.9v10.2c0,0.4-0.1,0.6-0.4,0.9c-0.2,0.2-0.5,0.4-0.9,0.4h-13.1
						c-0.4,0-0.5,0.2-0.5,0.5v59c0,0.4-0.1,0.6-0.4,0.9c-0.2,0.2-0.5,0.4-0.9,0.4h-12.3c-0.4,0-0.6-0.1-0.9-0.4
						c-0.2-0.2-0.4-0.5-0.4-0.9v-59c0-0.3-0.2-0.5-0.5-0.5H693c-0.4,0-0.6-0.1-0.9-0.4c-0.2-0.2-0.4-0.5-0.4-0.9V158
						c0-0.3,0.1-0.6,0.4-0.9c0.2-0.2,0.5-0.4,0.9-0.4h41.6C734.9,156.8,735.2,156.9,735.5,157.1z"/>
					<path class="st2" d="M748.9,225.2c-3.8-4-5.7-9.2-5.7-15.8V158c0-0.3,0.1-0.6,0.4-0.9c0.2-0.2,0.5-0.4,0.9-0.4h12.3
						c0.3,0,0.6,0.1,0.9,0.4c0.2,0.2,0.4,0.5,0.4,0.9v52.8c0,2.2,0.6,4.1,1.7,5.5c1.1,1.4,2.6,2.1,4.4,2.1c1.8,0,3.3-0.7,4.4-2.1
						c1.1-1.4,1.6-3.2,1.6-5.5V158c0-0.3,0.1-0.6,0.4-0.9c0.2-0.2,0.5-0.4,0.9-0.4h12.3c0.3,0,0.6,0.1,0.9,0.4
						c0.2,0.2,0.4,0.5,0.4,0.9v51.3c0,6.6-1.9,11.8-5.7,15.8c-3.8,4-8.8,5.9-15.1,5.9C757.8,231.1,752.7,229.1,748.9,225.2z"/>
					<path class="st2" d="M820.2,229.2l-8.1-29c-0.1-0.3-0.3-0.4-0.5-0.4H808c-0.4,0-0.5,0.2-0.5,0.5V229c0,0.4-0.1,0.6-0.4,0.9
						c-0.2,0.2-0.5,0.4-0.9,0.4H794c-0.4,0-0.6-0.1-0.9-0.4c-0.2-0.2-0.4-0.5-0.4-0.9v-71.1c0-0.3,0.1-0.6,0.4-0.9
						c0.2-0.2,0.5-0.4,0.9-0.4h21.2c3.8,0,7.3,0.9,10.3,2.8c3,1.9,5.3,4.5,7,7.9c1.6,3.4,2.5,7.2,2.5,11.4c0,4.1-0.8,7.8-2.4,10.9
						c-1.6,3.1-3.8,5.6-6.6,7.5c-0.1,0.1-0.2,0.2-0.3,0.3c-0.1,0.1-0.1,0.2,0,0.4l9.7,31l0.1,0.4c0,0.7-0.4,1-1.2,1h-12.6
						C820.9,230.3,820.4,229.9,820.2,229.2z M807.5,170v17.8c0,0.4,0.2,0.5,0.5,0.5h4.7c2.2,0,3.9-0.8,5.3-2.5c1.4-1.7,2-4,2-6.8
						c0-3-0.7-5.4-2-7c-1.4-1.7-3.1-2.5-5.3-2.5H808C807.7,169.5,807.5,169.7,807.5,170z"/>
					<path class="st2" d="M880.3,169.1c-0.2,0.2-0.5,0.4-0.9,0.4h-21.9c-0.4,0-0.5,0.2-0.5,0.5v16.6c0,0.4,0.2,0.5,0.5,0.5h12.6
						c0.3,0,0.6,0.1,0.9,0.4c0.2,0.2,0.4,0.5,0.4,0.9v10.2c0,0.4-0.1,0.6-0.4,0.9c-0.2,0.2-0.5,0.4-0.9,0.4h-12.6
						c-0.4,0-0.5,0.2-0.5,0.5V217c0,0.4,0.2,0.5,0.5,0.5h21.9c0.3,0,0.6,0.1,0.9,0.4c0.2,0.2,0.4,0.5,0.4,0.9V229
						c0,0.4-0.1,0.6-0.4,0.9c-0.2,0.2-0.5,0.4-0.9,0.4h-36c-0.4,0-0.6-0.1-0.9-0.4c-0.2-0.2-0.4-0.5-0.4-0.9v-71
						c0-0.3,0.1-0.6,0.4-0.9c0.2-0.2,0.5-0.4,0.9-0.4h36c0.3,0,0.6,0.1,0.9,0.4c0.2,0.2,0.4,0.5,0.4,0.9v10.2
						C880.7,168.6,880.6,168.9,880.3,169.1z"/>
				</g>
			</g>
			<g>
				<path class="st1" d="M16.7,83.8c3.3,0.1,5.9,2.8,5.9,6.1v36.5c-0.1,3.3-2.7,5.9-5.9,6H13c-3.3,0-6.1-2.7-6.1-6V89.9
					c0-3.3,2.7-6.1,6.1-6.1H16.7z M15.1,128.1c1.4,0,2.6-1.2,2.6-2.7V90.7c0-1.5-1.2-2.7-2.6-2.7h-0.7c-1.4,0.1-2.6,1.2-2.6,2.7
					v34.7c0,1.4,1.2,2.6,2.6,2.7H15.1z"/>
				<path class="st1" d="M42.9,84.3c3.3,0,6.2,2.7,6.2,6v12.3c0,4.6-2.2,8-6.9,8h-2.9v21.4h-3.5c-1.2,0-1.4-0.7-1.4-1V84.3H42.9z
					 M44.4,91.2c-0.1-1.3-1.2-2.3-2.6-2.3h-2.6V106h2.6c1.4,0,2.4-1,2.6-2.3V91.2z"/>
				<path class="st1" d="M76,127.1c-0.5,1.2-1.4,3.1-1.6,3.5c-0.3,0.6-1.1,1.3-2.7,1.3H60.9V85.6c0.1-0.7,0.7-1.4,1.5-1.4h12.7
					l-1.6,3.5c-0.3,0.6-1,1.4-2.6,1.4H67c-0.7,0-1.2,0.5-1.2,1.2v14.2h7.3c-0.5,1.2-1.4,3.2-1.6,3.6c-0.3,0.6-1,1.3-2.6,1.3h-2
					c-0.6,0-1.2,0.5-1.2,1.2v16.5H76z"/>
				<path class="st1" d="M101.8,131.9h-2.2c-2.7,0-3.1-2.1-3.3-3.1l-5.2-23.5v26.6h-4.9V84.3h2.2c2.7,0,3.2,1.3,3.5,2.7l5,24.8V84.3
					h4.9V131.9z"/>
				<path class="st1" d="M121.1,96.3v-5.5c0-1.5-1.2-2.7-2.6-2.7c-1.4,0-2.6,1.2-2.6,2.7v4.6c0,2.8,2.1,6.4,2.1,6.4l5.9,11
					c2.4,4.4,2.2,7.6,2.2,7.6v6.1c0,3.3-2.7,6.1-6.1,6.1h-3.1c-3.3-0.1-5.9-2.8-5.9-6.1v-4.9c0-1.6,0.7-2.3,1.4-2.7
					c0.4-0.1,2.4-1,3.6-1.6v8.3c0,1.4,1.2,2.6,2.6,2.6c1.4,0,2.6-1.2,2.6-2.7V120c0-2.8-2.1-6.5-2.1-6.5l-5.9-11
					c-2.4-4.4-2.2-7.6-2.2-7.6v-4.9c0-3.3,2.7-6.3,6.1-6.3h3.1c3.3,0.1,5.9,3.1,5.9,6.3V92c0,1.6-0.7,2.3-1.4,2.7
					C124.3,94.8,122.4,95.7,121.1,96.3z"/>
				<path class="st1" d="M154,87.8c-0.3,0.6-1,1.3-2.6,1.3h-3.8c-0.7,0-1.2,0.5-1.2,1.2v41.6h-3.5c-1.2,0-1.4-0.7-1.4-1V89.1h-6.9
					v-3.3c0-0.8,0.7-1.5,1.5-1.5h19.5L154,87.8z"/>
				<path class="st1" d="M176.6,131.9h-5.4L167,99.1l-4.3,32.8h-5.4l7.2-47.6h2.7c2,0,2.4,1.3,2.6,2.6L176.6,131.9z"/>
				<path class="st1" d="M199.9,126.3c0,3.3-2.6,5.9-5.9,6.1h-3c-3.4,0-6.1-2.7-6.1-6.1V89.9c0-3.3,2.7-6.1,6.1-6.1h3
					c3.3,0.1,5.9,2.8,5.9,6.1v7.3c0,1.6-0.7,2.3-1.3,2.6l-3.5,1.6V90.7c0-1.4-1.2-2.6-2.7-2.6c-1.4,0-2.6,1.2-2.6,2.6v34.8
					c0,1.5,1.2,2.7,2.6,2.7c1.5,0,2.7-1.2,2.7-2.7v-6.4c0-1.6,0.7-2.3,1.3-2.7c0.4-0.2,2.3-1,3.5-1.6V126.3z"/>
				<path class="st1" d="M221.1,131.9l-6.5-21.3v21.3h-4.8V86.1c0-1.5,1-1.8,1.6-1.8h3.3v17.3l6-17.2h5.1l-7.7,21.4l8.2,26.1H221.1z
					"/>
				<path class="st1" d="M270.4,96.3v-5.5c0-1.5-1.2-2.7-2.6-2.7s-2.6,1.2-2.6,2.7v4.6c0,2.8,2.1,6.4,2.1,6.4l5.9,11
					c2.4,4.4,2.2,7.6,2.2,7.6v6.1c0,3.3-2.7,6.1-6.1,6.1h-3.1c-3.3-0.1-5.9-2.8-5.9-6.1v-4.9c0-1.6,0.7-2.3,1.4-2.7
					c0.4-0.1,2.4-1,3.6-1.6v8.3c0,1.4,1.2,2.6,2.6,2.6s2.6-1.2,2.6-2.7V120c0-2.8-2.1-6.5-2.1-6.5l-5.9-11c-2.4-4.4-2.2-7.6-2.2-7.6
					v-4.9c0-3.3,2.7-6.3,6.1-6.3h3.1c3.3,0.1,5.9,3.1,5.9,6.3V92c0,1.6-0.7,2.3-1.4,2.7C273.6,94.8,271.7,95.7,270.4,96.3z"/>
				<path class="st1" d="M300.1,126.3c0,3.3-2.7,5.7-5.9,5.8v0.1h-3.7c-3.3,0-6.1-2.5-6.1-5.9V85.6c0.1-0.7,0.7-1.4,1.4-1.4h3.5
					v41.2c0,1.4,1.1,2.6,2.5,2.6h0.7c1.4,0,2.6-1.2,2.6-2.6V84.3h4.9V126.3z"/>
				<path class="st1" d="M329.9,131.9H325v-24.6l-3.7,16.3h-1.5c-2.9,0-3.4-2.9-3.7-3.9l-2.9-12.5v24.6h-4.8V84.3h3
					c1.9,0,2.2,1.8,2.2,1.8l5.6,27.4l5.4-27.4c0.1-0.2,0.4-1.7,2.2-1.7h3V131.9z"/>
				<path class="st1" d="M359.8,131.9H355v-24.6l-3.7,16.3h-1.5c-2.9,0-3.4-2.9-3.7-3.9l-2.9-12.5v24.6h-4.8V84.3h3
					c1.9,0,2.2,1.8,2.2,1.8l5.6,27.4l5.4-27.4c0.1-0.2,0.4-1.7,2.2-1.7h3V131.9z"/>
				<path class="st1" d="M372.1,84.3c1.4,0,2,1.1,2,1.9v45.7h-3.5c-1.2,0-1.4-0.7-1.4-1V84.3H372.1z"/>
				<path class="st1" d="M402.7,87.8c-0.3,0.6-1,1.3-2.6,1.3h-3.8c-0.7,0-1.2,0.5-1.2,1.2v41.6h-3.5c-1.2,0-1.4-0.7-1.4-1V89.1h-6.9
					v-3.3c0-0.8,0.7-1.5,1.5-1.5h19.5L402.7,87.8z"/>
				<path class="st1" d="M444.9,131.9h-2.1h-0.3c-2.4,0-2.9-2.9-2.9-3.3l-6.8-44.3h3.7c0.3,0,1.2,0.3,1.4,1.8l4.6,29.9l4.8-31.7h4.9
					L444.9,131.9z"/>
				<path class="st1" d="M474.2,131.9h-5.4l-4.3-32.8l-4.3,32.8h-5.4l7.2-47.6h2.7c2,0,2.4,1.3,2.6,2.6L474.2,131.9z"/>
				<path class="st1" d="M498.4,131.9h-2.2c-2.7,0-3.1-2.1-3.3-3.1l-5.2-23.5v26.6h-4.9V84.3h2.2c2.7,0,3.2,1.3,3.5,2.7l5,24.8V84.3
					h4.9V131.9z"/>
				<path class="st1" d="M522.3,126.3c0,3.3-2.6,5.9-5.9,6.1h-3c-3.4,0-6.1-2.7-6.1-6.1V89.9c0-3.3,2.7-6.1,6.1-6.1h3
					c3.3,0.1,5.9,2.8,5.9,6.1v7.3c0,1.6-0.7,2.3-1.3,2.6l-3.5,1.6V90.7c0-1.4-1.2-2.6-2.7-2.6c-1.4,0-2.6,1.2-2.6,2.6v34.8
					c0,1.5,1.2,2.7,2.6,2.7c1.5,0,2.7-1.2,2.7-2.7v-6.4c0-1.6,0.7-2.3,1.3-2.7c0.4-0.2,2.3-1,3.5-1.6V126.3z"/>
				<path class="st1" d="M541.2,83.8c3.3,0.1,5.9,2.8,5.9,6.1v36.5c-0.1,3.3-2.7,5.9-5.9,6h-3.7c-3.3,0-6.1-2.7-6.1-6V89.9
					c0-3.3,2.7-6.1,6.1-6.1H541.2z M539.6,128.1c1.4,0,2.6-1.2,2.6-2.7V90.7c0-1.5-1.2-2.7-2.6-2.7h-0.7c-1.4,0.1-2.6,1.2-2.6,2.7
					v34.7c0,1.4,1.2,2.6,2.6,2.7H539.6z"/>
				<path class="st1" d="M571.9,126.3c0,3.3-2.7,5.7-5.9,5.8v0.1h-3.7c-3.3,0-6.1-2.5-6.1-5.9V85.6c0.1-0.7,0.7-1.4,1.4-1.4h3.5
					v41.2c0,1.4,1.1,2.6,2.5,2.6h0.7c1.4,0,2.6-1.2,2.6-2.6V84.3h4.9V126.3z"/>
				<path class="st1" d="M591.5,131.9h-2.1H589c-2.4,0-2.9-2.9-2.9-3.3l-6.8-44.3h3.7c0.3,0,1.2,0.3,1.4,1.8L589,116l4.8-31.7h4.9
					L591.5,131.9z"/>
				<path class="st1" d="M621.9,127.1c-0.5,1.2-1.4,3.1-1.6,3.5c-0.3,0.6-1.1,1.3-2.7,1.3h-10.9V85.6c0.1-0.7,0.7-1.4,1.5-1.4H621
					l-1.6,3.5c-0.3,0.6-1,1.4-2.6,1.4h-3.9c-0.7,0-1.2,0.5-1.2,1.2v14.2h7.3c-0.5,1.2-1.4,3.2-1.6,3.6c-0.3,0.6-1,1.3-2.6,1.3h-2
					c-0.6,0-1.2,0.5-1.2,1.2v16.5H621.9z"/>
				<path class="st1" d="M639.9,131.9v-17.4c0-2.3-1.2-3.1-2.5-3.1h-2.6v20.5h-4.9V84.3h8.9c3.3,0,6,2.7,6,6V105
					c0,0,0.2,3.7-1.8,4.2c1.9,1,1.8,4.5,1.8,4.5v18.2H639.9z M637.4,106.8c1.3,0,2.5-0.5,2.5-2.7V91.3c0-1.8-1.2-2.4-2.5-2.4h-2.6
					v18H637.4z"/>
			</g>
		</g>
	</g>
</g>
</svg>
