<?xml version="1.0" encoding="utf-8"?>
<!-- Generator: Adobe Illustrator 18.1.1, SVG Export Plug-In . SVG Version: 6.00 Build 0)  -->
<svg version="1.1" xmlns="http://www.w3.org/2000/svg" xmlns:xlink="http://www.w3.org/1999/xlink" x="0px" y="0px"
	 viewBox="0 0 1080 1920" enable-background="new 0 0 1080 1920" xml:space="preserve">
<g id="Background">
	<rect x="0.5" width="1080" height="1920"/>
	<g>
		<defs>
			<rect id="SVGID_1_" x="38.8" y="892" width="1003.3" height="1003.3"/>
		</defs>
		<clipPath id="SVGID_2_">
			<use xlink:href="#SVGID_1_"  overflow="visible"/>
		</clipPath>
		<path clip-path="url(#SVGID_2_)" fill="#1B1B1A" d="M845.8,1439.3c-9.4,0-17,7.6-17,16.9c0,9.3,7.6,17,17,17c9.3,0,17-7.6,17-17
			C862.8,1446.9,855.2,1439.3,845.8,1439.3"/>
		<path clip-path="url(#SVGID_2_)" fill="#1B1B1A" d="M845.8,1621.3c-9.4,0-17,7.6-17,16.9c0,9.4,7.6,17,17,17c9.3,0,17-7.6,17-17
			C862.8,1628.9,855.2,1621.3,845.8,1621.3"/>
		<path clip-path="url(#SVGID_2_)" fill="#1B1B1A" d="M121.8,1400.6c-4.5,0-8.8,1.8-12,5c-6.6,6.6-6.6,17.4,0,24
			c3.2,3.2,7.6,4.8,12,4.8c4.4,0,8.8-1.6,12-4.8c6.6-6.6,6.6-17.4,0-24C130.6,1402.4,126.3,1400.6,121.8,1400.6"/>
		<path clip-path="url(#SVGID_2_)" fill="#1B1B1A" d="M244.4,1267.1c-4.3,0-8.7,1.7-12,5c-6.6,6.6-6.6,17.4,0,24
			c3.2,3.2,7.6,4.8,12,4.8c4.4,0,8.8-1.6,12-4.8h0c6.6-6.6,6.6-17.4,0-24C253.1,1268.8,248.8,1267.1,244.4,1267.1"/>
		<path clip-path="url(#SVGID_2_)" fill="#1B1B1A" d="M299.9,1563.3c-59,0-107-48-107-107c0-59,48-107,107-107c59,0,107,48,107,107
			C406.9,1515.3,358.9,1563.3,299.9,1563.3 M664.8,1563.3c-59,0-107-48-107-107c0-59,48-107,107-107h92c8.3,0,15,6.7,15,15v184
			c0,8.3-6.7,15-15,15H664.8 M481.4,1382.4c29.3-72.1,100-123.2,182.5-123.2h78v-142.1c0-8.3,6.7-15,15-15h144.3c8.3,0,15,6.7,15,15
			v68.5c0,8.3-6.7,15-15,15l-40.3,0V1412c18.5,6.3,32,23.7,32,44.3c0,25.9-21.1,47-47,47c-25.9,0-47-21.1-47-47
			c0-20.6,13.4-38,32-44.3v-226.3c0-8.3,6.7-15,15-15l40.3,0v-38.5H771.9v142.1c0,8.3-6.7,15-15,15h-93c-92.1,0-167,74.9-167,167
			c0,92.1,74.9,167,167,167h137.7c6.3-18.5,23.7-32,44.3-32c25.9,0,47,21.1,47,47c0,25.9-21.1,47-47,47c-20.6,0-38-13.5-44.3-32
			H663.9c-82,0-152.3-50.3-182-121.7c-9.6,23.8-24,46.1-43.3,65.4c-38.4,38.4-88.8,57.6-139.3,57.6c-50.4,0-100.9-19.2-139.3-57.6
			c-36.6-36.6-56.8-85-57.5-136.5c-5.1-2.3-9.9-5.4-14-9.5c-18.3-18.3-18.3-48.1,0-66.4c8.9-8.9,21-13.3,33.2-13.3
			c12.2,0,24.3,4.4,33.2,13.3c18.3,18.3,18.3,48.1,0,66.4h0c-6.2,6.2-14,10.4-22.3,12.4c1.4,42.5,18.4,82.2,48.6,112.5
			c32.6,32.5,75.3,48.8,118.1,48.8s85.5-16.3,118.1-48.8c65.1-65.1,65.1-171,0-236.1c-31.7-31.7-73.7-48.7-117.7-48.7
			c-3,0-6,0.1-9,0.2c-1.4,9.6-5.7,18.8-13.1,26.2c-8.9,8.9-20.7,13.8-33.2,13.8c-12.5,0-24.3-4.9-33.2-13.8
			c-18.3-18.3-18.3-48.1,0-66.4c9.2-9.1,21.2-13.7,33.2-13.7c12,0,24,4.6,33.2,13.7c3.2,3.2,5.6,6.8,7.7,10.6
			c4.9-0.4,9.8-0.5,14.7-0.5c51.9,0,101.3,20.1,138.6,57.4C457.6,1337.2,471.8,1359.1,481.4,1382.4 M541.8,892h-2.6
			c-276.1,0.7-499.8,224.4-500.4,500.6v2.2c0.6,276.5,225,500.6,501.7,500.6c277.1,0,501.7-224.6,501.7-501.7
			C1042.2,1117,818.3,892.7,541.8,892"/>
		<path clip-path="url(#SVGID_2_)" fill="#1B1B1A" d="M299.9,1379.2c-42.5,0-77,34.5-77,77s34.5,77,77,77c42.5,0,77-34.5,77-77
			S342.4,1379.2,299.9,1379.2"/>
		<path clip-path="url(#SVGID_2_)" fill="#1B1B1A" d="M741.9,1379.2h-77c-42.5,0-77,34.5-77,77s34.5,77,77,77h77V1379.2"/>
	</g>
	<rect x="0.5" fill="#D31366" width="1080" height="133.6"/>
	<line fill="none" stroke="#FFFFFF" stroke-width="8.8788" x1="1080.5" y1="130.5" x2="0.5" y2="130.5"/>
</g>
<g id="Overlay">
</g>
</svg>
