<svg width="252px" height="25px" viewBox="0 0 252 25" version="1.1" xmlns="http://www.w3.org/2000/svg" xmlns:xlink="http://www.w3.org/1999/xlink">
    <!-- Generator: Sketch 49.1 (51147) - http://www.bohemiancoding.com/sketch -->
    <desc>Created with Sketch.</desc>
    <defs>
        <polygon id="path-1" points="0 24.7518 251.501 24.7518 251.501 -0.0002 0 -0.0002"></polygon>
    </defs>
    <g id="Page-1" stroke="none" stroke-width="1" fill="none" fill-rule="evenodd">
        <g>
            <path d="M47.182,12.9364 C47.182,10.7904 46.234,9.7174 44.338,9.7174 L43.21,9.7174 L43.21,16.2244 L44.119,16.2244 C46.161,16.2244 47.182,15.1284 47.182,12.9364 M49.383,12.8814 C49.383,14.5274 48.915,15.7874 47.978,16.6624 C47.042,17.5374 45.689,17.9744 43.921,17.9744 L41.091,17.9744 L41.091,7.9804 L44.229,7.9804 C45.86,7.9804 47.127,8.4114 48.03,9.2724 C48.932,10.1344 49.383,11.3374 49.383,12.8814" id="Fill-1" fill="#4B4A4B"></path>
            <mask id="mask-2" fill="white">
                <use xlink:href="#path-1"></use>
            </mask>
            <g id="Clip-4"></g>
            <polygon id="Fill-3" fill="#4B4A4B" mask="url(#mask-2)" points="51.454 17.9748 53.573 17.9748 53.573 7.9808 51.454 7.9808"></polygon>
            <path d="M59.8831,12.3621 L63.8481,12.3621 L63.8481,17.5441 C63.2051,17.7541 62.6001,17.9001 62.0331,17.9841 C61.4661,18.0691 60.8851,18.1111 60.2931,18.1111 C58.7851,18.1111 57.6331,17.6681 56.8381,16.7811 C56.0421,15.8951 55.6451,14.6231 55.6451,12.9641 C55.6451,11.3511 56.1061,10.0931 57.0291,9.1911 C57.9521,8.2881 59.2311,7.8371 60.8671,7.8371 C61.8931,7.8371 62.8821,8.0421 63.8341,8.4521 L63.1301,10.1481 C62.4011,9.7831 61.6421,9.6011 60.8541,9.6011 C59.9381,9.6011 59.2041,9.9081 58.6531,10.5241 C58.1011,11.1391 57.8251,11.9661 57.8251,13.0051 C57.8251,14.0901 58.0481,14.9181 58.4921,15.4901 C58.9361,16.0611 59.5821,16.3471 60.4301,16.3471 C60.8721,16.3471 61.3211,16.3011 61.7771,16.2111 L61.7771,14.1261 L59.8831,14.1261 L59.8831,12.3621 Z" id="Fill-5" fill="#4B4A4B" mask="url(#mask-2)"></path>
            <polygon id="Fill-6" fill="#4B4A4B" mask="url(#mask-2)" points="66.227 17.9748 68.346 17.9748 68.346 7.9808 66.227 7.9808"></polygon>
            <polygon id="Fill-7" fill="#4B4A4B" mask="url(#mask-2)" points="74.7171 17.9744 72.5981 17.9744 72.5981 9.7444 69.8841 9.7444 69.8841 7.9804 77.4311 7.9804 77.4311 9.7444 74.7171 9.7444"></polygon>
            <path d="M83.8568,13.8182 C83.1868,11.6632 82.8098,10.4432 82.7258,10.1612 C82.6408,9.8792 82.5808,9.6552 82.5448,9.4912 C82.3938,10.0742 81.9628,11.5172 81.2528,13.8182 L83.8568,13.8182 Z M85.0868,17.9742 L84.3628,15.5952 L80.7188,15.5952 L79.9948,17.9742 L77.7108,17.9742 L81.2388,7.9402 L83.8298,7.9402 L87.3708,17.9742 L85.0868,17.9742 Z" id="Fill-8" fill="#4B4A4B" mask="url(#mask-2)"></path>
            <polygon id="Fill-9" fill="#4B4A4B" mask="url(#mask-2)" points="88.6283 17.9744 88.6283 7.9804 90.7473 7.9804 90.7473 16.2244 94.8013 16.2244 94.8013 17.9744"></polygon>
            <path d="M106.0736,15.1991 C106.0736,16.1011 105.7486,16.8121 105.0996,17.3321 C104.4496,17.8511 103.5466,18.1111 102.3886,18.1111 C101.3226,18.1111 100.3796,17.9111 99.5586,17.5101 L99.5586,15.5411 C100.2336,15.8421 100.8036,16.0531 101.2716,16.1771 C101.7386,16.3001 102.1656,16.3611 102.5526,16.3611 C103.0176,16.3611 103.3746,16.2721 103.6226,16.0951 C103.8716,15.9171 103.9956,15.6521 103.9956,15.3021 C103.9956,15.1051 103.9406,14.9311 103.8316,14.7791 C103.7216,14.6261 103.5616,14.4791 103.3496,14.3381 C103.1376,14.1961 102.7056,13.9701 102.0536,13.6611 C101.4436,13.3741 100.9856,13.0981 100.6796,12.8341 C100.3746,12.5691 100.1306,12.2611 99.9486,11.9111 C99.7666,11.5611 99.6756,11.1511 99.6756,10.6811 C99.6756,9.7971 99.9746,9.1021 100.5736,8.5961 C101.1736,8.0901 102.0016,7.8371 103.0586,7.8371 C103.5786,7.8371 104.0736,7.8991 104.5456,8.0221 C105.0176,8.1451 105.5106,8.3181 106.0256,8.5411 L105.3426,10.1891 C104.8086,9.9701 104.3676,9.8181 104.0196,9.7311 C103.6706,9.6441 103.3276,9.6011 102.9906,9.6011 C102.5896,9.6011 102.2816,9.6951 102.0676,9.8811 C101.8536,10.0681 101.7466,10.3121 101.7466,10.6131 C101.7466,10.7991 101.7896,10.9621 101.8766,11.1021 C101.9626,11.2411 102.1006,11.3751 102.2896,11.5041 C102.4786,11.6351 102.9266,11.8681 103.6336,12.2051 C104.5676,12.6511 105.2076,13.0991 105.5536,13.5491 C105.9006,13.9971 106.0736,14.5481 106.0736,15.1991" id="Fill-10" fill="#4B4A4B" mask="url(#mask-2)"></path>
            <polygon id="Fill-11" fill="#4B4A4B" mask="url(#mask-2)" points="107.885 17.9748 110.004 17.9748 110.004 7.9808 107.885 7.9808"></polygon>
            <path d="M116.3138,12.3621 L120.2788,12.3621 L120.2788,17.5441 C119.6358,17.7541 119.0308,17.9001 118.4638,17.9841 C117.8968,18.0691 117.3158,18.1111 116.7238,18.1111 C115.2158,18.1111 114.0638,17.6681 113.2688,16.7811 C112.4728,15.8951 112.0758,14.6231 112.0758,12.9641 C112.0758,11.3511 112.5368,10.0931 113.4598,9.1911 C114.3828,8.2881 115.6618,7.8371 117.2978,7.8371 C118.3238,7.8371 119.3128,8.0421 120.2648,8.4521 L119.5608,10.1481 C118.8318,9.7831 118.0728,9.6011 117.2848,9.6011 C116.3688,9.6011 115.6348,9.9081 115.0838,10.5241 C114.5318,11.1391 114.2558,11.9661 114.2558,13.0051 C114.2558,14.0901 114.4788,14.9181 114.9228,15.4901 C115.3668,16.0611 116.0128,16.3471 116.8608,16.3471 C117.3028,16.3471 117.7518,16.3011 118.2078,16.2111 L118.2078,14.1261 L116.3138,14.1261 L116.3138,12.3621 Z" id="Fill-12" fill="#4B4A4B" mask="url(#mask-2)"></path>
            <path d="M131.5238,17.9744 L128.8308,17.9744 L124.4828,10.4144 L124.4208,10.4144 C124.5078,11.7494 124.5508,12.7024 124.5508,13.2714 L124.5508,17.9744 L122.6578,17.9744 L122.6578,7.9804 L125.3308,7.9804 L129.6708,15.4654 L129.7188,15.4654 C129.6508,14.1664 129.6168,13.2484 129.6168,12.7104 L129.6168,7.9804 L131.5238,7.9804 L131.5238,17.9744 Z" id="Fill-13" fill="#4B4A4B" mask="url(#mask-2)"></path>
            <path d="M138.9271,13.8182 C138.2571,11.6632 137.8801,10.4432 137.7961,10.1612 C137.7111,9.8792 137.6521,9.6552 137.6151,9.4912 C137.4641,10.0742 137.0331,11.5172 136.3231,13.8182 L138.9271,13.8182 Z M140.1571,17.9742 L139.4331,15.5952 L135.7891,15.5952 L135.0651,17.9742 L132.7811,17.9742 L136.3091,7.9402 L138.9001,7.9402 L142.4411,17.9742 L140.1571,17.9742 Z" id="Fill-14" fill="#4B4A4B" mask="url(#mask-2)"></path>
            <path d="M147.4925,12.3621 L151.4575,12.3621 L151.4575,17.5441 C150.8145,17.7541 150.2105,17.9001 149.6415,17.9841 C149.0755,18.0691 148.4955,18.1111 147.9025,18.1111 C146.3935,18.1111 145.2425,17.6681 144.4465,16.7811 C143.6515,15.8951 143.2545,14.6231 143.2545,12.9641 C143.2545,11.3511 143.7165,10.0931 144.6385,9.1911 C145.5615,8.2881 146.8415,7.8371 148.4765,7.8371 C149.5025,7.8371 150.4915,8.0421 151.4435,8.4521 L150.7395,10.1481 C150.0115,9.7831 149.2515,9.6011 148.4635,9.6011 C147.5475,9.6011 146.8135,9.9081 146.2625,10.5241 C145.7105,11.1391 145.4345,11.9661 145.4345,13.0051 C145.4345,14.0901 145.6575,14.9181 146.1005,15.4901 C146.5465,16.0611 147.1915,16.3471 148.0395,16.3471 C148.4815,16.3471 148.9305,16.3011 149.3865,16.2111 L149.3865,14.1261 L147.4925,14.1261 L147.4925,12.3621 Z" id="Fill-15" fill="#4B4A4B" mask="url(#mask-2)"></path>
            <polygon id="Fill-16" fill="#4B4A4B" mask="url(#mask-2)" points="159.5921 17.9744 153.8361 17.9744 153.8361 7.9804 159.5921 7.9804 159.5921 9.7174 155.9551 9.7174 155.9551 11.9114 159.3391 11.9114 159.3391 13.6474 155.9551 13.6474 155.9551 16.2244 159.5921 16.2244"></polygon>
            <path d="M171.4046,12.9364 C171.4046,10.7904 170.4566,9.7174 168.5606,9.7174 L167.4326,9.7174 L167.4326,16.2244 L168.3416,16.2244 C170.3836,16.2244 171.4046,15.1284 171.4046,12.9364 M173.6056,12.8814 C173.6056,14.5274 173.1376,15.7874 172.2006,16.6624 C171.2646,17.5374 169.9116,17.9744 168.1436,17.9744 L165.3136,17.9744 L165.3136,7.9804 L168.4516,7.9804 C170.0836,7.9804 171.3496,8.4114 172.2526,9.2724 C173.1546,10.1344 173.6056,11.3374 173.6056,12.8814" id="Fill-17" fill="#4B4A4B" mask="url(#mask-2)"></path>
            <path d="M180.5648,13.8182 C179.8948,11.6632 179.5178,10.4432 179.4328,10.1612 C179.3488,9.8792 179.2888,9.6552 179.2528,9.4912 C179.1018,10.0742 178.6708,11.5172 177.9608,13.8182 L180.5648,13.8182 Z M181.7948,17.9742 L181.0708,15.5952 L177.4268,15.5952 L176.7028,17.9742 L174.4188,17.9742 L177.9468,7.9402 L180.5378,7.9402 L184.0788,17.9742 L181.7948,17.9742 Z" id="Fill-18" fill="#4B4A4B" mask="url(#mask-2)"></path>
            <path d="M191.2357,15.1991 C191.2357,16.1011 190.9117,16.8121 190.2607,17.3321 C189.6127,17.8511 188.7087,18.1111 187.5507,18.1111 C186.4847,18.1111 185.5417,17.9111 184.7207,17.5101 L184.7207,15.5411 C185.3957,15.8421 185.9657,16.0531 186.4327,16.1771 C186.9007,16.3001 187.3277,16.3611 187.7147,16.3611 C188.1797,16.3611 188.5367,16.2721 188.7847,16.0951 C189.0337,15.9171 189.1577,15.6521 189.1577,15.3021 C189.1577,15.1051 189.1027,14.9311 188.9937,14.7791 C188.8837,14.6261 188.7237,14.4791 188.5107,14.3381 C188.2997,14.1961 187.8687,13.9701 187.2157,13.6611 C186.6047,13.3741 186.1477,13.0981 185.8417,12.8341 C185.5367,12.5691 185.2927,12.2611 185.1107,11.9111 C184.9287,11.5611 184.8377,11.1511 184.8377,10.6811 C184.8377,9.7971 185.1367,9.1021 185.7357,8.5961 C186.3357,8.0901 187.1637,7.8371 188.2207,7.8371 C188.7407,7.8371 189.2357,7.8991 189.7087,8.0221 C190.1787,8.1451 190.6737,8.3181 191.1877,8.5411 L190.5047,10.1891 C189.9707,9.9701 189.5307,9.8181 189.1807,9.7311 C188.8337,9.6441 188.4897,9.6011 188.1527,9.6011 C187.7517,9.6011 187.4447,9.6951 187.2297,9.8811 C187.0147,10.0681 186.9087,10.3121 186.9087,10.6131 C186.9087,10.7991 186.9527,10.9621 187.0387,11.1021 C187.1247,11.2411 187.2627,11.3751 187.4527,11.5041 C187.6407,11.6351 188.0897,11.8681 188.7957,12.2051 C189.7297,12.6511 190.3707,13.0991 190.7157,13.5491 C191.0617,13.9971 191.2357,14.5481 191.2357,15.1991" id="Fill-19" fill="#4B4A4B" mask="url(#mask-2)"></path>
            <polygon id="Fill-20" fill="#4B4A4B" mask="url(#mask-2)" points="201.2366 17.9744 199.1246 17.9744 199.1246 13.6614 195.1666 13.6614 195.1666 17.9744 193.0476 17.9744 193.0476 7.9804 195.1666 7.9804 195.1666 11.8974 199.1246 11.8974 199.1246 7.9804 201.2366 7.9804"></polygon>
            <path d="M205.8783,13.6199 L205.8783,16.2239 L207.2593,16.2239 C207.8433,16.2239 208.2733,16.1129 208.5513,15.8899 C208.8293,15.6659 208.9683,15.3239 208.9683,14.8639 C208.9683,14.0349 208.3763,13.6199 207.1903,13.6199 L205.8783,13.6199 Z M205.8783,11.9389 L207.1083,11.9389 C207.6833,11.9389 208.0993,11.8499 208.3573,11.6719 C208.6133,11.4949 208.7423,11.2009 208.7423,10.7899 C208.7423,10.4079 208.6033,10.1329 208.3213,9.9669 C208.0423,9.7999 207.5993,9.7169 206.9923,9.7169 L205.8783,9.7169 L205.8783,11.9389 Z M203.7593,7.9809 L206.8693,7.9809 C208.2863,7.9809 209.3163,8.1819 209.9563,8.5859 C210.5963,8.9889 210.9163,9.6299 210.9163,10.5099 C210.9163,11.1069 210.7763,11.5969 210.4953,11.9799 C210.2163,12.3619 209.8433,12.5929 209.3783,12.6699 L209.3783,12.7379 C210.0113,12.8799 210.4683,13.1429 210.7493,13.5309 C211.0283,13.9189 211.1693,14.4329 211.1693,15.0759 C211.1693,15.9869 210.8403,16.6979 210.1813,17.2089 C209.5233,17.7199 208.6283,17.9739 207.4983,17.9739 L203.7593,17.9739 L203.7593,7.9809 Z" id="Fill-21" fill="#4B4A4B" mask="url(#mask-2)"></path>
            <path d="M214.9427,12.9637 C214.9427,14.0797 215.1547,14.9207 215.5787,15.4857 C216.0027,16.0517 216.6357,16.3337 217.4787,16.3337 C219.1697,16.3337 220.0147,15.2107 220.0147,12.9637 C220.0147,10.7137 219.1737,9.5877 217.4927,9.5877 C216.6497,9.5877 216.0127,9.8717 215.5857,10.4377 C215.1577,11.0057 214.9427,11.8477 214.9427,12.9637 M222.2367,12.9637 C222.2367,14.6177 221.8267,15.8897 221.0057,16.7777 C220.1857,17.6667 219.0097,18.1107 217.4787,18.1107 C215.9477,18.1107 214.7717,17.6667 213.9517,16.7777 C213.1307,15.8897 212.7207,14.6127 212.7207,12.9497 C212.7207,11.2877 213.1317,10.0167 213.9547,9.1387 C214.7777,8.2617 215.9567,7.8237 217.4927,7.8237 C219.0287,7.8237 220.2027,8.2657 221.0167,9.1497 C221.8297,10.0337 222.2367,11.3047 222.2367,12.9637" id="Fill-22" fill="#4B4A4B" mask="url(#mask-2)"></path>
            <path d="M229.1956,13.8182 C228.5256,11.6632 228.1486,10.4432 228.0636,10.1612 C227.9796,9.8792 227.9196,9.6552 227.8836,9.4912 C227.7326,10.0742 227.3016,11.5172 226.5916,13.8182 L229.1956,13.8182 Z M230.4256,17.9742 L229.7016,15.5952 L226.0576,15.5952 L225.3336,17.9742 L223.0496,17.9742 L226.5776,7.9402 L229.1686,7.9402 L232.7096,17.9742 L230.4256,17.9742 Z" id="Fill-23" fill="#4B4A4B" mask="url(#mask-2)"></path>
            <path d="M236.0863,12.4168 L236.7703,12.4168 C237.4403,12.4168 237.9353,12.3058 238.2533,12.0828 C238.5713,11.8588 238.7323,11.5078 238.7323,11.0298 C238.7323,10.5558 238.5683,10.2178 238.2433,10.0178 C237.9173,9.8178 237.4123,9.7168 236.7293,9.7168 L236.0863,9.7168 L236.0863,12.4168 Z M236.0863,14.1398 L236.0863,17.9748 L233.9673,17.9748 L233.9673,7.9808 L236.8793,7.9808 C238.2373,7.9808 239.2413,8.2278 239.8943,8.7228 C240.5463,9.2168 240.8713,9.9678 240.8713,10.9748 C240.8713,11.5628 240.7103,12.0858 240.3863,12.5428 C240.0623,13.0018 239.6053,13.3598 239.0123,13.6198 C240.5163,15.8668 241.4953,17.3178 241.9513,17.9748 L239.6003,17.9748 L237.2143,14.1398 L236.0863,14.1398 Z" id="Fill-24" fill="#4B4A4B" mask="url(#mask-2)"></path>
            <path d="M249.3001,12.9364 C249.3001,10.7904 248.3531,9.7174 246.4561,9.7174 L245.3281,9.7174 L245.3281,16.2244 L246.2371,16.2244 C248.2791,16.2244 249.3001,15.1284 249.3001,12.9364 M251.5011,12.8814 C251.5011,14.5274 251.0321,15.7874 250.0971,16.6624 C249.1591,17.5374 247.8081,17.9744 246.0391,17.9744 L243.2091,17.9744 L243.2091,7.9804 L246.3471,7.9804 C247.9781,7.9804 249.2451,8.4114 250.1481,9.2724 C251.0501,10.1344 251.5011,11.3374 251.5011,12.8814" id="Fill-25" fill="#4B4A4B" mask="url(#mask-2)"></path>
            <g id="Group-30" mask="url(#mask-2)" fill="#EC1944">
                <g transform="translate(0.000000, -0.248200)">
                    <path d="M22.9408,0.2482 L2.3498,0.2482 C1.0578,0.2482 -0.0002,1.3052 -0.0002,2.5982 L-0.0002,8.1352 L5.7118,8.1352 L5.7118,7.2302 C5.7118,6.5282 6.2808,5.9592 6.9828,5.9592 L18.3078,5.9592 C19.0098,5.9592 19.5788,6.5282 19.5788,7.2302 L19.5788,8.1352 L25.2908,8.1352 L25.2908,2.5982 C25.2908,1.3052 24.2328,0.2482 22.9408,0.2482" id="Fill-26"></path>
                    <path d="M19.5793,18.0176 C19.5793,18.7196 19.0103,19.2886 18.3083,19.2886 L6.9823,19.2886 C6.2803,19.2886 5.7113,18.7196 5.7113,18.0176 L5.7113,17.1126 L0.0003,17.1126 L0.0003,22.6506 C0.0003,23.9426 1.0573,24.9996 2.3503,24.9996 L22.9413,24.9996 C24.2333,24.9996 25.2903,23.9426 25.2903,22.6506 L25.2903,17.1126 L19.5793,17.1126 L19.5793,18.0176 Z" id="Fill-27"></path>
                    <polygon id="Fill-28" points="0 15.479 5.711 15.479 5.711 9.768 0 9.768"></polygon>
                    <polygon id="Fill-29" points="19.58 15.479 25.291 15.479 25.291 9.768 19.58 9.768"></polygon>
                </g>
            </g>
        </g>
    </g>
</svg>