<?xml version="1.0" encoding="utf-8"?>
<!-- Generator: Adobe Illustrator 18.1.1, SVG Export Plug-In . SVG Version: 6.00 Build 0)  -->
<svg version="1.1" id="Layer_1" xmlns="http://www.w3.org/2000/svg" xmlns:xlink="http://www.w3.org/1999/xlink" x="0px" y="0px"
	 viewBox="0 0 597.1 336.3" enable-background="new 0 0 597.1 336.3" xml:space="preserve">
<g>
	<g>
		<defs>
			<path id="SVGID_1_" d="M270,132.3c0,0.9,0,1.6,0.1,2.3h-1.3l-0.1-1.4h0c-0.4,0.7-1.3,1.5-2.7,1.5c-1.3,0-2.9-0.7-2.9-3.6v-4.9
				h1.5v4.6c0,1.6,0.5,2.6,1.9,2.6c1,0,1.7-0.7,2-1.4c0.1-0.2,0.1-0.5,0.1-0.8v-5.1h1.5V132.3z"/>
		</defs>
		<use xlink:href="#SVGID_1_"  overflow="visible" fill-rule="evenodd" clip-rule="evenodd" fill="#FFFFFF"/>
		<clipPath id="SVGID_2_">
			<use xlink:href="#SVGID_1_"  overflow="visible"/>
		</clipPath>
		<g clip-path="url(#SVGID_2_)">
			<defs>
				<rect id="SVGID_3_" x="117.5" y="-743.3" width="519.3" height="921.7"/>
			</defs>
			<use xlink:href="#SVGID_3_"  overflow="visible" fill="#FFFFFF"/>
			<clipPath id="SVGID_4_">
				<use xlink:href="#SVGID_3_"  overflow="visible"/>
			</clipPath>
			<rect x="258.9" y="122.2" clip-path="url(#SVGID_4_)" fill="#FFFFFF" width="15.2" height="16.6"/>
		</g>
	</g>
	<g>
		<defs>
			<path id="SVGID_5_" d="M272.2,133c0.4,0.3,1.2,0.6,2,0.6c1.1,0,1.6-0.5,1.6-1.2c0-0.7-0.4-1.1-1.5-1.5c-1.5-0.5-2.2-1.4-2.2-2.4
				c0-1.3,1.1-2.4,2.9-2.4c0.8,0,1.6,0.2,2,0.5l-0.4,1.1c-0.3-0.2-0.9-0.5-1.7-0.5c-0.9,0-1.4,0.5-1.4,1.1c0,0.7,0.5,1,1.6,1.4
				c1.4,0.5,2.2,1.3,2.2,2.5c0,1.5-1.1,2.5-3.1,2.5c-0.9,0-1.7-0.2-2.3-0.6L272.2,133z"/>
		</defs>
		<use xlink:href="#SVGID_5_"  overflow="visible" fill-rule="evenodd" clip-rule="evenodd" fill="#FFFFFF"/>
		<clipPath id="SVGID_6_">
			<use xlink:href="#SVGID_5_"  overflow="visible"/>
		</clipPath>
		<g clip-path="url(#SVGID_6_)">
			<defs>
				<rect id="SVGID_7_" x="117.5" y="-743.3" width="519.3" height="921.7"/>
			</defs>
			<use xlink:href="#SVGID_7_"  overflow="visible" fill="#FFFFFF"/>
			<clipPath id="SVGID_8_">
				<use xlink:href="#SVGID_7_"  overflow="visible"/>
			</clipPath>
			<rect x="267.8" y="122" clip-path="url(#SVGID_8_)" fill="#FFFFFF" width="13.5" height="16.8"/>
		</g>
	</g>
	<g>
		<defs>
			<path id="SVGID_9_" d="M284.5,129.6c0-1-0.4-2.5-2.1-2.5c-1.5,0-2.2,1.4-2.3,2.5H284.5z M280.1,130.7c0,2,1.3,2.9,2.8,2.9
				c1.1,0,1.7-0.2,2.3-0.4l0.3,1.1c-0.5,0.2-1.4,0.5-2.8,0.5c-2.6,0-4.1-1.7-4.1-4.2c0-2.5,1.5-4.5,3.9-4.5c2.7,0,3.4,2.4,3.4,3.9
				c0,0.3,0,0.5-0.1,0.7H280.1z"/>
		</defs>
		<use xlink:href="#SVGID_9_"  overflow="visible" fill-rule="evenodd" clip-rule="evenodd" fill="#FFFFFF"/>
		<clipPath id="SVGID_10_">
			<use xlink:href="#SVGID_9_"  overflow="visible"/>
		</clipPath>
		<g clip-path="url(#SVGID_10_)">
			<defs>
				<rect id="SVGID_11_" x="117.5" y="-743.3" width="519.3" height="921.7"/>
			</defs>
			<use xlink:href="#SVGID_11_"  overflow="visible" fill="#FFFFFF"/>
			<clipPath id="SVGID_12_">
				<use xlink:href="#SVGID_11_"  overflow="visible"/>
			</clipPath>
			<rect x="274.6" y="122" clip-path="url(#SVGID_12_)" fill="#FFFFFF" width="15.4" height="16.8"/>
		</g>
	</g>
	<g>
		<defs>
			<path id="SVGID_13_" d="M287.8,128.8c0-1,0-1.8-0.1-2.6h1.3l0.1,1.6h0.1c0.4-1.1,1.3-1.8,2.3-1.8c0.2,0,0.3,0,0.4,0v1.4
				c-0.2,0-0.3-0.1-0.5-0.1c-1.1,0-1.8,0.8-2,1.9c0,0.2-0.1,0.4-0.1,0.7v4.4h-1.5L287.8,128.8L287.8,128.8z"/>
		</defs>
		<use xlink:href="#SVGID_13_"  overflow="visible" fill-rule="evenodd" clip-rule="evenodd" fill="#FFFFFF"/>
		<clipPath id="SVGID_14_">
			<use xlink:href="#SVGID_13_"  overflow="visible"/>
		</clipPath>
		<g clip-path="url(#SVGID_14_)">
			<defs>
				<rect id="SVGID_15_" x="117.5" y="-743.3" width="519.3" height="921.7"/>
			</defs>
			<use xlink:href="#SVGID_15_"  overflow="visible" fill="#FFFFFF"/>
			<clipPath id="SVGID_16_">
				<use xlink:href="#SVGID_15_"  overflow="visible"/>
			</clipPath>
			<rect x="283.7" y="122" clip-path="url(#SVGID_16_)" fill="#FFFFFF" width="12.3" height="16.6"/>
		</g>
	</g>
	<g>
		<defs>
			<path id="SVGID_17_" d="M293.2,133c0.4,0.3,1.2,0.6,2,0.6c1.1,0,1.6-0.5,1.6-1.2c0-0.7-0.4-1.1-1.5-1.5c-1.5-0.5-2.2-1.4-2.2-2.4
				c0-1.3,1.1-2.4,2.9-2.4c0.8,0,1.6,0.2,2,0.5l-0.4,1.1c-0.3-0.2-0.9-0.5-1.7-0.5c-0.9,0-1.4,0.5-1.4,1.1c0,0.7,0.5,1,1.6,1.4
				c1.4,0.5,2.2,1.3,2.2,2.5c0,1.5-1.1,2.5-3.1,2.5c-0.9,0-1.7-0.2-2.3-0.6L293.2,133z"/>
		</defs>
		<use xlink:href="#SVGID_17_"  overflow="visible" fill-rule="evenodd" clip-rule="evenodd" fill="#FFFFFF"/>
		<clipPath id="SVGID_18_">
			<use xlink:href="#SVGID_17_"  overflow="visible"/>
		</clipPath>
		<g clip-path="url(#SVGID_18_)">
			<defs>
				<rect id="SVGID_19_" x="117.5" y="-743.3" width="519.3" height="921.7"/>
			</defs>
			<use xlink:href="#SVGID_19_"  overflow="visible" fill="#FFFFFF"/>
			<clipPath id="SVGID_20_">
				<use xlink:href="#SVGID_19_"  overflow="visible"/>
			</clipPath>
			<rect x="288.8" y="122" clip-path="url(#SVGID_20_)" fill="#FFFFFF" width="13.5" height="16.8"/>
		</g>
	</g>
	<g>
		<defs>
			<path id="SVGID_21_" d="M268.7,33.4c0-0.2,0-0.4-0.1-0.6c-0.2-1-1-1.8-2.2-1.8c-1.6,0-2.5,1.4-2.5,3.2c0,1.7,0.8,3.1,2.5,3.1
				c1,0,1.9-0.7,2.2-1.8c0.1-0.2,0.1-0.4,0.1-0.7V33.4z M270.2,26.2v10c0,0.7,0,1.6,0.1,2.1h-1.4l-0.1-1.4h0
				c-0.5,0.9-1.5,1.6-2.8,1.6c-2,0-3.5-1.7-3.5-4.2c0-2.8,1.7-4.5,3.7-4.5c1.3,0,2.1,0.6,2.5,1.3h0v-5H270.2z"/>
		</defs>
		<use xlink:href="#SVGID_21_"  overflow="visible" fill-rule="evenodd" clip-rule="evenodd" fill="#FFFFFF"/>
		<clipPath id="SVGID_22_">
			<use xlink:href="#SVGID_21_"  overflow="visible"/>
		</clipPath>
		<g clip-path="url(#SVGID_22_)">
			<defs>
				<rect id="SVGID_23_" x="117.5" y="-743.3" width="519.3" height="921.7"/>
			</defs>
			<use xlink:href="#SVGID_23_"  overflow="visible" fill="#FFFFFF"/>
			<clipPath id="SVGID_24_">
				<use xlink:href="#SVGID_23_"  overflow="visible"/>
			</clipPath>
			<rect x="258.4" y="22.1" clip-path="url(#SVGID_24_)" fill="#FFFFFF" width="15.9" height="20.5"/>
		</g>
	</g>
	<g>
		<defs>
			<path id="SVGID_25_" d="M277.9,33.4c0-1-0.4-2.5-2.1-2.5c-1.5,0-2.2,1.4-2.3,2.5H277.9z M273.5,34.5c0,2,1.3,2.9,2.8,2.9
				c1.1,0,1.7-0.2,2.3-0.4l0.3,1.1c-0.5,0.2-1.4,0.5-2.8,0.5c-2.6,0-4.1-1.7-4.1-4.2c0-2.5,1.5-4.5,3.9-4.5c2.7,0,3.4,2.4,3.4,3.9
				c0,0.3,0,0.5-0.1,0.7L273.5,34.5L273.5,34.5z"/>
		</defs>
		<use xlink:href="#SVGID_25_"  overflow="visible" fill-rule="evenodd" clip-rule="evenodd" fill="#FFFFFF"/>
		<clipPath id="SVGID_26_">
			<use xlink:href="#SVGID_25_"  overflow="visible"/>
		</clipPath>
		<g clip-path="url(#SVGID_26_)">
			<defs>
				<rect id="SVGID_27_" x="117.5" y="-743.3" width="519.3" height="921.7"/>
			</defs>
			<use xlink:href="#SVGID_27_"  overflow="visible" fill="#FFFFFF"/>
			<clipPath id="SVGID_28_">
				<use xlink:href="#SVGID_27_"  overflow="visible"/>
			</clipPath>
			<rect x="268" y="25.8" clip-path="url(#SVGID_28_)" fill="#FFFFFF" width="15.4" height="16.8"/>
		</g>
	</g>
	<g>
		<defs>
			<path id="SVGID_29_" d="M281.8,30l1.6,4.7c0.3,0.8,0.5,1.4,0.7,2.1h0.1c0.2-0.7,0.4-1.4,0.7-2.1l1.6-4.7h1.6l-3.3,8.3h-1.4
				l-3.2-8.3H281.8z"/>
		</defs>
		<use xlink:href="#SVGID_29_"  overflow="visible" fill-rule="evenodd" clip-rule="evenodd" fill="#FFFFFF"/>
		<clipPath id="SVGID_30_">
			<use xlink:href="#SVGID_29_"  overflow="visible"/>
		</clipPath>
		<g clip-path="url(#SVGID_30_)">
			<defs>
				<rect id="SVGID_31_" x="117.5" y="-743.3" width="519.3" height="921.7"/>
			</defs>
			<use xlink:href="#SVGID_31_"  overflow="visible" fill="#FFFFFF"/>
			<clipPath id="SVGID_32_">
				<use xlink:href="#SVGID_31_"  overflow="visible"/>
			</clipPath>
			<rect x="276.2" y="26" clip-path="url(#SVGID_32_)" fill="#FFFFFF" width="16" height="16.4"/>
		</g>
	</g>
	<g>
		<defs>
			<path id="SVGID_33_" d="M289.2,36.8c0.4,0.3,1.2,0.6,2,0.6c1.1,0,1.6-0.5,1.6-1.2c0-0.7-0.4-1.1-1.5-1.5
				c-1.5-0.5-2.2-1.4-2.2-2.4c0-1.3,1.1-2.4,2.9-2.4c0.8,0,1.6,0.2,2,0.5l-0.4,1.1c-0.3-0.2-0.9-0.5-1.7-0.5c-0.9,0-1.4,0.5-1.4,1.1
				c0,0.7,0.5,1,1.6,1.4c1.4,0.5,2.2,1.3,2.2,2.5c0,1.5-1.1,2.5-3.1,2.5c-0.9,0-1.7-0.2-2.3-0.6L289.2,36.8z"/>
		</defs>
		<use xlink:href="#SVGID_33_"  overflow="visible" fill-rule="evenodd" clip-rule="evenodd" fill="#FFFFFF"/>
		<clipPath id="SVGID_34_">
			<use xlink:href="#SVGID_33_"  overflow="visible"/>
		</clipPath>
		<g clip-path="url(#SVGID_34_)">
			<defs>
				<rect id="SVGID_35_" x="117.5" y="-743.3" width="519.3" height="921.7"/>
			</defs>
			<use xlink:href="#SVGID_35_"  overflow="visible" fill="#FFFFFF"/>
			<clipPath id="SVGID_36_">
				<use xlink:href="#SVGID_35_"  overflow="visible"/>
			</clipPath>
			<rect x="284.8" y="25.8" clip-path="url(#SVGID_36_)" fill="#FFFFFF" width="13.5" height="16.8"/>
		</g>
	</g>
	<g>
		<defs>
			<path id="SVGID_37_" d="M239.7,109.2c1.7,1,4.6,2.1,7.3,2.1c4,0,5.8-1.9,5.8-4.5c0-2.6-1.6-4-5.6-5.5c-5.5-2-8.1-5-8.1-8.6
				c0-4.9,4-8.9,10.5-8.9c3.1,0,5.8,0.8,7.4,1.9l-1.3,4c-1.2-0.8-3.4-1.8-6.2-1.8c-3.3,0-5,1.9-5,4.1c0,2.5,1.8,3.6,5.7,5.2
				c5.2,1.9,8,4.6,8,9.1c0,5.4-4.2,9.2-11.3,9.2c-3.3,0-6.4-0.9-8.5-2.1L239.7,109.2z"/>
		</defs>
		<use xlink:href="#SVGID_37_"  overflow="visible" fill-rule="evenodd" clip-rule="evenodd" fill="#FFFFFF"/>
		<clipPath id="SVGID_38_">
			<use xlink:href="#SVGID_37_"  overflow="visible"/>
		</clipPath>
		<g clip-path="url(#SVGID_38_)">
			<defs>
				<rect id="SVGID_39_" x="117.5" y="-743.3" width="519.3" height="921.7"/>
			</defs>
			<use xlink:href="#SVGID_39_"  overflow="visible" fill="#FFFFFF"/>
			<clipPath id="SVGID_40_">
				<use xlink:href="#SVGID_39_"  overflow="visible"/>
			</clipPath>
			<rect x="234.3" y="79.7" clip-path="url(#SVGID_40_)" fill="#FFFFFF" width="27.9" height="39.8"/>
		</g>
	</g>
	<g>
		<defs>
			<path id="SVGID_41_" d="M303.3,92.6c0-3.2-0.1-5.7-0.3-8.2h4.8l0.3,5h0.2c1.7-2.9,4.5-5.6,9.6-5.6c4.1,0,7.2,2.5,8.5,6.1h0.1
				c0.9-1.8,2.2-3,3.5-4c1.8-1.4,3.8-2.1,6.7-2.1c4.1,0,10,2.6,10,13.2v17.8h-5.4V97.6c0-5.9-2.2-9.4-6.6-9.4c-3.2,0-5.6,2.3-6.6,5
				c-0.3,0.8-0.4,1.8-0.4,2.8v18.8h-5.4V96.6c0-4.8-2.1-8.3-6.3-8.3c-3.4,0-6,2.8-6.8,5.5c-0.3,0.8-0.4,1.8-0.4,2.7v18.3h-5.4V92.6z
				"/>
		</defs>
		<use xlink:href="#SVGID_41_"  overflow="visible" fill-rule="evenodd" clip-rule="evenodd" fill="#FFFFFF"/>
		<clipPath id="SVGID_42_">
			<use xlink:href="#SVGID_41_"  overflow="visible"/>
		</clipPath>
		<g clip-path="url(#SVGID_42_)">
			<defs>
				<rect id="SVGID_43_" x="117.5" y="-743.3" width="519.3" height="921.7"/>
			</defs>
			<use xlink:href="#SVGID_43_"  overflow="visible" fill="#FFFFFF"/>
			<clipPath id="SVGID_44_">
				<use xlink:href="#SVGID_43_"  overflow="visible"/>
			</clipPath>
			<rect x="299" y="79.7" clip-path="url(#SVGID_44_)" fill="#FFFFFF" width="51.8" height="39.2"/>
		</g>
	</g>
	<g>
		<defs>
			<path id="SVGID_45_" d="M355.1,92.6c0-3.2-0.1-5.7-0.3-8.2h4.8l0.3,5h0.2c1.7-2.9,4.5-5.6,9.6-5.6c4.1,0,7.2,2.5,8.5,6.1h0.1
				c0.9-1.8,2.2-3,3.5-4c1.8-1.4,3.8-2.1,6.7-2.1c4.1,0,10,2.6,10,13.2v17.8h-5.4V97.6c0-5.9-2.2-9.4-6.6-9.4c-3.2,0-5.6,2.3-6.6,5
				c-0.2,0.8-0.4,1.8-0.4,2.8v18.8h-5.4V96.6c0-4.8-2.1-8.3-6.3-8.3c-3.4,0-6,2.8-6.8,5.5c-0.3,0.8-0.4,1.8-0.4,2.7v18.3h-5.4
				L355.1,92.6L355.1,92.6z"/>
		</defs>
		<use xlink:href="#SVGID_45_"  overflow="visible" fill-rule="evenodd" clip-rule="evenodd" fill="#FFFFFF"/>
		<clipPath id="SVGID_46_">
			<use xlink:href="#SVGID_45_"  overflow="visible"/>
		</clipPath>
		<g clip-path="url(#SVGID_46_)">
			<defs>
				<rect id="SVGID_47_" x="117.5" y="-743.3" width="519.3" height="921.7"/>
			</defs>
			<use xlink:href="#SVGID_47_"  overflow="visible" fill="#FFFFFF"/>
			<clipPath id="SVGID_48_">
				<use xlink:href="#SVGID_47_"  overflow="visible"/>
			</clipPath>
			<rect x="350.8" y="79.7" clip-path="url(#SVGID_48_)" fill="#FFFFFF" width="51.8" height="39.2"/>
		</g>
	</g>
	<g>
		<defs>
			<rect id="SVGID_49_" x="407.1" y="84.4" width="5.5" height="30.4"/>
		</defs>
		<use xlink:href="#SVGID_49_"  overflow="visible" fill-rule="evenodd" clip-rule="evenodd" fill="#FFFFFF"/>
		<clipPath id="SVGID_50_">
			<use xlink:href="#SVGID_49_"  overflow="visible"/>
		</clipPath>
		<g clip-path="url(#SVGID_50_)">
			<defs>
				<rect id="SVGID_51_" x="117.5" y="-743.3" width="519.3" height="921.7"/>
			</defs>
			<use xlink:href="#SVGID_51_"  overflow="visible" fill="#FFFFFF"/>
			<clipPath id="SVGID_52_">
				<use xlink:href="#SVGID_51_"  overflow="visible"/>
			</clipPath>
			<rect x="403" y="80.3" clip-path="url(#SVGID_52_)" fill="#FFFFFF" width="13.6" height="38.5"/>
		</g>
	</g>
	<g>
		<defs>
			<path id="SVGID_53_" d="M426.1,84.4h7.9v4.2h-7.9V105c0,3.8,1.1,5.9,4.1,5.9c1.5,0,2.4-0.1,3.2-0.4l0.3,4.2
				c-1.1,0.4-2.8,0.8-4.9,0.8c-2.6,0-4.6-0.9-6-2.3c-1.5-1.7-2.1-4.4-2.1-8V88.6H416v-4.2h4.7"/>
		</defs>
		<use xlink:href="#SVGID_53_"  overflow="visible" fill-rule="evenodd" clip-rule="evenodd" fill="#FFFFFF"/>
		<clipPath id="SVGID_54_">
			<use xlink:href="#SVGID_53_"  overflow="visible"/>
		</clipPath>
		<g clip-path="url(#SVGID_54_)">
			<defs>
				<rect id="SVGID_55_" x="117.5" y="-743.3" width="519.3" height="921.7"/>
			</defs>
			<use xlink:href="#SVGID_55_"  overflow="visible" fill="#FFFFFF"/>
			<clipPath id="SVGID_56_">
				<use xlink:href="#SVGID_55_"  overflow="visible"/>
			</clipPath>
			<rect x="411.9" y="80.3" clip-path="url(#SVGID_56_)" fill="#FFFFFF" width="26.1" height="39.2"/>
		</g>
	</g>
	<g>
		<defs>
			<path id="SVGID_57_" d="M168.7,60.9c0,6.7,3.8,11.7,9.2,11.7c5.3,0,9.2-5,9.2-11.8c0-5.2-2.6-11.6-9.1-11.6
				C171.6,49.2,168.7,55.2,168.7,60.9 M192.8,60.6c0,11.2-7.8,16.2-15.1,16.2c-8.2,0-14.6-6-14.6-15.6c0-10.1,6.7-16.1,15.1-16.1
				C186.9,45,192.8,51.4,192.8,60.6"/>
		</defs>
		<use xlink:href="#SVGID_57_"  overflow="visible" fill-rule="evenodd" clip-rule="evenodd" fill="#FFFFFF"/>
		<clipPath id="SVGID_58_">
			<use xlink:href="#SVGID_57_"  overflow="visible"/>
		</clipPath>
		<g clip-path="url(#SVGID_58_)">
			<defs>
				<rect id="SVGID_59_" x="117.5" y="-743.3" width="519.3" height="921.7"/>
			</defs>
			<use xlink:href="#SVGID_59_"  overflow="visible" fill="#FFFFFF"/>
			<clipPath id="SVGID_60_">
				<use xlink:href="#SVGID_59_"  overflow="visible"/>
			</clipPath>
			<rect x="159" y="41" clip-path="url(#SVGID_60_)" fill="#FFFFFF" width="37.8" height="39.8"/>
		</g>
	</g>
	<g>
		<defs>
			<path id="SVGID_61_" d="M204.3,63.7c0,0.8,0.1,1.6,0.2,2.3c1,3.8,4.3,6.5,8.3,6.5c5.8,0,9.2-4.8,9.2-11.8c0-6-3.2-11.2-9-11.2
				c-3.8,0-7.3,2.6-8.3,6.8c-0.2,0.7-0.4,1.5-0.4,2.2V63.7z M198.8,55.6c0-3.9-0.1-7-0.3-9.9h4.9l0.3,5.2h0.1
				c2.2-3.7,5.8-5.8,10.8-5.8c7.4,0,12.9,6.2,12.9,15.4c0,10.9-6.7,16.3-13.9,16.3c-4,0-7.5-1.8-9.4-4.8h-0.1v16.5h-5.5V55.6z"/>
		</defs>
		<use xlink:href="#SVGID_61_"  overflow="visible" fill-rule="evenodd" clip-rule="evenodd" fill="#FFFFFF"/>
		<clipPath id="SVGID_62_">
			<use xlink:href="#SVGID_61_"  overflow="visible"/>
		</clipPath>
		<g clip-path="url(#SVGID_62_)">
			<defs>
				<rect id="SVGID_63_" x="117.5" y="-743.3" width="519.3" height="921.7"/>
			</defs>
			<use xlink:href="#SVGID_63_"  overflow="visible" fill="#FFFFFF"/>
			<clipPath id="SVGID_64_">
				<use xlink:href="#SVGID_63_"  overflow="visible"/>
			</clipPath>
			<rect x="194.5" y="40.9" clip-path="url(#SVGID_64_)" fill="#FFFFFF" width="37.2" height="51.6"/>
		</g>
	</g>
	<g>
		<defs>
			<path id="SVGID_65_" d="M254.7,57.9c0.1-3.5-1.4-8.9-7.7-8.9c-5.6,0-8,5.1-8.5,8.9H254.7z M238.5,61.8
				c0.1,7.5,4.8,10.6,10.4,10.6c4,0,6.4-0.7,8.4-1.6l1,4c-1.9,0.9-5.3,1.9-10.2,1.9c-9.4,0-14.9-6.2-14.9-15.4
				c0-9.2,5.4-16.3,14.3-16.3c10,0,12.6,8.7,12.6,14.3c0,1.1-0.1,1.9-0.2,2.6H238.5z"/>
		</defs>
		<use xlink:href="#SVGID_65_"  overflow="visible" fill-rule="evenodd" clip-rule="evenodd" fill="#FFFFFF"/>
		<clipPath id="SVGID_66_">
			<use xlink:href="#SVGID_65_"  overflow="visible"/>
		</clipPath>
		<g clip-path="url(#SVGID_66_)">
			<defs>
				<rect id="SVGID_67_" x="117.5" y="-743.3" width="519.3" height="921.7"/>
			</defs>
			<use xlink:href="#SVGID_67_"  overflow="visible" fill="#FFFFFF"/>
			<clipPath id="SVGID_68_">
				<use xlink:href="#SVGID_67_"  overflow="visible"/>
			</clipPath>
			<rect x="229.2" y="40.9" clip-path="url(#SVGID_68_)" fill="#FFFFFF" width="34.9" height="39.8"/>
		</g>
	</g>
	<g>
		<defs>
			<path id="SVGID_69_" d="M302.7,70.5c1.7,1,4.6,2.1,7.3,2.1c4,0,5.8-1.9,5.8-4.5c0-2.6-1.6-4-5.6-5.5c-5.5-2-8.1-5-8.1-8.6
				c0-4.9,4-8.9,10.5-8.9c3.1,0,5.8,0.8,7.4,1.9l-1.3,4c-1.2-0.8-3.4-1.8-6.2-1.8c-3.3,0-5,1.9-5,4.1c0,2.5,1.8,3.6,5.7,5.2
				c5.2,1.9,8,4.6,8,9.1c0,5.4-4.2,9.2-11.3,9.2c-3.3,0-6.4-0.9-8.5-2.1L302.7,70.5z"/>
		</defs>
		<use xlink:href="#SVGID_69_"  overflow="visible" fill-rule="evenodd" clip-rule="evenodd" fill="#FFFFFF"/>
		<clipPath id="SVGID_70_">
			<use xlink:href="#SVGID_69_"  overflow="visible"/>
		</clipPath>
		<g clip-path="url(#SVGID_70_)">
			<defs>
				<rect id="SVGID_71_" x="117.5" y="-743.3" width="519.3" height="921.7"/>
			</defs>
			<use xlink:href="#SVGID_71_"  overflow="visible" fill="#FFFFFF"/>
			<clipPath id="SVGID_72_">
				<use xlink:href="#SVGID_71_"  overflow="visible"/>
			</clipPath>
			<rect x="297.3" y="40.9" clip-path="url(#SVGID_72_)" fill="#FFFFFF" width="27.9" height="39.8"/>
		</g>
	</g>
	<g>
		<defs>
			<path id="SVGID_73_" d="M335.1,38.3v7.3h7.9v4.2h-7.9v16.4c0,3.8,1.1,5.9,4.1,5.9c1.5,0,2.4-0.1,3.2-0.4l0.3,4.2
				c-1.1,0.4-2.8,0.8-4.9,0.8c-2.6,0-4.6-0.9-6-2.3c-1.5-1.7-2.1-4.4-2.1-8V49.8H325v-4.2h4.7V40L335.1,38.3z"/>
		</defs>
		<use xlink:href="#SVGID_73_"  overflow="visible" fill-rule="evenodd" clip-rule="evenodd" fill="#FFFFFF"/>
		<clipPath id="SVGID_74_">
			<use xlink:href="#SVGID_73_"  overflow="visible"/>
		</clipPath>
		<g clip-path="url(#SVGID_74_)">
			<defs>
				<rect id="SVGID_75_" x="117.5" y="-743.3" width="519.3" height="921.7"/>
			</defs>
			<use xlink:href="#SVGID_75_"  overflow="visible" fill="#FFFFFF"/>
			<clipPath id="SVGID_76_">
				<use xlink:href="#SVGID_75_"  overflow="visible"/>
			</clipPath>
			<rect x="320.9" y="34.3" clip-path="url(#SVGID_76_)" fill="#FFFFFF" width="26.1" height="46.5"/>
		</g>
	</g>
	<g>
		<defs>
			<path id="SVGID_77_" d="M366.1,60.5c-6-0.1-12.9,0.9-12.9,6.9c0,3.6,2.4,5.3,5.1,5.3c4,0,6.6-2.5,7.5-5.1
				c0.2-0.6,0.3-1.3,0.3-1.8V60.5z M371.5,68.8c0,2.6,0.1,5.2,0.4,7.3h-5l-0.4-3.8h-0.2c-1.7,2.4-5,4.5-9.3,4.5
				c-6.2,0-9.3-4.3-9.3-8.7c0-7.4,6.5-11.4,18.3-11.3v-0.6c0-2.4-0.7-7-6.9-7c-2.9,0-5.8,0.8-8,2.3l-1.3-3.7c2.5-1.6,6.2-2.6,10-2.6
				c9.3,0,11.6,6.3,11.6,12.4L371.5,68.8L371.5,68.8z"/>
		</defs>
		<use xlink:href="#SVGID_77_"  overflow="visible" fill-rule="evenodd" clip-rule="evenodd" fill="#FFFFFF"/>
		<clipPath id="SVGID_78_">
			<use xlink:href="#SVGID_77_"  overflow="visible"/>
		</clipPath>
		<g clip-path="url(#SVGID_78_)">
			<defs>
				<rect id="SVGID_79_" x="117.5" y="-743.3" width="519.3" height="921.7"/>
			</defs>
			<use xlink:href="#SVGID_79_"  overflow="visible" fill="#FFFFFF"/>
			<clipPath id="SVGID_80_">
				<use xlink:href="#SVGID_79_"  overflow="visible"/>
			</clipPath>
			<rect x="343.7" y="41" clip-path="url(#SVGID_80_)" fill="#FFFFFF" width="32.3" height="39.8"/>
		</g>
	</g>
	<g>
		<defs>
			<path id="SVGID_81_" d="M401.1,75c-1.4,0.7-4.6,1.8-8.7,1.8c-9.2,0-15.1-6.2-15.1-15.5c0-9.4,6.4-16.2,16.3-16.2
				c3.3,0,6.2,0.8,7.7,1.6l-1.3,4.2c-1.3-0.7-3.4-1.4-6.4-1.4c-7,0-10.7,5.2-10.7,11.5c0,7,4.5,11.4,10.5,11.4
				c3.1,0,5.2-0.8,6.8-1.4L401.1,75z"/>
		</defs>
		<use xlink:href="#SVGID_81_"  overflow="visible" fill-rule="evenodd" clip-rule="evenodd" fill="#FFFFFF"/>
		<clipPath id="SVGID_82_">
			<use xlink:href="#SVGID_81_"  overflow="visible"/>
		</clipPath>
		<g clip-path="url(#SVGID_82_)">
			<defs>
				<rect id="SVGID_83_" x="117.5" y="-743.3" width="519.3" height="921.7"/>
			</defs>
			<use xlink:href="#SVGID_83_"  overflow="visible" fill="#FFFFFF"/>
			<clipPath id="SVGID_84_">
				<use xlink:href="#SVGID_83_"  overflow="visible"/>
			</clipPath>
			<rect x="373.2" y="41" clip-path="url(#SVGID_84_)" fill="#FFFFFF" width="32.1" height="39.8"/>
		</g>
	</g>
	<g>
		<defs>
			<path id="SVGID_85_" d="M412.7,59.6h0.1c0.8-1.1,1.8-2.4,2.6-3.5l9-10.5h6.6l-11.7,12.5L432.7,76h-6.8l-10.4-14.6l-2.8,3.1V76
				h-5.5V31.4h5.5L412.7,59.6L412.7,59.6z"/>
		</defs>
		<use xlink:href="#SVGID_85_"  overflow="visible" fill-rule="evenodd" clip-rule="evenodd" fill="#FFFFFF"/>
		<clipPath id="SVGID_86_">
			<use xlink:href="#SVGID_85_"  overflow="visible"/>
		</clipPath>
		<g clip-path="url(#SVGID_86_)">
			<defs>
				<rect id="SVGID_87_" x="117.5" y="-743.3" width="519.3" height="921.7"/>
			</defs>
			<use xlink:href="#SVGID_87_"  overflow="visible" fill="#FFFFFF"/>
			<clipPath id="SVGID_88_">
				<use xlink:href="#SVGID_87_"  overflow="visible"/>
			</clipPath>
			<rect x="403.2" y="27.4" clip-path="url(#SVGID_88_)" fill="#FFFFFF" width="33.6" height="52.7"/>
		</g>
	</g>
	<g>
		<defs>
			<polygon id="SVGID_89_" points="286.5,88.9 292.4,79.9 298.2,88.9 			"/>
		</defs>
		<use xlink:href="#SVGID_89_"  overflow="visible" fill-rule="evenodd" clip-rule="evenodd" fill="#FFFFFF"/>
		<clipPath id="SVGID_90_">
			<use xlink:href="#SVGID_89_"  overflow="visible"/>
		</clipPath>
		<g clip-path="url(#SVGID_90_)">
			<defs>
				<rect id="SVGID_91_" x="117.5" y="-743.3" width="519.3" height="921.7"/>
			</defs>
			<use xlink:href="#SVGID_91_"  overflow="visible" fill="#FFFFFF"/>
			<clipPath id="SVGID_92_">
				<use xlink:href="#SVGID_91_"  overflow="visible"/>
			</clipPath>
			<rect x="282.5" y="75.8" clip-path="url(#SVGID_92_)" fill="#FFFFFF" width="19.8" height="17.1"/>
		</g>
	</g>
	<g>
		<defs>
			<polygon id="SVGID_93_" points="274.5,70.8 268.6,79.7 262.8,70.8 			"/>
		</defs>
		<use xlink:href="#SVGID_93_"  overflow="visible" fill-rule="evenodd" clip-rule="evenodd" fill="#FFFFFF"/>
		<clipPath id="SVGID_94_">
			<use xlink:href="#SVGID_93_"  overflow="visible"/>
		</clipPath>
		<g clip-path="url(#SVGID_94_)">
			<defs>
				<rect id="SVGID_95_" x="117.5" y="-743.3" width="519.3" height="921.7"/>
			</defs>
			<use xlink:href="#SVGID_95_"  overflow="visible" fill="#FFFFFF"/>
			<clipPath id="SVGID_96_">
				<use xlink:href="#SVGID_95_"  overflow="visible"/>
			</clipPath>
			<rect x="258.7" y="66.7" clip-path="url(#SVGID_96_)" fill="#FFFFFF" width="19.8" height="17.1"/>
		</g>
	</g>
	<g>
		<defs>
			<path id="SVGID_97_" d="M289.8,87.9v14.9c0,5.4-4.1,9.8-9.2,9.8c-5.1,0-9.2-4.4-9.2-9.8V83.2h-5.5v19.5c0,8.1,6.6,14.7,14.7,14.7
				c8.1,0,14.7-6.6,14.7-14.7V87.9L289.8,87.9L289.8,87.9z"/>
		</defs>
		<use xlink:href="#SVGID_97_"  overflow="visible" fill-rule="evenodd" clip-rule="evenodd" fill="#FFFFFF"/>
		<clipPath id="SVGID_98_">
			<use xlink:href="#SVGID_97_"  overflow="visible"/>
		</clipPath>
		<g clip-path="url(#SVGID_98_)">
			<defs>
				<rect id="SVGID_99_" x="117.5" y="-743.3" width="519.3" height="921.7"/>
			</defs>
			<use xlink:href="#SVGID_99_"  overflow="visible" fill="#FFFFFF"/>
			<clipPath id="SVGID_100_">
				<use xlink:href="#SVGID_99_"  overflow="visible"/>
			</clipPath>
			<rect x="261.8" y="79.2" clip-path="url(#SVGID_100_)" fill="#FFFFFF" width="37.5" height="42.3"/>
		</g>
	</g>
	<g>
		<defs>
			<path id="SVGID_101_" d="M271.4,71.6v-13c0-5.4,4.1-9.8,9.2-9.8c5.1,0,9.2,4.4,9.2,9.8v17.6h5.5V58.6c0-8.1-6.6-14.7-14.7-14.7
				c-8.1,0-14.7,6.6-14.7,14.7v13H271.4z"/>
		</defs>
		<use xlink:href="#SVGID_101_"  overflow="visible" fill-rule="evenodd" clip-rule="evenodd" fill="#FFFFFF"/>
		<clipPath id="SVGID_102_">
			<use xlink:href="#SVGID_101_"  overflow="visible"/>
		</clipPath>
		<g clip-path="url(#SVGID_102_)">
			<defs>
				<rect id="SVGID_103_" x="117.5" y="-743.3" width="519.3" height="921.7"/>
			</defs>
			<use xlink:href="#SVGID_103_"  overflow="visible" fill="#FFFFFF"/>
			<clipPath id="SVGID_104_">
				<use xlink:href="#SVGID_103_"  overflow="visible"/>
			</clipPath>
			<rect x="261.8" y="39.9" clip-path="url(#SVGID_104_)" fill="#FFFFFF" width="37.5" height="40.4"/>
		</g>
	</g>
</g>
<g>
	<g>
		<g opacity="0.5">
			<g>
				<path fill="#003C82" d="M106.7,275c5.7-5.2,8.9-12.6,8.8-21.7c0-3.7,0-7.3,0-11c0-4.2-0.6-7.9-1.8-11.4
					c7.5,8.2,13.7,17.3,13.7,30.1c0,3.6,0,7.2,0,10.8c0.1,17.8-13,29.7-32.5,29.8c-4.4,0-8.5-0.6-12.1-1.7
					c-7.4-2.4-14.8-4.9-22.2-7.4c3,0.8,6.1,1.4,10.5,1.4c9.9,0.1,18-2.9,23.7-8.2C98.8,282.2,102.8,278.6,106.7,275z M79.8,174.5
					c0-4.2-2.4-7.3-5.9-9c0,2.6,0,5.2,0,7.8c0,5.9,2.4,10.6,5.9,15.5C79.9,184.1,79.8,179.3,79.8,174.5z M80,252.4
					c-2-0.7-4-1.5-5.9-2.2c0,0.9,0,1.8,0,2.7c0,4.2,2.4,7.1,5.9,8.4C80,258.3,80,255.3,80,252.4z M86.4,196.2
					c-0.9-0.9-1.7-1.8-2.6-2.7c6.6,0.7,13.1,1.4,19.7,2.1c3.9-3.3,7.9-6.6,11.8-9.8c0-5.5,0-11-0.1-16.4c0-2.2-0.2-4.4-0.6-6.5
					c7.9,6.3,12.5,15.2,12.5,25.9c0,5.4,0,10.8,0.1,16.3c-7.9-0.7-15.8-1.3-23.7-2.1C97.8,200.8,92.1,198.5,86.4,196.2z"/>
				<path fill="#003C82" d="M142.6,291.9c7.9,0.1,15.8,0.1,23.7,0.2c3.9-3.5,7.9-6.9,11.8-10.4c-0.1-20-0.1-40-0.2-60
					c8.2-19.5,16.4-38.8,24.6-57.9c5.7,2.1,11.4,4.1,17.1,6.1c-9.9,23-19.8,46.1-29.7,69.7c0.1,19.9,0.1,39.7,0.2,59.6
					c-7.9,0-15.8,0-23.7,0C158.4,296.7,150.5,294.3,142.6,291.9z M156,163.3c1.8,0.7,3.6,1.4,5.3,2.1c1.1,2.6,2.1,5.2,3.2,7.8
					c-0.8,1.9-1.6,3.7-2.4,5.6C160.1,173.6,158,168.5,156,163.3z"/>
				<path fill="#003C82" d="M210,292.3c10.9,0,21.8,0.1,32.6,0.1c9.9,0,18-2.6,23.7-7.5c4-3.3,7.9-6.7,11.9-10
					c5.7-4.8,8.9-11.7,8.9-20c0-23.9,0-47.9,0-71.8c0-2-0.2-4-0.6-5.9c7.9,4.9,12.5,12.8,12.5,22.6c0,23.9,0,47.8,0,71.8
					c0,16.5-13,27.5-32.6,27.5c-10.9,0-21.8,0-32.6,0C225.8,296.9,217.9,294.6,210,292.3z M251.5,263.5c0-24.2-0.1-48.3-0.1-72.5
					c0-3.7-2.4-6.3-6-7.4c0.1,26.6,0.1,53.2,0.2,79.9C247.5,263.5,249.5,263.5,251.5,263.5z"/>
				<path fill="#003C82" d="M302,292.5c7.9,0,15.8,0,23.7,0c4-3.3,7.9-6.7,11.9-10.1c0-7.8,0-15.5,0-23.3c4,9.6,8,19.3,12,28.9
					c0,3.7,0,7.4,0,11.1c-8,0-16,0-23.9,0C317.8,297,309.9,294.7,302,292.5z M339.9,170.5c1.9,0.5,3.7,0.9,5.6,1.4
					c0.7,1.7,1.5,3.4,2.2,5.1c0,4,0,7.9,0,11.9C345.1,182.8,342.5,176.6,339.9,170.5z M351.4,292.5c6.6,0,13.2,0,19.8-0.1
					c4-3.4,7.9-6.8,11.9-10.2c0.1-38.4,0.2-76.8,0.3-115.2c4,0.9,7.9,1.8,11.9,2.7c-0.1,43.1-0.2,86.2-0.4,129.3
					c-6.6,0-13.2,0-19.8,0C367.3,296.9,359.4,294.7,351.4,292.5z"/>
				<path fill="#003C82" d="M399.9,292.3c20.4-0.1,40.9-0.2,61.3-0.4c4-3.6,7.9-7.2,11.9-10.8c0-1.9,0-3.8,0-5.7
					c4,1.1,7.9,2.2,11.9,3.4c0,6.7,0,13.5-0.1,20.2c-20.4,0-40.9,0.1-61.3,0.1C415.7,296.8,407.8,294.6,399.9,292.3z M435.9,179.4
					c8.6-0.7,17.2-1.4,25.7-2.2c4-3.9,7.9-7.9,11.9-11.9c0-1.9,0-3.8,0-5.7c3.9,0.7,7.9,1.5,11.8,2.2c0,6.7,0,13.5-0.1,20.2
					c-12.5,1.3-25,2.4-37.6,3.4c0,6.5,0,13.1-0.1,19.6c-4,0.3-7.9,0.5-11.9,0.8C435.8,197,435.9,188.2,435.9,179.4z M435.7,235.8
					c5.9-0.2,11.9-0.5,17.8-0.8c4-3.7,7.9-7.5,11.9-11.2c0-1.9,0-3.8,0-5.7c4,0.9,7.9,1.9,11.9,2.8c0,6.7,0,13.4-0.1,20.1
					c-9.9,0.5-19.8,0.9-29.7,1.3c0,6.5,0,13.1-0.1,19.6c-4,0.1-7.9,0.2-11.9,0.3C435.6,253.4,435.7,244.6,435.7,235.8z"/>
				<path fill="#003C82" d="M498,291.7c7.9-0.1,15.8-0.1,23.7-0.2c4-3.8,7.9-7.6,11.9-11.5c0-21.7,0.1-43.4,0.1-65.2
					c8.3-22.4,16.5-45.4,24.7-69.1c5.6,0.9,11.2,1.8,16.9,2.7c-9.9,29.1-19.8,57.2-29.8,84.4c0,22-0.1,44-0.1,66
					c-7.9,0-15.8,0-23.7,0.1C513.8,296.4,505.9,294,498,291.7z M512.2,156.8c1.8,0.3,3.5,0.6,5.3,0.9c1,2.5,2.1,5,3.1,7.6
					c-0.8,2.2-1.6,4.3-2.4,6.5C516.3,166.7,514.2,161.7,512.2,156.8z"/>
			</g>
		</g>
		<g>
			<path fill="#25326D" d="M103.5,195.6c-6.6-0.7-13.1-1.4-19.7-2.1c12.2,13.7,31.6,25.8,31.7,48.9c0,3.7,0,7.3,0,11
				c0,9.1-3.1,16.5-8.8,21.7c-3.9,3.6-7.9,7.2-11.8,10.9c-5.7,5.3-13.8,8.3-23.7,8.2c-19.6-0.1-32.6-13.2-32.6-32.9
				c0-5.9,0-11.9,0-17.8c3.9-3.7,7.9-7.3,11.8-10.9c6.6,0.5,13.1,1,19.7,1.5c-12.3-13.2-31.5-26.6-31.5-51.9c0-4,0-7.9,0-11.9
				c0-9.9,3.1-17.5,8.8-22.2c3.9-3.2,7.8-6.4,11.8-9.6c5.7-4.6,13.7-6.1,23.6-4.4c19.5,3.4,32.5,17.3,32.6,35.3c0,5.5,0,11,0.1,16.4
				C111.4,189,107.5,192.3,103.5,195.6z M95.6,165.4c0,4.8,0,9.7,0,14.5c5.3,0.6,10.5,1.2,15.8,1.8c0-4.3,0-8.6,0-12.8
				c0-15.9-11.5-28.1-28.6-31.1c-17.1-3-28.5,6.1-28.5,23.1c0,3.8,0,7.6,0,11.5c0,34.8,41.4,45.3,41.5,70.8c0,3.6,0,7.2,0,10.8
				c0,7.2-5.1,11.9-12.8,11.6c-7.7-0.3-12.8-5.4-12.9-12.9c0-5,0-9.9,0-14.9c-5.3-0.4-10.5-0.7-15.8-1.1c0,4.5,0,9.1,0,13.6
				c0,17,11.5,28.5,28.7,28.9c17.2,0.3,28.6-10.1,28.6-25.9c0-3.6,0-7.2,0-10.8c-0.1-32-41.5-42.6-41.6-69.5c0-3.7,0-7.4,0-11.1
				c0-7.5,5.1-11.6,12.8-10.4C90.4,152.6,95.5,158.1,95.6,165.4z M73.9,165.6c0,2.6,0,5.2,0,7.8c0,5.7,2.4,10.8,5.9,15.5
				c0-4.8,0-9.6,0-14.4C79.8,170.4,77.5,167.2,73.9,165.6z M80,261.3c0-2.6,0-5.2,0-7.7c0-5.7-2.4-10.5-5.9-15.1c0,4.8,0,9.6,0,14.4
				C74.1,257,76.5,260,80,261.3z"/>
			<path fill="#25326D" d="M142.3,230.3c-10-25.2-20.1-51.1-30.1-77.8c3.9-3.1,7.9-6.2,11.8-9.3c8.4,1.2,16.9,2.2,25.3,3.2
				c4.3,10.9,8.5,21.7,12.8,32.4c2.7-6.6,5.5-13.1,8.2-19.6c3.9-3.1,7.9-6.2,11.8-9.3c8.5,0.8,16.9,1.5,25.4,2.1
				c-9.9,22.9-19.8,46.1-29.7,69.7c0.1,20,0.1,40,0.2,60c-3.9,3.4-7.9,6.9-11.8,10.4c-7.9-0.1-15.8-0.1-23.7-0.2
				C142.5,271.4,142.4,250.8,142.3,230.3z M174.2,278.2c-0.1-19.1-0.1-38.3-0.2-57.4c9.3-22.2,18.6-44.1,27.9-65.8
				c-5.6-0.4-11.2-0.9-16.9-1.4c-6.4,14.8-12.7,29.8-19.1,45c-6.5-16.1-12.9-32.4-19.3-48.9c-5.6-0.7-11.2-1.3-16.8-2.1
				c9.4,24.7,18.9,48.8,28.3,72.3c0.1,19.3,0.1,38.7,0.2,58C163.6,278,168.9,278.1,174.2,278.2z"/>
			<path fill="#25326D" d="M209.6,162.4c4-3.2,7.9-6.3,11.9-9.4c10.9,0.7,21.8,1.3,32.8,1.7c19.7,0.8,32.8,11.9,32.8,28.4
				c0,23.9,0,47.9,0,71.8c0,8.4-3.2,15.2-8.9,20c-4,3.3-7.9,6.7-11.9,10c-5.7,4.8-13.8,7.5-23.7,7.5c-10.9,0-21.8-0.1-32.6-0.1
				C209.9,249,209.8,205.7,209.6,162.4z M254.5,279c17.2,0.1,28.7-9.6,28.7-24.1c0-24,0-47.9-0.1-71.9c0-14.5-11.5-24.4-28.8-25
				c-9.6-0.4-19.2-0.8-28.8-1.4c0.1,40.7,0.2,81.5,0.3,122.2C235.4,278.9,244.9,279,254.5,279z M241.4,169.6
				c4.3,0.2,8.6,0.4,12.9,0.5c7.7,0.3,12.9,4.8,12.9,11.3c0,24.9,0.1,49.8,0.1,74.7c0,6.5-5.1,10.9-12.9,10.8
				c-4.3,0-8.6-0.1-12.9-0.1C241.5,234.4,241.5,202,241.4,169.6z M251.5,263.5c0-24.2-0.1-48.3-0.1-72.5c0-3.7-2.4-6.3-6-7.4
				c0.1,26.6,0.1,53.2,0.2,79.9C247.5,263.5,249.5,263.5,251.5,263.5z"/>
			<path fill="#25326D" d="M302,165.7c4-3.3,7.9-6.7,11.9-10c6.6,0,13.1-0.1,19.7-0.2c4.7,11.2,9.4,22.3,14.1,33.5
				c0-7.9,0-15.9,0-23.8c4-3.5,8-7,11.9-10.5c7.9-0.3,15.9-0.7,23.8-1.1c-0.1,42.9-0.2,85.8-0.3,128.7c-4,3.4-7.9,6.8-11.9,10.2
				c-6.6,0-13.2,0-19.8,0.1c-4.6-11.1-9.2-22.2-13.8-33.3c0,7.8,0,15.5,0,23.3c-4,3.4-7.9,6.7-11.9,10.1c-7.9,0-15.8,0-23.7,0
				C302,250.2,302,208,302,165.7z M333.7,279.1c0-25.7,0-51.4,0.1-77.1c10.8,25.5,21.6,51.1,32.4,76.9c4.4,0,8.7-0.1,13.1-0.1
				c0.1-40.6,0.2-81.2,0.3-121.8c-5.3,0.3-10.6,0.5-15.9,0.7c0,26-0.1,51.9-0.1,77.9c-10.9-25.8-21.7-51.3-32.6-76.9
				c-4.3,0.1-8.6,0.1-12.9,0.2c0,40.1,0,80.1,0,120.2C323.1,279.2,328.4,279.1,333.7,279.1z"/>
			<path fill="#25326D" d="M400.3,162.7c4-3.7,8-7.4,11.9-11.1c20.5-1.6,41-3.7,61.4-6.2c0,6.7,0,13.3-0.1,20c-4,4-7.9,8-11.9,11.9
				c-8.6,0.8-17.1,1.5-25.7,2.2c0,8.8-0.1,17.6-0.1,26.4c9.9-0.6,19.8-1.3,29.7-2c0,6.6,0,13.3-0.1,19.9c-4,3.8-7.9,7.5-11.9,11.2
				c-5.9,0.3-11.9,0.5-17.8,0.8c0,8.8-0.1,17.6-0.1,26.4c12.5-0.3,25.1-0.7,37.6-1.1c0,6.7,0,13.3-0.1,20c-4,3.6-7.9,7.2-11.9,10.8
				c-20.4,0.1-40.9,0.3-61.3,0.4C400,249.1,400.2,205.9,400.3,162.7z M469.2,277.6c0-4.3,0-8.6,0-12.8c-12.5,0.4-25.1,0.7-37.6,1
				c0-14.6,0.1-29.2,0.1-43.7c9.9-0.5,19.8-1,29.7-1.6c0-4.2,0-8.5,0-12.7c-9.9,0.7-19.8,1.3-29.7,1.9c0-14.6,0.1-29.2,0.1-43.7
				c12.5-1,25.1-2.3,37.6-3.6c0-4.3,0-8.6,0-12.8c-17.8,2.1-35.6,3.9-53.5,5.3c-0.1,41.3-0.3,82.5-0.4,123.8
				C433.6,278.3,451.4,278,469.2,277.6z"/>
			<path fill="#25326D" d="M498.2,228.7c-9.9-24.6-19.7-48.6-29.6-72.1c4-4,7.9-8.1,11.9-12.2c8.4-1.1,16.8-2.3,25.3-3.5
				c4.2,10.2,8.3,20.4,12.5,30.8c2.8-7.5,5.6-15.1,8.3-22.8c3.9-4.4,7.9-8.8,11.8-13.3c8.4-1.5,16.8-3,25.1-4.6
				c-9.9,28.9-19.8,56.8-29.8,83.8c0,21.7-0.1,43.4-0.1,65.2c-4,3.9-7.9,7.7-11.9,11.5c-7.9,0.1-15.8,0.2-23.7,0.2
				C498.1,270.7,498.1,249.7,498.2,228.7z M529.7,276.3c0-20.6,0.1-41.3,0.1-61.9c9.4-25.4,18.7-51.5,28.1-78.4
				c-5.6,1-11.1,2-16.7,3c-6.4,18-12.8,35.7-19.2,53c-6.3-15.9-12.7-31.6-19-47c-5.6,0.8-11.2,1.6-16.8,2.3
				c9.3,22.3,18.5,45.1,27.8,68.5c-0.1,20.3-0.1,40.6-0.2,60.9C519.1,276.6,524.4,276.4,529.7,276.3z"/>
		</g>
		<g>
			<g>
				<path fill="#FF0235" d="M50.4,250c0-5.9,0-11.7,0-17.6c7.9,0.6,15.8,1.2,23.7,1.8c0,6.2,0,12.4,0,18.6c0,5.1,3.6,8.7,8.9,8.9
					c5.3,0.2,8.9-3,8.9-8c0-3.6,0-7.2,0-10.8c-0.1-23-41.5-34.4-41.5-70.9c0-3.9,0-7.8,0-11.7c0-19.6,12.7-29.7,32.4-26.2
					c19.5,3.4,32.5,17.3,32.6,35.3c0,5.5,0,11,0.1,16.4c-7.9-0.8-15.8-1.7-23.7-2.6c0-6.1,0-12.2,0-18.3c0-5-3.6-8.9-8.9-9.7
					c-5.3-0.8-8.8,2.1-8.8,7.2c0,3.7,0,7.4,0,11c0,23.9,41.5,35.6,41.6,69c0,3.7,0,7.3,0,11c0.1,18.2-12.8,29.8-32.5,29.5
					C63.5,282.6,50.4,269.4,50.4,250z"/>
				<path fill="#FF0235" d="M154.2,220.4c-10-25.1-20.1-50.7-30.1-77.1c8.4,1.2,16.9,2.2,25.3,3.2c5.5,14.2,11,28.2,16.6,42
					c5.4-13,10.9-25.8,16.3-38.5c8.5,0.8,16.9,1.5,25.4,2.1c-9.9,22.9-19.8,46.1-29.7,69.7c0.1,20,0.1,40,0.2,60
					c-7.9-0.1-15.8-0.2-23.7-0.3C154.3,261,154.2,240.7,154.2,220.4z"/>
				<path fill="#FF0235" d="M221.5,153c10.9,0.7,21.8,1.3,32.8,1.7c19.7,0.8,32.8,11.9,32.8,28.4c0,23.9,0,47.9,0,71.8
					c0,16.7-12.8,27.5-32.6,27.4c-10.9-0.1-21.8-0.1-32.6-0.2C221.7,239.1,221.6,196,221.5,153z M254.5,263.6
					c5.3,0.1,8.9-2.9,8.9-7.5c0-24.9-0.1-49.9-0.1-74.8c0-4.5-3.6-7.6-8.9-7.8c-3-0.1-6-0.2-8.9-0.3c0.1,30.1,0.1,60.2,0.2,90.3
					C248.5,263.5,251.5,263.5,254.5,263.6z"/>
				<path fill="#FF0235" d="M313.9,155.7c6.6,0,13.1-0.1,19.7-0.2c8.7,20.6,17.3,41.1,25.9,61.7c0-20.8,0.1-41.7,0.1-62.5
					c7.9-0.3,15.9-0.7,23.8-1.1c-0.1,42.9-0.2,85.8-0.3,128.7c-6.6,0-13.2,0.1-19.8,0.1c-8.5-20.6-17.1-41.1-25.7-61.6
					c0,20.6,0,41.2-0.1,61.7c-7.9,0-15.8,0-23.7,0C313.9,240.2,313.9,197.9,313.9,155.7z"/>
				<path fill="#FF0235" d="M412.2,151.6c20.5-1.6,41-3.7,61.4-6.2c0,6.7,0,13.3-0.1,20c-12.5,1.4-25,2.6-37.6,3.6
					c0,12.3-0.1,24.6-0.1,36.9c9.9-0.6,19.8-1.3,29.7-2c0,6.6,0,13.3-0.1,19.9c-9.9,0.6-19.8,1.1-29.7,1.6c0,12.3-0.1,24.6-0.1,36.9
					c12.5-0.3,25.1-0.7,37.6-1.1c0,6.7,0,13.3-0.1,20c-20.4,0.3-40.9,0.6-61.3,0.8C411.9,238.5,412.1,195,412.2,151.6z"/>
				<path fill="#FF0235" d="M510.1,216.8c-9.9-24.7-19.7-48.8-29.6-72.4c8.4-1.1,16.8-2.3,25.3-3.5c5.4,13.2,10.8,26.6,16.2,40.2
					c5.5-14.9,11-30.1,16.4-45.5c8.4-1.5,16.8-3,25.1-4.6c-9.9,28.9-19.8,56.8-29.8,83.8c0,21.7-0.1,43.4-0.1,65.2
					c-7.9,0.2-15.8,0.3-23.7,0.5C510,259.3,510,238,510.1,216.8z"/>
			</g>
		</g>
		<g>
			<g>
				<path fill="#FFFFFF" d="M50.4,250c0-5.9,0-11.7,0-17.6c7.9,0.6,15.8,1.2,23.7,1.8c0,6.2,0,12.4,0,18.6c0,5.1,3.6,8.7,8.9,8.9
					c5.3,0.2,8.9-3,8.9-8c0-3.6,0-7.2,0-10.8c-0.1-23-41.5-34.4-41.5-70.9c0-3.9,0-7.8,0-11.7c0-19.6,12.7-29.7,32.4-26.2
					c19.5,3.4,32.5,17.3,32.6,35.3c0,5.5,0,11,0.1,16.4c-7.9-0.8-15.8-1.7-23.7-2.6c0-6.1,0-12.2,0-18.3c0-5-3.6-8.9-8.9-9.7
					c-5.3-0.8-8.8,2.1-8.8,7.2c0,3.7,0,7.4,0,11c0,23.9,41.5,35.6,41.6,69c0,3.7,0,7.3,0,11c0.1,18.2-12.8,29.8-32.5,29.5
					C63.5,282.6,50.4,269.4,50.4,250z M111.6,253.1c0-3.6,0-7.2,0-10.8c-0.1-32-41.5-42.6-41.6-69.5c0-3.7,0-7.4,0-11.1
					c0-7.5,5.1-11.6,12.8-10.4c7.7,1.2,12.8,6.8,12.8,14c0,4.8,0,9.7,0,14.5c5.3,0.6,10.5,1.2,15.8,1.8c0-4.3,0-8.6,0-12.8
					c0-15.9-11.5-28.1-28.6-31.1c-17.1-3-28.5,6.1-28.5,23.1c0,3.8,0,7.6,0,11.5c0,34.8,41.4,45.3,41.5,70.8c0,3.6,0,7.2,0,10.8
					c0,7.2-5.1,11.9-12.8,11.6c-7.7-0.3-12.8-5.4-12.9-12.9c0-5,0-9.9,0-14.9c-5.3-0.4-10.5-0.7-15.8-1.1c0,4.5,0,9.1,0,13.6
					c0,17,11.5,28.5,28.7,28.9C100.2,279.4,111.6,269,111.6,253.1z"/>
				<path fill="#FFFFFF" d="M154.2,220.4c-10-25.1-20.1-50.7-30.1-77.1c8.4,1.2,16.9,2.2,25.3,3.2c5.5,14.2,11,28.2,16.6,42
					c5.4-13,10.9-25.8,16.3-38.5c8.5,0.8,16.9,1.5,25.4,2.1c-9.9,22.9-19.8,46.1-29.7,69.7c0.1,20,0.1,40,0.2,60
					c-7.9-0.1-15.8-0.2-23.7-0.3C154.3,261,154.2,240.7,154.2,220.4z M174.2,278.2c-0.1-19.1-0.1-38.3-0.2-57.4
					c9.3-22.2,18.6-44.1,27.9-65.8c-5.6-0.4-11.2-0.9-16.9-1.4c-6.4,14.8-12.7,29.8-19.1,45c-6.5-16.1-12.9-32.4-19.3-48.9
					c-5.6-0.7-11.2-1.3-16.8-2.1c9.4,24.7,18.9,48.8,28.3,72.3c0.1,19.3,0.1,38.7,0.2,58C163.6,278,168.9,278.1,174.2,278.2z"/>
				<path fill="#FFFFFF" d="M221.5,153c10.9,0.7,21.8,1.3,32.8,1.7c19.7,0.8,32.8,11.9,32.8,28.4c0,23.9,0,47.9,0,71.8
					c0,16.7-12.8,27.5-32.6,27.4c-10.9-0.1-21.8-0.1-32.6-0.2C221.7,239.1,221.6,196,221.5,153z M254.5,279
					c17.2,0.1,28.7-9.6,28.7-24.1c0-24,0-47.9-0.1-71.9c0-14.5-11.5-24.4-28.8-25c-9.6-0.4-19.2-0.8-28.8-1.4
					c0.1,40.7,0.2,81.5,0.3,122.2C235.4,278.9,244.9,279,254.5,279z M241.4,169.6c4.3,0.2,8.6,0.4,12.9,0.5
					c7.7,0.3,12.9,4.8,12.9,11.3c0,24.9,0.1,49.8,0.1,74.7c0,6.5-5.1,10.9-12.9,10.8c-4.3,0-8.6-0.1-12.9-0.1
					C241.5,234.4,241.5,202,241.4,169.6z M254.5,263.6c5.3,0.1,8.9-2.9,8.9-7.5c0-24.9-0.1-49.9-0.1-74.8c0-4.5-3.6-7.6-8.9-7.8
					c-3-0.1-6-0.2-8.9-0.3c0.1,30.1,0.1,60.2,0.2,90.3C248.5,263.5,251.5,263.5,254.5,263.6z"/>
				<path fill="#FFFFFF" d="M313.9,155.7c6.6,0,13.1-0.1,19.7-0.2c8.7,20.6,17.3,41.1,25.9,61.7c0-20.8,0.1-41.7,0.1-62.5
					c7.9-0.3,15.9-0.7,23.8-1.1c-0.1,42.9-0.2,85.8-0.3,128.7c-6.6,0-13.2,0.1-19.8,0.1c-8.5-20.6-17.1-41.1-25.7-61.6
					c0,20.6,0,41.2-0.1,61.7c-7.9,0-15.8,0-23.7,0C313.9,240.2,313.9,197.9,313.9,155.7z M333.7,279.1c0-25.7,0-51.4,0.1-77.1
					c10.8,25.5,21.6,51.1,32.4,76.9c4.4,0,8.7-0.1,13.1-0.1c0.1-40.6,0.2-81.2,0.3-121.8c-5.3,0.3-10.6,0.5-15.9,0.7
					c0,26-0.1,51.9-0.1,77.9c-10.9-25.8-21.7-51.3-32.6-76.9c-4.3,0.1-8.6,0.1-12.9,0.2c0,40.1,0,80.1,0,120.2
					C323.1,279.2,328.4,279.1,333.7,279.1z"/>
				<path fill="#FFFFFF" d="M412.2,151.6c20.5-1.6,41-3.7,61.4-6.2c0,6.7,0,13.3-0.1,20c-12.5,1.4-25,2.6-37.6,3.6
					c0,12.3-0.1,24.6-0.1,36.9c9.9-0.6,19.8-1.3,29.7-2c0,6.6,0,13.3-0.1,19.9c-9.9,0.6-19.8,1.1-29.7,1.6c0,12.3-0.1,24.6-0.1,36.9
					c12.5-0.3,25.1-0.7,37.6-1.1c0,6.7,0,13.3-0.1,20c-20.4,0.3-40.9,0.6-61.3,0.8C411.9,238.5,412.1,195,412.2,151.6z M469.2,277.6
					c0-4.3,0-8.6,0-12.8c-12.5,0.4-25.1,0.7-37.6,1c0-14.6,0.1-29.2,0.1-43.7c9.9-0.5,19.8-1,29.7-1.6c0-4.2,0-8.5,0-12.7
					c-9.9,0.7-19.8,1.3-29.7,1.9c0-14.6,0.1-29.2,0.1-43.7c12.5-1,25.1-2.3,37.6-3.6c0-4.3,0-8.6,0-12.8
					c-17.8,2.1-35.6,3.9-53.5,5.3c-0.1,41.3-0.3,82.5-0.4,123.8C433.6,278.3,451.4,278,469.2,277.6z"/>
				<path fill="#FFFFFF" d="M510.1,216.8c-9.9-24.7-19.7-48.8-29.6-72.4c8.4-1.1,16.8-2.3,25.3-3.5c5.4,13.2,10.8,26.6,16.2,40.2
					c5.5-14.9,11-30.1,16.4-45.5c8.4-1.5,16.8-3,25.1-4.6c-9.9,28.9-19.8,56.8-29.8,83.8c0,21.7-0.1,43.4-0.1,65.2
					c-7.9,0.2-15.8,0.3-23.7,0.5C510,259.3,510,238,510.1,216.8z M529.7,276.3c0-20.6,0.1-41.3,0.1-61.9
					c9.4-25.4,18.7-51.5,28.1-78.4c-5.6,1-11.1,2-16.7,3c-6.4,18-12.8,35.7-19.2,53c-6.3-15.9-12.7-31.6-19-47
					c-5.6,0.8-11.2,1.6-16.8,2.3c9.3,22.3,18.5,45.1,27.8,68.5c-0.1,20.3-0.1,40.6-0.2,60.9C519.1,276.6,524.4,276.4,529.7,276.3z"
					/>
			</g>
		</g>
	</g>
</g>
</svg>
