<?xml version="1.0" encoding="utf-8"?>
<!-- Generator: Adobe Illustrator 23.0.2, SVG Export Plug-In . SVG Version: 6.00 Build 0)  -->
<svg version="1.1" xmlns="http://www.w3.org/2000/svg" xmlns:xlink="http://www.w3.org/1999/xlink" x="0px" y="0px"
	 viewBox="0 0 469.1 236.76" style="enable-background:new 0 0 469.1 236.76;" xml:space="preserve">
<style type="text/css">
	.st0{fill:#343895;}
	.st1{fill:#FFFFFF;}
	.st2{fill:#8DC63F;}
	.st3{clip-path:url(#SVGID_2_);}
	.st4{fill:none;stroke:url(#SVGID_3_);stroke-width:3.3224;stroke-linecap:round;stroke-miterlimit:10;}
	.st5{fill:none;stroke:url(#SVGID_4_);stroke-width:3.3224;stroke-linecap:round;stroke-miterlimit:10;}
	.st6{fill:none;stroke:url(#SVGID_5_);stroke-width:3.3224;stroke-linecap:round;stroke-miterlimit:10;}
	.st7{fill:none;stroke:url(#SVGID_6_);stroke-width:3.3224;stroke-linecap:round;stroke-miterlimit:10;}
	.st8{fill:none;stroke:url(#SVGID_7_);stroke-width:3.3224;stroke-linecap:round;stroke-miterlimit:10;}
	.st9{fill:none;stroke:url(#SVGID_8_);stroke-width:3.3224;stroke-linecap:round;stroke-miterlimit:10;}
	.st10{fill:none;stroke:url(#SVGID_9_);stroke-width:3.3224;stroke-linecap:round;stroke-miterlimit:10;}
	.st11{fill:none;stroke:url(#SVGID_10_);stroke-width:3.3224;stroke-linecap:round;stroke-miterlimit:10;}
	.st12{fill:none;stroke:url(#SVGID_11_);stroke-width:3.3224;stroke-linecap:round;stroke-miterlimit:10;}
	.st13{fill:none;stroke:url(#SVGID_12_);stroke-width:3.3224;stroke-linecap:round;stroke-miterlimit:10;}
	.st14{fill:none;stroke:url(#SVGID_13_);stroke-width:3.3224;stroke-linecap:round;stroke-miterlimit:10;}
	.st15{fill:none;stroke:url(#SVGID_14_);stroke-width:3.3224;stroke-linecap:round;stroke-miterlimit:10;}
	.st16{fill:none;stroke:url(#SVGID_15_);stroke-width:3.3224;stroke-linecap:round;stroke-miterlimit:10;}
	.st17{fill:none;stroke:url(#SVGID_16_);stroke-width:3.3224;stroke-linecap:round;stroke-miterlimit:10;}
	.st18{fill:none;stroke:url(#SVGID_17_);stroke-width:3.3224;stroke-linecap:round;stroke-miterlimit:10;}
	.st19{fill:none;stroke:url(#SVGID_18_);stroke-width:3.3224;stroke-linecap:round;stroke-miterlimit:10;}
	.st20{fill:none;stroke:url(#SVGID_19_);stroke-width:3.3224;stroke-linecap:round;stroke-miterlimit:10;}
	.st21{fill:none;stroke:url(#SVGID_20_);stroke-width:3.3224;stroke-linecap:round;stroke-miterlimit:10;}
	.st22{fill:none;stroke:url(#SVGID_21_);stroke-width:3.3224;stroke-linecap:round;stroke-miterlimit:10;}
	.st23{fill:none;stroke:url(#SVGID_22_);stroke-width:3.3224;stroke-linecap:round;stroke-miterlimit:10;}
	.st24{fill:none;stroke:url(#SVGID_23_);stroke-width:3.3224;stroke-linecap:round;stroke-miterlimit:10;}
	.st25{fill:none;stroke:url(#SVGID_24_);stroke-width:3.3224;stroke-linecap:round;stroke-miterlimit:10;}
	.st26{fill:none;stroke:url(#SVGID_25_);stroke-width:3.3224;stroke-linecap:round;stroke-miterlimit:10;}
	.st27{fill:none;stroke:url(#SVGID_26_);stroke-width:3.3224;stroke-linecap:round;stroke-miterlimit:10;}
	.st28{fill:none;stroke:url(#SVGID_27_);stroke-width:3.3224;stroke-linecap:round;stroke-miterlimit:10;}
	.st29{fill:none;stroke:url(#SVGID_28_);stroke-width:3.3224;stroke-linecap:round;stroke-miterlimit:10;}
	.st30{fill:none;stroke:url(#SVGID_29_);stroke-width:3.3224;stroke-linecap:round;stroke-miterlimit:10;}
	.st31{fill:none;stroke:url(#SVGID_30_);stroke-width:3.3224;stroke-linecap:round;stroke-miterlimit:10;}
	.st32{fill:none;stroke:url(#SVGID_31_);stroke-width:3.3224;stroke-linecap:round;stroke-miterlimit:10;}
	.st33{fill:none;stroke:url(#SVGID_32_);stroke-width:3.3224;stroke-linecap:round;stroke-miterlimit:10;}
	.st34{fill:none;stroke:url(#SVGID_33_);stroke-width:3.3224;stroke-linecap:round;stroke-miterlimit:10;}
	.st35{fill:none;stroke:url(#SVGID_34_);stroke-width:3.3224;stroke-linecap:round;stroke-miterlimit:10;}
	.st36{fill:none;stroke:url(#SVGID_35_);stroke-width:3.3224;stroke-linecap:round;stroke-miterlimit:10;}
	.st37{fill:none;stroke:url(#SVGID_36_);stroke-width:1.2417;stroke-linecap:round;stroke-miterlimit:10;}
	.st38{fill:none;stroke:url(#SVGID_37_);stroke-width:1.2417;stroke-linecap:round;stroke-miterlimit:10;}
	.st39{fill:none;stroke:url(#SVGID_38_);stroke-width:1.2417;stroke-linecap:round;stroke-miterlimit:10;}
	.st40{fill:none;stroke:url(#SVGID_39_);stroke-width:1.2417;stroke-linecap:round;stroke-miterlimit:10;}
	.st41{fill:none;stroke:url(#SVGID_40_);stroke-width:1.2417;stroke-linecap:round;stroke-miterlimit:10;}
	.st42{fill:none;stroke:url(#SVGID_41_);stroke-width:1.2417;stroke-linecap:round;stroke-miterlimit:10;}
	.st43{fill:none;stroke:url(#SVGID_42_);stroke-width:1.2417;stroke-linecap:round;stroke-miterlimit:10;}
	.st44{fill:none;stroke:url(#SVGID_43_);stroke-width:1.2417;stroke-linecap:round;stroke-miterlimit:10;}
	.st45{fill:none;stroke:url(#SVGID_44_);stroke-width:1.2417;stroke-linecap:round;stroke-miterlimit:10;}
	.st46{fill:none;stroke:url(#SVGID_45_);stroke-width:1.2417;stroke-linecap:round;stroke-miterlimit:10;}
	.st47{fill:none;stroke:url(#SVGID_46_);stroke-width:1.2417;stroke-linecap:round;stroke-miterlimit:10;}
	.st48{fill:none;stroke:url(#SVGID_47_);stroke-width:1.2417;stroke-linecap:round;stroke-miterlimit:10;}
	.st49{fill:none;stroke:url(#SVGID_48_);stroke-width:1.2417;stroke-linecap:round;stroke-miterlimit:10;}
	.st50{fill:none;stroke:url(#SVGID_49_);stroke-width:1.2417;stroke-linecap:round;stroke-miterlimit:10;}
	.st51{fill:none;stroke:url(#SVGID_50_);stroke-width:1.2417;stroke-linecap:round;stroke-miterlimit:10;}
	.st52{fill:none;stroke:url(#SVGID_51_);stroke-width:1.2417;stroke-linecap:round;stroke-miterlimit:10;}
	.st53{fill:none;stroke:url(#SVGID_52_);stroke-width:1.2417;stroke-linecap:round;stroke-miterlimit:10;}
	.st54{fill:none;stroke:url(#SVGID_53_);stroke-width:1.2417;stroke-linecap:round;stroke-miterlimit:10;}
	.st55{fill:none;stroke:url(#SVGID_54_);stroke-width:1.2417;stroke-linecap:round;stroke-miterlimit:10;}
	.st56{fill:none;stroke:url(#SVGID_55_);stroke-width:1.2417;stroke-linecap:round;stroke-miterlimit:10;}
	.st57{fill:none;stroke:url(#SVGID_56_);stroke-width:1.2417;stroke-linecap:round;stroke-miterlimit:10;}
	.st58{fill:none;stroke:url(#SVGID_57_);stroke-width:1.2417;stroke-linecap:round;stroke-miterlimit:10;}
	.st59{fill:none;stroke:url(#SVGID_58_);stroke-width:1.2417;stroke-linecap:round;stroke-miterlimit:10;}
	.st60{fill:none;stroke:url(#SVGID_59_);stroke-width:1.2417;stroke-linecap:round;stroke-miterlimit:10;}
	.st61{fill:none;stroke:url(#SVGID_60_);stroke-width:1.2417;stroke-linecap:round;stroke-miterlimit:10;}
	.st62{fill:none;stroke:url(#SVGID_61_);stroke-width:1.2417;stroke-linecap:round;stroke-miterlimit:10;}
	.st63{fill:none;stroke:url(#SVGID_62_);stroke-width:1.2417;stroke-linecap:round;stroke-miterlimit:10;}
	.st64{fill:none;stroke:url(#SVGID_63_);stroke-width:1.2417;stroke-linecap:round;stroke-miterlimit:10;}
	.st65{fill:none;stroke:url(#SVGID_64_);stroke-width:1.2417;stroke-linecap:round;stroke-miterlimit:10;}
	.st66{fill:none;stroke:url(#SVGID_65_);stroke-width:1.2417;stroke-linecap:round;stroke-miterlimit:10;}
	.st67{fill:none;stroke:url(#SVGID_66_);stroke-width:1.2417;stroke-linecap:round;stroke-miterlimit:10;}
	.st68{fill:none;stroke:url(#SVGID_67_);stroke-width:1.2417;stroke-linecap:round;stroke-miterlimit:10;}
	.st69{fill:none;stroke:url(#SVGID_68_);stroke-width:1.2417;stroke-linecap:round;stroke-miterlimit:10;}
	.st70{fill:none;stroke:url(#SVGID_69_);stroke-width:4.463;stroke-linecap:round;stroke-miterlimit:10;}
	.st71{fill:none;stroke:url(#SVGID_70_);stroke-width:4.463;stroke-linecap:round;stroke-miterlimit:10;}
	.st72{fill:none;stroke:url(#SVGID_71_);stroke-width:4.463;stroke-linecap:round;stroke-miterlimit:10;}
	.st73{fill:none;stroke:url(#SVGID_72_);stroke-width:4.463;stroke-linecap:round;stroke-miterlimit:10;}
	.st74{fill:none;stroke:url(#SVGID_73_);stroke-width:4.463;stroke-linecap:round;stroke-miterlimit:10;}
	.st75{fill:none;stroke:url(#SVGID_74_);stroke-width:4.463;stroke-linecap:round;stroke-miterlimit:10;}
	.st76{fill:none;stroke:url(#SVGID_75_);stroke-width:4.463;stroke-linecap:round;stroke-miterlimit:10;}
	.st77{fill:none;stroke:url(#SVGID_76_);stroke-width:4.463;stroke-linecap:round;stroke-miterlimit:10;}
	.st78{fill:none;stroke:url(#SVGID_77_);stroke-width:4.463;stroke-linecap:round;stroke-miterlimit:10;}
	.st79{fill:none;stroke:url(#SVGID_78_);stroke-width:4.463;stroke-linecap:round;stroke-miterlimit:10;}
	.st80{fill:none;stroke:url(#SVGID_79_);stroke-width:4.463;stroke-linecap:round;stroke-miterlimit:10;}
	.st81{fill:none;stroke:url(#SVGID_80_);stroke-width:4.463;stroke-linecap:round;stroke-miterlimit:10;}
	.st82{fill:none;stroke:url(#SVGID_81_);stroke-width:4.463;stroke-linecap:round;stroke-miterlimit:10;}
	.st83{fill:none;stroke:url(#SVGID_82_);stroke-width:4.463;stroke-linecap:round;stroke-miterlimit:10;}
	.st84{fill:none;stroke:url(#SVGID_83_);stroke-width:4.463;stroke-linecap:round;stroke-miterlimit:10;}
	.st85{fill:none;stroke:url(#SVGID_84_);stroke-width:4.463;stroke-linecap:round;stroke-miterlimit:10;}
	.st86{fill:none;stroke:url(#SVGID_85_);stroke-width:4.463;stroke-linecap:round;stroke-miterlimit:10;}
	.st87{fill:none;stroke:url(#SVGID_86_);stroke-width:4.463;stroke-linecap:round;stroke-miterlimit:10;}
	.st88{fill:none;stroke:url(#SVGID_87_);stroke-width:4.463;stroke-linecap:round;stroke-miterlimit:10;}
	.st89{fill:none;stroke:url(#SVGID_88_);stroke-width:4.463;stroke-linecap:round;stroke-miterlimit:10;}
	.st90{fill:none;stroke:url(#SVGID_89_);stroke-width:4.463;stroke-linecap:round;stroke-miterlimit:10;}
	.st91{fill:none;stroke:url(#SVGID_90_);stroke-width:4.463;stroke-linecap:round;stroke-miterlimit:10;}
	.st92{fill:none;stroke:url(#SVGID_91_);stroke-width:4.463;stroke-linecap:round;stroke-miterlimit:10;}
	.st93{fill:none;stroke:url(#SVGID_92_);stroke-width:4.463;stroke-linecap:round;stroke-miterlimit:10;}
	.st94{fill:none;stroke:url(#SVGID_93_);stroke-width:4.463;stroke-linecap:round;stroke-miterlimit:10;}
	.st95{fill:none;stroke:url(#SVGID_94_);stroke-width:4.463;stroke-linecap:round;stroke-miterlimit:10;}
	.st96{fill:none;stroke:url(#SVGID_95_);stroke-width:4.463;stroke-linecap:round;stroke-miterlimit:10;}
	.st97{fill:none;stroke:url(#SVGID_96_);stroke-width:4.463;stroke-linecap:round;stroke-miterlimit:10;}
	.st98{fill:none;stroke:url(#SVGID_97_);stroke-width:4.463;stroke-linecap:round;stroke-miterlimit:10;}
	.st99{fill:none;stroke:url(#SVGID_98_);stroke-width:4.463;stroke-linecap:round;stroke-miterlimit:10;}
	.st100{fill:none;stroke:url(#SVGID_99_);stroke-width:4.463;stroke-linecap:round;stroke-miterlimit:10;}
	.st101{fill:none;stroke:url(#SVGID_100_);stroke-width:4.463;stroke-linecap:round;stroke-miterlimit:10;}
	.st102{fill:none;stroke:url(#SVGID_101_);stroke-width:4.463;stroke-linecap:round;stroke-miterlimit:10;}
	.st103{clip-path:url(#SVGID_103_);}
	.st104{fill:none;stroke:url(#SVGID_104_);stroke-width:3.5;stroke-linecap:round;stroke-miterlimit:10;}
	.st105{fill:none;stroke:url(#SVGID_105_);stroke-width:3.5;stroke-linecap:round;stroke-miterlimit:10;}
	.st106{fill:none;stroke:url(#SVGID_106_);stroke-width:3.5;stroke-linecap:round;stroke-miterlimit:10;}
	.st107{fill:none;stroke:url(#SVGID_107_);stroke-width:3.5;stroke-linecap:round;stroke-miterlimit:10;}
	.st108{fill:none;stroke:url(#SVGID_108_);stroke-width:3.5;stroke-linecap:round;stroke-miterlimit:10;}
	.st109{fill:none;stroke:url(#SVGID_109_);stroke-width:3.5;stroke-linecap:round;stroke-miterlimit:10;}
	.st110{fill:none;stroke:url(#SVGID_110_);stroke-width:3.5;stroke-linecap:round;stroke-miterlimit:10;}
	.st111{fill:none;stroke:url(#SVGID_111_);stroke-width:3.5;stroke-linecap:round;stroke-miterlimit:10;}
	.st112{fill:none;stroke:url(#SVGID_112_);stroke-width:3.5;stroke-linecap:round;stroke-miterlimit:10;}
	.st113{fill:none;stroke:url(#SVGID_113_);stroke-width:3.5;stroke-linecap:round;stroke-miterlimit:10;}
	.st114{fill:none;stroke:url(#SVGID_114_);stroke-width:3.5;stroke-linecap:round;stroke-miterlimit:10;}
	.st115{fill:none;stroke:url(#SVGID_115_);stroke-width:3.5;stroke-linecap:round;stroke-miterlimit:10;}
	.st116{fill:none;stroke:url(#SVGID_116_);stroke-width:3.5;stroke-linecap:round;stroke-miterlimit:10;}
	.st117{fill:none;stroke:url(#SVGID_117_);stroke-width:3.5;stroke-linecap:round;stroke-miterlimit:10;}
	.st118{fill:none;stroke:url(#SVGID_118_);stroke-width:3.5;stroke-linecap:round;stroke-miterlimit:10;}
	.st119{fill:none;stroke:url(#SVGID_119_);stroke-width:3.5;stroke-linecap:round;stroke-miterlimit:10;}
	.st120{fill:none;stroke:url(#SVGID_120_);stroke-width:3.5;stroke-linecap:round;stroke-miterlimit:10;}
	.st121{fill:none;stroke:url(#SVGID_121_);stroke-width:3.5;stroke-linecap:round;stroke-miterlimit:10;}
	.st122{fill:none;stroke:url(#SVGID_122_);stroke-width:3.5;stroke-linecap:round;stroke-miterlimit:10;}
	.st123{fill:none;stroke:url(#SVGID_123_);stroke-width:3.5;stroke-linecap:round;stroke-miterlimit:10;}
	.st124{fill:none;stroke:url(#SVGID_124_);stroke-width:3.5;stroke-linecap:round;stroke-miterlimit:10;}
	.st125{fill:none;stroke:url(#SVGID_125_);stroke-width:3.5;stroke-linecap:round;stroke-miterlimit:10;}
	.st126{fill:none;stroke:url(#SVGID_126_);stroke-width:3.5;stroke-linecap:round;stroke-miterlimit:10;}
	.st127{fill:none;stroke:url(#SVGID_127_);stroke-width:3.5;stroke-linecap:round;stroke-miterlimit:10;}
	.st128{fill:none;stroke:url(#SVGID_128_);stroke-width:3.5;stroke-linecap:round;stroke-miterlimit:10;}
	.st129{fill:none;stroke:url(#SVGID_129_);stroke-width:3.5;stroke-linecap:round;stroke-miterlimit:10;}
	.st130{fill:none;stroke:url(#SVGID_130_);stroke-width:3.5;stroke-linecap:round;stroke-miterlimit:10;}
	.st131{fill:none;stroke:url(#SVGID_131_);stroke-width:3.5;stroke-linecap:round;stroke-miterlimit:10;}
	.st132{fill:none;stroke:url(#SVGID_132_);stroke-width:3.5;stroke-linecap:round;stroke-miterlimit:10;}
	.st133{fill:none;stroke:url(#SVGID_133_);stroke-width:3.5;stroke-linecap:round;stroke-miterlimit:10;}
	.st134{fill:none;stroke:url(#SVGID_134_);stroke-width:3.5;stroke-linecap:round;stroke-miterlimit:10;}
	.st135{fill:none;stroke:url(#SVGID_135_);stroke-width:3.5;stroke-linecap:round;stroke-miterlimit:10;}
	.st136{fill:none;stroke:url(#SVGID_136_);stroke-width:3.5;stroke-linecap:round;stroke-miterlimit:10;}
	.st137{clip-path:url(#SVGID_138_);}
	.st138{fill:none;stroke:url(#SVGID_139_);stroke-width:5;stroke-linecap:round;stroke-miterlimit:10;}
	.st139{fill:none;stroke:url(#SVGID_140_);stroke-width:5;stroke-linecap:round;stroke-miterlimit:10;}
	.st140{fill:none;stroke:url(#SVGID_141_);stroke-width:5;stroke-linecap:round;stroke-miterlimit:10;}
	.st141{fill:none;stroke:url(#SVGID_142_);stroke-width:5;stroke-linecap:round;stroke-miterlimit:10;}
	.st142{fill:none;stroke:url(#SVGID_143_);stroke-width:5;stroke-linecap:round;stroke-miterlimit:10;}
	.st143{fill:none;stroke:url(#SVGID_144_);stroke-width:5;stroke-linecap:round;stroke-miterlimit:10;}
	.st144{fill:none;stroke:url(#SVGID_145_);stroke-width:5;stroke-linecap:round;stroke-miterlimit:10;}
	.st145{fill:none;stroke:url(#SVGID_146_);stroke-width:5;stroke-linecap:round;stroke-miterlimit:10;}
	.st146{fill:none;stroke:url(#SVGID_147_);stroke-width:5;stroke-linecap:round;stroke-miterlimit:10;}
	.st147{fill:none;stroke:url(#SVGID_148_);stroke-width:5;stroke-linecap:round;stroke-miterlimit:10;}
	.st148{fill:none;stroke:url(#SVGID_149_);stroke-width:5;stroke-linecap:round;stroke-miterlimit:10;}
	.st149{fill:none;stroke:url(#SVGID_150_);stroke-width:5;stroke-linecap:round;stroke-miterlimit:10;}
	.st150{fill:none;stroke:url(#SVGID_151_);stroke-width:5;stroke-linecap:round;stroke-miterlimit:10;}
	.st151{fill:none;stroke:url(#SVGID_152_);stroke-width:5;stroke-linecap:round;stroke-miterlimit:10;}
	.st152{fill:none;stroke:url(#SVGID_153_);stroke-width:5;stroke-linecap:round;stroke-miterlimit:10;}
	.st153{fill:none;stroke:url(#SVGID_154_);stroke-width:5;stroke-linecap:round;stroke-miterlimit:10;}
	.st154{fill:none;stroke:url(#SVGID_155_);stroke-width:5;stroke-linecap:round;stroke-miterlimit:10;}
	.st155{fill:none;stroke:url(#SVGID_156_);stroke-width:5;stroke-linecap:round;stroke-miterlimit:10;}
	.st156{fill:none;stroke:url(#SVGID_157_);stroke-width:5;stroke-linecap:round;stroke-miterlimit:10;}
	.st157{fill:none;stroke:url(#SVGID_158_);stroke-width:5;stroke-linecap:round;stroke-miterlimit:10;}
	.st158{fill:none;stroke:url(#SVGID_159_);stroke-width:5;stroke-linecap:round;stroke-miterlimit:10;}
	.st159{fill:none;stroke:url(#SVGID_160_);stroke-width:5;stroke-linecap:round;stroke-miterlimit:10;}
	.st160{fill:none;stroke:url(#SVGID_161_);stroke-width:5;stroke-linecap:round;stroke-miterlimit:10;}
	.st161{fill:none;stroke:url(#SVGID_162_);stroke-width:5;stroke-linecap:round;stroke-miterlimit:10;}
	.st162{fill:none;stroke:url(#SVGID_163_);stroke-width:5;stroke-linecap:round;stroke-miterlimit:10;}
	.st163{fill:none;stroke:url(#SVGID_164_);stroke-width:5;stroke-linecap:round;stroke-miterlimit:10;}
	.st164{fill:none;stroke:url(#SVGID_165_);stroke-width:5;stroke-linecap:round;stroke-miterlimit:10;}
	.st165{fill:none;stroke:url(#SVGID_166_);stroke-width:5;stroke-linecap:round;stroke-miterlimit:10;}
	.st166{fill:none;stroke:url(#SVGID_167_);stroke-width:5;stroke-linecap:round;stroke-miterlimit:10;}
	.st167{fill:none;stroke:url(#SVGID_168_);stroke-width:5;stroke-linecap:round;stroke-miterlimit:10;}
	.st168{fill:none;stroke:url(#SVGID_169_);stroke-width:5;stroke-linecap:round;stroke-miterlimit:10;}
	.st169{fill:none;stroke:url(#SVGID_170_);stroke-width:5;stroke-linecap:round;stroke-miterlimit:10;}
	.st170{fill:none;stroke:url(#SVGID_171_);stroke-width:5;stroke-linecap:round;stroke-miterlimit:10;}
	.st171{fill:#5F6062;}
</style>
<g id="Layer_3">
</g>
<g id="Layer_2">
</g>
<g id="Layer_1">
	<g>
		<g>
			<polygon class="st2" points="93.74,49.7 101.06,47.74 98.75,51.43 102.06,50.54 105.28,45.42 99.93,42.59 96.62,43.48 
				100.52,45.54 93.15,47.51 			"/>
			<polygon class="st2" points="85.21,69.57 80.44,68.77 79.98,73.58 81.65,75.76 81.98,72.24 85.7,77.08 87.13,75.98 83.43,71.17 
				86.87,71.75 			"/>
			<polygon class="st2" points="93.94,67.71 95.16,64.4 97.5,70.04 99.17,69.34 96.84,63.73 100.01,65.19 98.97,62.66 94.58,60.64 
				92.88,65.17 			"/>
			<polygon class="st2" points="142.81,169.06 141.59,172.36 139.25,166.73 137.58,167.42 139.9,173.03 136.73,171.58 
				137.78,174.12 142.18,176.13 143.87,171.6 			"/>
			<polygon class="st2" points="112.36,45.66 119.93,45.67 116.75,48.63 120.17,48.63 124.61,44.51 120.17,40.4 116.75,40.4 
				119.98,43.4 112.35,43.4 			"/>
			<polygon class="st2" points="110.49,170.46 109.69,176.47 107.67,173.64 107.31,176.35 110.12,180.29 113.85,177.21 
				114.2,174.49 111.49,176.74 112.28,170.69 			"/>
			<polygon class="st2" points="124.4,191.1 116.81,191.1 120,188.13 116.57,188.13 112.15,192.26 116.57,196.37 120,196.37 
				116.77,193.36 124.4,193.36 			"/>
			<polygon class="st2" points="126.26,66.31 127.05,60.29 129.07,63.13 129.43,60.41 126.64,56.47 122.9,59.55 122.55,62.27 
				125.26,60.02 124.47,66.07 			"/>
			<polygon class="st2" points="129.22,176.38 128.87,173.65 126.82,176.54 126.03,170.48 124.23,170.72 125.03,176.74 
				122.34,174.51 122.7,177.24 126.42,180.31 			"/>
			<polygon class="st2" points="105.37,190.18 98.04,188.21 101.9,186.18 98.58,185.29 93.24,188.13 96.45,193.25 99.76,194.13 
				97.42,190.39 104.78,192.37 			"/>
			<polygon class="st2" points="97.28,166.64 94.96,172.25 93.74,168.98 92.69,171.52 94.38,176.04 98.78,174.03 99.82,171.49 
				96.62,172.97 98.95,167.32 			"/>
			<polygon class="st2" points="85.51,159.53 81.81,164.35 81.48,160.88 79.81,163.05 80.27,167.86 85.04,167.06 86.71,164.88 
				83.23,165.48 86.94,160.64 			"/>
			<polygon class="st2" points="152.06,17.13 153.41,12.12 147.76,15.66 150.75,4.49 147.43,3.61 144.45,14.72 141.36,8.88 
				140.01,13.9 144.31,22.01 			"/>
			<polygon class="st2" points="127.52,33.57 131.75,34.13 128.24,29.89 137.69,31.13 138.05,28.33 128.66,27.09 133.1,23.93 
				128.85,23.37 122.69,27.75 			"/>
			<polygon class="st2" points="107.52,60.39 107.88,63.11 109.92,60.23 110.72,66.27 112.51,66.04 111.73,60.02 114.41,62.24 
				114.05,59.53 110.33,56.45 			"/>
			<polygon class="st2" points="84.88,17.08 92.64,21.95 96.93,13.85 95.58,8.83 92.46,14.73 89.48,3.57 86.16,4.46 89.14,15.57 
				83.53,12.07 			"/>
			<polygon class="st2" points="109.5,33.54 105,30.35 114.45,29.11 114.08,26.31 104.68,27.54 108.16,23.33 103.91,23.9 
				99.08,29.72 105.25,34.1 			"/>
			<polygon class="st2" points="124.71,11.86 124.71,6.67 120.17,11.56 120.17,0 116.74,0 116.74,11.51 112.24,6.67 112.24,11.86 
				118.48,18.58 			"/>
			<polygon class="st2" points="131.38,46.58 138.7,48.55 134.85,50.59 138.16,51.48 143.51,48.64 140.29,43.52 136.98,42.64 
				139.33,46.37 131.97,44.39 			"/>
			<polygon class="st2" points="153.09,29.33 146,31.95 149.15,38.83 153.1,40.47 150.81,35.46 159.61,39.1 160.69,36.49 
				151.93,32.87 157.05,30.95 			"/>
			<polygon class="st2" points="139.47,70.12 141.8,64.52 143.01,67.79 144.05,65.26 142.38,60.72 137.98,62.74 136.93,65.27 
				140.13,63.79 137.8,69.43 			"/>
			<polygon class="st2" points="151.24,77.23 154.94,72.41 155.26,75.89 156.93,73.71 156.48,68.9 151.71,69.7 150.04,71.88 
				153.52,71.29 149.81,76.12 			"/>
			<polygon class="st2" points="155.96,50.03 157.26,54.25 150.65,50.44 149.53,52.4 156.08,56.19 151.84,57.16 154.81,58.88 
				160.7,57.53 158.93,51.75 			"/>
			<polygon class="st2" points="208.43,138.06 209.66,128.66 212.82,133.1 213.38,128.86 209.01,122.69 203.18,127.51 
				202.63,131.76 206.87,128.25 205.63,137.69 			"/>
			<polygon class="st2" points="166.42,168.98 166.2,175.02 172.24,174.8 174.67,172.38 170.26,172.53 175.66,167.15 174.06,165.54 
				168.69,170.91 168.85,166.54 			"/>
			<polygon class="st2" points="201.85,43.86 195.17,44.12 203.35,35.93 200.92,33.52 192.78,41.65 193.03,35.05 189.35,38.72 
				189.02,47.89 198.17,47.54 			"/>
			<polygon class="st2" points="143.01,187.07 135.69,189.02 138,185.33 134.69,186.22 131.48,191.35 136.82,194.17 140.12,193.29 
				136.23,191.23 143.6,189.26 			"/>
			<polygon class="st2" points="178.15,192.97 179.41,185.51 171.88,184.81 168.49,187.42 173.97,187.93 166.41,193.74 
				168.14,195.98 175.65,190.21 174.75,195.57 			"/>
			<polygon class="st2" points="172.24,141.8 168.97,143.01 171.5,144.06 176.04,142.38 174.02,137.98 171.49,136.94 172.96,140.13 
				167.32,137.8 166.63,139.48 			"/>
			<polygon class="st2" points="176.37,107.53 173.65,107.89 176.53,109.93 170.48,110.73 170.71,112.53 176.73,111.73 
				174.51,114.41 177.23,114.06 180.32,110.34 			"/>
			<polygon class="st2" points="167.41,99.18 173.03,96.85 171.57,100.03 174.1,98.97 176.12,94.58 171.59,92.89 169.05,93.94 
				172.36,95.16 166.72,97.5 			"/>
			<polygon class="st2" points="218.29,68.01 211.79,66.52 221.78,60.74 220.08,57.77 210.11,63.52 212.05,57.21 207.55,59.8 
				204.86,68.57 213.78,70.61 			"/>
			<polygon class="st2" points="219.68,84.89 214.8,92.65 222.9,96.93 227.92,95.59 222.03,92.47 233.18,89.47 232.3,86.16 
				221.18,89.14 224.69,83.54 			"/>
			<polygon class="st2" points="212.86,103.91 207.04,99.08 202.66,105.26 203.22,109.5 206.41,105.01 207.65,114.45 210.46,114.09 
				209.22,104.69 213.42,108.16 			"/>
			<polygon class="st2" points="205.89,79.95 199.03,76.8 196.39,83.89 198.03,87.85 199.95,82.68 203.59,91.48 206.2,90.4 
				202.57,81.65 207.53,83.9 			"/>
			<polygon class="st2" points="87.84,38.73 82.67,36.81 91.48,33.16 90.4,30.56 81.64,34.18 83.9,29.22 79.94,30.87 76.79,37.73 
				83.88,40.37 			"/>
			<polygon class="st2" points="176.34,129.43 180.29,126.64 177.2,122.91 174.49,122.56 176.73,125.27 170.68,124.47 
				170.45,126.27 176.47,127.06 173.63,129.09 			"/>
			<polygon class="st2" points="166.54,67.91 168.97,70.33 175.02,70.56 174.79,64.51 172.37,62.09 172.53,66.49 167.14,61.1 
				165.54,62.7 170.9,68.07 			"/>
			<polygon class="st2" points="177.13,29.3 179.73,24.8 173.34,26.77 179.12,16.76 176.14,15.04 170.4,25 168.92,18.56 
				166.32,23.07 168.37,32 			"/>
			<polygon class="st2" points="151.55,167.19 156.31,167.99 156.77,163.19 155.09,161.01 154.77,164.51 151.05,159.68 
				149.62,160.78 153.32,165.6 149.88,165.01 			"/>
			<polygon class="st2" points="178.36,43.95 174.95,41.35 167.43,42.04 168.69,49.5 172.09,52.11 171.16,46.68 178.73,52.48 
				180.44,50.24 172.92,44.47 			"/>
			<polygon class="st2" points="159.67,85.71 160.77,87.15 165.59,83.44 165.01,86.87 167.19,85.2 167.99,80.45 163.17,79.98 
				161,81.66 164.51,81.99 			"/>
			<polygon class="st2" points="186.21,102.07 191.34,105.29 194.16,99.94 193.28,96.63 191.21,100.53 189.25,93.16 187.06,93.75 
				189.02,101.07 185.33,98.75 			"/>
			<polygon class="st2" points="193.23,140.31 194.12,136.99 190.39,139.34 192.36,131.97 190.18,131.39 188.21,138.71 
				186.17,134.86 185.28,138.18 188.12,143.52 			"/>
			<polygon class="st2" points="186.72,155.96 182.51,157.26 186.32,150.66 184.36,149.53 180.57,156.09 179.6,151.85 
				177.89,154.82 179.23,160.71 185.01,158.93 			"/>
			<polygon class="st2" points="187.93,62.79 193.73,70.34 195.97,68.63 190.2,61.11 195.57,62.01 192.96,58.61 185.51,57.34 
				184.8,64.87 187.41,68.27 			"/>
			<polygon class="st2" points="178.34,76.81 182.13,83.38 177.97,82.1 179.68,85.06 185.47,86.85 186.81,80.95 185.09,77.98 
				184.11,82.28 180.3,75.68 			"/>
			<polygon class="st2" points="196.35,116.75 193.35,119.98 193.35,112.36 191.1,112.36 191.1,119.95 188.13,116.75 188.13,120.17 
				192.25,124.6 196.35,120.17 			"/>
			<polygon class="st2" points="29.32,83.67 31.95,90.76 38.82,87.61 40.46,83.65 35.45,85.95 39.1,77.14 36.49,76.07 32.86,84.83 
				30.95,79.72 			"/>
			<polygon class="st2" points="83.66,207.44 90.76,204.81 87.6,197.93 83.65,196.29 85.94,201.31 77.13,197.66 76.05,200.27 
				84.82,203.9 79.71,205.8 			"/>
			<polygon class="st2" points="127.26,203.22 131.75,206.41 122.3,207.66 122.67,210.45 132.07,209.22 128.6,213.42 132.84,212.85 
				137.67,207.04 131.5,202.66 			"/>
			<polygon class="st2" points="77.08,151.06 75.98,149.63 71.16,153.33 71.74,149.88 69.57,151.55 68.76,156.32 73.58,156.77 
				75.75,155.1 72.25,154.78 			"/>
			<polygon class="st2" points="84.69,219.62 83.34,224.64 88.99,221.1 86,232.25 89.32,233.15 92.29,222.04 95.39,227.87 
				96.73,222.85 92.44,214.74 			"/>
			<polygon class="st2" points="109.24,203.18 105,202.63 108.51,206.87 99.06,205.64 98.69,208.43 108.09,209.67 103.65,212.84 
				107.9,213.38 114.07,209.02 			"/>
			<polygon class="st2" points="112.04,224.88 112.04,230.09 116.58,225.19 116.58,236.76 120.01,236.76 120.01,225.24 
				124.51,230.09 124.51,224.88 118.27,218.18 			"/>
			<polygon class="st2" points="80.79,186.72 79.49,182.52 86.1,186.33 87.23,184.37 80.66,180.57 84.91,179.6 81.94,177.89 
				76.04,179.24 77.82,185.02 			"/>
			<polygon class="st2" points="48.82,173.99 43.02,166.41 40.78,168.14 46.56,175.66 41.18,174.75 43.79,178.15 51.24,179.42 
				51.95,171.89 49.34,168.49 			"/>
			<polygon class="st2" points="83.37,54.63 82.08,58.8 85.05,57.07 86.84,51.29 80.94,49.95 77.98,51.67 82.28,52.64 75.66,56.46 
				76.8,58.41 			"/>
			<polygon class="st2" points="58.39,192.81 61.79,195.42 69.33,194.71 68.06,187.26 64.66,184.65 65.58,190.08 58.02,184.29 
				56.3,186.52 63.83,192.3 			"/>
			<polygon class="st2" points="59.63,207.45 57.03,211.94 63.41,209.98 57.63,219.99 60.6,221.71 66.36,211.75 67.84,218.19 
				70.43,213.69 68.39,204.76 			"/>
			<polygon class="st2" points="70.2,168.85 67.78,166.43 61.74,166.21 61.96,172.25 64.38,174.67 64.22,170.28 69.61,175.67 
				71.21,174.06 65.85,168.7 			"/>
			<polygon class="st2" points="227.87,141.36 222.85,140.02 214.75,144.31 219.62,152.07 224.64,153.41 221.09,147.76 
				232.26,150.75 233.14,147.43 222.03,144.45 			"/>
			<polygon class="st2" points="201.71,193.04 198.03,189.36 188.87,189.02 189.21,198.18 192.89,201.86 192.64,195.17 
				200.81,203.35 203.23,200.92 195.11,192.8 			"/>
			<polygon class="st2" points="207.43,153.1 204.8,146 197.93,149.15 196.3,153.11 201.3,150.82 197.66,159.62 200.26,160.7 
				203.89,151.94 205.79,157.05 			"/>
			<polygon class="st2" points="218.19,168.93 213.68,166.32 204.75,168.37 207.45,177.13 211.95,179.73 209.99,173.34 220,179.11 
				221.71,176.15 211.75,170.4 			"/>
			<polygon class="st2" points="225.25,116.75 230.09,112.24 224.89,112.24 218.17,118.48 224.89,124.71 230.09,124.71 
				225.2,120.17 236.75,120.17 236.75,116.75 			"/>
			<polygon class="st2" points="151.88,219.68 144.1,214.8 139.82,222.91 141.16,227.93 144.29,222.04 147.29,233.18 150.59,232.3 
				147.61,221.18 153.22,224.7 			"/>
			<polygon class="st2" points="34.9,192.88 41.57,192.65 33.41,200.81 35.83,203.24 43.97,195.1 43.72,201.71 47.4,198.04 
				47.73,188.87 38.58,189.21 			"/>
			<polygon class="st2" points="153.38,182.14 154.66,177.98 151.7,179.69 149.91,185.47 155.81,186.81 158.78,185.1 154.48,184.12 
				161.08,180.31 159.95,178.36 			"/>
			<polygon class="st2" points="148.91,198.03 154.08,199.95 145.27,203.59 146.35,206.21 155.11,202.58 152.85,207.53 156.8,205.9 
				159.96,199.02 152.87,196.4 			"/>
			<polygon class="st2" points="176.95,207.55 168.19,204.86 166.14,213.79 168.75,218.3 170.23,211.78 176.01,221.79 
				178.97,220.07 173.23,210.11 179.55,212.06 			"/>
			<polygon class="st2" points="167.06,151.72 164.88,150.04 165.47,153.52 160.63,149.81 159.52,151.25 164.34,154.94 
				160.87,155.27 163.05,156.94 167.86,156.49 			"/>
			<polygon class="st2" points="192.81,178.36 195.42,174.96 194.71,167.44 187.26,168.7 184.65,172.09 190.08,171.18 
				184.28,178.73 186.52,180.46 192.29,172.93 			"/>
			<polygon class="st2" points="58.41,159.96 54.62,153.39 58.78,154.68 57.06,151.7 51.29,149.92 49.94,155.81 51.65,158.78 
				52.64,154.49 56.44,161.08 			"/>
			<polygon class="st2" points="70.32,67.79 70.55,61.74 64.5,61.97 62.08,64.39 66.49,64.23 61.09,69.61 62.69,71.21 68.06,65.86 
				67.9,70.22 			"/>
			<polygon class="st2" points="60.4,107.33 56.47,110.12 59.55,113.85 62.27,114.21 60.01,111.49 66.06,112.28 66.3,110.5 
				60.28,109.71 63.12,107.68 			"/>
			<polygon class="st2" points="18.46,168.75 24.97,170.24 14.96,176.01 16.67,178.98 26.64,173.23 24.69,179.54 29.2,176.95 
				31.89,168.19 22.96,166.14 			"/>
			<polygon class="st2" points="64.5,94.96 67.78,93.75 65.24,92.7 60.72,94.38 62.72,98.78 65.26,99.83 63.79,96.63 69.42,98.95 
				70.12,97.28 			"/>
			<polygon class="st2" points="56.18,80.67 57.16,84.92 58.86,81.95 57.52,76.05 51.74,77.83 50.02,80.8 54.24,79.5 50.43,86.11 
				52.39,87.23 			"/>
			<polygon class="st2" points="63.1,128.87 60.22,126.83 66.28,126.03 66.04,124.25 60.01,125.04 62.24,122.35 59.52,122.7 
				56.44,126.43 60.38,129.24 			"/>
			<polygon class="st2" points="69.69,85.05 71.88,86.71 71.28,83.24 76.12,86.95 77.22,85.51 72.4,81.82 75.88,81.5 73.7,79.82 
				68.89,80.28 			"/>
			<polygon class="st2" points="69.34,137.59 63.73,139.9 65.18,136.75 62.65,137.79 60.63,142.18 65.16,143.87 67.7,142.82 
				64.39,141.59 70.03,139.26 			"/>
			<polygon class="st2" points="59.8,29.2 68.57,31.9 70.61,22.96 68.01,18.47 66.52,24.97 60.74,14.96 57.77,16.68 63.52,26.64 
				57.2,24.71 			"/>
			<polygon class="st2" points="50.53,134.7 45.41,131.48 42.58,136.83 43.47,140.13 45.53,136.24 47.5,143.61 49.69,143.02 
				47.73,135.7 51.42,138 			"/>
			<polygon class="st2" points="45.66,124.4 45.66,116.82 48.62,120.01 48.62,116.58 44.5,112.15 40.39,116.58 40.39,120.01 
				43.39,116.77 43.39,124.41 			"/>
			<polygon class="st2" points="48.63,93.25 43.52,96.47 42.63,99.77 46.36,97.43 44.38,104.79 46.57,105.38 48.54,98.06 
				50.58,101.9 51.46,98.59 			"/>
			<polygon class="st2" points="58.61,43.79 57.33,51.24 64.86,51.96 68.26,49.35 62.78,48.83 70.34,43.03 68.62,40.8 61.1,46.56 
				62,41.18 			"/>
			<polygon class="st2" points="17.08,151.87 21.95,144.1 13.85,139.82 8.83,141.16 14.73,144.29 3.57,147.28 4.46,150.6 
				15.57,147.61 12.05,153.22 			"/>
			<polygon class="st2" points="18.56,67.84 23.06,70.43 31.99,68.39 29.3,59.63 24.8,57.03 26.76,63.41 16.76,57.63 15.04,60.61 
				25,66.36 			"/>
			<polygon class="st2" points="37.73,159.96 40.36,152.87 38.72,148.92 36.81,154.08 33.16,145.28 30.55,146.37 34.17,155.12 
				29.22,152.85 30.86,156.81 			"/>
			<polygon class="st2" points="6.66,124.52 11.86,124.52 18.57,118.27 11.86,112.04 6.66,112.04 11.55,116.58 0,116.58 0,120.01 
				11.5,120.01 			"/>
			<polygon class="st2" points="8.88,95.38 13.9,96.74 22,92.45 17.13,84.68 12.11,83.35 15.66,89 4.5,86.01 3.61,89.33 14.72,92.3 
							"/>
			<polygon class="st2" points="35.05,43.72 38.72,47.39 47.88,47.73 47.54,38.58 43.86,34.91 44.11,41.58 35.94,33.41 33.51,35.83 
				41.65,43.96 			"/>
			<polygon class="st2" points="28.33,98.7 27.09,108.1 23.92,103.65 23.37,107.91 27.74,114.07 33.57,109.25 34.12,105 
				29.88,108.52 31.12,99.07 			"/>
			<polygon class="st2" points="43.94,58.4 41.34,61.81 42.04,69.34 49.5,68.06 52.1,64.67 46.67,65.6 52.47,58.02 50.23,56.32 
				44.46,63.84 			"/>
			<polygon class="st2" points="23.9,132.85 29.72,137.68 34.09,131.51 33.54,127.27 30.34,131.76 29.1,122.31 26.3,122.68 
				27.53,132.08 23.33,128.6 			"/>
			<path class="st2" d="M156.4,138.86l-19.96-18.06l-6.82,11.78l-4.02-2.02l3.38-7.91l-9.99-20.15l-21.63,35.33l-3.72-2.16
				l8.57-15.69l-6.36-4.44l-16.7,20.67c6.63,15.12,21.73,25.72,39.27,25.72C134.9,161.93,149.23,152.55,156.4,138.86z"/>
			<path class="st2" d="M161.29,119.05c0-23.65-19.24-42.88-42.88-42.88c-23.64,0-42.88,19.24-42.88,42.88
				c0,4.28,0.65,8.41,1.82,12.31l15.19-22.29l1.99-2.92l2.7,2.26l7.76,6.49l11.44-20.93l3.15-5.77l2.72,6.01l9.7,21.4l0.66-1.54
				l1.89-4.42l3.4,3.52l20.47,21.18C160.24,129.6,161.29,124.45,161.29,119.05z"/>
		</g>
		<g>
			<g>
				<path class="st2" d="M284.39,88.65h22.35c11.39,0,15.31-5.83,15.31-16.67V51.93c0-10.85-4.06-16.66-15.31-16.66h-22.35
					c-11.39,0-15.31,5.81-15.31,16.66v20.06C269.08,82.83,273,88.65,284.39,88.65z M281.82,51.66c0-3.52,2.3-4.2,5.42-4.2h16.8
					c3.12,0,5.42,0.68,5.42,4.2v20.61c0,3.52-2.3,4.2-5.42,4.2h-16.8c-3.12,0-5.42-0.68-5.42-4.2V51.66z"/>
				<path class="st2" d="M453.79,35.36h-34.14c-1.48,0-2.84,1.08-2.84,2.58V85.9c0,1.49,1.22,2.85,2.71,2.85h7.19
					c1.49,0,2.71-1.35,2.71-2.85V68.15h24.38c10.85,0,15.32-5.69,15.32-16.13C469.1,41.18,465.18,35.36,453.79,35.36z M450.67,55.96
					H429.4v-8.4h21.55c3.11,0,5.55,0.68,5.55,4.2C456.5,55.42,453.93,55.96,450.67,55.96z"/>
				<path class="st2" d="M395.91,72.69h-12.62c-0.19,3.12-2.4,3.77-5.38,3.77h-16.8c-3.12,0-5.42-0.68-5.42-4.2V51.66
					c0-3.52,2.3-4.2,5.42-4.2h16.8c2.98,0,5.19,0.65,5.38,3.77h12.62c-0.18-10.39-4.3-15.96-15.3-15.96h-22.35
					c-11.39,0-15.31,5.81-15.31,16.66v20.06c0,10.84,3.92,16.67,15.31,16.67h22.35C391.75,88.65,395.74,83.06,395.91,72.69z"/>
			</g>
			<g>
				<g>
					<g>
						<path class="st2" d="M288.29,146.02c-11.33,0-16.38-6.29-16.38-18.88c0-13.08,6.28-18.78,16.6-18.78
							c2.95,0,6.12,0.49,8.59,1.68c-0.16,0.87-0.59,2.12-0.91,2.93c-1.99-1.08-5.16-1.84-7.74-1.84c-8.38,0-13.27,3.64-13.27,16.23
							c0,12.7,4.89,15.9,13.32,15.9c1.67,0,4.35-0.38,6.39-1.36v-11.5h-8.43c-0.21-0.76-0.32-1.95-0.32-2.77h11.82v16.06
							C295.49,144.99,291.62,146.02,288.29,146.02z"/>
						<path class="st2" d="M329.6,145.48H310.9V108.9h3.06v33.86h16.01C329.97,143.58,329.86,144.5,329.6,145.48z"/>
						<path class="st2" d="M351.59,146.02c-9.4,0-14.39-6.29-14.39-18.61c0-12.43,5.16-19.05,14.39-19.05
							c9.4,0,14.34,6.29,14.34,18.83C365.93,139.78,360.45,146.02,351.59,146.02z M351.59,111.13c-7.3,0-11.12,4.07-11.12,16.06
							c0,11.12,3.22,16.06,11.12,16.06c7.68,0,11.06-4.72,11.06-16.06C362.65,115.36,358.84,111.13,351.59,111.13z"/>
						<path class="st2" d="M387.22,145.96c-2.09,0-5.59-0.27-9.13-0.76v-35.92c3.06-0.43,6.39-0.76,8.92-0.76
							c7.14,0,11.71,2.71,11.71,9.5c0,4.02-2.52,6.78-5.26,8.09v0.27c3.97,1.36,6.61,4.18,6.61,8.79
							C400.05,142.93,394.15,145.96,387.22,145.96z M387.54,111.02c-1.88,0-3.92,0.11-6.55,0.38v14h7.25c4.51,0,7.41-2.98,7.41-7.38
							C395.65,113.62,392.8,111.02,387.54,111.02z M388.67,127.84h-7.68v15.03c2.63,0.33,4.94,0.49,6.55,0.49
							c6.07,0,9.35-2.88,9.35-8.25C396.88,130.72,393.88,127.84,388.67,127.84z"/>
						<path class="st2" d="M433.04,145.75l-4.35-12.81h-14.18l-4.35,12.81c-0.81-0.05-1.88-0.22-2.63-0.54
							c3.65-11.67,8.06-24.2,12.73-36.3h2.9c4.3,11.61,8.86,24.64,12.73,36.3C435.19,145.48,434.01,145.69,433.04,145.75z
							 M422.19,113.73c-0.22-0.71-0.38-1.3-0.43-2.12h-0.27c-0.05,0.81-0.16,1.41-0.38,2.12l-5.75,16.71h12.46L422.19,113.73z"/>
						<path class="st2" d="M464.5,145.48h-18.69V108.9h3.06v33.86h16.01C464.88,143.58,464.77,144.5,464.5,145.48z"/>
						<path class="st2" d="M282.09,201.86c-2.83,0-6.6-0.42-9.27-1.64c0.11-0.79,0.47-2.06,0.79-2.75c2.99,1.32,5.6,1.69,8.64,1.69
							c4.98,0,7.7-2.27,7.7-6.56c0-8.99-17.23-8.25-17.23-18.15c0-5.98,4.5-9.31,11.05-9.31c2.25,0,5.45,0.26,7.33,0.74
							c0,0.48-0.31,2.12-0.63,2.91c-1.99-0.63-4.61-0.95-6.81-0.95c-6.44,0-8.01,2.64-8.01,6.19c0,7.83,17.23,7.09,17.23,18.36
							C292.87,197.63,289.1,201.86,282.09,201.86z"/>
						<path class="st2" d="M314.79,201.86c-7.65,0-11.78-2.75-11.78-14.34v-21.85h2.99v22.64c0,7.72,1.94,10.9,8.9,10.9
							c6.02,0,9.01-3.33,9.01-10.9v-22.64h2.72v21.85C326.62,196.41,324,201.86,314.79,201.86z"/>
						<path class="st2" d="M369.43,201.49l-2.51-29.31c-0.05-0.74-0.05-1.59-0.05-2.91h-0.26c-0.11,1.06-0.31,2.06-0.58,2.91
							l-9.59,29.15h-2.67l-9.38-29.15c-0.26-0.79-0.42-1.8-0.52-2.91h-0.26c0,1.27-0.05,2.33-0.11,2.91l-2.78,29.31
							c-0.73,0-1.88-0.11-2.56-0.32c0.89-11.69,2.15-23.54,3.51-35.5h3.3l9.32,28.62c0.31,0.95,0.63,2.38,0.84,3.76h0.26
							c0.16-1.38,0.42-2.8,0.73-3.81l9.43-28.57h3.4c1.31,11.9,2.46,23.86,3.25,35.5C371.37,201.38,370.32,201.49,369.43,201.49z"/>
						<path class="st2" d="M414.23,201.49l-2.51-29.31c-0.05-0.74-0.05-1.59-0.05-2.91h-0.26c-0.11,1.06-0.31,2.06-0.58,2.91
							l-9.59,29.15h-2.67l-9.38-29.15c-0.26-0.79-0.42-1.8-0.52-2.91h-0.26c0,1.27-0.05,2.33-0.11,2.91l-2.78,29.31
							c-0.73,0-1.88-0.11-2.56-0.32c0.89-11.69,2.15-23.54,3.51-35.5h3.3l9.32,28.62c0.31,0.95,0.63,2.38,0.84,3.76h0.26
							c0.16-1.38,0.42-2.8,0.73-3.81l9.43-28.57h3.4c1.31,11.9,2.46,23.86,3.25,35.5C416.17,201.38,415.12,201.49,414.23,201.49z"/>
						<path class="st2" d="M428.95,201.33v-35.66h2.99v35.66H428.95z"/>
						<path class="st2" d="M464.08,168.32h-9.9v33.01h-2.99v-33.01h-9.95v-2.65h23.2C464.45,166.52,464.34,167.42,464.08,168.32z"/>
					</g>
				</g>
			</g>
		</g>
	</g>
</g>
</svg>
