<?xml version="1.0" encoding="UTF-8"?><svg id="Icons" xmlns="http://www.w3.org/2000/svg" viewBox="0 0 196 196"><defs><style>.cls-1{fill:#8dc63f;stroke-width:0px;}</style></defs><polygon class="cls-1" points="82.39 54.48 87.03 53.24 85.56 55.58 87.66 55.02 89.7 51.77 86.31 49.98 84.22 50.55 86.69 51.85 82.02 53.1 82.39 54.48"/><polygon class="cls-1" points="76.99 67.07 73.96 66.57 73.67 69.62 74.73 70.99 74.94 68.77 77.3 71.83 78.2 71.13 75.86 68.09 78.04 68.45 76.99 67.07"/><polygon class="cls-1" points="82.52 65.89 83.29 63.8 84.77 67.37 85.83 66.93 84.36 63.38 86.37 64.3 85.7 62.7 82.92 61.41 81.85 64.28 82.52 65.89"/><polygon class="cls-1" points="113.48 130.11 112.71 132.2 111.23 128.63 110.17 129.07 111.64 132.63 109.63 131.71 110.3 133.31 113.08 134.59 114.15 131.72 113.48 130.11"/><polygon class="cls-1" points="94.19 51.93 98.99 51.93 96.97 53.81 99.14 53.81 101.95 51.2 99.14 48.59 96.97 48.59 99.02 50.5 94.18 50.5 94.19 51.93"/><polygon class="cls-1" points="93 131 92.5 134.81 91.22 133.01 90.99 134.73 92.77 137.22 95.13 135.27 95.36 133.55 93.64 134.98 94.14 131.14 93 131"/><polygon class="cls-1" points="101.82 144.08 97.01 144.07 99.03 142.2 96.86 142.2 94.05 144.81 96.86 147.41 99.03 147.41 96.98 145.51 101.82 145.51 101.82 144.08"/><polygon class="cls-1" points="103 65.01 103.5 61.2 104.78 63 105 61.27 103.23 58.78 100.87 60.73 100.64 62.45 102.36 61.02 101.86 64.86 103 65.01"/><polygon class="cls-1" points="104.87 134.75 104.65 133.02 103.35 134.85 102.85 131.01 101.71 131.16 102.22 134.98 100.51 133.57 100.74 135.29 103.1 137.24 104.87 134.75"/><polygon class="cls-1" points="89.76 143.49 85.12 142.25 87.56 140.96 85.46 140.39 82.07 142.19 84.11 145.44 86.21 145.99 84.72 143.63 89.39 144.88 89.76 143.49"/><polygon class="cls-1" points="84.64 128.58 83.16 132.13 82.39 130.06 81.73 131.67 82.79 134.53 85.58 133.26 86.25 131.65 84.21 132.59 85.69 129.01 84.64 128.58"/><polygon class="cls-1" points="77.18 124.07 74.83 127.13 74.63 124.93 73.57 126.3 73.86 129.35 76.88 128.84 77.94 127.46 75.73 127.84 78.08 124.77 77.18 124.07"/><polygon class="cls-1" points="119.35 33.85 120.2 30.67 116.62 32.92 118.51 25.84 116.41 25.29 114.52 32.32 112.56 28.62 111.71 31.81 114.43 36.94 119.35 33.85"/><polygon class="cls-1" points="103.79 44.27 106.48 44.62 104.25 41.94 110.24 42.72 110.47 40.95 104.52 40.16 107.33 38.16 104.64 37.81 100.73 40.58 103.79 44.27"/><polygon class="cls-1" points="91.12 61.26 91.35 62.98 92.65 61.16 93.15 64.99 94.29 64.84 93.79 61.02 95.49 62.43 95.26 60.71 92.9 58.76 91.12 61.26"/><polygon class="cls-1" points="76.78 33.82 81.7 36.9 84.41 31.77 83.56 28.59 81.58 32.33 79.69 25.26 77.59 25.83 79.48 32.86 75.93 30.64 76.78 33.82"/><polygon class="cls-1" points="92.38 44.25 89.52 42.22 95.51 41.44 95.28 39.67 89.32 40.45 91.53 37.78 88.83 38.14 85.78 41.82 89.68 44.6 92.38 44.25"/><polygon class="cls-1" points="102.02 30.51 102.02 27.22 99.14 30.32 99.14 23 96.96 23 96.96 30.29 94.11 27.22 94.11 30.51 98.07 34.77 102.02 30.51"/><polygon class="cls-1" points="106.24 52.51 110.88 53.76 108.44 55.05 110.54 55.61 113.93 53.82 111.89 50.57 109.79 50.01 111.28 52.38 106.61 51.12 106.24 52.51"/><polygon class="cls-1" points="119.99 41.58 115.5 43.24 117.5 47.6 120 48.64 118.55 45.46 124.13 47.77 124.81 46.12 119.26 43.82 122.5 42.61 119.99 41.58"/><polygon class="cls-1" points="111.37 67.43 112.84 63.87 113.61 65.95 114.27 64.34 113.21 61.47 110.42 62.75 109.75 64.35 111.79 63.42 110.31 66.99 111.37 67.43"/><polygon class="cls-1" points="118.82 71.93 121.17 68.88 121.37 71.08 122.43 69.7 122.15 66.65 119.12 67.16 118.06 68.54 120.26 68.17 117.92 71.23 118.82 71.93"/><polygon class="cls-1" points="121.81 54.7 122.64 57.37 118.45 54.95 117.74 56.19 121.89 58.6 119.2 59.21 121.08 60.3 124.82 59.45 123.69 55.78 121.81 54.7"/><polygon class="cls-1" points="155.06 110.47 155.84 104.51 157.84 107.33 158.19 104.64 155.42 100.73 151.73 103.79 151.38 106.48 154.07 104.26 153.28 110.24 155.06 110.47"/><polygon class="cls-1" points="128.44 130.06 128.3 133.89 132.13 133.75 133.67 132.21 130.88 132.31 134.29 128.9 133.28 127.88 129.88 131.28 129.98 128.52 128.44 130.06"/><polygon class="cls-1" points="150.89 50.79 146.66 50.95 151.84 45.76 150.3 44.23 145.14 49.39 145.3 45.2 142.97 47.53 142.76 53.34 148.56 53.12 150.89 50.79"/><polygon class="cls-1" points="113.61 141.52 108.97 142.76 110.44 140.42 108.34 140.99 106.3 144.23 109.69 146.02 111.78 145.47 109.31 144.16 113.98 142.91 113.61 141.52"/><polygon class="cls-1" points="135.87 145.26 136.67 140.53 131.9 140.09 129.75 141.74 133.22 142.07 128.43 145.74 129.53 147.17 134.29 143.51 133.72 146.91 135.87 145.26"/><polygon class="cls-1" points="132.13 112.84 130.06 113.61 131.66 114.27 134.54 113.2 133.26 110.42 131.65 109.76 132.58 111.78 129.01 110.3 128.57 111.37 132.13 112.84"/><polygon class="cls-1" points="134.75 91.12 133.02 91.35 134.85 92.65 131.01 93.15 131.16 94.29 134.97 93.79 133.56 95.49 135.29 95.26 137.25 92.9 134.75 91.12"/><polygon class="cls-1" points="129.07 85.84 132.63 84.36 131.7 86.37 133.31 85.7 134.59 82.92 131.72 81.85 130.11 82.52 132.2 83.29 128.63 84.77 129.07 85.84"/><polygon class="cls-1" points="161.3 66.09 157.19 65.14 163.52 61.48 162.44 59.6 156.12 63.24 157.35 59.25 154.5 60.89 152.79 66.44 158.45 67.73 161.3 66.09"/><polygon class="cls-1" points="162.18 76.78 159.1 81.7 164.23 84.41 167.41 83.56 163.67 81.58 170.74 79.68 170.18 77.59 163.14 79.47 165.36 75.93 162.18 76.78"/><polygon class="cls-1" points="157.86 88.83 154.17 85.77 151.4 89.69 151.76 92.37 153.78 89.53 154.56 95.51 156.34 95.28 155.56 89.33 158.22 91.52 157.86 88.83"/><polygon class="cls-1" points="153.45 73.65 149.1 71.66 147.43 76.15 148.47 78.65 149.68 75.38 151.99 80.96 153.65 80.27 151.35 74.73 154.49 76.16 153.45 73.65"/><polygon class="cls-1" points="78.65 47.53 75.38 46.32 80.96 44.01 80.27 42.36 74.72 44.66 76.16 41.51 73.65 42.55 71.65 46.91 76.15 48.57 78.65 47.53"/><polygon class="cls-1" points="134.73 105 137.23 103.24 135.27 100.87 133.55 100.65 134.97 102.36 131.14 101.86 130.99 103 134.81 103.5 133.01 104.78 134.73 105"/><polygon class="cls-1" points="128.52 66.03 130.06 67.56 133.89 67.7 133.74 63.87 132.21 62.33 132.31 65.13 128.9 61.71 127.88 62.72 131.28 66.12 128.52 66.03"/><polygon class="cls-1" points="135.22 41.56 136.87 38.71 132.82 39.96 136.49 33.61 134.6 32.53 130.96 38.84 130.03 34.76 128.38 37.61 129.67 43.27 135.22 41.56"/><polygon class="cls-1" points="119.02 128.93 122.04 129.44 122.33 126.39 121.26 125.01 121.06 127.23 118.7 124.17 117.79 124.86 120.14 127.92 117.96 127.55 119.02 128.93"/><polygon class="cls-1" points="136 50.84 133.84 49.19 129.08 49.63 129.88 54.36 132.03 56.01 131.45 52.57 136.24 56.25 137.33 54.83 132.56 51.17 136 50.84"/><polygon class="cls-1" points="124.16 77.3 124.86 78.21 127.92 75.86 127.55 78.04 128.93 76.98 129.43 73.97 126.38 73.67 125.01 74.74 127.23 74.95 124.16 77.3"/><polygon class="cls-1" points="140.98 87.66 144.23 89.7 146.02 86.32 145.46 84.22 144.15 86.69 142.9 82.02 141.52 82.39 142.76 87.04 140.42 85.57 140.98 87.66"/><polygon class="cls-1" points="145.43 111.89 145.99 109.79 143.63 111.28 144.87 106.61 143.49 106.24 142.25 110.88 140.95 108.44 140.39 110.55 142.19 113.93 145.43 111.89"/><polygon class="cls-1" points="141.31 121.81 138.63 122.64 141.05 118.45 139.81 117.74 137.41 121.9 136.79 119.21 135.7 121.09 136.56 124.82 140.22 123.69 141.31 121.81"/><polygon class="cls-1" points="142.07 62.78 145.74 67.56 147.17 66.48 143.51 61.71 146.91 62.28 145.26 60.13 140.54 59.33 140.08 64.1 141.74 66.25 142.07 62.78"/><polygon class="cls-1" points="135.99 71.66 138.39 75.82 135.76 75.01 136.84 76.89 140.51 78.02 141.36 74.28 140.27 72.41 139.65 75.13 137.24 70.94 135.99 71.66"/><polygon class="cls-1" points="147.41 96.97 145.51 99.02 145.51 94.18 144.07 94.18 144.07 98.99 142.2 96.97 142.2 99.14 144.8 101.94 147.41 99.14 147.41 96.97"/><polygon class="cls-1" points="41.58 76.01 43.24 80.5 47.6 78.5 48.63 75.99 45.46 77.45 47.77 71.87 46.12 71.19 43.82 76.74 42.61 73.51 41.58 76.01"/><polygon class="cls-1" points="76.01 154.43 80.5 152.76 78.5 148.4 76 147.37 77.45 150.54 71.87 148.23 71.19 149.89 76.74 152.18 73.5 153.39 76.01 154.43"/><polygon class="cls-1" points="103.63 151.75 106.48 153.77 100.49 154.56 100.72 156.33 106.68 155.55 104.48 158.22 107.17 157.86 110.23 154.17 106.32 151.4 103.63 151.75"/><polygon class="cls-1" points="71.84 118.7 71.14 117.8 68.09 120.14 68.45 117.96 67.08 119.01 66.57 122.04 69.62 122.33 70.99 121.26 68.77 121.07 71.84 118.7"/><polygon class="cls-1" points="76.66 162.14 75.8 165.33 79.39 163.08 77.49 170.15 79.59 170.71 81.48 163.68 83.44 167.37 84.29 164.19 81.57 159.06 76.66 162.14"/><polygon class="cls-1" points="92.21 151.73 89.52 151.38 91.75 154.06 85.76 153.29 85.53 155.05 91.49 155.84 88.67 157.85 91.36 158.19 95.27 155.43 92.21 151.73"/><polygon class="cls-1" points="93.98 165.48 93.98 168.78 96.86 165.68 96.86 173 99.04 173 99.04 165.71 101.89 168.78 101.89 165.48 97.93 161.23 93.98 165.48"/><polygon class="cls-1" points="74.19 141.3 73.37 138.64 77.55 141.05 78.27 139.81 74.11 137.4 76.8 136.79 74.91 135.7 71.18 136.56 72.31 140.22 74.19 141.3"/><polygon class="cls-1" points="53.93 133.23 50.26 128.43 48.84 129.53 52.5 134.29 49.09 133.71 50.74 135.87 55.46 136.68 55.91 131.9 54.26 129.75 53.93 133.23"/><polygon class="cls-1" points="75.82 57.61 75.01 60.25 76.89 59.16 78.02 55.49 74.28 54.64 72.4 55.73 75.13 56.35 70.94 58.77 71.66 60.01 75.82 57.61"/><polygon class="cls-1" points="60 145.16 62.15 146.81 66.92 146.36 66.12 141.64 63.97 139.99 64.55 143.43 59.76 139.76 58.67 141.18 63.44 144.83 60 145.16"/><polygon class="cls-1" points="60.78 154.43 59.13 157.28 63.18 156.04 59.51 162.38 61.4 163.47 65.04 157.16 65.98 161.24 67.63 158.39 66.33 152.73 60.78 154.43"/><polygon class="cls-1" points="67.48 129.98 65.94 128.44 62.12 128.31 62.26 132.13 63.79 133.67 63.69 130.88 67.1 134.3 68.12 133.28 64.72 129.88 67.48 129.98"/><polygon class="cls-1" points="167.37 112.56 164.19 111.71 159.06 114.43 162.14 119.34 165.33 120.2 163.08 116.61 170.15 118.51 170.71 116.41 163.68 114.52 167.37 112.56"/><polygon class="cls-1" points="150.8 145.3 148.47 142.97 142.66 142.76 142.88 148.56 145.21 150.89 145.06 146.65 150.23 151.84 151.77 150.3 146.62 145.15 150.8 145.3"/><polygon class="cls-1" points="154.42 120 152.76 115.5 148.41 117.49 147.37 120 150.54 118.55 148.23 124.13 149.88 124.81 152.18 119.26 153.39 122.5 154.42 120"/><polygon class="cls-1" points="161.24 130.03 158.39 128.38 152.73 129.68 154.44 135.22 157.29 136.87 156.05 132.82 162.39 136.48 163.47 134.6 157.16 130.96 161.24 130.03"/><polygon class="cls-1" points="165.72 96.97 168.78 94.11 165.49 94.11 161.23 98.06 165.49 102.01 168.78 102.01 165.68 99.14 173 99.14 173 96.97 165.72 96.97"/><polygon class="cls-1" points="119.23 162.18 114.3 159.09 111.59 164.23 112.44 167.41 114.42 163.68 116.32 170.74 118.41 170.18 116.52 163.13 120.07 165.36 119.23 162.18"/><polygon class="cls-1" points="45.11 145.2 49.34 145.06 44.17 150.23 45.7 151.77 50.86 146.61 50.7 150.8 53.03 148.47 53.24 142.66 47.44 142.87 45.11 145.2"/><polygon class="cls-1" points="120.18 138.39 120.99 135.76 119.11 136.84 117.98 140.51 121.72 141.36 123.6 140.27 120.87 139.65 125.06 137.24 124.34 136 120.18 138.39"/><polygon class="cls-1" points="117.35 148.46 120.62 149.68 115.04 151.99 115.72 153.65 121.28 151.35 119.84 154.49 122.34 153.45 124.35 149.09 119.85 147.43 117.35 148.46"/><polygon class="cls-1" points="135.11 154.5 129.56 152.79 128.27 158.45 129.91 161.31 130.86 157.18 134.52 163.52 136.4 162.43 132.75 156.12 136.76 157.35 135.11 154.5"/><polygon class="cls-1" points="128.85 119.12 127.47 118.06 127.84 120.27 124.77 117.91 124.07 118.82 127.12 121.17 124.93 121.38 126.3 122.43 129.35 122.14 128.85 119.12"/><polygon class="cls-1" points="145.16 136 146.81 133.85 146.36 129.08 141.64 129.88 139.99 132.03 143.43 131.45 139.76 136.24 141.18 137.33 144.83 132.56 145.16 136"/><polygon class="cls-1" points="60.01 124.34 57.6 120.19 60.24 121 59.16 119.11 55.49 117.99 54.64 121.72 55.73 123.6 56.35 120.88 58.76 125.06 60.01 124.34"/><polygon class="cls-1" points="67.56 65.95 67.7 62.11 63.87 62.26 62.33 63.79 65.13 63.69 61.71 67.1 62.72 68.12 66.12 64.72 66.02 67.49 67.56 65.95"/><polygon class="cls-1" points="61.27 91 58.78 92.77 60.73 95.13 62.45 95.36 61.02 93.64 64.85 94.14 65.01 93.01 61.19 92.51 62.99 91.22 61.27 91"/><polygon class="cls-1" points="34.7 129.91 38.82 130.86 32.48 134.52 33.56 136.4 39.88 132.75 38.64 136.75 41.5 135.11 43.21 129.56 37.55 128.26 34.7 129.91"/><polygon class="cls-1" points="63.87 83.16 65.94 82.39 64.34 81.73 61.47 82.79 62.74 85.58 64.35 86.25 63.41 84.22 66.99 85.69 67.42 84.63 63.87 83.16"/><polygon class="cls-1" points="58.59 74.11 59.21 76.8 60.29 74.92 59.44 71.18 55.78 72.31 54.69 74.19 57.36 73.37 54.95 77.55 56.19 78.27 58.59 74.11"/><polygon class="cls-1" points="62.98 104.65 61.16 103.36 64.99 102.84 64.84 101.72 61.02 102.22 62.43 100.52 60.71 100.74 58.76 103.1 61.26 104.88 62.98 104.65"/><polygon class="cls-1" points="67.16 76.88 68.54 77.93 68.16 75.74 71.23 78.09 71.93 77.18 68.87 74.84 71.08 74.63 69.7 73.57 66.65 73.86 67.16 76.88"/><polygon class="cls-1" points="66.93 110.17 63.38 111.64 64.3 109.64 62.69 110.3 61.41 113.08 64.29 114.15 65.89 113.48 63.8 112.71 67.37 111.23 66.93 110.17"/><polygon class="cls-1" points="60.89 41.5 66.44 43.21 67.74 37.55 66.09 34.7 65.14 38.82 61.49 32.48 59.6 33.56 63.25 39.88 59.24 38.65 60.89 41.5"/><polygon class="cls-1" points="55.01 108.34 51.77 106.3 49.98 109.69 50.54 111.78 51.85 109.31 53.1 113.98 54.48 113.61 53.24 108.97 55.58 110.43 55.01 108.34"/><polygon class="cls-1" points="51.93 101.82 51.93 97.01 53.81 99.03 53.8 96.86 51.2 94.05 48.59 96.86 48.59 99.03 50.49 96.98 50.49 101.82 51.93 101.82"/><polygon class="cls-1" points="53.81 82.08 50.57 84.12 50.01 86.21 52.37 84.73 51.12 89.39 52.51 89.76 53.75 85.12 55.05 87.56 55.6 85.46 53.81 82.08"/><polygon class="cls-1" points="60.13 50.74 59.32 55.46 64.1 55.92 66.25 54.27 62.77 53.94 67.56 50.26 66.47 48.84 61.71 52.49 62.28 49.09 60.13 50.74"/><polygon class="cls-1" points="33.82 119.22 36.9 114.3 31.77 111.58 28.6 112.44 32.33 114.42 25.26 116.31 25.82 118.41 32.86 116.52 30.64 120.08 33.82 119.22"/><polygon class="cls-1" points="34.76 65.98 37.61 67.62 43.27 66.32 41.56 60.78 38.71 59.13 39.96 63.17 33.62 59.51 32.53 61.4 38.84 65.04 34.76 65.98"/><polygon class="cls-1" points="46.91 124.34 48.57 119.86 47.53 117.35 46.32 120.62 44.01 115.04 42.35 115.73 44.65 121.28 41.51 119.84 42.55 122.35 46.91 124.34"/><polygon class="cls-1" points="27.22 101.89 30.51 101.89 34.77 97.93 30.52 93.98 27.22 93.98 30.32 96.86 23 96.86 23 99.03 30.29 99.03 27.22 101.89"/><polygon class="cls-1" points="28.63 83.43 31.81 84.29 36.94 81.57 33.85 76.65 30.67 75.81 32.92 79.39 25.85 77.49 25.29 79.59 32.33 81.47 28.63 83.43"/><polygon class="cls-1" points="45.2 50.7 47.53 53.02 53.34 53.24 53.12 47.44 50.79 45.11 50.95 49.34 45.77 44.17 44.23 45.7 49.39 50.85 45.2 50.7"/><polygon class="cls-1" points="40.95 85.53 40.16 91.49 38.16 88.67 37.81 91.36 40.57 95.27 44.27 92.22 44.62 89.53 41.93 91.76 42.72 85.77 40.95 85.53"/><polygon class="cls-1" points="50.84 60 49.19 62.16 49.63 66.93 54.36 66.12 56.01 63.97 52.57 64.56 56.24 59.76 54.83 58.68 51.17 63.45 50.84 60"/><polygon class="cls-1" points="38.14 107.17 41.83 110.23 44.6 106.32 44.25 103.63 42.22 106.48 41.43 100.49 39.66 100.72 40.44 106.68 37.78 104.48 38.14 107.17"/><path class="cls-1" d="m122.09,110.98l-12.65-11.44-4.32,7.46-2.55-1.28,2.14-5.01-6.33-12.77-13.71,22.38-2.36-1.37,5.43-9.94-4.03-2.81-10.58,13.1c4.2,9.58,13.77,16.29,24.88,16.29,10.45,0,19.53-5.94,24.07-14.62Z"/><path class="cls-1" d="m125.19,98.43c0-14.98-12.19-27.17-27.17-27.17s-27.17,12.19-27.17,27.17c0,2.71.41,5.33,1.15,7.8l9.62-14.12,1.26-1.85,1.71,1.43,4.92,4.11,7.25-13.26,2-3.66,1.73,3.81,6.14,13.56.42-.97,1.2-2.8,2.15,2.23,12.97,13.42c1.16-3.02,1.82-6.28,1.82-9.7Z"/></svg>